<svg width="200" height="150" viewBox="0 0 200 150" fill="none" xmlns="http://www.w3.org/2000/svg">
<path d="M119.925 77.3003C120.586 77.484 121.292 77.4187 121.908 77.1169C122.525 76.8151 123.009 76.2978 123.269 75.6628C123.529 75.0279 123.548 74.3195 123.321 73.6719C123.094 73.0244 122.637 72.4826 122.037 72.1492L116.087 65.399L111.055 66.4863L118.133 73.4191C117.959 73.7877 117.868 74.1899 117.866 74.5975C117.864 75.0051 117.952 75.4081 118.123 75.7781C118.294 76.1482 118.544 76.4763 118.855 76.7392C119.166 77.0022 119.532 77.1937 119.925 77.3003L119.925 77.3003Z" fill="#A0616A"/>
<path d="M100.348 53.1341L115.177 71.7488L119.698 69.6735L102.267 42.5367L100.348 53.1341Z" fill="#3F3D56"/>
<path d="M157.517 117.469C158.446 115.666 157.942 113.391 156.785 111.725C155.628 110.059 153.92 108.871 152.249 107.721L149.926 106.121L151.035 111.691C151.41 113.574 151.872 115.607 153.342 116.842C153.92 117.315 154.609 117.632 155.345 117.761C156.08 117.891 156.837 117.829 157.541 117.581" fill="#F9A826"/>
<path d="M157.343 124.324C157.331 124.366 157.302 124.403 157.264 124.424C157.225 124.446 157.18 124.452 157.137 124.441C157.095 124.428 157.06 124.399 157.038 124.361C157.016 124.323 157.01 124.278 157.02 124.235C157.15 123.292 157.278 122.348 157.339 121.398C157.44 119.827 157.347 118.214 156.765 116.735C156.238 115.405 155.303 114.276 154.094 113.512C153.912 113.397 154.08 113.109 154.262 113.223C154.961 113.664 155.578 114.223 156.085 114.875C157.04 116.106 157.509 117.608 157.655 119.145C157.82 120.877 157.578 122.611 157.343 124.324L157.343 124.324Z" fill="#3F3D56"/>
<path d="M133.699 113.746C141.018 118.25 138.579 124.256 138.579 124.256L133.699 113.746Z" fill="#F9A826"/>
<path d="M148.083 119.903C142.322 119.866 141.578 124.147 141.578 124.147L148.083 119.903Z" fill="#F9A826"/>
<path d="M65.4 124.611C66.2983 124.611 67.0265 123.882 67.0265 122.984C67.0265 122.086 66.2983 121.358 65.4 121.358C64.5017 121.358 63.7734 122.086 63.7734 122.984C63.7734 123.882 64.5017 124.611 65.4 124.611Z" fill="#3F3D56"/>
<path d="M66.5844 90.2321C66.5844 90.2321 70.4289 78.5507 70.7246 77.7374C71.0204 76.9242 74.1255 78.255 74.9388 78.4768C75.7521 78.6986 75.5303 79.5118 75.5303 79.5118L71.3901 91.4889L72.6469 92.0804L76.4914 80.0293C78.7094 77.7374 77.0829 77.5896 77.0829 77.5896C77.0829 77.5896 72.3512 75.963 70.5768 75.8152C68.8024 75.6673 69.4678 77.8114 69.4678 77.8114L65.1797 89.197L66.5844 90.2321Z" fill="#3F3D56"/>
<path d="M75.824 93.0415L75.8233 93.0407C75.2778 92.2585 74.5031 91.6647 73.606 91.341C73.5742 91.3292 73.5373 91.3159 73.4951 91.3011C71.4583 90.5891 57.2669 86.7572 57.2669 86.7572C57.2669 86.7572 54.4575 85.7222 53.2006 88.5316C51.9438 91.341 44.4766 114.63 44.4766 114.63C44.4766 114.63 59.0812 122.44 63.339 123.29C63.6019 123.354 63.8731 123.375 64.1427 123.354C64.8664 123.254 65.5787 123.083 66.2697 122.846C67.0339 122.597 67.7609 122.246 68.4308 121.801L76.7112 97.0339C76.7112 97.0339 77.8942 94.2984 75.824 93.0415Z" fill="#F9A826"/>
<path d="M75.8288 93.0415L75.828 93.0408C75.2825 92.2585 74.5079 91.6647 73.6108 91.3411C73.579 91.3292 73.542 91.3159 73.4999 91.3011C74.1697 92.4752 74.424 94.2984 74.424 94.2984C74.424 94.2984 66.2914 118.474 65.5521 120.766C64.9888 122.513 63.8524 123.107 63.3438 123.29C63.6066 123.354 63.8778 123.375 64.1474 123.354C64.8711 123.254 65.5835 123.084 66.2745 122.846C66.4765 122.614 66.6556 122.364 66.809 122.097C66.809 122.097 75.0895 97.3296 75.8288 96.1467C76.5681 94.9637 75.8288 93.0415 75.8288 93.0415Z" fill="#3F3D56"/>
<path d="M60.4117 124.648C61.31 124.648 62.0382 123.92 62.0382 123.021C62.0382 122.123 61.31 121.395 60.4117 121.395C59.5134 121.395 58.7852 122.123 58.7852 123.021C58.7852 123.92 59.5134 124.648 60.4117 124.648Z" fill="#3F3D56"/>
<path d="M44.6265 117.809C45.5248 117.809 46.253 117.081 46.253 116.183C46.253 115.284 45.5248 114.556 44.6265 114.556C43.7282 114.556 43 115.284 43 116.183C43 117.081 43.7282 117.809 44.6265 117.809Z" fill="#3F3D56"/>
<path d="M73.2976 78.7275C72.6434 78.9346 71.9359 78.8945 71.3092 78.6149C70.6826 78.3352 70.1803 77.8354 69.8975 77.2101C69.6147 76.5849 69.5711 75.8776 69.775 75.2223C69.9788 74.5671 70.416 74.0094 71.0035 73.6549L76.7092 66.697L81.7772 67.6043L74.9506 74.7848C75.1376 75.147 75.243 75.5458 75.2592 75.953C75.2754 76.3603 75.2022 76.7662 75.0446 77.1421C74.887 77.518 74.6489 77.8547 74.347 78.1286C74.0452 78.4026 73.687 78.607 73.2976 78.7275L73.2976 78.7275Z" fill="#A0616A"/>
<path d="M112.188 109.343L115.722 109.287L115.297 121.334H112.188L112.188 109.343Z" fill="#A0616A"/>
<path d="M111.391 120.319L117.513 120.318H117.513C118.548 120.319 119.54 120.73 120.272 121.461C121.004 122.193 121.415 123.185 121.415 124.22V124.347L111.391 124.347L111.391 120.319Z" fill="#2F2E41"/>
<path d="M88.7827 106.148L92.6436 108.627L84.9207 117.918L82.3047 116.238L88.7827 106.148Z" fill="#A0616A"/>
<path d="M82.1841 114.956L87.336 118.263L87.3362 118.263C88.2069 118.823 88.8198 119.705 89.0402 120.716C89.2606 121.727 89.0704 122.784 88.5114 123.654L88.4429 123.761L80.0078 118.346L82.1841 114.956Z" fill="#2F2E41"/>
<path d="M87.4086 69.3643C87.4086 69.3643 95.987 40.8726 98.7438 40.4876C101.501 40.1026 105.943 47.7982 105.943 47.7982C111.702 55.1462 117.64 78.9479 117.64 78.9479C117.64 78.9479 107.74 79.5674 100.504 83.4176C93.2669 87.2679 84.7266 83.2227 84.7266 83.2227L87.4086 69.3643Z" fill="#3F3D56"/>
<path opacity="0.1" d="M87.4086 69.3642C87.4086 69.3642 95.987 40.8725 98.7438 40.4875C101.501 40.1025 104.814 47.8762 104.814 47.8762C107.684 59.7376 117.64 78.9478 117.64 78.9478C117.64 78.9478 107.74 79.5673 100.504 83.4175C93.2669 87.2678 84.7266 83.2226 84.7266 83.2226L87.4086 69.3642Z" fill="black"/>
<path d="M94.4464 60.8397V75.1566L92.7615 95.8956L84.3438 111.583L88.3613 114.453L99.8401 99.5306L104.38 84.7136L111.51 117.514L116.867 117.131L113.147 71.6542L106.087 58.8535L94.4464 60.8397Z" fill="#2F2E41"/>
<path d="M103.09 46.9921C105.769 49.6704 103.282 52.5401 103.282 52.5401L106.343 59.4274L94.2901 62.6797L90.0781 43.8587L92.9478 40.7977C98.6872 40.6064 98.6903 40.4874 98.6903 40.4874C99.6959 41.4715 103.09 46.9921 103.09 46.9921Z" fill="#CCCCCC"/>
<path d="M89.5307 41.9578C88.5344 42.6906 87.8355 43.758 87.5622 44.9642C87.2889 46.1705 87.4596 47.4348 88.0428 48.5254C89.4237 51.1613 90.909 55.2444 90.1431 59.7268C88.7572 67.8389 84.3145 74.0021 81.8397 75.9814C80.9782 76.6704 80.9481 77.6739 81.0746 78.3943C81.4279 80.407 83.3794 82.691 84.7291 83.1489C84.82 83.179 84.9152 83.194 85.011 83.1932C87.2038 83.1939 92.5977 76.2101 98.796 62.5677C102.656 54.0714 99.8546 47.2589 96.8246 43.0401C96.4269 42.488 95.9235 42.0204 95.3438 41.6643C94.764 41.3082 94.1194 41.0707 93.4472 40.9654C92.775 40.8602 92.0886 40.8894 91.4277 41.0514C90.7669 41.2133 90.1447 41.5047 89.5973 41.9088L89.5307 41.9578Z" fill="#3F3D56"/>
<path d="M95.2479 50.1719L77.8415 73.0106L73.25 71.0975L89.7029 43.3572L95.2479 50.1719Z" fill="#3F3D56"/>
<path d="M100.413 38.0079H88.4406C88.1943 38.0076 87.9582 37.9097 87.7841 37.7355C87.61 37.5614 87.512 37.3253 87.5117 37.079V31.9186C87.5112 31.0102 87.6898 30.1106 88.037 29.2712C88.3843 28.4319 88.8936 27.6691 89.5358 27.0266C90.1779 26.3841 90.9404 25.8745 91.7796 25.5267C92.6188 25.179 93.5183 25 94.4267 25C95.3351 25 96.2346 25.179 97.0738 25.5267C97.913 25.8745 98.6754 26.3841 99.3176 27.0266C99.9597 27.6691 100.469 28.4319 100.816 29.2712C101.164 30.1106 101.342 31.0102 101.342 31.9186V37.079C101.341 37.3253 101.243 37.5614 101.069 37.7355C100.895 37.9097 100.659 38.0076 100.413 38.0079V38.0079Z" fill="#2F2E41"/>
<path d="M100.294 35.2496C101.637 32.7928 100.734 29.7124 98.2769 28.3693C95.8201 27.0263 92.7397 27.9292 91.3966 30.3861C90.0536 32.8429 90.9565 35.9233 93.4134 37.2664C95.8702 38.6094 98.9506 37.7065 100.294 35.2496Z" fill="#A0616A"/>
<path d="M102.976 32.4346H95.6554L95.5803 31.3835L95.205 32.4346H94.0777L93.929 30.3515L93.185 32.4346H91.0039V32.3314C91.0055 30.8811 91.5823 29.4908 92.6078 28.4653C93.6333 27.4398 95.0237 26.863 96.4739 26.8613H97.506C98.9563 26.863 100.347 27.4398 101.372 28.4653C102.398 29.4907 102.974 30.8811 102.976 32.3314V32.4346Z" fill="#2F2E41"/>
<path d="M95.5952 38.9712C95.5401 38.9711 95.4851 38.9663 95.4308 38.9567L90.0703 38.0109V29.1515H95.9712L95.8251 29.3218C93.7925 31.6924 95.3239 35.5363 96.4176 37.6166C96.4982 37.7689 96.5341 37.941 96.5213 38.1129C96.5084 38.2848 96.4472 38.4495 96.3448 38.5882C96.2591 38.7068 96.1464 38.8033 96.0161 38.8699C95.8858 38.9365 95.7416 38.9712 95.5952 38.9712Z" fill="#2F2E41"/>
</svg>
