<svg width="200" height="150" viewBox="0 0 200 150" fill="none" xmlns="http://www.w3.org/2000/svg">
<path d="M54.801 118.459H54.4384C54.4384 113.94 52.6434 109.606 49.4481 106.411C46.2529 103.216 41.9192 101.421 37.4005 101.421C32.8817 101.421 28.5481 103.216 25.3528 106.411C22.1576 109.606 20.3625 113.94 20.3625 118.459H20C20 113.844 21.8333 109.418 25.0965 106.155C28.3597 102.892 32.7856 101.058 37.4005 101.058C42.0154 101.058 46.4413 102.892 49.7045 106.155C52.9677 109.418 54.801 113.844 54.801 118.459V118.459Z" fill="#3F3D56"/>
<path d="M180.953 118.459H180.591C180.591 113.94 178.796 109.606 175.6 106.411C172.405 103.216 168.072 101.421 163.553 101.421C159.034 101.421 154.7 103.216 151.505 106.411C148.31 109.606 146.515 113.94 146.515 118.459H146.152C146.152 113.844 147.986 109.418 151.249 106.155C154.512 102.892 158.938 101.058 163.553 101.058C168.168 101.058 172.594 102.892 175.857 106.155C179.12 109.418 180.953 113.844 180.953 118.459V118.459Z" fill="#3F3D56"/>
<path d="M138.358 76.9513H137.995C137.995 59.7609 124.01 45.7755 106.82 45.7755C89.6292 45.7755 75.6438 59.7609 75.6438 76.9513H75.2812C75.2812 59.561 89.4293 45.413 106.82 45.413C124.21 45.413 138.358 59.561 138.358 76.9513Z" fill="#3F3D56"/>
<path d="M46.3744 46.3191C50.3285 46.3191 53.534 43.1137 53.534 39.1596C53.534 35.2054 50.3285 32 46.3744 32C42.4203 32 39.2148 35.2054 39.2148 39.1596C39.2148 43.1137 42.4203 46.3191 46.3744 46.3191Z" fill="#FF6584"/>
<path d="M47.8945 88.4401L60.1947 73.7916H84.3775L99.156 88.1862L98.8575 88.3781H98.964V118.319H47.9114V88.3781L47.8945 88.4401Z" fill="#3F3D56"/>
<path d="M55.2977 82.0715H58.0859V72.4199H55.2977V82.0715Z" fill="#3F3D56"/>
<path d="M60.0017 73.5996L75.1638 91.3758V118.319H47.9102V87.9942L60.0017 73.5996Z" fill="#F9A826"/>
<path d="M71.6596 94.9032H66.0938V100.594H71.6596V94.9032Z" fill="#3F3D56"/>
<path d="M71.6596 102.647H66.0938V108.338H71.6596V102.647Z" fill="#3F3D56"/>
<path d="M71.6596 94.9032H66.0938V100.594H71.6596V94.9032Z" fill="white"/>
<path d="M71.6596 102.647H66.0938V108.338H71.6596V102.647Z" fill="white"/>
<path d="M63.9643 94.9032H58.3984V100.594H63.9643V94.9032Z" fill="#3F3D56"/>
<path d="M63.9643 102.647H58.3984V108.338H63.9643V102.647Z" fill="#3F3D56"/>
<path d="M63.9643 94.9032H58.3984V100.594H63.9643V94.9032Z" fill="white"/>
<path d="M63.9643 102.647H58.3984V108.338H63.9643V102.647Z" fill="white"/>
<path d="M56.2651 94.9032H50.6992V100.594H56.2651V94.9032Z" fill="#3F3D56"/>
<path d="M56.2651 102.647H50.6992V108.338H56.2651V102.647Z" fill="#3F3D56"/>
<path d="M56.2651 94.9032H50.6992V100.594H56.2651V94.9032Z" fill="white"/>
<path d="M56.2651 102.647H50.6992V108.338H56.2651V102.647Z" fill="white"/>
<path d="M110.444 39.2502H107.906V45.5942H110.444V39.2502Z" fill="#F9A826"/>
<path d="M110.265 45.0503H88.6953V118.459H110.265V45.0503Z" fill="#F9A826"/>
<path d="M118.966 45.0503H110.266V118.459H118.966V45.0503Z" fill="#3F3D56"/>
<path d="M95.8563 51.3944H92.5938V54.657H95.8563V51.3944Z" fill="white"/>
<path d="M101.11 51.3944H97.8477V54.657H101.11V51.3944Z" fill="white"/>
<path d="M106.368 51.3944H103.105V54.657H106.368V51.3944Z" fill="white"/>
<path d="M95.9423 58.8256H92.6797V62.0882H95.9423V58.8256Z" fill="white"/>
<path d="M101.204 58.8256H97.9414V62.0882H101.204V58.8256Z" fill="white"/>
<path d="M106.458 58.8256H103.195V62.0882H106.458V58.8256Z" fill="white"/>
<path d="M96.036 66.2572H92.7734V69.5198H96.036V66.2572Z" fill="white"/>
<path d="M101.29 66.2572H98.0273V69.5198H101.29V66.2572Z" fill="white"/>
<path d="M106.548 66.2572H103.285V69.5198H106.548V66.2572Z" fill="white"/>
<path d="M96.1259 73.6887H92.8633V76.9513H96.1259V73.6887Z" fill="white"/>
<path d="M101.384 73.6887H98.1211V76.9513H101.384V73.6887Z" fill="white"/>
<path d="M106.641 73.6887H103.379V76.9513H106.641V73.6887Z" fill="white"/>
<path d="M96.2157 81.1204H92.9531V84.383H96.2157V81.1204Z" fill="white"/>
<path d="M101.474 81.1204H98.2109V84.383H101.474V81.1204Z" fill="white"/>
<path d="M106.731 81.1204H103.469V84.383H106.731V81.1204Z" fill="white"/>
<path d="M96.3056 88.5514H93.043V91.814H96.3056V88.5514Z" fill="white"/>
<path d="M101.567 88.5514H98.3047V91.814H101.567V88.5514Z" fill="white"/>
<path d="M106.821 88.5514H103.559V91.814H106.821V88.5514Z" fill="white"/>
<path d="M96.3993 95.983H93.1367V99.2456H96.3993V95.983Z" fill="white"/>
<path d="M101.657 95.983H98.3945V99.2456H101.657V95.983Z" fill="white"/>
<path d="M106.915 95.983H103.652V99.2456H106.915V95.983Z" fill="white"/>
<path d="M96.4931 103.415H93.2305V106.677H96.4931V103.415Z" fill="white"/>
<path d="M101.747 103.415H98.4844V106.677H101.747V103.415Z" fill="white"/>
<path d="M101.747 112.115H98.4844V118.277H101.747V112.115Z" fill="white"/>
<path d="M107.001 103.415H103.738V106.677H107.001V103.415Z" fill="white"/>
<path d="M111.716 39.2502H110.266V45.4129H111.716V39.2502Z" fill="#3F3D56"/>
<path d="M137.635 71.5134H135.098V75.2733H137.635V71.5134Z" fill="#F9A826"/>
<path d="M137.452 74.9514H115.883V118.459H137.452V74.9514Z" fill="#F9A826"/>
<path d="M146.157 74.9514H137.457V118.459H146.157V74.9514Z" fill="#3F3D56"/>
<path d="M123.403 81.1204H120.141V84.383H123.403V81.1204Z" fill="white"/>
<path d="M128.661 81.1204H125.398V84.383H128.661V81.1204Z" fill="white"/>
<path d="M133.919 81.1204H130.656V84.383H133.919V81.1204Z" fill="white"/>
<path d="M123.497 88.5514H120.234V91.814H123.497V88.5514Z" fill="white"/>
<path d="M128.751 88.5514H125.488V91.814H128.751V88.5514Z" fill="white"/>
<path d="M134.009 88.5514H130.746V91.814H134.009V88.5514Z" fill="white"/>
<path d="M123.587 95.983H120.324V99.2456H123.587V95.983Z" fill="white"/>
<path d="M128.845 95.983H125.582V99.2456H128.845V95.983Z" fill="white"/>
<path d="M134.099 95.983H130.836V99.2456H134.099V95.983Z" fill="white"/>
<path d="M123.681 103.415H120.418V106.677H123.681V103.415Z" fill="white"/>
<path d="M128.931 103.415H125.668V106.677H128.931V103.415Z" fill="white"/>
<path d="M128.931 112.115H125.668V118.277H128.931V112.115Z" fill="white"/>
<path d="M134.188 103.415H130.926V106.677H134.188V103.415Z" fill="white"/>
<path d="M138.907 71.5134H137.457V75.1659H138.907V71.5134Z" fill="#3F3D56"/>
<path d="M180.997 118.24H20.043V118.646H180.997V118.24Z" fill="#3F3D56"/>
<path d="M152.798 109.954C155.405 109.954 157.518 107.841 157.518 105.234C157.518 102.627 155.405 100.514 152.798 100.514C150.191 100.514 148.078 102.627 148.078 105.234C148.078 107.841 150.191 109.954 152.798 109.954Z" fill="#F9A826"/>
<path opacity="0.2" d="M156.31 102.082C156.75 103.112 156.81 104.265 156.479 105.334C156.147 106.404 155.446 107.321 154.501 107.922C153.555 108.522 152.427 108.767 151.318 108.613C150.208 108.458 149.19 107.914 148.445 107.077C148.714 107.707 149.117 108.27 149.625 108.728C150.133 109.186 150.735 109.528 151.389 109.731C152.042 109.934 152.732 109.992 153.41 109.901C154.089 109.81 154.739 109.574 155.317 109.207C155.894 108.84 156.385 108.352 156.755 107.776C157.126 107.201 157.366 106.552 157.461 105.874C157.555 105.196 157.501 104.506 157.303 103.851C157.104 103.197 156.765 102.593 156.31 102.082V102.082Z" fill="black"/>
<path d="M152.809 105.234H152.822L153.055 118.616H152.562L152.809 105.234Z" fill="#3F3D56"/>
<path d="M153.671 112.524L153.562 112.317L152.782 112.728L152.891 112.934L153.671 112.524Z" fill="#3F3D56"/>
<path d="M166.678 105.444C170.642 105.444 173.855 102.231 173.855 98.2667C173.855 94.3026 170.642 91.0891 166.678 91.0891C162.714 91.0891 159.5 94.3026 159.5 98.2667C159.5 102.231 162.714 105.444 166.678 105.444Z" fill="#F9A826"/>
<path opacity="0.2" d="M172.011 93.4727C172.68 95.0388 172.771 96.7919 172.267 98.4188C171.763 100.046 170.697 101.44 169.259 102.353C167.821 103.267 166.106 103.639 164.419 103.404C162.732 103.168 161.184 102.341 160.051 101.069C160.46 102.026 161.072 102.882 161.845 103.579C162.618 104.276 163.533 104.796 164.527 105.104C165.521 105.412 166.57 105.501 167.601 105.363C168.632 105.225 169.622 104.865 170.5 104.307C171.378 103.749 172.125 103.007 172.688 102.132C173.251 101.257 173.617 100.27 173.761 99.2393C173.904 98.2087 173.822 97.1591 173.52 96.1634C173.218 95.1677 172.703 94.2496 172.011 93.4727V93.4727Z" fill="black"/>
<path d="M166.691 98.2666H166.711L167.066 118.616H166.316L166.691 98.2666Z" fill="#3F3D56"/>
<path d="M168.001 109.351L167.836 109.037L166.649 109.662L166.815 109.976L168.001 109.351Z" fill="#3F3D56"/>
<path d="M24.8294 109.773C27.4361 109.773 29.5493 107.66 29.5493 105.053C29.5493 102.446 27.4361 100.333 24.8294 100.333C22.2226 100.333 20.1094 102.446 20.1094 105.053C20.1094 107.66 22.2226 109.773 24.8294 109.773Z" fill="#F9A826"/>
<path opacity="0.2" d="M28.3414 101.901C28.7817 102.93 28.8414 104.083 28.5099 105.153C28.1784 106.223 27.4773 107.14 26.5319 107.741C25.5865 108.341 24.4583 108.586 23.349 108.431C22.2397 108.276 21.2216 107.732 20.4766 106.896C20.7455 107.525 21.148 108.088 21.6563 108.547C22.1645 109.005 22.7663 109.347 23.4199 109.55C24.0735 109.752 24.7633 109.81 25.4416 109.72C26.1198 109.629 26.7703 109.392 27.3479 109.025C27.9255 108.658 28.4165 108.17 28.7867 107.595C29.157 107.019 29.3977 106.37 29.4922 105.693C29.5867 105.015 29.5328 104.325 29.3341 103.67C29.1353 103.015 28.7967 102.411 28.3415 101.901H28.3414Z" fill="black"/>
<path d="M24.8479 105.053H24.8609L25.0942 118.435H24.6016L24.8479 105.053Z" fill="#3F3D56"/>
<path d="M25.7064 112.342L25.5977 112.136L24.8174 112.547L24.9262 112.753L25.7064 112.342Z" fill="#3F3D56"/>
<path d="M129.911 38.7673L131.58 37.4328C130.284 37.2897 129.751 37.9967 129.533 38.5562C128.52 38.1357 127.418 38.6868 127.418 38.6868L130.756 39.8988C130.588 39.449 130.295 39.0565 129.911 38.7673V38.7673Z" fill="#3F3D56"/>
<path d="M46.1769 45.4738L47.8455 44.1393C46.5493 43.9963 46.0167 44.7032 45.7987 45.2628C44.786 44.8423 43.6836 45.3934 43.6836 45.3934L47.0221 46.6054C46.8537 46.1555 46.5605 45.763 46.1769 45.4738V45.4738Z" fill="#3F3D56"/>
<path d="M155.29 52.3612L156.959 51.0266C155.663 50.8836 155.13 51.5906 154.912 52.1501C153.899 51.7296 152.797 52.2807 152.797 52.2807L156.135 53.4927C155.967 53.0428 155.674 52.6503 155.29 52.3612V52.3612Z" fill="#3F3D56"/>
<path d="M59.9543 41.8486L61.6229 40.5141C60.3266 40.371 59.794 41.078 59.576 41.6375C58.5634 41.217 57.4609 41.7681 57.4609 41.7681L60.7995 42.9801C60.631 42.5303 60.3378 42.1377 59.9543 41.8486V41.8486Z" fill="#3F3D56"/>
<path d="M63.0324 56.3491L64.701 55.0145C63.4047 54.8715 62.8721 55.5785 62.6542 56.138C61.6415 55.7175 60.5391 56.2686 60.5391 56.2686L63.8776 57.4806C63.7092 57.0308 63.416 56.6382 63.0324 56.3491V56.3491Z" fill="#3F3D56"/>
<path d="M127.923 63.9616L129.592 62.6271C128.295 62.4841 127.763 63.191 127.545 63.7506C126.532 63.3301 125.43 63.8812 125.43 63.8812L128.768 65.0932C128.6 64.6433 128.307 64.2508 127.923 63.9616Z" fill="#3F3D56"/>
<path d="M39.2144 114.652H27.9766V115.015H29.7291V118.459H30.0916V115.015H36.9181V118.459H37.2806V115.015H39.2144V114.652Z" fill="#3F3D56"/>
<path d="M50.6322 116.102C50.1886 116.102 49.7529 116.219 49.3689 116.441C48.979 116.088 48.495 115.857 47.9759 115.774C47.4567 115.691 46.9246 115.76 46.4442 115.974C45.9638 116.187 45.5558 116.536 45.2696 116.977C44.9834 117.418 44.8314 117.933 44.832 118.458H53.1606C53.1152 117.819 52.8291 117.22 52.36 116.783C51.8909 116.346 51.2735 116.102 50.6322 116.102V116.102Z" fill="#3F3D56"/>
<path d="M93.5892 116.102C93.1457 116.102 92.7099 116.219 92.326 116.441C91.936 116.088 91.4521 115.857 90.9329 115.774C90.4137 115.691 89.8816 115.76 89.4012 115.974C88.9208 116.187 88.5128 116.536 88.2266 116.977C87.9404 117.418 87.7884 117.933 87.7891 118.458H96.1176C96.0722 117.819 95.7862 117.22 95.317 116.783C94.8479 116.346 94.2305 116.102 93.5892 116.102V116.102Z" fill="#3F3D56"/>
<path d="M121.683 116.102C121.239 116.102 120.804 116.219 120.42 116.441C120.03 116.088 119.546 115.857 119.027 115.774C118.507 115.691 117.975 115.76 117.495 115.974C117.015 116.187 116.607 116.536 116.32 116.977C116.034 117.418 115.882 117.933 115.883 118.458H124.211C124.166 117.819 123.88 117.22 123.411 116.783C122.942 116.346 122.324 116.102 121.683 116.102V116.102Z" fill="#3F3D56"/>
<path d="M158.66 116.102C158.216 116.102 157.78 116.219 157.396 116.441C157.006 116.088 156.522 115.857 156.003 115.774C155.484 115.691 154.952 115.76 154.472 115.974C153.991 116.187 153.583 116.536 153.297 116.977C153.011 117.418 152.859 117.933 152.859 118.458H161.188C161.143 117.819 160.856 117.22 160.387 116.783C159.918 116.346 159.301 116.102 158.66 116.102V116.102Z" fill="#3F3D56"/>
<path d="M176.425 116.102C175.982 116.102 175.546 116.219 175.162 116.441C174.772 116.088 174.288 115.857 173.769 115.774C173.25 115.691 172.718 115.76 172.237 115.974C171.757 116.187 171.349 116.536 171.063 116.977C170.776 117.418 170.624 117.933 170.625 118.458H178.954C178.908 117.819 178.622 117.22 178.153 116.783C177.684 116.346 177.066 116.102 176.425 116.102V116.102Z" fill="#3F3D56"/>
<path d="M43.3845 105.771H40.4844V108.671H41.8287V118.443H42.1913V108.671H43.3845V105.771Z" fill="#3F3D56"/>
<path d="M39.2339 113.568H27.9961V113.93H39.2339V113.568Z" fill="#3F3D56"/>
<path d="M39.2339 112.662H27.9961V113.024H39.2339V112.662Z" fill="#3F3D56"/>
<path d="M39.2339 111.755H27.9961V112.118H39.2339V111.755Z" fill="#3F3D56"/>
</svg>
