<svg width="60" height="60" viewBox="0 0 60 60" fill="none" xmlns="http://www.w3.org/2000/svg">
<g clip-path="url(#clip0_818_733)">
<rect width="60" height="60" fill="white"/>
<path d="M51.4068 25.0343C52.2021 25.0343 52.8468 24.3896 52.8468 23.5943C52.8468 22.799 52.2021 22.1543 51.4068 22.1543C50.6115 22.1543 49.9668 22.799 49.9668 23.5943C49.9668 24.3896 50.6115 25.0343 51.4068 25.0343Z" fill="black"/>
<path d="M44.9999 23.8379C43.7812 23.8379 42.5898 24.1993 41.5765 24.8764C40.5631 25.5535 39.7733 26.5158 39.3069 27.6418C38.8406 28.7678 38.7185 30.0067 38.9563 31.202C39.1941 32.3973 39.7809 33.4953 40.6427 34.3571C41.5045 35.2189 42.6024 35.8057 43.7977 36.0435C44.9931 36.2813 46.232 36.1592 47.358 35.6928C48.4839 35.2264 49.4463 34.4366 50.1234 33.4233C50.8005 32.41 51.1619 31.2186 51.1619 29.9999C51.1619 28.3656 50.5127 26.7983 49.3571 25.6427C48.2015 24.4871 46.6342 23.8379 44.9999 23.8379ZM44.9999 33.9999C44.2088 33.9999 43.4354 33.7653 42.7776 33.3258C42.1198 32.8862 41.6071 32.2615 41.3044 31.5306C41.0016 30.7997 40.9224 29.9955 41.0768 29.2195C41.2311 28.4436 41.6121 27.7309 42.1715 27.1715C42.7309 26.6121 43.4436 26.2311 44.2195 26.0767C44.9955 25.9224 45.7997 26.0016 46.5306 26.3044C47.2615 26.6071 47.8862 27.1198 48.3258 27.7776C48.7653 28.4354 48.9999 29.2088 48.9999 29.9999C48.9999 31.0608 48.5785 32.0782 47.8283 32.8283C47.0782 33.5785 46.0608 33.9999 44.9999 33.9999Z" fill="black"/>
<path d="M45 20.162C48.204 20.162 48.584 20.174 49.849 20.232C50.6098 20.241 51.3635 20.3807 52.077 20.645C52.5947 20.8447 53.0648 21.1505 53.4571 21.5429C53.8495 21.9352 54.1553 22.4053 54.355 22.923C54.6193 23.6365 54.759 24.3902 54.768 25.151C54.826 26.416 54.838 26.796 54.838 30.001C54.838 33.206 54.826 33.584 54.768 34.849C54.759 35.6098 54.6193 36.3635 54.355 37.077C54.1553 37.5947 53.8495 38.0648 53.4571 38.4571C53.0648 38.8495 52.5947 39.1553 52.077 39.355C51.3635 39.6193 50.6098 39.759 49.849 39.768C48.584 39.826 48.204 39.838 45 39.838C41.796 39.838 41.416 39.826 40.151 39.768C39.3902 39.759 38.6365 39.6193 37.923 39.355C37.4053 39.1553 36.9352 38.8495 36.5429 38.4571C36.1505 38.0648 35.8447 37.5947 35.645 37.077C35.3807 36.3635 35.241 35.6098 35.232 34.849C35.174 33.584 35.162 33.204 35.162 30C35.162 26.796 35.174 26.416 35.232 25.151C35.241 24.3902 35.3807 23.6365 35.645 22.923C35.8447 22.4053 36.1505 21.9352 36.5429 21.5429C36.9352 21.1505 37.4053 20.8447 37.923 20.645C38.6365 20.3807 39.3902 20.241 40.151 20.232C41.416 20.174 41.796 20.162 45 20.162M45 18C41.741 18 41.332 18.014 40.052 18.072C39.0568 18.0921 38.0722 18.2808 37.14 18.63C36.3427 18.9383 35.6187 19.4098 35.0142 20.0142C34.4098 20.6187 33.9383 21.3427 33.63 22.14C33.2807 23.0725 33.092 24.0574 33.072 25.053C33.014 26.333 33 26.74 33 30C33 33.26 33.014 33.668 33.072 34.948C33.0921 35.9432 33.2808 36.9278 33.63 37.86C33.9383 38.6573 34.4098 39.3813 35.0142 39.9858C35.6187 40.5902 36.3427 41.0617 37.14 41.37C38.0725 41.7193 39.0574 41.908 40.053 41.928C41.333 41.986 41.741 42 45 42C48.259 42 48.668 41.986 49.948 41.928C50.9436 41.908 51.9285 41.7193 52.861 41.37C53.6583 41.0617 54.3823 40.5902 54.9868 39.9858C55.5912 39.3813 56.0627 38.6573 56.371 37.86C56.72 36.9275 56.9083 35.9425 56.928 34.947C56.986 33.667 57 33.26 57 30C57 26.74 56.986 26.332 56.928 25.052C56.9079 24.0568 56.7192 23.0722 56.37 22.14C56.0617 21.3427 55.5902 20.6187 54.9858 20.0142C54.3813 19.4098 53.6573 18.9383 52.86 18.63C51.9275 18.281 50.9425 18.0927 49.947 18.073C48.667 18.013 48.26 18 45 18Z" fill="black"/>
<path d="M22.5 18C23.7396 18 24.7995 18.4401 25.6797 19.3203C26.5599 20.2005 27 21.2604 27 22.5V37.5C27 38.7396 26.5599 39.7995 25.6797 40.6797C24.7995 41.5599 23.7396 42 22.5 42H19.5625V32.7031H22.6719L23.1406 29.0781H19.5625V26.7656C19.5625 26.1823 19.6849 25.7448 19.9297 25.4531C20.1745 25.1615 20.651 25.0156 21.3594 25.0156L23.2656 25V21.7656C22.6094 21.6719 21.6823 21.625 20.4844 21.625C19.0677 21.625 17.9349 22.0417 17.0859 22.875C16.237 23.7083 15.8125 24.8854 15.8125 26.4062V29.0781H12.6875V32.7031H15.8125V42H7.5C6.26042 42 5.20052 41.5599 4.32031 40.6797C3.4401 39.7995 3 38.7396 3 37.5V22.5C3 21.2604 3.4401 20.2005 4.32031 19.3203C5.20052 18.4401 6.26042 18 7.5 18H22.5Z" fill="black"/>
</g>
<defs>
<clipPath id="clip0_818_733">
<rect width="60" height="60" fill="white"/>
</clipPath>
</defs>
</svg>
