<svg width="200" height="150" viewBox="0 0 200 150" fill="none" xmlns="http://www.w3.org/2000/svg">
<path d="M131.524 118.874C135.639 118.874 138.975 112.117 138.975 103.781C138.975 95.4447 135.639 88.687 131.524 88.687C127.41 88.687 124.074 95.4447 124.074 103.781C124.074 112.117 127.41 118.874 131.524 118.874Z" fill="#3F3D56"/>
<path d="M130.835 128.487C133.818 110.711 130.865 92.9994 130.834 92.8228L130.254 92.9204C130.284 93.0962 133.221 110.715 130.254 128.391L130.835 128.487Z" fill="#CACACA"/>
<path d="M124.969 100.535L124.691 101.051L131.428 104.629L131.706 104.113L124.969 100.535Z" fill="#CACACA"/>
<path d="M138.537 102.328L131.801 105.908L132.079 106.423L138.815 102.843L138.537 102.328Z" fill="#CACACA"/>
<path d="M149.427 109.414C157.475 109.414 163.999 96.197 163.999 79.8927C163.999 63.5885 157.475 50.3712 149.427 50.3712C141.379 50.3712 134.855 63.5885 134.855 79.8927C134.855 96.197 141.379 109.414 149.427 109.414Z" fill="#E6E6E6"/>
<path d="M147.807 128.169C153.636 93.4472 147.866 58.852 147.807 58.5066L147.227 58.6042C147.285 58.9487 153.038 93.4509 147.227 128.073L147.807 128.169Z" fill="#CACACA"/>
<path d="M136.469 73.791L136.191 74.3065L149.369 81.3048L149.646 80.7893L136.469 73.791Z" fill="#CACACA"/>
<path d="M163.273 77.2967L150.098 84.2986L150.376 84.814L163.551 77.8121L163.273 77.2967Z" fill="#CACACA"/>
<path d="M115.583 128.262H38.0752C37.7902 128.261 37.5169 128.149 37.3153 127.949C37.1137 127.748 37.0003 127.477 37 127.194V78.5652C37.0003 78.2821 37.1137 78.0108 37.3153 77.8106C37.5169 77.6105 37.7902 77.4979 38.0752 77.4976H115.583C115.868 77.4979 116.142 77.6105 116.343 77.8106C116.545 78.0108 116.658 78.2821 116.658 78.5652V127.194C116.658 127.477 116.545 127.748 116.343 127.949C116.142 128.149 115.868 128.261 115.583 128.262V128.262Z" fill="#E4E4E4"/>
<path d="M45.2069 83.3904C45.0847 83.3905 44.9676 83.4388 44.8812 83.5245C44.7948 83.6103 44.7462 83.7266 44.7461 83.8479V121.911C44.7462 122.033 44.7948 122.149 44.8812 122.235C44.9676 122.321 45.0847 122.369 45.2069 122.369H108.459C108.581 122.369 108.698 122.321 108.785 122.235C108.871 122.149 108.92 122.033 108.92 121.911V83.8479C108.92 83.7266 108.871 83.6103 108.785 83.5245C108.698 83.4388 108.581 83.3905 108.459 83.3904H45.2069Z" fill="white"/>
<path d="M109.072 93.1941V90.7821H100.128V83.2379H97.6983V90.7821H81.7734V83.2379H79.3442V90.7821H54.782V83.2379H52.3528V90.7821H43.8594V93.1941H52.3528V102.574H43.8594V104.986H52.3528V115.036H43.8594V117.448H65.4436V122.521H67.8729V117.448H79.3442V122.521H81.7733V117.448H109.072V115.036H81.7734V104.986H109.072V102.574H100.128V93.1941H109.072ZM79.3442 93.1941V96.1421H54.782V93.1941H79.3442ZM54.782 98.5541H79.3442V102.574H54.782V98.5541ZM54.782 115.036V104.986H65.4436V115.036H54.782ZM79.3442 115.036H67.8729V104.986H79.3442V115.036ZM97.6983 102.574H81.7734V93.1941H97.6983V102.574Z" fill="#E6E6E6"/>
<path d="M80.561 107.167C82.2753 107.167 83.665 105.787 83.665 104.085C83.665 102.383 82.2753 101.003 80.561 101.003C78.8467 101.003 77.457 102.383 77.457 104.085C77.457 105.787 78.8467 107.167 80.561 107.167Z" fill="#F9A826"/>
<path d="M80.9288 85.7765C91.5037 85.7765 100.076 77.2646 100.076 66.7647C100.076 56.2647 91.5037 47.7528 80.9288 47.7528C70.3539 47.7528 61.7812 56.2647 61.7812 66.7647C61.7812 77.2646 70.3539 85.7765 80.9288 85.7765Z" fill="#F9A826"/>
<path d="M81.118 97.6707L75.0688 87.4103L69.0195 77.15L80.9933 77.0785L92.967 77.007L87.0425 87.3388L81.118 97.6707Z" fill="#F9A826"/>
<path d="M81.0808 73.4663C84.8749 73.4663 87.9506 70.4124 87.9506 66.6451C87.9506 62.8779 84.8749 59.824 81.0808 59.824C77.2867 59.824 74.2109 62.8779 74.2109 66.6451C74.2109 70.4124 77.2867 73.4663 81.0808 73.4663Z" fill="white"/>
<path d="M80.4882 21.0977C80.4882 21.0977 76.391 19.9517 75.1792 25.5096C73.9674 31.0675 74.7371 30.3672 74.7371 30.3672L83.8836 29.3072C83.8836 29.3072 86.634 22.788 80.4882 21.0977Z" fill="#2F2E41"/>
<path d="M74.5283 45.4801C74.5283 45.4801 68.3471 45.7642 69.4175 48.1733C69.4932 48.3436 69.5636 48.5032 69.6289 48.652C70.394 50.397 71.2747 52.0897 72.2653 53.719L76.0644 59.9691L77.4468 59.2065L73.5565 49.1653L77.0533 48.8819L74.5283 45.4801Z" fill="#FFB6B6"/>
<path d="M90.8268 48.0316L92.825 52.3538C92.825 52.3538 94.3236 53.8418 95.9649 59.7938C97.6062 65.7457 97.9631 65.5332 97.9631 65.5332L96.3407 66.0696L89.685 54.0544L86.4023 49.9447L87.4014 47.7482L90.8268 48.0316Z" fill="#FFB6B6"/>
<path d="M88.4021 43.0718L91.2734 48.378C91.2734 48.378 97.7832 61.079 97.1104 61.0368C96.3541 60.9894 94.2297 61.8647 93.5775 62.7145C93.2627 63.1246 88.6622 53.106 87.0463 50.866L83.5495 48.1735C83.5495 48.1735 73.6211 49.8326 73.609 49.2931C73.603 49.0288 76.8961 55.3697 76.2202 55.0887C75.4504 54.7686 73.6393 56.3262 72.841 56.0038C72.5115 55.8708 70.184 50.2675 69.2418 47.9714C69.1236 47.6848 69.1174 47.3647 69.2245 47.0738C69.3317 46.7829 69.5443 46.5422 69.8208 46.3989C70.5289 46.0332 80.3675 43.8026 80.3675 43.8026L80.1955 42.9301L80.9091 41.5129L88.4021 43.0718Z" fill="#2F2E41"/>
<path d="M82.5144 27.4296C82.7606 25.9232 81.7302 24.5037 80.213 24.2593C78.6958 24.0148 77.2662 25.0379 77.02 26.5444C76.7738 28.0508 77.8042 29.4703 79.3214 29.7147C80.8386 29.9592 82.2682 28.9361 82.5144 27.4296Z" fill="#FFB6B6"/>
<path d="M88.6606 43.4975C88.8142 43.9553 87.8189 44.2182 86.4317 43.961C85.2314 43.7385 83.9176 43.4742 82.8814 43.2603C81.7717 43.0307 80.9789 42.8592 80.9789 42.8592C80.9789 42.8592 80.6934 44.6306 79.7657 44.4181C78.9665 44.2352 76.578 35.9514 75.9321 33.662C75.8849 33.4949 75.894 33.317 75.9581 33.1554C76.0221 32.9939 76.1375 32.8575 76.2868 32.7671L79.5673 30.7781C79.5673 30.7781 81.8281 30.0072 82.6523 29.9853C83.4765 29.9633 84.9038 29.7507 84.9038 29.7507C84.9038 29.7507 86.5451 29.8924 86.8306 31.097C87.116 32.3016 88.3072 39.4435 88.3292 41.1586C88.3534 43.04 88.1997 42.1249 88.6606 43.4975Z" fill="#CACACA"/>
<path d="M80.8106 23.4375C80.8106 23.4375 79.6565 26.4743 76.8288 27.7348L76.3672 25.0418L80.8106 23.4375Z" fill="#2F2E41"/>
<path d="M82.4745 26.6684C82.6913 26.6684 82.867 26.3353 82.867 25.9244C82.867 25.5135 82.6913 25.1804 82.4745 25.1804C82.2578 25.1804 82.082 25.5135 82.082 25.9244C82.082 26.3353 82.2578 26.6684 82.4745 26.6684Z" fill="#FFB6B6"/>
<path d="M78.5932 60.6777L73.0763 63.1961L73.0442 63.1268C72.7824 62.5613 72.7575 61.9157 72.975 61.3321C73.1926 60.7484 73.6347 60.2744 74.2042 60.0144L74.2043 60.0143L77.5739 58.4762L78.5932 60.6777Z" fill="#2F2E41"/>
<path d="M95.5156 65.7093L98.8998 64.203L98.8999 64.2029C99.4719 63.9484 100.122 63.9299 100.708 64.1515C101.294 64.373 101.767 64.8165 102.023 65.3844L102.055 65.454L96.5138 67.9202L95.5156 65.7093Z" fill="#2F2E41"/>
<path opacity="0.2" d="M86.357 36.9393L85.7109 43.9948L86.8594 44.0487L86.357 36.9393Z" fill="black"/>
<path d="M81.8543 50.1199C81.9912 49.9682 82.0929 49.7885 82.1523 49.5935C82.2116 49.3986 82.2272 49.193 82.198 48.9914C82.1687 48.7898 82.0952 48.597 81.9828 48.4266C81.8704 48.2562 81.7217 48.1124 81.5472 48.0052L79.0651 35.556L76.2148 36.6388L79.5509 48.5355C79.389 48.8384 79.3447 49.1898 79.4263 49.5231C79.508 49.8563 79.7099 50.1483 79.9938 50.3436C80.2777 50.5389 80.6239 50.624 80.9668 50.5828C81.3097 50.5415 81.6255 50.3769 81.8543 50.1199Z" fill="#FFB6B6"/>
<path d="M79.6939 37.6542L76.5642 38.2016C76.4751 38.2172 76.3838 38.2135 76.2963 38.1908C76.2088 38.1682 76.1272 38.1271 76.0572 38.0703C75.9871 38.0135 75.9302 37.9424 75.8903 37.8618C75.8505 37.7813 75.8285 37.6931 75.8261 37.6034L75.7397 34.4587C75.662 34.0058 75.7683 33.5409 76.0353 33.1657C76.3024 32.7906 76.7084 32.5359 77.1642 32.4576C77.6201 32.3792 78.0887 32.4836 78.4672 32.7477C78.8457 33.0119 79.1033 33.4143 79.1834 33.8668L80.1818 36.8416C80.2103 36.9268 80.2201 37.0171 80.2103 37.1064C80.2006 37.1956 80.1716 37.2817 80.1253 37.3588C80.079 37.436 80.0165 37.5023 79.942 37.5532C79.8676 37.6042 79.783 37.6387 79.6939 37.6542H79.6939Z" fill="#CACACA"/>
<path d="M84.2491 49.9011C84.4278 49.801 84.5822 49.6632 84.7014 49.4974C84.8206 49.3316 84.9018 49.1419 84.9391 48.9416C84.9765 48.7413 84.9692 48.5353 84.9177 48.3381C84.8663 48.141 84.7719 47.9574 84.6412 47.8003L86.3107 35.2183L83.2612 35.3363L82.5791 47.667C82.3279 47.9024 82.1725 48.2211 82.1422 48.5628C82.1119 48.9044 82.2088 49.2452 82.4147 49.5206C82.6205 49.796 82.921 49.9868 83.2591 50.057C83.5972 50.1271 83.9495 50.0716 84.2491 49.9011V49.9011Z" fill="#FFB6B6"/>
<path d="M86.2337 37.4053L83.0925 36.9273C83.0031 36.9137 82.9177 36.8811 82.8422 36.8318C82.7666 36.7825 82.7027 36.7176 82.6546 36.6415C82.6066 36.5654 82.5757 36.48 82.5639 36.3909C82.5522 36.3019 82.5599 36.2114 82.5865 36.1256L83.5203 33.1195C83.5929 32.6658 83.8438 32.2593 84.2179 31.989C84.592 31.7187 85.0588 31.6067 85.5159 31.6777C85.973 31.7486 86.3831 31.9966 86.6563 32.3673C86.9295 32.7381 87.0435 33.2012 86.9733 33.6553L86.9583 36.7909C86.9578 36.8807 86.9379 36.9693 86.8998 37.0508C86.8617 37.1322 86.8064 37.2045 86.7377 37.2629C86.6689 37.3212 86.5883 37.3641 86.5013 37.3886C86.4144 37.4132 86.3231 37.4189 86.2337 37.4053V37.4053Z" fill="#CACACA"/>
</svg>
