<svg width="512" height="291" viewBox="0 0 512 291" fill="none" xmlns="http://www.w3.org/2000/svg">
<path d="M408.743 167.529C409.121 167.151 409.121 166.537 408.743 166.158L402.575 159.99C402.196 159.612 401.583 159.612 401.204 159.99C400.826 160.369 400.826 160.982 401.204 161.361L406.687 166.844L401.204 172.327C400.826 172.705 400.826 173.319 401.204 173.697C401.583 174.076 402.196 174.076 402.575 173.697L408.743 167.529ZM0 167.813H408.058V165.875H0V167.813Z" fill="#797979"/>
<path d="M427.388 160.277C427.125 162.402 426.489 164.666 423.961 165.829C424.209 166.015 424.535 166.403 424.659 166.651C427.373 165.302 428.132 162.79 428.458 160.277H427.388ZM424.535 162.495C426.148 163.038 428.086 164.061 429.125 164.821L429.683 163.906C428.66 163.193 426.721 162.231 425.109 161.689L424.535 162.495ZM431.048 159.859V160.06C430.924 163.565 430.769 164.806 430.49 165.131C430.381 165.255 430.242 165.302 429.993 165.286C429.745 165.286 429.094 165.286 428.381 165.224C428.551 165.503 428.66 165.953 428.675 166.279C429.404 166.31 430.133 166.325 430.505 166.294C430.924 166.248 431.187 166.139 431.436 165.845C431.823 165.395 431.978 164.015 432.133 160.355C432.149 160.2 432.149 159.859 432.149 159.859H431.048ZM426.287 168.124V171.877C426.287 173.025 426.551 173.35 427.729 173.35C427.977 173.35 429.203 173.35 429.451 173.35C430.428 173.35 430.722 172.87 430.846 170.978C430.536 170.885 430.071 170.73 429.854 170.543C429.807 172.094 429.745 172.311 429.327 172.311C429.078 172.311 428.07 172.311 427.869 172.311C427.435 172.311 427.373 172.249 427.373 171.862V168.124H426.287ZM424.814 168.652C424.659 169.939 424.318 171.303 423.573 172.063L424.442 172.637C425.264 171.769 425.589 170.264 425.76 168.884L424.814 168.652ZM426.551 166.698C427.559 167.287 428.737 168.186 429.296 168.838L430.024 168.047C429.451 167.395 428.257 166.558 427.233 166.015L426.551 166.698ZM430.164 168.76C430.97 169.892 431.653 171.458 431.854 172.513L432.893 172.079C432.661 171.024 431.963 169.504 431.125 168.372L430.164 168.76ZM424.674 159.859V160.867H431.529V159.859H424.674ZM419.061 163.891V164.821H423.465V163.891H419.061ZM419.123 159.75V160.681H423.403V159.75H419.123ZM419.061 165.969V166.899H423.465V165.969H419.061ZM418.363 161.782V162.743H423.899V161.782H418.363ZM419.572 168.062V169.024H422.457V171.613H419.572V172.59H423.465V168.062H419.572ZM419.045 168.062V173.304H420.038V168.062H419.045ZM439.686 168.558V169.396H442.973V168.558H439.686ZM438.848 160.898V161.828H443.935V160.898H438.848ZM438.445 164.48V165.441H448.013V164.48H438.445ZM439.655 166.418V167.287H442.555V170.73H439.655V171.598H443.532V166.418H439.655ZM439.267 166.418V172.435H440.197V166.418H439.267ZM440.895 159.207V161.347H441.965V159.207H440.895ZM439.484 162.154C439.732 162.883 439.903 163.798 439.918 164.402L440.818 164.201C440.802 163.596 440.601 162.666 440.321 161.968L439.484 162.154ZM445.656 160.293C446.323 161.13 446.959 162.293 447.191 163.084L448.153 162.666C447.889 161.89 447.222 160.758 446.54 159.936L445.656 160.293ZM442.399 161.89C442.291 162.573 442.043 163.596 441.857 164.247L442.679 164.433C442.896 163.844 443.144 162.898 443.392 162.092L442.399 161.89ZM444.307 159.223C444.369 167.752 444.555 173.381 447.036 173.521C447.579 173.536 448.091 172.932 448.385 170.776C448.199 170.683 447.796 170.404 447.626 170.171C447.532 171.458 447.331 172.265 447.067 172.249C445.61 172.125 445.268 166.899 445.33 159.223H444.307ZM446.695 166.139C445.858 169.179 444.043 171.458 441.903 172.746C442.12 172.916 442.43 173.211 442.57 173.412C444.772 172.032 446.649 169.706 447.61 166.605L446.695 166.139ZM434.491 163.891V164.821H438.274V163.891H434.491ZM434.568 159.75V160.681H438.243V159.75H434.568ZM434.491 165.969V166.899H438.274V165.969H434.491ZM433.87 161.782V162.743H438.647V161.782H433.87ZM435.002 168.062V169.024H437.328V171.613H435.002V172.575H438.29V168.062H435.002ZM434.46 168.062V173.304H435.406V168.062H434.46ZM449.75 161.596V162.728H463.335V161.596H449.75ZM454.557 166.511V167.597H462.73V166.511H454.557ZM453.953 172.001V173.102H463.335V172.001H453.953ZM458.062 163.519V172.59H459.225V163.519H458.062ZM454.852 159.192C453.984 162.386 452.169 165.829 449.378 167.799C449.564 168.062 449.859 168.558 449.983 168.869C453.069 166.651 454.961 163.038 456.046 159.487L454.852 159.192ZM451.782 165.581V173.412H452.945V165.581H451.782ZM474.143 159.192V170.001H475.245V159.192H474.143ZM469.259 165.597L469.708 166.62L478.051 163.069L477.617 162.076L469.259 165.597ZM470.933 160.65V171.009C470.933 172.699 471.461 173.118 473.244 173.118C473.632 173.118 476.64 173.118 477.059 173.118C478.687 173.118 479.059 172.435 479.245 170.295C478.92 170.233 478.47 170.047 478.191 169.861C478.082 171.644 477.927 172.063 477.012 172.063C476.392 172.063 473.787 172.063 473.275 172.063C472.236 172.063 472.05 171.877 472.05 171.024V160.65H470.933ZM477.416 162.231C477.416 165.317 477.4 167.519 477.307 167.923C477.229 168.279 477.074 168.341 476.842 168.341C476.671 168.341 476.159 168.341 475.803 168.326C475.942 168.589 476.035 169.024 476.082 169.334C476.501 169.334 477.121 169.334 477.54 169.225C477.989 169.117 478.284 168.822 478.377 168.202C478.486 167.597 478.532 165.271 478.532 162.355L478.579 162.138L477.757 161.828L477.555 161.999L477.276 162.231H477.416ZM464.932 162.929V164.03H469.863V162.929H464.932ZM466.932 159.378V169.442H468.033V159.378H466.932ZM464.792 169.846L465.258 170.993C466.638 170.404 468.39 169.613 470.049 168.822L469.801 167.783C467.956 168.574 466.049 169.38 464.792 169.846ZM483.789 168.233V167.178H491.388V168.233H483.789ZM483.789 166.403V165.379H491.388V166.403H483.789ZM492.551 164.573H482.673V169.024H492.551V164.573ZM491.264 161.301L490.07 161.037C489.884 161.534 489.527 162.262 489.248 162.743L490.287 163.022C490.581 162.557 490.923 161.952 491.264 161.301ZM485.014 161.053L483.96 161.301C484.27 161.828 484.549 162.526 484.658 163.022L485.759 162.728C485.65 162.278 485.34 161.58 485.014 161.053ZM488.116 159.192H486.937V160.882H488.116V159.192ZM494.257 162.852H480.92V163.798H494.257V162.852ZM493.45 160.231H481.618V161.177H493.45V160.231ZM483.619 170.171L482.657 169.799C482.254 170.838 481.525 171.893 480.455 172.497L481.354 173.118C482.502 172.435 483.184 171.288 483.619 170.171ZM491.915 169.675L491.031 170.202C492.086 171.009 493.233 172.187 493.745 173.009L494.691 172.42C494.164 171.582 492.97 170.45 491.915 169.675ZM486.705 169.008L486.053 169.628C486.937 170.109 488.023 170.838 488.581 171.334L489.263 170.636C488.69 170.14 487.573 169.458 486.705 169.008ZM485.542 171.924V169.923H484.409V171.924C484.409 173.04 484.813 173.335 486.41 173.335C486.736 173.335 489 173.335 489.341 173.335C490.597 173.335 490.954 172.916 491.078 171.179C490.783 171.102 490.318 170.947 490.07 170.792C489.992 172.156 489.899 172.342 489.232 172.342C488.736 172.342 486.86 172.342 486.487 172.342C485.681 172.342 485.542 172.28 485.542 171.924ZM497.064 159.921V160.944H503.174V159.921H497.064ZM498.692 168.884C498.475 169.954 498.134 171.024 497.653 171.8C497.886 171.893 498.304 172.125 498.49 172.249C498.971 171.458 499.374 170.233 499.607 169.07L498.692 168.884ZM501.84 169.117C502.197 169.939 502.6 171.024 502.739 171.675L503.592 171.35C503.437 170.714 503.019 169.66 502.631 168.853L501.84 169.117ZM496.707 159.921V165.659C496.707 167.783 496.629 170.621 495.73 172.621C495.947 172.715 496.397 173.025 496.583 173.211C497.575 171.117 497.715 167.907 497.715 165.643V159.921H496.707ZM499.436 165.721H502.135V167.256H499.436V165.721ZM499.436 163.379H502.135V164.883H499.436V163.379ZM498.506 162.511V168.124H503.096V162.511H498.506ZM500.289 167.923V172.358C500.289 172.497 500.243 172.544 500.103 172.544C499.933 172.559 499.483 172.559 498.925 172.544C499.049 172.808 499.204 173.195 499.25 173.459C500.01 173.459 500.522 173.443 500.847 173.288C501.189 173.118 501.266 172.854 501.266 172.373V167.923H500.289ZM500.274 160.65C500.212 161.285 500.041 162.231 499.902 162.836L500.816 163.022C501.003 162.448 501.22 161.596 501.421 160.805L500.274 160.65ZM503.499 159.921V160.929H510.106V159.921H503.499ZM505.019 165.721H508.648V167.24H505.019V165.721ZM505.019 168.093H508.648V169.644H505.019V168.093ZM505.019 163.348H508.648V164.837H505.019V163.348ZM504.011 162.433V170.543H509.687V162.433H504.011ZM506.244 160.417C506.182 161.13 505.996 162.185 505.841 162.867L506.787 163.053C506.988 162.402 507.221 161.44 507.438 160.557L506.244 160.417ZM505.298 170.885C504.755 171.52 503.623 172.296 502.646 172.746C502.863 172.947 503.22 173.273 503.375 173.49C504.368 173.025 505.546 172.218 506.275 171.443L505.298 170.885ZM507.361 171.443C508.136 172.048 509.098 172.916 509.547 173.474L510.431 172.87C509.95 172.296 508.973 171.474 508.229 170.885L507.361 171.443Z" fill="#797979"/>
<path d="M194.51 37.6437C194.131 37.2652 193.517 37.2652 193.139 37.6437L186.971 43.8118C186.592 44.1903 186.592 44.8039 186.971 45.1825C187.349 45.561 187.963 45.561 188.341 45.1825L193.824 39.6997L199.307 45.1825C199.685 45.561 200.299 45.561 200.678 45.1825C201.056 44.8039 201.056 44.1903 200.678 43.8118L194.51 37.6437ZM194.793 290.213L194.793 38.329H192.855L192.855 290.213H194.793Z" fill="#797979"/>
<path d="M169.713 6.26454V7.33457H175.932V6.26454H169.713ZM169.574 10.4671V18.469H170.675V10.4671H169.574ZM170.039 4.18653C169.558 6.04744 168.674 7.79979 167.527 8.94735C167.806 9.10243 168.271 9.47461 168.473 9.67621C169.651 8.4201 170.628 6.49716 171.187 4.41914L170.039 4.18653ZM172.629 9.67621L171.621 9.81578C172.21 13.6461 173.311 16.8252 175.544 18.407C175.715 18.1123 176.072 17.6626 176.351 17.461C174.242 16.1274 173.141 13.1034 172.629 9.67621ZM175.42 10.4671C174.707 11.2425 173.451 12.2815 172.567 12.9018L173.28 13.5686C174.18 12.9638 175.389 12.0334 176.258 11.1804L175.42 10.4671ZM161.975 6.69876V7.79979H168.302V6.69876H161.975ZM164.332 9.81578V10.8858H167.108V9.81578H164.332ZM164.689 4.21754V7.11746H165.821V4.21754H164.689ZM166.689 9.81578V10.0484C166.612 15.0884 166.488 16.8097 166.209 17.1819C166.1 17.3525 165.976 17.399 165.744 17.399C165.495 17.399 164.922 17.3835 164.301 17.3214C164.472 17.6161 164.565 18.0658 164.596 18.3915C165.232 18.407 165.883 18.4225 166.255 18.376C166.658 18.3294 166.922 18.2209 167.17 17.8797C167.558 17.337 167.651 15.5691 167.76 10.343C167.775 10.188 167.775 9.81578 167.775 9.81578H166.689ZM163.774 7.4121V9.93984C163.774 12.235 163.572 15.2744 161.696 17.8022C161.991 17.9883 162.378 18.2674 162.58 18.5C164.565 15.7707 164.813 12.5761 164.813 9.93984V7.4121H163.774ZM174.536 7.78429C173.141 8.85431 170.225 10.0174 168.023 10.4981C168.287 10.7462 168.581 11.1649 168.736 11.4751C170.939 10.8548 173.854 9.58316 175.389 8.40459L174.536 7.78429ZM183.531 5.13249V6.24904H191.145V5.13249H183.531ZM188.059 9.75375V16.9493C188.059 17.2129 187.966 17.2749 187.656 17.2904C187.377 17.3059 186.338 17.3059 185.237 17.2749C185.407 17.6161 185.562 18.0968 185.609 18.4225C187.128 18.4225 188.012 18.407 188.54 18.2364C189.067 18.0503 189.237 17.6936 189.237 16.9648V9.75375H188.059ZM182.848 9.41258V10.5136H191.595V9.41258H182.848ZM179.747 10.6067V18.5H180.91V9.6607L180.77 9.59867L179.747 10.6067ZM181.546 7.50515C180.476 9.28852 178.77 11.0874 177.157 12.235C177.405 12.4521 177.808 12.9638 177.979 13.1964C179.607 11.8938 181.437 9.89332 182.647 7.92385L181.546 7.50515ZM180.91 4.18653C180.119 5.30308 178.615 6.69876 177.328 7.56718C177.529 7.79979 177.839 8.24951 178.01 8.49763C179.39 7.50515 180.987 6.00092 182.026 4.63625L180.91 4.18653ZM199.441 4.18653V6.01642H200.605V4.18653H199.441ZM193.549 5.31858V7.79979H194.619V6.26454H205.458V7.79979H206.559V5.31858H193.549ZM199.535 7.30355C199.472 8.26502 199.348 9.47461 199.224 10.2655H200.232C200.341 9.50563 200.449 8.29604 200.527 7.30355H199.535ZM196.216 13.367H203.939V14.0804H196.216V13.367ZM196.216 14.7627H203.939V15.4915H196.216V14.7627ZM196.216 11.9868H203.939V12.6692H196.216V11.9868ZM195.084 11.2735V16.2049H205.117V11.2735H195.084ZM201.039 16.8717C202.977 17.399 204.854 18.0348 205.986 18.469L206.994 17.7867C205.738 17.337 203.706 16.7011 201.83 16.2049L201.039 16.8717ZM196.759 7.70675H203.551L203.38 9.90882H196.48L196.759 7.70675ZM195.813 7.00891L195.332 10.6067H204.388L204.699 7.00891H195.813ZM197.984 16.1894C197.038 16.8097 194.836 17.4145 193.021 17.6936C193.238 17.9107 193.564 18.2674 193.719 18.5C195.549 18.1899 197.736 17.5541 198.945 16.7942L197.984 16.1894ZM193.192 8.34256V9.22649H196.433V9.14895H203.582V9.22649H206.932V8.34256H203.582V8.4201H196.433V8.34256H193.192ZM220.47 7.27254C219.121 8.6217 216.407 9.55215 213.941 10.0484C214.127 10.2655 214.422 10.7307 214.53 10.9478C217.058 10.312 219.896 9.22649 221.431 7.64472L220.47 7.27254ZM214.065 6.5747L214.127 7.53617L222.439 6.91586L222.362 5.9699L214.065 6.5747ZM218.237 4.7448C219.012 5.05495 219.989 5.59772 220.485 6.00092L221.23 5.3496C220.718 4.96191 219.741 4.45016 218.95 4.17102L218.237 4.7448ZM220.578 13.8322C219.167 15.7087 216.205 16.8872 213.274 17.523C213.476 17.7401 213.786 18.2364 213.895 18.4845C216.887 17.6936 219.974 16.36 221.586 14.2354L220.578 13.8322ZM213.879 13.1809L213.957 14.1269L222.672 13.5066L222.594 12.5606L213.879 13.1809ZM217.833 11.3045C218.624 11.6147 219.617 12.2195 220.144 12.6226L220.873 11.9868C220.361 11.5991 219.353 11.0564 218.547 10.7307L217.833 11.3045ZM210.095 5.86135H212.654V8.65271H210.095V5.86135ZM209.103 4.86886V9.64519H213.708V4.86886H209.103ZM211.01 9.11794V16.329H212.018V9.11794H211.01ZM209.087 11.1029V16.7787H210.033V11.1029H209.087ZM208.374 16.4375L208.591 17.5075C210.111 17.1198 212.204 16.5926 214.189 16.0808L214.081 15.0728C211.987 15.6001 209.801 16.1429 208.374 16.4375ZM211.46 11.8473V12.8553H213.988V11.8473H211.46ZM215.88 4.18653C216.515 8.0169 218.299 11.1029 221.354 11.227C221.989 11.2425 222.408 10.7462 222.687 9.35055C222.439 9.242 222.083 9.02489 221.834 8.79228C221.741 9.72273 221.571 10.1259 221.261 10.1104C219.136 10.0329 217.508 7.53617 216.981 4.18653H215.88ZM215.647 10.7928C216.267 14.9953 218.082 18.376 221.4 18.5C222.114 18.5155 222.548 17.9728 222.827 16.453C222.579 16.36 222.207 16.1274 221.958 15.9103C221.834 16.9338 221.664 17.399 221.307 17.3835C218.981 17.2749 217.26 14.4836 216.748 10.7928H215.647Z" fill="#797979"/>
<path d="M42.2941 112.171V113.892H58.7166V112.171H42.2941ZM49.4353 94.0732V113.147H51.2264V94.0732H49.4353ZM41.4334 105.681V115.357H43.2013V105.681H41.4334ZM57.7861 105.681V115.288H59.5773V105.681H57.7861ZM42.3406 96.1667V104.192H58.6468V96.1667H56.8324V102.494H44.0619V96.1667H42.3406ZM67.4629 103.122H63.113V104.75H65.8113V111.356H67.4629V103.122ZM67.4629 110.659H65.9974C64.9739 111.682 63.8108 112.752 62.8571 113.496L63.7643 115.148C64.8343 114.101 65.8113 113.101 66.765 112.101C68.2537 113.938 70.3938 114.776 73.4876 114.892C76.1859 114.985 81.3266 114.939 84.0017 114.822C84.0947 114.334 84.3506 113.543 84.56 113.171C81.6756 113.357 76.1393 113.427 73.4643 113.31C70.6962 113.194 68.6027 112.403 67.4629 110.659ZM63.1828 95.3525C64.4621 96.5621 65.8113 98.2835 66.3696 99.4465L67.835 98.5161C67.2535 97.3298 65.8578 95.6782 64.5552 94.4919L63.1828 95.3525ZM68.4398 97.1204V98.6091H76.4185V97.1204H68.4398ZM71.4173 101.052V102.54H74.953V101.052H71.4173ZM71.6266 93.9569V97.9811H73.2549V93.9569H71.6266ZM74.325 101.052V101.377C74.1854 107.751 73.9993 109.937 73.6736 110.426C73.5341 110.659 73.3712 110.705 73.0688 110.705C72.7897 110.705 72.1617 110.705 71.4406 110.635C71.6732 111.007 71.8127 111.635 71.8593 112.077C72.5804 112.101 73.3247 112.124 73.7667 112.054C74.325 112.008 74.6739 111.845 74.9995 111.38C75.5113 110.682 75.6741 108.449 75.8369 101.773C75.8369 101.563 75.8602 101.052 75.8602 101.052H74.325ZM77.4885 96.4691V97.9811H84.1878V96.4691H77.4885ZM76.465 104.959V106.402H84.3041V104.959H76.465ZM77.2559 100.005V101.377H82.8154V100.005H77.2559ZM78.1398 93.8638C77.6513 96.0504 76.7674 98.1439 75.5346 99.5628C75.9067 99.7722 76.5348 100.261 76.7907 100.517C78.0468 98.9813 79.0703 96.6319 79.6518 94.1895L78.1398 93.8638ZM79.6286 103.006V110.356C79.6286 110.589 79.5588 110.659 79.2796 110.659C79.0005 110.659 78.1166 110.659 77.1396 110.635C77.3722 111.077 77.6048 111.682 77.6746 112.124C78.9772 112.124 79.8612 112.101 80.4194 111.845C81.001 111.589 81.1405 111.147 81.1405 110.379V103.006H79.6286ZM82.3501 100.005V100.307C81.8384 101.284 80.7916 102.633 79.8844 103.447C80.1403 103.634 80.559 104.076 80.7916 104.355C81.8616 103.424 83.141 101.959 83.9784 100.633L83.0014 99.9118L82.6991 100.005H82.3501ZM70.6264 97.795V102.075C70.6264 104.797 70.3473 108.356 68.1607 110.984C68.5096 111.194 69.0214 111.682 69.2772 111.984C71.7197 109.147 72.0919 105.192 72.0919 102.098V97.795H70.6264ZM94.446 94.8873V96.3993H105.518V94.8873H94.446ZM100.843 98.5859V100.028H106.379V98.5859H100.843ZM96.493 99.1674V100.54H100.517V99.1674H96.493ZM96.493 103.424V104.843H100.517V103.424H96.493ZM99.8427 95.4921V112.589H101.285V95.4921H99.8427ZM95.7487 95.3991V109.263L97.1676 108.984V95.3991H95.7487ZM93.9575 109.193L94.2832 110.659C96.0511 110.24 98.3307 109.682 100.541 109.147L100.378 107.797C97.9818 108.356 95.5858 108.867 93.9575 109.193ZM105.96 98.5859V98.9348C105.495 104.68 104.006 108.751 101.68 110.891C102.006 111.124 102.494 111.752 102.704 112.101C105.216 109.775 106.868 105.332 107.449 98.8185L106.542 98.5626L106.263 98.5859H105.96ZM103.053 100.703L101.82 100.982C102.657 105.843 104.239 110.147 106.937 112.287C107.17 111.915 107.635 111.403 107.984 111.124C105.402 109.286 103.797 105.192 103.053 100.703ZM87.0954 96.7017V98.237H94.7484V96.7017H87.0954ZM86.5139 100.982V102.564H95.1904V100.982H86.5139ZM91.3523 105.494V107.076H95.0276V105.494H91.3523ZM90.4218 93.9336V101.959H92.0269V93.9336H90.4218ZM90.7707 102.052V112.659H92.3293V102.052H90.7707ZM88.8866 107.193L87.6072 107.635C89.2122 113.496 92.0966 114.729 98.3772 114.729H107.054C107.17 114.218 107.496 113.427 107.775 113.008C106.379 113.078 99.4472 113.054 98.3772 113.054C92.9573 113.054 90.2125 112.077 88.8866 107.193ZM87.5374 104.355C87.6305 107.495 87.4676 111.449 85.8859 114.287C86.2348 114.45 86.793 114.939 87.0489 115.288C88.8633 112.171 89.0494 107.914 89.0029 104.424L87.5374 104.355ZM117.265 103.401V105.076H130.734V103.401H117.265ZM118.173 97.7717V99.4465H129.757V97.7717H118.173ZM122.918 94.0732V115.311H124.663V94.0732H122.918ZM122.546 104.308C121.197 107.704 118.568 111.031 115.753 112.612C116.172 112.961 116.684 113.566 116.963 113.985C119.824 112.124 122.476 108.565 123.941 104.75L122.546 104.308ZM125.058 104.285L123.709 104.75C125.011 108.309 127.338 111.984 129.71 113.962C130.013 113.496 130.594 112.845 131.013 112.519C128.64 110.868 126.291 107.518 125.058 104.285ZM111.171 96.0736V97.7485H114.823V107.937H111.171V109.612H116.428V96.0736H111.171ZM110.31 96.0736V111.449H111.915V96.0736H110.31ZM142.574 93.9569V97.0506H144.365V93.9569H142.574ZM133.897 96.0271V100.656H135.595V97.6322H151.46V100.656H153.227V96.0271H133.897ZM136.875 99.9583V101.494H149.971V99.9583H136.875ZM139.922 103.447C144.435 106.89 144.528 112.147 142.876 113.334C142.411 113.729 141.899 113.776 141.271 113.776C140.736 113.776 139.945 113.752 139.085 113.659C139.387 114.148 139.55 114.869 139.596 115.334C140.317 115.381 141.062 115.404 141.62 115.404C142.667 115.404 143.318 115.241 144.109 114.613C146.505 112.938 146.389 106.448 141.225 102.633L139.922 103.447ZM143.411 100.307C141.294 102.284 137.293 103.866 133.734 104.727C134.037 105.053 134.502 105.774 134.688 106.099C138.317 105.053 142.457 103.261 144.853 100.935L143.411 100.307ZM141.76 104.75C140.038 106.169 136.526 107.821 133.897 108.542C134.246 108.891 134.618 109.495 134.828 109.891C137.503 108.937 140.992 107.123 142.923 105.541L141.76 104.75ZM143.481 107.146C141.294 109.402 136.782 111.822 133.083 112.799C133.409 113.194 133.804 113.822 134.014 114.264C137.735 113.031 142.271 110.472 144.691 108.03L143.481 107.146ZM145.621 100.563L144.179 100.865C145.575 106.704 148.319 111.426 152.902 113.52C153.181 113.031 153.716 112.357 154.111 112.008C149.692 110.24 146.9 105.797 145.621 100.563ZM151.599 102.284C150.273 103.471 148.017 105.053 146.435 105.983L147.528 107.053C149.18 106.169 151.367 104.727 152.948 103.447L151.599 102.284Z" fill="black"/>
<path d="M234.42 96.9576V99.6326H255.169V96.9576H234.42ZM242.003 104.494V107.076H254.192V104.494H242.003ZM241.096 112.403V114.985H255.076V112.403H241.096ZM246.749 100.633V113.776H249.563V100.633H246.749ZM241.747 93.701C240.538 98.3998 237.886 103.61 233.676 106.355C234.094 107.03 234.746 108.263 235.025 109.053C240.003 105.657 242.934 100.005 244.655 94.3988L241.747 93.701ZM237.095 103.447V115.52H239.91V103.447H237.095ZM270.754 93.7242V110.147H273.383V93.7242H270.754ZM263.869 103.075L264.916 105.541L276.942 100.33L275.918 97.9578L263.869 103.075ZM266.172 95.9806V111.031C266.172 114.264 267.056 115.101 270.242 115.101C270.964 115.101 274.453 115.101 275.22 115.101C277.942 115.101 278.779 114.008 279.128 110.705C278.384 110.565 277.291 110.124 276.686 109.705C276.5 112.101 276.267 112.612 274.988 112.612C274.267 112.612 271.173 112.612 270.475 112.612C269.033 112.612 268.824 112.426 268.824 111.054V95.9806H266.172ZM275.383 98.2602C275.383 103.401 275.383 105.936 275.29 106.402C275.22 106.82 275.081 106.89 274.802 106.89C274.592 106.89 274.057 106.89 273.662 106.867C273.964 107.448 274.174 108.495 274.267 109.193C275.011 109.193 276.011 109.193 276.686 108.867C277.407 108.565 277.802 108.007 277.895 106.937C277.989 105.983 278.035 103.168 278.035 98.7254L278.151 98.2602L276.197 97.5624L275.709 97.9113L275.22 98.2602H275.383ZM257.193 99.1209V101.749H264.869V99.1209H257.193ZM259.891 94.0499V109.472H262.496V94.0499H259.891ZM256.867 109.495L257.984 112.287C260.147 111.31 262.822 110.054 265.288 108.798L264.66 106.332C261.822 107.541 258.798 108.798 256.867 109.495ZM292.597 96.5389V99.0744H301.808V96.5389H292.597ZM291.829 103.634V115.543H294.458V103.634H291.829ZM292.434 93.701C291.806 96.5156 290.55 99.1674 288.782 100.819C289.433 101.191 290.573 102.075 291.061 102.564C292.899 100.633 294.388 97.5624 295.202 94.236L292.434 93.701ZM297.458 102.308L295.062 102.633C295.853 108.379 297.249 113.008 300.645 115.497C301.041 114.776 301.901 113.682 302.529 113.171C299.505 111.217 298.11 107.03 297.458 102.308ZM300.482 103.401C299.529 104.564 297.83 106.099 296.644 106.983L298.272 108.565C299.505 107.728 301.157 106.378 302.436 105.146L300.482 103.401ZM280.617 97.26V99.842H290.271V97.26H280.617ZM284.223 102.122V104.657H288.014V102.122H284.223ZM284.13 93.7242V98.0974H286.805V93.7242H284.13ZM287.107 102.122V102.633C287.014 109.798 286.898 112.217 286.572 112.775C286.386 113.031 286.2 113.124 285.897 113.124C285.525 113.124 284.92 113.101 284.199 113.008C284.571 113.706 284.827 114.753 284.874 115.497C285.804 115.52 286.712 115.52 287.293 115.404C287.921 115.288 288.363 115.078 288.805 114.427C289.387 113.566 289.503 110.775 289.619 103.215C289.619 102.889 289.619 102.122 289.619 102.122H287.107ZM282.99 98.9115V103.471C282.99 106.588 282.664 110.542 280.082 113.938C280.78 114.38 281.687 115.078 282.152 115.636C285.037 111.868 285.432 107.309 285.432 103.494V98.9115H282.99ZM299.226 99.307C297.179 100.935 292.992 102.633 289.689 103.308C290.294 103.913 290.968 104.913 291.341 105.634C294.62 104.634 298.9 102.68 301.25 100.772L299.226 99.307ZM308.717 102.796H303.762V105.378H306.112V111.356H308.717V102.796ZM308.717 110.286H306.391C305.437 111.147 304.367 112.031 303.436 112.682L304.762 115.357C305.832 114.311 306.74 113.427 307.6 112.496C309.019 114.311 310.927 115.008 313.764 115.125C316.695 115.241 321.883 115.194 324.86 115.055C325 114.287 325.395 113.054 325.698 112.45C322.394 112.706 316.649 112.775 313.764 112.659C311.345 112.543 309.647 111.868 308.717 110.286ZM303.599 95.6084C304.762 96.818 306.088 98.5394 306.6 99.6559L308.973 98.1206C308.391 96.9576 306.995 95.3758 305.809 94.236L303.599 95.6084ZM309.391 96.7482V99.0511H317.23V96.7482H309.391ZM312.555 100.749V103.006H315.718V100.749H312.555ZM312.136 93.7242V97.9811H314.718V93.7242H312.136ZM314.788 100.749V101.191C314.672 107.076 314.555 109.053 314.253 109.519C314.113 109.751 313.951 109.821 313.671 109.821C313.392 109.821 312.904 109.821 312.322 109.751C312.671 110.356 312.881 111.31 312.927 111.984C313.718 111.984 314.462 111.984 314.951 111.891C315.532 111.798 315.928 111.589 316.323 111.031C316.835 110.286 316.975 107.96 317.114 101.703C317.114 101.424 317.137 100.749 317.137 100.749H314.788ZM318.44 96.0271V98.33H325.139V96.0271H318.44ZM317.626 104.355V106.565H325.279V104.355H317.626ZM318.207 99.7257V101.773H323.371V99.7257H318.207ZM318.929 93.6079C318.463 95.6317 317.603 97.6554 316.486 98.9581C317.021 99.307 317.952 100.075 318.37 100.493C319.58 98.9581 320.65 96.5389 321.255 94.143L318.929 93.6079ZM320.208 102.936V109.333C320.208 109.542 320.138 109.612 319.859 109.612C319.58 109.612 318.719 109.612 317.882 109.588C318.207 110.24 318.556 111.217 318.649 111.891C319.952 111.891 320.929 111.845 321.65 111.473C322.418 111.1 322.557 110.449 322.557 109.356V102.936H320.208ZM322.697 99.7257V100.144C322.278 101.098 321.394 102.517 320.627 103.378C320.976 103.68 321.627 104.355 321.929 104.773C323.023 103.727 324.279 102.098 325.139 100.679L323.697 99.5861L323.232 99.7257H322.697ZM311.206 97.795V101.866C311.206 104.331 310.973 107.821 308.996 110.147C309.508 110.496 310.275 111.263 310.647 111.752C313.113 109.053 313.462 104.913 313.462 101.912V97.795H311.206ZM336.351 93.7475V97.0739H339.212V93.7475H336.351ZM327.954 95.5619V100.819H330.676V98.0974H344.911V100.819H347.749V95.5619H327.954ZM331.49 99.5861V101.959H344.051V99.5861H331.49ZM333.769 103.727C338.212 106.89 338.212 111.496 336.886 112.519C336.491 112.938 336.049 113.008 335.467 113.008C334.863 113.008 334.095 112.985 333.234 112.892C333.723 113.682 333.979 114.799 334.025 115.567C334.723 115.613 335.421 115.636 336.002 115.613C337.235 115.613 337.98 115.404 338.864 114.636C341.352 112.845 341.399 106.285 335.909 102.471L333.769 103.727ZM337.445 100.191C335.421 102.122 331.443 103.564 327.745 104.308C328.187 104.82 328.908 105.936 329.164 106.471C333.048 105.448 337.282 103.657 339.747 101.145L337.445 100.191ZM335.63 104.82C333.979 106.076 330.606 107.472 328.07 108.077C328.582 108.635 329.164 109.588 329.466 110.193C332.071 109.286 335.491 107.565 337.421 106.076L335.63 104.82ZM337.514 107.03C335.351 109.123 330.908 111.31 327.233 112.217C327.768 112.822 328.373 113.822 328.698 114.52C332.397 113.287 336.933 110.821 339.422 108.449L337.514 107.03ZM341.05 100.586L338.701 101.052C340.027 106.913 342.353 111.566 346.749 113.915C347.168 113.147 348.052 112.031 348.68 111.473C344.563 109.635 342.167 105.471 341.05 100.586ZM345.586 102.098C344.376 103.261 342.306 104.75 340.841 105.588L342.632 107.262C344.144 106.495 346.168 105.192 347.773 103.983L345.586 102.098Z" fill="black"/>
<rect x="216.179" y="68.5115" width="150.923" height="74.9228" rx="37.4614" stroke="#FFCF2D" stroke-width="4.84612"/>
<path d="M55.1343 217.382C52.2267 218.708 46.9231 219.825 42.2475 220.522C42.4802 220.918 42.736 221.592 42.8058 222.034C47.5977 221.337 53.0408 220.29 56.5533 218.778L55.1343 217.382ZM40.0145 225.477L40.2471 227.152L60.7403 224.779L60.5077 223.174L40.0145 225.477ZM48.4583 220.336V230.501C48.4583 232.804 49.2492 233.409 51.9708 233.409C52.5523 233.409 56.5765 233.409 57.2046 233.409C59.6936 233.409 60.2751 232.432 60.5775 228.896C60.0192 228.78 59.2516 228.501 58.8096 228.152C58.6468 231.13 58.4607 231.711 57.1116 231.711C56.2044 231.711 52.7849 231.711 52.0638 231.711C50.5984 231.711 50.3425 231.502 50.3425 230.501V220.336H48.4583ZM49.4818 212.148V215.893H51.3195V212.148H49.4818ZM40.6658 214.567V219.569H42.4336V216.219H58.4375V219.569H60.2984V214.567H40.6658ZM78.3957 217.382C75.488 218.708 70.1844 219.825 65.5089 220.522C65.7415 220.918 65.9974 221.592 66.0672 222.034C70.859 221.337 76.3022 220.29 79.8146 218.778L78.3957 217.382ZM63.2758 225.477L63.5084 227.152L84.0017 224.779L83.7691 223.174L63.2758 225.477ZM71.7197 220.336V230.501C71.7197 232.804 72.5106 233.409 75.2322 233.409C75.8137 233.409 79.8379 233.409 80.466 233.409C82.9549 233.409 83.5365 232.432 83.8389 228.896C83.2806 228.78 82.513 228.501 82.071 228.152C81.9082 231.13 81.7221 231.711 80.3729 231.711C79.4657 231.711 76.0463 231.711 75.3252 231.711C73.8597 231.711 73.6039 231.502 73.6039 230.501V220.336H71.7197ZM72.7432 212.148V215.893H74.5808V212.148H72.7432ZM63.9271 214.567V219.569H65.695V216.219H81.6988V219.569H83.5597V214.567H63.9271ZM90.3055 220.476V222.104H103.82V220.476H90.3055ZM90.3055 225.524V227.152H103.82V225.524H90.3055ZM90.3055 230.618V232.246H103.82V230.618H90.3055ZM89.1192 215.312V233.549H90.887V216.987H103.355V233.432H105.17V215.312H89.1192ZM95.9348 212.102C95.7022 213.242 95.1904 214.87 94.7717 215.963L96.3302 216.266C96.842 215.265 97.4468 213.753 97.9585 212.358L95.9348 212.102ZM117.475 226.291V227.873H130.943V226.291H117.475ZM123.453 214.544H127.873V218.266H123.453V214.544ZM121.871 213.102V219.731H129.524V213.102H121.871ZM118.824 214.312V224.291H120.382V214.312H118.824ZM119.638 221.639V223.197H127.338V227.059H129.012V221.639H119.638ZM123.127 224.267C122.778 228.222 121.755 230.897 116.847 232.223C117.172 232.525 117.614 233.153 117.777 233.525C123.104 231.967 124.36 228.85 124.825 224.267H123.127ZM124.942 226.989L123.453 227.245C124.476 230.455 126.57 232.618 129.966 233.525C130.175 233.06 130.664 232.362 131.059 232.013C127.896 231.362 125.849 229.548 124.942 226.989ZM109.543 216.94V218.568H116.684V216.94H109.543ZM112.729 212.148C112.008 216.545 110.752 222.732 109.822 226.245L111.264 227.036C112.241 223.174 113.567 216.94 114.404 212.311L112.729 212.148ZM110.566 225.361C112.962 227.059 115.777 229.594 117.056 231.362L118.173 229.92C116.87 228.222 113.986 225.803 111.59 224.128L110.566 225.361ZM116.079 216.94V217.289C115.614 225.221 113.404 230.106 109.729 232.13C110.101 232.502 110.543 233.13 110.799 233.549C114.893 231.013 117.149 226.105 117.684 217.033L116.684 216.894L116.382 216.94H116.079ZM142.574 212.148V215.242H144.365V212.148H142.574ZM133.897 214.219V218.848H135.595V215.824H151.46V218.848H153.227V214.219H133.897ZM136.875 218.15V219.685H149.971V218.15H136.875ZM139.922 221.639C144.435 225.082 144.528 230.339 142.876 231.525C142.411 231.92 141.899 231.967 141.271 231.967C140.736 231.967 139.945 231.944 139.085 231.851C139.387 232.339 139.55 233.06 139.596 233.525C140.317 233.572 141.062 233.595 141.62 233.595C142.667 233.595 143.318 233.432 144.109 232.804C146.505 231.13 146.389 224.64 141.225 220.825L139.922 221.639ZM143.411 218.499C141.294 220.476 137.293 222.058 133.734 222.918C134.037 223.244 134.502 223.965 134.688 224.291C138.317 223.244 142.457 221.453 144.853 219.127L143.411 218.499ZM141.76 222.942C140.038 224.36 136.526 226.012 133.897 226.733C134.246 227.082 134.618 227.687 134.828 228.082C137.503 227.129 140.992 225.314 142.923 223.732L141.76 222.942ZM143.481 225.337C141.294 227.594 136.782 230.013 133.083 230.99C133.409 231.385 133.804 232.013 134.014 232.455C137.735 231.223 142.271 228.664 144.691 226.221L143.481 225.337ZM145.621 218.754L144.179 219.057C145.575 224.895 148.319 229.618 152.902 231.711C153.181 231.223 153.716 230.548 154.111 230.199C149.692 228.431 146.9 223.988 145.621 218.754ZM151.599 220.476C150.273 221.662 148.017 223.244 146.435 224.174L147.528 225.244C149.18 224.36 151.367 222.918 152.948 221.639L151.599 220.476Z" fill="black"/>
<path d="M237.979 216.661V218.359H254.099V216.661H237.979ZM236.955 223.477V225.151H253.262V223.477H236.955ZM234.42 231.083V232.781H255.192V231.083H234.42ZM243.911 212.148V231.944H245.702V212.148H243.911ZM238.677 212.52C237.793 215.847 236.281 219.08 234.373 221.15C234.815 221.383 235.606 221.895 235.955 222.197C237.816 219.964 239.444 216.521 240.468 212.916L238.677 212.52ZM265.52 224.477V233.525H267.125V226.082H275.453V233.409H277.128V224.477H265.52ZM276.267 212.218C273.685 213.149 268.963 213.87 264.916 214.312C265.125 214.707 265.358 215.382 265.427 215.8C269.591 215.405 274.453 214.684 277.64 213.59L276.267 212.218ZM270.545 214.242V225.407H272.22V214.242H270.545ZM263.822 218.964V220.639H278.64V218.964H263.822ZM266.614 230.92V232.525H276.221V230.92H266.614ZM258.496 213.66C259.938 214.428 261.868 215.568 262.845 216.266L263.869 214.847C262.869 214.172 260.891 213.125 259.472 212.427L258.496 213.66ZM257.356 220.08C258.775 220.825 260.705 221.941 261.659 222.593L262.636 221.174C261.659 220.499 259.705 219.476 258.333 218.801L257.356 220.08ZM257.914 232.037L259.379 233.223C260.752 231.06 262.38 228.152 263.613 225.686L262.357 224.547C261.008 227.198 259.17 230.269 257.914 232.037ZM283.083 225.849V227.012H291.178V225.849H283.083ZM283.083 228.385V229.548H291.178V228.385H283.083ZM282.966 230.92V232.2H291.713V230.92H282.966ZM280.78 213.707V215.009H291.899V213.707H280.78ZM286.153 223.942V231.734H287.642V223.942H286.153ZM283.339 212.195V216.521H284.851V212.195H283.339ZM287.944 212.195V216.521H289.456V212.195H287.944ZM282.594 218.15H284.548V220.15H282.594V218.15ZM281.361 217.01V221.29H285.851V217.01H281.361ZM288.107 218.15H290.224V220.15H288.107V218.15ZM286.874 217.01V221.29H291.503V217.01H286.874ZM283.688 223.221H283.246L282.222 224.337V233.339H283.688V224.5H291.643V223.221H283.688ZM287.2 221.243C286.991 221.965 286.572 223.104 286.223 223.849L287.363 224.221C287.758 223.546 288.224 222.546 288.665 221.616L287.2 221.243ZM283.269 221.15C282.594 223.197 281.454 225.198 280.175 226.547C280.454 226.826 280.919 227.454 281.106 227.733C282.501 226.175 283.827 223.849 284.618 221.523L283.269 221.15ZM294.248 218.336H299.412V220.685H294.248V218.336ZM294.248 222.081H299.412V224.477H294.248V222.081ZM294.248 214.591H299.412V216.917H294.248V214.591ZM292.736 213.055V226.012H301.017V213.055H292.736ZM297.272 225.57V231.13C297.272 232.688 297.575 233.153 298.994 233.153C299.273 233.153 300.18 233.153 300.459 233.153C301.692 233.153 302.087 232.386 302.204 229.269C301.785 229.129 301.134 228.896 300.831 228.617C300.785 231.362 300.692 231.688 300.273 231.688C300.064 231.688 299.366 231.688 299.203 231.688C298.854 231.688 298.784 231.618 298.784 231.106V225.57H297.272ZM294.225 225.733C294.062 229.129 293.457 231.106 290.503 232.269C290.852 232.548 291.294 233.153 291.48 233.525C294.76 232.107 295.528 229.687 295.737 225.733H294.225ZM309.298 216.01C308.414 217.708 306.6 219.638 303.925 220.988C304.251 221.22 304.693 221.685 304.902 222.011C307.763 220.453 309.671 218.382 310.834 216.266L309.298 216.01ZM309.182 217.498L308.205 218.708H313.276V217.498H309.182ZM312.881 217.498V217.778C311.462 221.662 307.624 224.547 303.855 225.71C304.158 226.012 304.553 226.594 304.739 226.966C308.74 225.524 312.718 222.546 314.416 217.917L313.439 217.429L313.16 217.498H312.881ZM317.161 217.475V218.871H322.488V217.475H317.161ZM310.694 222.802V224.244H318.673V222.802H310.694ZM306.553 226.128V227.617H322.464V226.128H306.553ZM315.579 216.056L314.206 216.428C315.928 221.313 319.254 224.663 324.302 226.082C324.511 225.64 324.953 225.012 325.325 224.686C320.441 223.5 317.114 220.383 315.579 216.056ZM313.695 226.78V231.734C313.695 232.013 313.602 232.083 313.276 232.107C312.927 232.107 311.787 232.13 310.508 232.083C310.717 232.525 310.95 233.107 311.043 233.549C312.718 233.549 313.811 233.572 314.486 233.339C315.207 233.107 315.393 232.665 315.393 231.781V226.78H313.695ZM309.671 228.175C308.391 229.641 306.158 230.99 304.041 231.827C304.413 232.13 304.995 232.781 305.251 233.107C307.368 232.083 309.787 230.478 311.229 228.734L309.671 228.175ZM317.579 229.245C319.626 230.385 322.255 232.06 323.581 233.107L324.79 231.92C323.395 230.85 320.743 229.292 318.719 228.222L317.579 229.245ZM307.53 219.778C308.624 220.406 309.95 221.36 310.601 222.034L311.508 221.15C310.834 220.499 309.508 219.569 308.414 218.987L307.53 219.778ZM305.46 221.29C306.553 222.058 307.833 223.104 308.461 223.872L309.461 223.011C308.833 222.29 307.53 221.243 306.414 220.546L305.46 221.29ZM321.79 217.475V217.778C321.138 219.15 319.812 220.918 318.556 221.988C318.859 222.244 319.301 222.686 319.557 222.988C320.952 221.778 322.511 219.848 323.464 218.033L322.441 217.405L322.139 217.475H321.79ZM313.648 212.148V215.009H315.393V212.148H313.648ZM304.576 213.939V217.661H306.181V215.405H322.836V217.661H324.488V213.939H304.576ZM336.886 212.148V215.242H338.677V212.148H336.886ZM328.21 214.219V218.848H329.908V215.824H345.772V218.848H347.54V214.219H328.21ZM331.187 218.15V219.685H344.283V218.15H331.187ZM334.234 221.639C338.747 225.082 338.84 230.339 337.189 231.525C336.723 231.92 336.212 231.967 335.584 231.967C335.049 231.967 334.258 231.944 333.397 231.851C333.699 232.339 333.862 233.06 333.909 233.525C334.63 233.572 335.374 233.595 335.933 233.595C336.979 233.595 337.631 233.432 338.422 232.804C340.817 231.13 340.701 224.64 335.537 220.825L334.234 221.639ZM337.724 218.499C335.607 220.476 331.606 222.058 328.047 222.918C328.349 223.244 328.815 223.965 329.001 224.291C332.629 223.244 336.77 221.453 339.166 219.127L337.724 218.499ZM336.072 222.942C334.351 224.36 330.838 226.012 328.21 226.733C328.559 227.082 328.931 227.687 329.14 228.082C331.815 227.129 335.305 225.314 337.235 223.732L336.072 222.942ZM337.793 225.337C335.607 227.594 331.094 230.013 327.396 230.99C327.721 231.385 328.117 232.013 328.326 232.455C332.048 231.223 336.584 228.664 339.003 226.221L337.793 225.337ZM339.934 218.754L338.491 219.057C339.887 224.895 342.632 229.618 347.214 231.711C347.493 231.223 348.028 230.548 348.424 230.199C344.004 228.431 341.213 223.988 339.934 218.754ZM345.912 220.476C344.586 221.662 342.329 223.244 340.748 224.174L341.841 225.244C343.493 224.36 345.679 222.918 347.261 221.639L345.912 220.476Z" fill="black"/>
</svg>
