<svg width="200" height="150" viewBox="0 0 200 150" fill="none" xmlns="http://www.w3.org/2000/svg">
<path d="M108.798 124.896C107.712 124.896 106.662 124.491 105.833 123.754C105.005 123.017 104.452 121.996 104.273 120.871L104.272 120.862L104.277 120.854C104.571 120.485 104.808 120.071 104.981 119.625C104.775 119.902 104.527 120.14 104.247 120.33L104.218 120.35L104.216 120.314C104.213 120.234 104.211 120.155 104.211 120.078C104.208 119.259 104.406 118.453 104.785 117.737C105.163 117.021 105.711 116.418 106.374 115.988C105.701 115.25 105.195 114.363 104.892 113.392C104.59 112.421 104.5 111.391 104.628 110.378C104.756 109.365 105.1 108.396 105.633 107.542C106.166 106.687 106.876 105.97 107.709 105.443C108.543 104.916 109.478 104.592 110.447 104.496C111.415 104.4 112.392 104.534 113.304 104.889C114.216 105.243 115.041 105.808 115.717 106.543C116.393 107.277 116.904 108.162 117.21 109.132L117.216 109.15L117.199 109.157C116.808 109.334 116.388 109.427 115.962 109.431C116.405 109.563 116.865 109.621 117.325 109.604L117.341 109.603L117.345 109.62C117.473 110.161 117.538 110.717 117.538 111.275C117.538 111.295 117.538 111.315 117.538 111.335C117.536 111.769 117.622 112.198 117.789 112.595C117.957 112.991 118.202 113.347 118.509 113.637C118.999 114.105 119.386 114.679 119.645 115.32C119.903 115.961 120.027 116.653 120.006 117.348C119.986 118.043 119.823 118.726 119.527 119.349C119.231 119.971 118.811 120.52 118.295 120.955L118.285 120.963L118.274 120.958C117.596 120.635 117.124 120.274 116.802 119.831C117.019 120.389 117.337 120.898 117.736 121.33L117.754 121.349L117.732 121.362C117.046 121.782 116.269 122.007 115.476 122.017C114.683 122.027 113.9 121.821 113.205 121.419C112.926 122.42 112.346 123.3 111.552 123.927C110.758 124.553 109.792 124.893 108.798 124.896V124.896Z" fill="#F2F2F2"/>
<path d="M107.166 132.569C107.146 132.569 107.127 132.562 107.112 132.548C107.097 132.534 107.087 132.515 107.084 132.494C106.866 130.453 106.853 128.393 107.045 126.35C107.333 123.125 108.257 118.481 111.024 114.667C111.031 114.657 111.039 114.65 111.048 114.644C111.058 114.638 111.068 114.634 111.079 114.633C111.09 114.631 111.101 114.632 111.112 114.635C111.122 114.638 111.132 114.643 111.141 114.65C111.15 114.657 111.157 114.665 111.163 114.675C111.168 114.685 111.172 114.696 111.173 114.708C111.175 114.719 111.174 114.731 111.171 114.742C111.168 114.753 111.163 114.764 111.157 114.773C108.413 118.554 107.497 123.164 107.211 126.366C107.02 128.396 107.033 130.442 107.249 132.469C107.251 132.482 107.25 132.494 107.246 132.506C107.243 132.519 107.237 132.53 107.229 132.539C107.222 132.549 107.212 132.556 107.201 132.561C107.19 132.567 107.178 132.569 107.166 132.569V132.569Z" fill="#3F3D56"/>
<path d="M108.552 119.71C108.535 119.71 108.517 119.704 108.503 119.693C108.489 119.683 108.478 119.667 108.473 119.65C108.467 119.632 108.467 119.613 108.473 119.596C108.478 119.578 108.489 119.563 108.503 119.552C109.292 118.991 110.143 118.536 111.039 118.196C112.438 117.658 114.566 117.17 116.756 117.903C116.777 117.91 116.795 117.925 116.805 117.946C116.815 117.966 116.817 117.99 116.81 118.012C116.804 118.035 116.789 118.053 116.769 118.064C116.749 118.074 116.727 118.076 116.706 118.069C114.56 117.352 112.471 117.832 111.096 118.36C110.215 118.694 109.377 119.142 108.601 119.693C108.587 119.704 108.57 119.71 108.552 119.71V119.71Z" fill="#3F3D56"/>
<path d="M66.5768 39.8192C71.0526 39.8192 74.6809 36.0087 74.6809 31.3081C74.6809 26.6076 71.0526 22.7971 66.5768 22.7971C62.101 22.7971 58.4727 26.6076 58.4727 31.3081C58.4727 36.0087 62.101 39.8192 66.5768 39.8192Z" fill="#FF6584"/>
<path d="M65.9267 35.7645H64.8901V29.0614C64.8901 28.1555 64.5474 27.2868 63.9375 26.6462C63.3276 26.0057 62.5003 25.6458 61.6378 25.6458H57.1461V16H56.4257V25.6458H50.3026V35.7645H44.2695V132.79H78.1268V48.5772C78.1268 45.179 76.8414 41.9201 74.5535 39.5172C72.2655 37.1144 69.1623 35.7645 65.9267 35.7645V35.7645Z" fill="#F2F2F2"/>
<path d="M96.9435 94.8689H96.0495V93.5561C96.0491 92.6854 95.7318 91.8478 95.1627 91.2148C94.5936 90.5817 93.8155 90.201 92.9879 90.1506V81.2512H92.2675V90.1405H89.0259V94.8689H77.5V132.885H103.073V101.306C103.073 100.461 102.915 99.6237 102.606 98.8427C102.298 98.0617 101.847 97.352 101.278 96.7543C100.709 96.1565 100.033 95.6824 99.2892 95.3589C98.5455 95.0354 97.7485 94.8689 96.9435 94.8689V94.8689Z" fill="#F2F2F2"/>
<path d="M146.296 67.6538V65.3749C146.296 64.5043 145.979 63.6667 145.409 63.0336C144.84 62.4006 144.062 62.0199 143.235 61.9695V53.0701H142.514V61.9594H139.273V67.6334H123.965V132.885H157.822V80.4461C157.822 77.1706 156.627 74.0197 154.484 71.6405C152.34 69.2614 149.41 67.8347 146.296 67.6538Z" fill="#F2F2F2"/>
<path d="M134.045 76.9011H129.543V80.6838H134.045V76.9011Z" fill="white"/>
<path d="M141.432 76.9011H136.93V80.6838H141.432V76.9011Z" fill="white"/>
<path d="M148.815 76.9011H144.312V80.6838H148.815V76.9011Z" fill="white"/>
<path d="M134.045 86.5469H129.543V90.3296H134.045V86.5469Z" fill="white"/>
<path d="M141.432 86.5469H136.93V90.3296H141.432V86.5469Z" fill="white"/>
<path d="M148.815 86.5469H144.312V90.3296H148.815V86.5469Z" fill="white"/>
<path d="M134.045 96.1929H129.543V99.9755H134.045V96.1929Z" fill="white"/>
<path d="M141.432 96.1929H136.93V99.9755H141.432V96.1929Z" fill="white"/>
<path d="M148.815 96.1929H144.312V99.9755H148.815V96.1929Z" fill="white"/>
<path d="M134.045 105.838H129.543V109.621H134.045V105.838Z" fill="white"/>
<path d="M141.432 105.838H136.93V109.621H141.432V105.838Z" fill="white"/>
<path d="M148.815 105.838H144.312V109.621H148.815V105.838Z" fill="white"/>
<path d="M134.045 115.485H129.543V119.267H134.045V115.485Z" fill="white"/>
<path d="M141.432 115.485H136.93V119.267H141.432V115.485Z" fill="white"/>
<path d="M148.815 115.485H144.312V119.267H148.815V115.485Z" fill="white"/>
<path d="M134.045 125.13H129.543V128.913H134.045V125.13Z" fill="white"/>
<path d="M141.432 125.13H136.93V128.913H141.432V125.13Z" fill="white"/>
<path d="M148.815 125.13H144.312V128.913H148.815V125.13Z" fill="white"/>
<path d="M68.4937 43.4246H53.9062V44.5594H68.4937V43.4246Z" fill="white"/>
<path d="M68.4937 50.4221H53.9062V51.5569H68.4937V50.4221Z" fill="white"/>
<path d="M68.4937 57.4202H53.9062V58.555H68.4937V57.4202Z" fill="white"/>
<path d="M68.4937 64.4185H53.9062V65.5533H68.4937V64.4185Z" fill="white"/>
<path d="M68.4937 71.4163H53.9062V72.5511H68.4937V71.4163Z" fill="white"/>
<path d="M68.4937 78.4143H53.9062V79.5491H68.4937V78.4143Z" fill="white"/>
<path d="M68.4937 85.4121H53.9062V86.5469H68.4937V85.4121Z" fill="white"/>
<path d="M68.4937 92.4099H53.9062V93.5447H68.4937V92.4099Z" fill="white"/>
<path d="M68.4937 99.408H53.9062V100.543H68.4937V99.408Z" fill="white"/>
<path d="M68.4937 106.406H53.9062V107.541H68.4937V106.406Z" fill="white"/>
<path d="M68.4937 113.404H53.9062V114.539H68.4937V113.404Z" fill="white"/>
<path d="M68.4937 120.402H53.9062V121.537H68.4937V120.402Z" fill="white"/>
<path d="M85.1546 99.9756H80.6523V103.758H85.1546V99.9756Z" fill="white"/>
<path d="M92.5374 99.9756H88.0352V103.758H92.5374V99.9756Z" fill="white"/>
<path d="M99.9203 99.9756H95.418V103.758H99.9203V99.9756Z" fill="white"/>
<path d="M85.2445 109.621H80.7422V113.404H85.2445V109.621Z" fill="white"/>
<path d="M92.6312 109.621H88.1289V113.404H92.6312V109.621Z" fill="white"/>
<path d="M100.014 109.621H95.5117V113.404H100.014V109.621Z" fill="white"/>
<path d="M85.3304 119.267H80.8281V123.05H85.3304V119.267Z" fill="white"/>
<path d="M92.7171 119.267H88.2148V123.05H92.7171V119.267Z" fill="white"/>
<path d="M100.1 119.267H95.5977V123.05H100.1V119.267Z" fill="white"/>
<path d="M59.8539 27.7263H55.3516V31.509H59.8539V27.7263Z" fill="white"/>
<path d="M45.5086 123.466C45.8664 120.444 47.6498 117.466 50.3942 116.482C49.3119 119.593 49.3122 123.005 50.3949 126.116C50.8166 127.314 51.4044 128.6 51.0077 129.808C50.7609 130.559 50.1572 131.134 49.4823 131.493C48.8073 131.852 48.0583 132.024 47.3186 132.192L47.173 132.318C45.9988 129.533 45.1507 126.488 45.5086 123.466Z" fill="#CACACA"/>
<path d="M50.4193 116.54C48.8211 118.42 47.8278 120.782 47.5804 123.289C47.518 123.828 47.5369 124.374 47.6363 124.906C47.7492 125.422 47.9914 125.896 48.3378 126.28C48.654 126.645 49.0177 126.98 49.2439 127.419C49.3565 127.646 49.4223 127.895 49.4368 128.15C49.4513 128.405 49.4144 128.661 49.3283 128.9C49.1285 129.501 48.7349 129.992 48.334 130.457C47.889 130.974 47.4189 131.504 47.2297 132.189C47.2068 132.272 47.0854 132.23 47.1083 132.147C47.4375 130.955 48.5394 130.277 49.065 129.204C49.3102 128.703 49.4131 128.121 49.1832 127.592C48.9822 127.13 48.6075 126.784 48.2843 126.418C47.9411 126.048 47.6892 125.596 47.5507 125.101C47.4258 124.575 47.3869 124.031 47.4358 123.492C47.5274 122.276 47.8004 121.083 48.2449 119.956C48.7455 118.667 49.4523 117.478 50.3348 116.439C50.3894 116.375 50.4736 116.476 50.4193 116.54H50.4193Z" fill="white"/>
<path d="M47.6177 122.477C47.2228 122.376 46.8748 122.131 46.6359 121.786C46.397 121.441 46.2827 121.018 46.3135 120.592C46.32 120.506 46.4477 120.513 46.4412 120.599C46.4118 120.995 46.5183 121.389 46.7414 121.71C46.9645 122.031 47.2895 122.258 47.6578 122.35C47.7378 122.37 47.6972 122.497 47.6177 122.477H47.6177Z" fill="white"/>
<path d="M48.1572 126.118C48.8705 125.67 49.397 124.957 49.6319 124.12C49.6551 124.037 49.7764 124.079 49.7532 124.162C49.5073 125.033 48.9579 125.774 48.2147 126.237C48.1438 126.282 48.0867 126.161 48.1572 126.118V126.118Z" fill="white"/>
<path d="M48.8725 118.794C49.0176 118.867 49.1775 118.9 49.3379 118.892C49.4983 118.883 49.6542 118.833 49.7915 118.745C49.8618 118.7 49.9189 118.82 49.849 118.865C49.6969 118.961 49.5246 119.016 49.3474 119.026C49.1702 119.036 48.9934 119 48.8324 118.922C48.8166 118.916 48.8037 118.904 48.7961 118.888C48.7886 118.872 48.787 118.854 48.7918 118.837C48.7971 118.82 48.8087 118.806 48.8238 118.798C48.8389 118.79 48.8564 118.789 48.8725 118.794H48.8725Z" fill="white"/>
<path d="M58.7627 121.88C58.7196 121.91 58.6765 121.939 58.6333 121.97C58.0553 122.369 57.5091 122.817 57.0002 123.309C56.9603 123.346 56.9204 123.385 56.8816 123.423C55.6675 124.622 54.6759 126.048 53.9573 127.627C53.6719 128.256 53.4325 128.906 53.2411 129.573C52.9768 130.494 52.76 131.515 52.2369 132.268C52.1831 132.347 52.1248 132.423 52.0621 132.495H47.3344C47.3236 132.489 47.3128 132.485 47.302 132.479L47.1133 132.488C47.1209 132.453 47.1295 132.417 47.137 132.382C47.1414 132.361 47.1467 132.341 47.151 132.32C47.1543 132.307 47.1575 132.293 47.1597 132.281C47.1607 132.276 47.1619 132.272 47.1629 132.268C47.1651 132.256 47.1683 132.244 47.1705 132.233C47.2179 132.03 47.2668 131.828 47.3172 131.625C47.3172 131.624 47.3172 131.624 47.3182 131.623C47.6877 130.074 48.2308 128.576 48.9362 127.162C48.9578 127.12 48.9793 127.077 49.0031 127.035C49.3297 126.408 49.7046 125.811 50.1238 125.249C50.3543 124.942 50.5995 124.648 50.8584 124.367C51.5286 123.642 52.3032 123.033 53.1537 122.561C54.8494 121.621 56.8125 121.261 58.6247 121.835C58.671 121.85 58.7164 121.865 58.7627 121.88Z" fill="#CACACA"/>
<path d="M58.7497 121.943C56.3954 122.434 54.2484 123.692 52.6135 125.538C52.2548 125.928 51.957 126.376 51.7311 126.864C51.5256 127.347 51.447 127.879 51.5035 128.405C51.5468 128.896 51.6453 129.393 51.5741 129.887C51.5341 130.139 51.4438 130.379 51.3092 130.592C51.1745 130.805 50.9985 130.986 50.7927 131.122C50.2883 131.476 49.6928 131.619 49.1059 131.737C48.4542 131.869 47.7754 131.994 47.2315 132.422C47.1656 132.473 47.0929 132.363 47.1587 132.311C48.105 131.567 49.373 131.724 50.4082 131.199C50.8912 130.954 51.3069 130.554 51.4266 129.986C51.5312 129.49 51.4301 128.977 51.3821 128.48C51.3199 127.968 51.3779 127.448 51.5512 126.965C51.7527 126.467 52.0336 126.008 52.3818 125.608C53.1519 124.695 54.054 123.915 55.0549 123.296C56.1935 122.584 57.4398 122.081 58.7398 121.81C58.8203 121.793 58.8296 121.927 58.7496 121.943H58.7497Z" fill="white"/>
<path d="M53.1069 124.911C52.8493 124.581 52.7118 124.165 52.719 123.738C52.7262 123.312 52.8776 122.902 53.1462 122.581C53.2007 122.517 53.2989 122.603 53.2443 122.667C52.9937 122.965 52.8527 123.347 52.8467 123.745C52.8408 124.142 52.9704 124.529 53.212 124.834C53.2644 124.901 53.159 124.977 53.1069 124.911V124.911Z" fill="white"/>
<path d="M51.4528 128.159C52.2787 128.253 53.108 128.016 53.7753 127.496C53.8413 127.445 53.914 127.555 53.848 127.607C53.1527 128.146 52.2892 128.39 51.43 128.291C51.3481 128.281 51.3713 128.149 51.4528 128.159V128.159Z" fill="white"/>
<path d="M56.2172 122.76C56.2915 122.91 56.4001 123.037 56.533 123.132C56.666 123.227 56.8193 123.285 56.9791 123.302C57.0611 123.31 57.0377 123.442 56.9563 123.434C56.7798 123.414 56.6106 123.35 56.4635 123.245C56.3163 123.141 56.1957 123.001 56.1121 122.836C56.103 122.822 56.0996 122.804 56.1026 122.786C56.1056 122.769 56.1148 122.754 56.1283 122.743C56.1422 122.733 56.1594 122.729 56.1761 122.732C56.1927 122.735 56.2075 122.745 56.2172 122.76Z" fill="white"/>
<path d="M131.415 123.466C131.773 120.444 133.556 117.466 136.3 116.482C135.218 119.593 135.218 123.005 136.301 126.116C136.723 127.314 137.311 128.6 136.914 129.808C136.667 130.559 136.063 131.134 135.389 131.493C134.714 131.852 133.965 132.024 133.225 132.192L133.079 132.318C131.905 129.533 131.057 126.488 131.415 123.466Z" fill="#CACACA"/>
<path d="M136.326 116.54C134.727 118.42 133.734 120.782 133.487 123.289C133.424 123.828 133.443 124.374 133.543 124.906C133.655 125.422 133.898 125.896 134.244 126.28C134.56 126.645 134.924 126.98 135.15 127.419C135.263 127.646 135.329 127.895 135.343 128.15C135.358 128.405 135.321 128.661 135.235 128.9C135.035 129.501 134.641 129.992 134.24 130.457C133.795 130.974 133.325 131.504 133.136 132.189C133.113 132.272 132.992 132.23 133.015 132.147C133.344 130.955 134.446 130.277 134.971 129.204C135.216 128.703 135.319 128.121 135.089 127.592C134.888 127.13 134.514 126.784 134.191 126.418C133.847 126.048 133.595 125.596 133.457 125.101C133.332 124.575 133.293 124.031 133.342 123.492C133.434 122.276 133.707 121.083 134.151 119.956C134.652 118.667 135.359 117.478 136.241 116.439C136.296 116.375 136.38 116.476 136.326 116.54V116.54Z" fill="white"/>
<path d="M133.52 122.477C133.125 122.376 132.777 122.131 132.538 121.786C132.299 121.441 132.185 121.018 132.216 120.592C132.222 120.506 132.35 120.513 132.344 120.599C132.314 120.995 132.421 121.389 132.644 121.71C132.867 122.031 133.192 122.258 133.56 122.35C133.64 122.37 133.6 122.497 133.52 122.477V122.477Z" fill="white"/>
<path d="M134.06 126.118C134.773 125.67 135.299 124.957 135.534 124.12C135.557 124.037 135.679 124.079 135.656 124.162C135.41 125.033 134.86 125.774 134.117 126.237C134.046 126.282 133.989 126.161 134.06 126.118V126.118Z" fill="white"/>
<path d="M134.767 118.794C134.912 118.867 135.072 118.9 135.232 118.892C135.393 118.883 135.549 118.833 135.686 118.745C135.756 118.7 135.813 118.82 135.744 118.865C135.591 118.961 135.419 119.016 135.242 119.026C135.065 119.036 134.888 119 134.727 118.922C134.711 118.916 134.698 118.904 134.691 118.888C134.683 118.872 134.682 118.854 134.686 118.837C134.692 118.82 134.703 118.806 134.718 118.798C134.733 118.79 134.751 118.789 134.767 118.794H134.767Z" fill="white"/>
<path d="M144.661 121.88C144.618 121.91 144.575 121.939 144.532 121.97C143.954 122.369 143.408 122.817 142.899 123.309C142.859 123.346 142.819 123.385 142.78 123.423C141.566 124.622 140.574 126.048 139.856 127.627C139.57 128.256 139.331 128.906 139.14 129.573C138.875 130.494 138.658 131.515 138.135 132.268C138.082 132.347 138.023 132.423 137.961 132.495H133.233C133.222 132.489 133.211 132.485 133.2 132.479L133.012 132.488C133.019 132.453 133.028 132.417 133.035 132.382C133.04 132.361 133.045 132.341 133.049 132.32C133.053 132.307 133.056 132.293 133.058 132.281C133.059 132.276 133.06 132.272 133.061 132.268C133.063 132.256 133.067 132.244 133.069 132.233C133.116 132.03 133.165 131.828 133.216 131.625C133.216 131.624 133.216 131.624 133.217 131.623C133.586 130.074 134.129 128.576 134.835 127.162C134.856 127.12 134.878 127.077 134.902 127.035C135.228 126.408 135.603 125.811 136.022 125.249C136.253 124.942 136.498 124.648 136.757 124.367C137.427 123.642 138.202 123.033 139.052 122.561C140.748 121.621 142.711 121.261 144.523 121.835C144.569 121.85 144.615 121.865 144.661 121.88Z" fill="#CACACA"/>
<path d="M144.656 121.943C142.302 122.434 140.155 123.692 138.52 125.538C138.161 125.928 137.863 126.376 137.637 126.864C137.432 127.347 137.353 127.879 137.41 128.405C137.453 128.896 137.552 129.393 137.48 129.887C137.44 130.139 137.35 130.379 137.215 130.592C137.081 130.805 136.905 130.986 136.699 131.122C136.195 131.476 135.599 131.619 135.012 131.737C134.36 131.869 133.682 131.994 133.138 132.422C133.072 132.473 132.999 132.363 133.065 132.311C134.011 131.567 135.279 131.724 136.314 131.199C136.797 130.954 137.213 130.554 137.333 129.986C137.437 129.49 137.336 128.977 137.288 128.48C137.226 127.968 137.284 127.448 137.457 126.965C137.659 126.467 137.94 126.008 138.288 125.608C139.058 124.695 139.96 123.915 140.961 123.296C142.1 122.584 143.346 122.081 144.646 121.81C144.727 121.793 144.736 121.927 144.656 121.943H144.656Z" fill="white"/>
<path d="M139.009 124.911C138.752 124.581 138.614 124.165 138.621 123.738C138.629 123.312 138.78 122.902 139.049 122.581C139.103 122.517 139.201 122.603 139.147 122.667C138.896 122.965 138.755 123.347 138.749 123.745C138.743 124.142 138.873 124.529 139.114 124.834C139.167 124.901 139.061 124.977 139.009 124.911V124.911Z" fill="white"/>
<path d="M137.351 128.159C138.177 128.253 139.006 128.016 139.674 127.496C139.74 127.445 139.812 127.555 139.746 127.607C139.051 128.146 138.188 128.39 137.328 128.291C137.246 128.281 137.27 128.149 137.351 128.159V128.159Z" fill="white"/>
<path d="M142.116 122.76C142.19 122.91 142.299 123.037 142.431 123.132C142.564 123.227 142.718 123.285 142.878 123.302C142.96 123.31 142.936 123.442 142.855 123.434C142.678 123.414 142.509 123.35 142.362 123.245C142.215 123.141 142.094 123.001 142.011 122.836C142.001 122.822 141.998 122.804 142.001 122.786C142.004 122.769 142.013 122.754 142.027 122.743C142.041 122.733 142.058 122.729 142.075 122.732C142.091 122.735 142.106 122.745 142.116 122.76V122.76Z" fill="white"/>
<path d="M79.3385 30.1873C78.9623 29.9084 78.5507 29.6176 78.0903 29.6292C76.9761 29.6574 76.3754 31.3727 75.2624 31.3124C74.5525 31.2739 74.0813 30.5167 73.4204 30.2421C72.56 29.8846 71.465 30.5837 71.3711 31.5505L71.4816 31.4443C74.8264 32.3006 78.2973 32.469 81.703 31.9402C80.9148 31.3559 80.1267 30.7716 79.3385 30.1873Z" fill="#F0F0F0"/>
<path d="M130.659 22.4327C130.283 22.1538 129.871 21.863 129.411 21.8746C128.296 21.9027 127.696 23.6181 126.583 23.5578C125.873 23.5193 125.402 22.762 124.741 22.4874C123.88 22.13 122.785 22.8291 122.691 23.7959L122.802 23.6896C126.147 24.546 129.618 24.7144 133.023 24.1856C132.235 23.6013 131.447 23.017 130.659 22.4327Z" fill="#F0F0F0"/>
<path d="M102.03 54.0181C101.654 53.7393 101.242 53.4484 100.782 53.4601C99.6675 53.4882 99.0668 55.2036 97.9538 55.1432C97.2439 55.1048 96.7727 54.3475 96.1118 54.0729C95.2514 53.7154 94.1564 54.4145 94.0625 55.3813L94.173 55.2751C97.5178 56.1314 100.989 56.2998 104.394 55.771C103.606 55.1867 102.818 54.6024 102.03 54.0181Z" fill="#F0F0F0"/>
<path d="M106.402 86.6168C106.662 86.5884 106.913 86.5004 107.137 86.3591C107.362 86.2177 107.554 86.0265 107.7 85.7988C107.846 85.5712 107.943 85.3126 107.984 85.0414C108.024 84.7702 108.008 84.4929 107.936 84.229L113.129 80.3816L110.054 79.1162L105.594 82.9638C105.18 83.1208 104.835 83.4319 104.625 83.8381C104.414 84.2442 104.353 84.7173 104.453 85.1675C104.553 85.6178 104.806 86.0141 105.165 86.2812C105.525 86.5483 105.965 86.6677 106.402 86.6168H106.402Z" fill="#FFB6B6"/>
<path d="M141.418 89.1158C141.536 88.8706 141.601 88.6012 141.608 88.3268C141.616 88.0523 141.567 87.7794 141.463 87.5273C141.36 87.2751 141.205 87.0499 141.009 86.8674C140.814 86.6849 140.583 86.5496 140.332 86.4711L140.054 79.803L137.379 81.8376L138.054 87.8578C137.956 88.3085 138.019 88.7813 138.231 89.1864C138.443 89.5916 138.789 89.901 139.204 90.0561C139.618 90.2112 140.073 90.2011 140.481 90.0278C140.889 89.8545 141.222 89.53 141.418 89.1158V89.1158Z" fill="#FFB6B6"/>
<path d="M132.84 129.839H130.167L128.895 119.008L132.841 119.008L132.84 129.839Z" fill="#FFB6B6"/>
<path d="M133.516 132.561L124.895 132.56V132.446C124.895 131.511 125.248 130.615 125.877 129.954C126.507 129.293 127.36 128.922 128.25 128.922H128.25L129.825 127.667L132.763 128.922L133.516 128.922L133.516 132.561Z" fill="#2F2E41"/>
<path d="M115.857 129.764L113.211 129.362L113.427 118.452L117.333 119.045L115.857 129.764Z" fill="#FFB6B6"/>
<path d="M116.165 132.561L107.633 131.265L107.648 131.152C107.776 130.227 108.248 129.393 108.961 128.834C109.673 128.274 110.569 128.035 111.449 128.168L111.45 128.168L113.179 127.163L115.916 128.846L116.661 128.959L116.165 132.561Z" fill="#2F2E41"/>
<path d="M136.857 88.0947C135.397 87.7112 133.937 87.3278 132.477 86.9445C130.149 86.3333 127.821 85.7222 125.494 85.1111L123.891 84.6902C123.848 84.6785 123.803 84.6781 123.76 84.6891C123.723 84.6962 123.689 84.7117 123.659 84.7344C123.629 84.7572 123.604 84.7866 123.586 84.8206C123.226 85.4501 122.866 86.0797 122.507 86.7092L119.961 91.1645C118.97 92.9001 117.978 94.6356 116.987 96.3711L114.62 100.513C114.409 100.883 114.199 101.252 113.988 101.621C113.9 101.744 113.842 101.888 113.82 102.041C113.748 102.892 113.695 103.745 113.633 104.596C113.507 106.315 113.381 108.034 113.255 109.753L112.81 115.825C112.68 117.599 112.55 119.372 112.421 121.146C112.351 122.091 112.282 123.037 112.213 123.982L112.203 124.115C112.204 124.176 112.223 124.237 112.259 124.286C112.295 124.335 112.345 124.371 112.401 124.388L116.65 125.875L117.264 126.09C117.333 126.11 117.407 126.1 117.469 126.063C117.531 126.026 117.577 125.965 117.596 125.892C117.875 124.134 118.154 122.377 118.433 120.619C118.882 117.791 119.331 114.962 119.78 112.134C119.85 111.691 119.92 111.248 119.99 110.806C120.038 110.584 120.074 110.36 120.097 110.134C120.183 110.027 120.254 109.907 120.307 109.779C120.568 109.249 120.626 108.634 120.47 108.06L120.449 107.989C120.446 107.979 120.444 107.971 120.441 107.963C120.461 107.839 120.481 107.714 120.501 107.59C120.559 107.223 120.617 106.857 120.675 106.49C120.722 106.197 120.768 105.903 120.815 105.61C120.817 105.596 120.821 105.58 120.825 105.564C120.808 105.577 120.789 105.586 120.769 105.591C120.779 105.588 120.792 105.564 120.8 105.557C120.81 105.549 120.819 105.539 120.829 105.531C120.831 105.522 120.832 105.513 120.832 105.504C120.829 105.45 120.857 105.47 120.857 105.504C121.034 105.342 121.193 105.145 121.357 104.973C122.196 104.092 123.035 103.211 123.874 102.33C125.386 100.741 126.899 99.1527 128.411 97.5642V122.262C128.411 123.429 128.375 124.602 128.411 125.768C128.412 125.784 128.411 125.8 128.411 125.817C128.412 125.892 128.441 125.963 128.492 126.016C128.542 126.069 128.61 126.099 128.682 126.1H133.544C133.615 126.099 133.683 126.068 133.733 126.015C133.783 125.963 133.812 125.891 133.814 125.817C133.874 125.128 133.933 124.439 133.993 123.751C134.129 122.18 134.265 120.608 134.401 119.037C134.549 117.325 134.697 115.614 134.846 113.902L135.134 110.571C135.141 110.49 135.153 110.405 135.156 110.323C135.167 110.295 135.179 110.264 135.185 110.25C135.23 110.149 135.275 110.049 135.319 109.948C135.554 109.42 135.726 108.896 135.66 108.301C135.643 108.132 135.609 107.965 135.56 107.803C135.533 107.717 135.501 107.632 135.466 107.549C135.448 107.505 135.429 107.46 135.407 107.418C135.407 107.414 135.407 107.411 135.408 107.407C135.483 106.981 135.484 106.524 135.521 106.093C135.589 105.309 135.657 104.526 135.725 103.742L136.134 99.0194L136.284 97.2796L136.696 92.5277C136.809 91.2145 136.923 89.9013 137.037 88.5882C137.043 88.5149 137.049 88.4416 137.056 88.3682C137.056 88.3062 137.036 88.2458 137 88.1965C136.965 88.1471 136.914 88.1113 136.857 88.0947V88.0947Z" fill="#2F2E41"/>
<path d="M120.816 105.564C120.826 105.557 120.834 105.548 120.84 105.538C120.845 105.528 120.848 105.516 120.849 105.504C120.839 105.513 120.83 105.522 120.821 105.531C120.819 105.542 120.819 105.552 120.816 105.564Z" fill="#2F2E41"/>
<path d="M133.543 56.0263L130.302 52.6219V50.9197L123.819 52.6219V56.0263C123.819 56.0263 118.956 66.2395 120.577 71.3461C121.529 74.3454 121.922 79.1062 122.084 82.5247C122.099 82.8499 122.512 83.2225 122.524 83.5208C122.534 83.7834 121.436 84.4177 121.443 84.6556C121.491 86.1424 122.198 86.666 122.198 86.666L136.785 88.3682C136.684 87.1234 136.963 86.8232 136.931 85.6012C136.921 85.1984 136.033 83.921 136.031 83.5208C136.029 83.1443 136.564 82.711 136.569 82.3369C136.572 82.0956 136.577 81.8548 136.583 81.6144C136.691 77.4598 137.26 73.4569 138.406 69.6439L133.543 56.0263Z" fill="#F9A826"/>
<path d="M137.021 85.5112L136.693 72.5067L130.073 59.9933C129.738 59.3582 129.657 58.6092 129.847 57.9109C130.037 57.2127 130.483 56.6223 131.088 56.2696C131.693 55.9169 132.406 55.8307 133.071 56.0299C133.736 56.2292 134.298 56.6976 134.635 57.3322L141.736 70.7566L141.735 70.7838L141.341 78.6083L140.803 81.6215L141.121 82.539L140.976 85.3134L137.021 85.5112Z" fill="#F9A826"/>
<path d="M111.052 83.9701L107.066 81.2627L116.726 72.3287L121.824 59.0521C121.968 58.6788 122.188 58.3431 122.469 58.0692C122.75 57.7952 123.084 57.5896 123.45 57.467C123.815 57.3444 124.201 57.3079 124.581 57.3599C124.961 57.4119 125.326 57.5513 125.649 57.7681V57.7681C126.161 58.1124 126.543 58.634 126.729 59.2427C126.914 59.8513 126.891 60.5088 126.664 61.1016L121.193 75.3483L118.623 76.9723L117.654 78.3649L116.827 78.3231L116.556 79.2957L115.01 80.0072L111.052 83.9701Z" fill="#F9A826"/>
<path d="M131.923 43.3787C131.923 44.5403 131.595 45.6758 130.981 46.6417C130.366 47.6075 129.493 48.3603 128.471 48.8049C127.449 49.2494 126.325 49.3657 125.24 49.1391C124.155 48.9125 123.158 48.3531 122.376 47.5317C121.594 46.7103 121.062 45.6638 120.846 44.5245C120.63 43.3852 120.741 42.2043 121.164 41.1311C121.587 40.0579 122.304 39.1406 123.224 38.4952C124.143 37.8498 125.225 37.5054 126.331 37.5054V37.5054C127.81 37.5015 129.231 38.115 130.279 39.211C131.328 40.307 131.92 41.7956 131.923 43.3494C131.923 43.3592 131.923 43.3689 131.923 43.3787Z" fill="#FFB6B6"/>
<path d="M120.752 35.4896C121.407 34.0102 122.675 34.3027 123.783 34.8042C125.188 34.4771 126.523 33.4978 128.036 34.0769C129.526 36.3532 134.529 35.6835 133.465 39.3893C133.463 40.2772 135.056 39.7604 134.778 41.2147C135.621 44.0135 131.733 49.314 129.501 48.1978C130.053 47.1352 131.314 44.7217 129.401 44.4823C125.286 48.5031 128.977 36.8257 123.807 40.2217C122.095 41.867 119.751 37.1353 120.752 35.4896Z" fill="#2F2E41"/>
<path d="M158.786 133.001H42.2138C42.157 133.001 42.1027 132.977 42.0626 132.935C42.0225 132.893 42 132.836 42 132.776C42 132.717 42.0225 132.659 42.0626 132.617C42.1027 132.575 42.157 132.551 42.2138 132.551H158.786C158.843 132.551 158.897 132.575 158.937 132.617C158.977 132.659 159 132.717 159 132.776C159 132.836 158.977 132.893 158.937 132.935C158.897 132.977 158.843 133.001 158.786 133.001Z" fill="#CACACA"/>
<path d="M129.997 46.4459C130.071 46.2696 130.093 46.0745 130.062 45.8848C130.031 45.6951 129.948 45.5193 129.822 45.379C129.726 45.275 129.615 45.1873 129.494 45.1192L129.447 45.1062C129.311 45.069 129.167 45.0793 129.038 45.1355C128.908 45.1917 128.8 45.2908 128.728 45.4177L128.703 45.4622C128.653 45.5526 128.623 45.6542 128.616 45.7588C128.609 45.8634 128.625 45.9683 128.664 46.0651L128.758 46.3029L128.161 47.337C128.135 47.3817 128.127 47.435 128.137 47.4861C128.148 47.5371 128.176 47.582 128.217 47.6115L128.349 47.7059C128.37 47.7213 128.394 47.732 128.42 47.7374C128.445 47.7429 128.471 47.743 128.497 47.7377C128.522 47.7324 128.546 47.7218 128.568 47.7066C128.589 47.6914 128.607 47.6718 128.622 47.649L129.151 46.7987C129.204 46.8231 129.261 46.8397 129.319 46.8481C129.459 46.8679 129.6 46.8394 129.723 46.7668C129.845 46.6942 129.942 46.5815 129.997 46.4459V46.4459Z" fill="white"/>
<path d="M129.058 46.3187C129.027 46.2979 129.004 46.2647 128.996 46.2264C128.987 46.1882 128.994 46.148 129.014 46.1147L129.223 45.7629C129.232 45.7464 129.245 45.732 129.26 45.7206C129.275 45.7093 129.292 45.7011 129.311 45.6967C129.329 45.6923 129.347 45.6917 129.366 45.6949C129.384 45.6981 129.402 45.705 129.417 45.7154C129.433 45.7257 129.447 45.7392 129.457 45.755C129.468 45.7709 129.476 45.7889 129.48 45.8078C129.484 45.8268 129.485 45.8465 129.482 45.8657C129.478 45.8849 129.472 45.9033 129.462 45.9198L129.253 46.2716C129.233 46.3048 129.201 46.3285 129.165 46.3373C129.128 46.3462 129.09 46.3395 129.058 46.3187V46.3187Z" fill="#2F2E41"/>
<path d="M109.386 87.2901L106.771 88.6967C106.614 88.7808 106.432 88.7962 106.264 88.7394C106.097 88.6827 105.957 88.5584 105.877 88.3938L102.487 81.4435C102.407 81.2788 102.392 81.0874 102.446 80.9114C102.5 80.7353 102.619 80.589 102.775 80.5045L105.39 79.0979C105.547 79.0138 105.729 78.9984 105.896 79.0552C106.064 79.112 106.203 79.2363 106.284 79.4008L109.674 86.3511C109.754 86.5159 109.769 86.7072 109.715 86.8833C109.661 87.0593 109.542 87.2056 109.386 87.2901Z" fill="#3F3D56"/>
<path d="M105.455 79.3062L105.164 79.4628C105.138 79.4768 105.118 79.5011 105.109 79.5302C105.1 79.5594 105.103 79.5911 105.116 79.6184C105.143 79.6742 105.148 79.739 105.13 79.7987C105.111 79.8583 105.071 79.9079 105.018 79.9365L103.595 80.7022C103.542 80.7307 103.48 80.736 103.423 80.7167C103.366 80.6975 103.319 80.6554 103.292 80.5996C103.279 80.5724 103.256 80.5518 103.228 80.5424C103.2 80.533 103.17 80.5355 103.144 80.5495L102.887 80.6875C102.768 80.7516 102.679 80.8626 102.638 80.9961C102.597 81.1296 102.608 81.2747 102.668 81.3997L106.035 88.3006C106.096 88.4254 106.201 88.5196 106.328 88.5627C106.455 88.6058 106.594 88.5941 106.713 88.5303L109.28 87.1491C109.399 87.0849 109.489 86.974 109.53 86.8405C109.571 86.707 109.56 86.5618 109.499 86.4369L106.133 79.5359C106.072 79.4112 105.966 79.3169 105.839 79.2739C105.712 79.2308 105.574 79.2425 105.455 79.3062V79.3062Z" fill="white"/>
<path d="M104.576 79.9522L103.773 80.3842C103.766 80.3883 103.757 80.3891 103.749 80.3863C103.741 80.3835 103.734 80.3775 103.73 80.3695C103.726 80.3615 103.725 80.3522 103.728 80.3437C103.731 80.3352 103.736 80.3281 103.744 80.324L104.547 79.892C104.551 79.8899 104.555 79.8887 104.559 79.8883C104.563 79.8879 104.568 79.8884 104.572 79.8898C104.576 79.8911 104.58 79.8933 104.583 79.8962C104.586 79.8991 104.589 79.9026 104.591 79.9066C104.593 79.9106 104.594 79.9149 104.594 79.9193C104.594 79.9238 104.594 79.9283 104.593 79.9325C104.591 79.9368 104.589 79.9407 104.586 79.9441C104.584 79.9475 104.58 79.9502 104.576 79.9522V79.9522Z" fill="white"/>
<path d="M104.69 79.8819C104.705 79.8819 104.716 79.8696 104.716 79.8544C104.716 79.8392 104.705 79.8269 104.69 79.8269C104.676 79.8269 104.664 79.8392 104.664 79.8544C104.664 79.8696 104.676 79.8819 104.69 79.8819Z" fill="white"/>
<path d="M107.34 81.5083C107.326 81.5157 107.31 81.517 107.296 81.512C107.281 81.5071 107.269 81.4962 107.262 81.4819L106.745 80.4217C106.741 80.4146 106.739 80.4068 106.738 80.3988C106.738 80.3908 106.739 80.3828 106.741 80.3751C106.743 80.3675 106.747 80.3604 106.752 80.3543C106.757 80.3482 106.763 80.3431 106.77 80.3395C106.777 80.3358 106.784 80.3336 106.792 80.333C106.799 80.3323 106.807 80.3333 106.814 80.3357C106.821 80.3382 106.828 80.3422 106.834 80.3474C106.84 80.3526 106.845 80.359 106.848 80.3662L107.365 81.4263C107.372 81.4407 107.373 81.4574 107.369 81.4728C107.364 81.4882 107.354 81.5009 107.34 81.5083V81.5083Z" fill="#3F3D56"/>
<path d="M103.139 82.7804C103.126 82.7877 103.11 82.7891 103.095 82.7841C103.081 82.7792 103.068 82.7683 103.061 82.7539L102.944 82.513C102.937 82.4986 102.936 82.4819 102.94 82.4665C102.945 82.4512 102.955 82.4384 102.969 82.431C102.983 82.4236 102.999 82.4223 103.013 82.4273C103.028 82.4322 103.04 82.4431 103.047 82.4575L103.165 82.6984C103.172 82.7128 103.173 82.7295 103.168 82.7449C103.163 82.7602 103.153 82.773 103.139 82.7804V82.7804Z" fill="#3F3D56"/>
<path d="M103.354 83.2261C103.341 83.2335 103.325 83.2348 103.31 83.2299C103.296 83.2249 103.283 83.2141 103.276 83.1997L103.159 82.9587C103.155 82.9516 103.153 82.9438 103.153 82.9358C103.152 82.9279 103.153 82.9198 103.155 82.9122C103.157 82.9046 103.161 82.8975 103.166 82.8914C103.171 82.8853 103.177 82.8802 103.184 82.8766C103.191 82.8729 103.198 82.8707 103.206 82.8701C103.213 82.8694 103.221 82.8704 103.228 82.8728C103.236 82.8753 103.242 82.8793 103.248 82.8845C103.254 82.8897 103.259 82.896 103.262 82.9032L103.38 83.1441C103.387 83.1585 103.388 83.1752 103.383 83.1906C103.378 83.206 103.368 83.2188 103.354 83.2261V83.2261Z" fill="#3F3D56"/>
</svg>
