<svg width="200" height="150" viewBox="0 0 200 150" fill="none" xmlns="http://www.w3.org/2000/svg">
<path d="M60.7263 108.997C56.9284 108.997 53.2553 107.584 50.369 105.013C49.4061 104.155 48.3801 102.662 47.3197 100.578C46.643 99.2348 46.264 97.751 46.2105 96.2354C46.157 94.7198 46.4305 93.211 47.0108 91.8201C46.4515 92.4128 45.8328 92.9413 45.1653 93.3968L44.8279 93.6306L44.8084 93.2092C44.7956 92.9351 44.7892 92.662 44.7892 92.3973C44.7892 90.8378 45.9216 89.2552 45.3993 87.8137C43.1981 81.738 36.2161 75.6999 46.3351 66.2969C47.2711 65.427 46.0207 63.6879 46.0207 62.3719C46.0207 49.4743 59.4749 30.1269 68.4816 38.9814C73.7389 44.1499 84.6922 47.8215 89.8062 55.0105L89.874 55.2236L89.6744 55.3076C88.6526 55.7549 87.5764 56.0531 86.4762 56.1936C87.6491 56.4428 88.846 56.5472 90.0423 56.5048L90.2278 56.4981L90.273 56.6859C90.718 58.5457 90.9429 60.4552 90.9426 62.3719L90.9418 62.579C90.9376 64.0349 91.2281 65.4752 91.7943 66.8063C92.3604 68.1373 93.1895 69.3292 94.2276 70.3041C95.8672 71.8612 97.1774 73.7571 98.0746 75.8708C98.9719 77.9846 99.4365 80.2698 99.4388 82.581C99.4388 85.3152 97.6546 88.9044 96.1579 91.4339C95.7786 92.0782 95.2641 92.6247 94.653 93.0323C94.042 93.44 93.3503 93.6983 92.6297 93.7877C91.9472 93.8774 91.2542 93.8097 90.5996 93.5894C89.945 93.3692 89.3449 93.0017 88.8418 92.5131C89.5502 93.9968 90.4734 95.3583 91.579 96.5497L91.7832 96.7689L91.5297 96.9228C89.093 98.4027 86.3226 99.182 83.5019 99.1809L83.3367 99.1804C79.0543 99.1804 74.9895 100.908 72.1845 103.922C70.6952 105.52 68.9145 106.792 66.9469 107.663C64.9793 108.535 62.8644 108.988 60.7263 108.997Z" fill="#E6E6E6"/>
<path d="M55.1054 135C55.0365 135 54.9698 134.974 54.9178 134.927C54.8657 134.88 54.8317 134.815 54.822 134.744C54.8098 134.655 53.6171 125.695 54.6883 113.787C55.6776 102.79 58.8544 86.9505 68.371 73.9416C68.3938 73.9104 68.4223 73.8842 68.4548 73.8644C68.4873 73.8446 68.5233 73.8317 68.5606 73.8264C68.598 73.8212 68.6359 73.8236 68.6724 73.8336C68.7088 73.8436 68.743 73.861 68.7729 73.8848C68.8029 73.9086 68.828 73.9383 68.847 73.9722C68.8659 74.0061 68.8782 74.0436 68.8833 74.0825C68.8883 74.1214 68.8859 74.1609 68.8762 74.1989C68.8666 74.2368 68.8498 74.2724 68.8269 74.3035C59.3925 87.2001 56.2413 102.923 55.259 113.843C54.1941 125.681 55.3774 134.571 55.3895 134.66C55.3953 134.702 55.3922 134.745 55.3806 134.786C55.3689 134.827 55.349 134.865 55.322 134.897C55.2951 134.93 55.2618 134.956 55.2245 134.973C55.1871 134.991 55.1465 135 55.1054 135H55.1054Z" fill="#3F3D56"/>
<path d="M63.7946 91.9619C63.7341 91.962 63.6751 91.9421 63.6261 91.905C63.5771 91.868 63.5406 91.8158 63.5219 91.7558C63.5031 91.6958 63.5031 91.6312 63.5218 91.5712C63.5405 91.5113 63.5769 91.459 63.6259 91.4219C66.3376 89.5101 69.2669 87.9569 72.3466 86.798C77.158 84.9633 84.4743 83.3 92.0064 85.7968C92.0423 85.8087 92.0756 85.8279 92.1043 85.8531C92.1331 85.8784 92.1568 85.9094 92.1741 85.9442C92.1914 85.979 92.2019 86.017 92.2051 86.0561C92.2083 86.0951 92.204 86.1345 92.1926 86.1718C92.1812 86.2092 92.1628 86.2438 92.1386 86.2738C92.1143 86.3037 92.0846 86.3284 92.0512 86.3464C92.0177 86.3644 91.9812 86.3754 91.9437 86.3787C91.9062 86.382 91.8685 86.3776 91.8326 86.3657C84.4548 83.9202 77.2711 85.556 72.5437 87.3587C69.5135 88.4977 66.6312 90.0248 63.9629 91.9049C63.914 91.942 63.8551 91.962 63.7946 91.9619V91.9619Z" fill="#3F3D56"/>
<path d="M50.4812 56.7036C50.4768 56.6407 50.4916 56.5779 50.5236 56.5244C50.5555 56.4708 50.6029 56.4291 50.659 56.4053C50.7151 56.3816 50.7769 56.3769 50.8357 56.392C50.8945 56.4071 50.9472 56.4412 50.9862 56.4894C53.0122 59.1688 54.7105 62.1002 56.042 65.2162C58.1454 70.0825 60.265 77.5636 58.4165 85.5684C58.4077 85.6065 58.3918 85.6425 58.3696 85.6742C58.3475 85.7059 58.3196 85.7328 58.2875 85.7533C58.2554 85.7738 58.2197 85.7875 58.1825 85.7936C58.1453 85.7998 58.1074 85.7982 58.0708 85.789C58.0341 85.7798 57.9996 85.7633 57.9692 85.7402C57.9387 85.7171 57.9129 85.688 57.8933 85.6545C57.8736 85.6211 57.8605 85.5839 57.8547 85.5452C57.8488 85.5065 57.8504 85.4669 57.8592 85.4288C59.6697 77.588 57.586 70.2427 55.5193 65.4613C54.2103 62.3954 52.5404 59.5109 50.548 56.8743C50.5089 56.8262 50.4856 56.7664 50.4812 56.7036V56.7036Z" fill="#3F3D56"/>
<path d="M105.998 36.5245C105.656 36.1593 105.235 35.8843 104.771 35.7224C104.307 35.5604 103.812 35.5161 103.328 35.5933C102.843 35.6704 102.384 35.8667 101.987 36.1658C101.59 36.4649 101.268 36.8583 101.046 37.3133C96.383 40.6938 93.4266 45.2233 92.3112 50.9924L84.0383 43.1742C84.1353 42.5202 84.031 41.851 83.7402 41.2626C83.4495 40.6741 82.9874 40.1967 82.4201 39.8988C81.8528 39.6008 81.2094 39.4977 80.5824 39.6041C79.9553 39.7105 79.3767 40.0211 78.9295 40.4912C78.4824 40.9613 78.1897 41.5669 78.0934 42.221C77.997 42.8751 78.1021 43.5442 78.3934 44.1323C78.6848 44.7204 79.1474 45.1973 79.7151 45.4946C80.2827 45.7918 80.9262 45.8942 81.5531 45.7871C83.0718 48.4722 90.1162 60.3464 94.464 57.6279C98.1185 55.3428 104.609 44.021 106.515 40.2661C106.82 39.6657 106.935 38.98 106.842 38.3076C106.749 37.6352 106.454 37.0108 105.998 36.5245V36.5245Z" fill="#DCAEAE"/>
<path d="M106.263 41.7096C106.679 40.5368 107.011 39.244 106.651 38.0515C106.255 36.7401 105.038 35.8011 103.736 35.5726C102.435 35.3442 101.082 35.753 99.9628 36.482C98.8437 37.211 97.9335 38.2406 97.125 39.3273L97.3415 38.9682C96.2889 40.4047 95.2362 41.8411 94.1836 43.2775C96.8553 45.2109 99.5271 47.1443 102.199 49.0777C103.94 46.8761 105.314 44.3854 106.263 41.7096Z" fill="#F9A826"/>
<path d="M94.7372 130.654L90.9104 130.654L89.0898 115.279L94.7379 115.279L94.7372 130.654Z" fill="#DCAEAE"/>
<path d="M94.8737 134.813L83.1055 134.812V134.657C83.1056 133.392 83.5882 132.178 84.4472 131.284C85.3062 130.389 86.4712 129.886 87.686 129.886H87.6863L89.8359 128.188L93.8466 129.886L94.8739 129.886L94.8737 134.813Z" fill="#2F2E41"/>
<path d="M150.874 74.0471L152.48 77.6648L139.848 85.841L137.477 80.5013L150.874 74.0471Z" fill="#DCAEAE"/>
<path d="M154.441 72.1736L159.381 83.2988L159.246 83.3639C158.144 83.895 156.884 83.9482 155.743 83.5118C154.603 83.0754 153.676 82.1851 153.166 81.0367L153.166 81.0365L150.783 79.7175L150.58 75.2127L150.148 74.2416L154.441 72.1736Z" fill="#2F2E41"/>
<path d="M66.1735 22.7176C66.9594 22.4719 67.4634 21.8111 67.2993 21.2416C67.1352 20.6722 66.3651 20.4098 65.5792 20.6555C64.7933 20.9012 64.2893 21.562 64.4534 22.1314C64.6175 22.7008 65.3876 22.9633 66.1735 22.7176Z" fill="#E6E6E6"/>
<path d="M75.8727 22.2134C76.6586 21.9677 77.1626 21.3069 76.9985 20.7375C76.8344 20.168 76.0643 19.9056 75.2784 20.1513C74.4926 20.397 73.9885 21.0578 74.1526 21.6272C74.3167 22.1967 75.0868 22.4591 75.8727 22.2134Z" fill="#3F3D56"/>
<path d="M64.7008 31.1856C65.4867 30.9399 65.9907 30.2791 65.8266 29.7096C65.6625 29.1402 64.8924 28.8778 64.1066 29.1235C63.3207 29.3692 62.8166 30.03 62.9807 30.5994C63.1448 31.1688 63.9149 31.4313 64.7008 31.1856Z" fill="#FF6584"/>
<path d="M61.6417 34.7255C61.9982 34.6676 62.2224 34.1881 62.1425 33.6544C62.0626 33.1207 61.7089 32.735 61.3524 32.7929C60.996 32.8508 60.7718 33.3303 60.8517 33.864C60.9316 34.3977 61.2853 34.7834 61.6417 34.7255Z" fill="#E6E6E6"/>
<path d="M61.1066 41.0954C61.463 41.0375 61.6872 40.5579 61.6073 40.0243C61.5274 39.4906 61.1737 39.1049 60.8173 39.1628C60.4608 39.2206 60.2366 39.7002 60.3165 40.2339C60.3964 40.7676 60.7501 41.1533 61.1066 41.0954Z" fill="#3F3D56"/>
<path d="M70.5246 28.5761C70.881 28.5182 71.1052 28.0387 71.0253 27.505C70.9454 26.9713 70.5917 26.5856 70.2352 26.6435C69.8788 26.7014 69.6546 27.1809 69.7345 27.7146C69.8144 28.2483 70.1681 28.634 70.5246 28.5761Z" fill="#E6E6E6"/>
<path d="M65.5597 26.8862C65.9161 26.8283 66.1403 26.3487 66.0604 25.815C65.9805 25.2813 65.6268 24.8956 65.2704 24.9535C64.9139 25.0114 64.6898 25.491 64.7697 26.0247C64.8496 26.5584 65.2033 26.9441 65.5597 26.8862Z" fill="#FF6584"/>
<path d="M71.3644 21.4514C71.7208 21.3935 71.945 20.9139 71.8651 20.3802C71.7852 19.8465 71.4315 19.4608 71.0751 19.5187C70.7186 19.5766 70.4945 20.0562 70.5743 20.5899C70.6542 21.1235 71.008 21.5093 71.3644 21.4514Z" fill="#3F3D56"/>
<path d="M125.639 113.094C126.451 112.971 127.043 112.395 126.96 111.806C126.878 111.218 126.153 110.841 125.341 110.964C124.529 111.087 123.938 111.663 124.02 112.252C124.102 112.84 124.827 113.217 125.639 113.094Z" fill="#E6E6E6"/>
<path d="M115.975 112.112C116.787 111.989 117.378 111.412 117.296 110.824C117.214 110.235 116.489 109.858 115.677 109.981C114.865 110.104 114.274 110.681 114.356 111.269C114.438 111.858 115.163 112.235 115.975 112.112Z" fill="#3F3D56"/>
<path d="M128.287 104.942C129.099 104.819 129.691 104.243 129.609 103.654C129.527 103.066 128.802 102.689 127.99 102.812C127.178 102.935 126.586 103.512 126.668 104.1C126.751 104.688 127.475 105.065 128.287 104.942Z" fill="#FF6584"/>
<path d="M131.531 101.734C131.891 101.731 132.181 101.291 132.177 100.751C132.173 100.211 131.877 99.775 131.516 99.7778C131.156 99.7807 130.866 100.221 130.87 100.761C130.874 101.301 131.17 101.737 131.531 101.734Z" fill="#E6E6E6"/>
<path d="M132.953 95.514C133.313 95.5112 133.603 95.071 133.599 94.5309C133.595 93.9908 133.299 93.5552 132.938 93.5581C132.578 93.5609 132.288 94.0011 132.292 94.5412C132.296 95.0813 132.592 95.5169 132.953 95.514Z" fill="#3F3D56"/>
<path d="M121.874 106.46C122.235 106.457 122.524 106.017 122.52 105.477C122.517 104.937 122.221 104.501 121.86 104.504C121.499 104.507 121.21 104.947 121.214 105.487C121.218 106.027 121.514 106.463 121.874 106.46Z" fill="#E6E6E6"/>
<path d="M126.546 108.89C126.907 108.887 127.196 108.447 127.192 107.906C127.188 107.366 126.893 106.931 126.532 106.934C126.171 106.936 125.882 107.377 125.886 107.917C125.89 108.457 126.186 108.892 126.546 108.89Z" fill="#FF6584"/>
<path d="M120.046 113.38C120.407 113.377 120.696 112.937 120.692 112.397C120.688 111.857 120.393 111.421 120.032 111.424C119.671 111.427 119.382 111.867 119.386 112.407C119.39 112.947 119.686 113.383 120.046 113.38Z" fill="#3F3D56"/>
<path d="M100.757 61.1591L98.4309 64.1258C98.4837 64.9293 98.2407 65.3884 97.5183 65.2898C97.5183 65.2898 97.6261 66.7609 96.7411 66.2812C95.8561 65.8014 96.0731 67.1332 96.0731 67.1332L95.4118 67.9767C95.4118 67.9767 95.3912 69.4114 94.7389 68.8351C94.0867 68.2588 93.8775 69.9339 93.8775 69.9339L93.0475 70.9926L84.5859 81.7858L89.3293 121.455L94.8731 121.093L96.2245 86.3155C96.5691 85.3565 97.0923 84.8542 97.8921 85.0594C98.2504 85.1411 98.4599 84.9168 98.5917 84.5325L99.2291 84.0524L107.572 77.7689L118.591 97.44L145.991 82.3888L143.435 77.2692L124.213 83.8931L123.709 77.6295C123.052 77.2311 123.163 76.755 123.598 76.2461L123.472 74.6831C124.124 74.2666 123.801 73.6063 123.329 72.9089C122.345 72.1518 122.441 71.2894 123.125 70.3698C123.125 70.3698 123.988 58.6047 119.802 56.9813C115.617 55.3578 100.757 61.1591 100.757 61.1591Z" fill="#2F2E41"/>
<path d="M108.974 32.541L103.721 32.7972L100.969 36.8929C99.0524 41.2841 98.5262 46.1962 99.4663 50.9193L101.362 60.4429L100.86 67.505C99.5141 68.6357 99.4022 69.965 100.575 71.5011C99.1309 76.6923 111.423 74.356 122.792 72.5251C122.831 70.0517 122.216 67.5333 120.629 64.9481L122.159 44.3148L116.501 37.3024L112.17 34.3317L108.974 32.541Z" fill="#F9A826"/>
<path d="M113.889 38.2001C113.469 38.4624 113.115 38.8252 112.856 39.2585C112.598 39.6918 112.442 40.1831 112.402 40.6916C112.363 41.2001 112.44 41.7111 112.628 42.1822C112.816 42.6534 113.109 43.0711 113.483 43.4007C114.116 47.6838 118.053 51.81 124.244 55.4112L115.031 61.9905C114.443 61.7412 113.793 61.6924 113.177 61.8512C112.56 62.01 112.007 62.3681 111.598 62.8743C111.189 63.3805 110.944 64.0086 110.898 64.6687C110.853 65.3288 111.009 65.9869 111.345 66.5486C111.681 67.1103 112.179 67.5467 112.768 67.7953C113.357 68.0439 114.006 68.0919 114.623 67.9324C115.24 67.7729 115.792 67.4141 116.201 66.9075C116.609 66.4009 116.854 65.7724 116.898 65.1123C119.757 64.193 132.475 59.7951 130.94 54.7612C129.649 50.53 120.571 41.339 117.503 38.5398C117.013 38.0919 116.399 37.8177 115.749 37.7566C115.1 37.6956 114.448 37.8509 113.889 38.2001V38.2001Z" fill="#DCAEAE"/>
<path d="M103.871 57.3874C103.259 57.3862 102.67 57.1449 102.22 56.7115C101.771 56.2781 101.495 55.6843 101.447 55.0484L101.121 50.7161C101.07 50.0453 101.278 49.381 101.697 48.8694C102.117 48.3578 102.715 48.0409 103.359 47.9883L111.438 47.3283C112.082 47.2757 112.72 47.4918 113.211 47.929C113.702 48.3661 114.006 48.9886 114.057 49.6594L114.383 53.9916C114.434 54.6625 114.226 55.3268 113.807 55.8384C113.387 56.3499 112.789 56.6669 112.145 56.7195L104.066 57.3795C104.001 57.3848 103.936 57.3874 103.871 57.3874Z" fill="#F2F2F2"/>
<path d="M105.034 31.5024C108.833 31.5024 111.912 28.2949 111.912 24.3382C111.912 20.3816 108.833 17.1741 105.034 17.1741C101.236 17.1741 98.1562 20.3816 98.1562 24.3382C98.1562 28.2949 101.236 31.5024 105.034 31.5024Z" fill="#DCAEAE"/>
<path d="M112.179 19.7787C111.853 19.338 111.479 18.9333 111.196 18.462C110.922 18.0082 110.736 17.4989 110.428 17.07C109.517 15.8016 107.823 15.5422 106.31 15.3842C105.31 15.2799 104.311 15.1756 103.312 15.0713C102.75 14.9885 102.181 14.9778 101.617 15.0394C101.08 15.1262 100.57 15.3412 100.127 15.6677C99.6835 15.9941 99.3186 16.423 99.0608 16.9209C98.768 17.4979 98.5724 18.217 98.0016 18.4861C97.7326 18.5745 97.4586 18.6455 97.1812 18.6986C96.9115 18.7857 96.6404 19.0102 96.6505 19.3041C96.6691 19.8484 97.5911 20.1599 97.3662 20.6516C97.1675 21.0858 96.372 20.7777 96.2591 21.4332C96.2439 21.5278 96.2478 21.6246 96.2705 21.7176C96.2933 21.8105 96.3344 21.8975 96.3913 21.9729C96.6479 22.3152 97.0689 22.4041 97.4635 22.4797L96.7627 23.5236C99.0318 24.4948 101.558 24.597 103.893 23.8119C104.241 23.6916 104.613 23.6644 104.974 23.7328C105.336 23.8011 105.675 23.9628 105.96 24.2031C106.246 24.4433 106.469 24.7544 106.609 25.1079C106.749 25.4613 106.802 25.8458 106.763 26.226L106.76 26.2557C106.744 26.3703 106.759 26.4871 106.803 26.5936C106.846 26.7001 106.917 26.7924 107.006 26.8605C107.362 27.1123 107.723 26.7591 107.884 26.4096C108.048 26.0541 108.157 25.6229 108.554 25.4983C108.716 25.4557 108.887 25.469 109.041 25.5363C109.195 25.6035 109.324 25.721 109.409 25.8711C109.717 26.3756 109.59 26.9778 109.413 27.5118C109.002 28.744 108.335 29.8665 107.459 30.7991C108.954 30.6961 108.516 30.8522 110.011 30.7492L110.427 30.8168C111.427 30.167 111.923 28.9307 112.187 27.7342C112.785 25.02 113.81 21.9847 112.179 19.7787Z" fill="#2F2E41"/>
<path d="M118.012 37.6135C117.019 36.9117 115.894 36.2646 114.696 36.3423C113.378 36.4278 112.211 37.4329 111.685 38.694C111.16 39.9552 111.216 41.4211 111.626 42.7277C112.037 44.0343 112.778 45.2019 113.596 46.2805L113.313 45.9753C114.399 47.3847 115.485 48.7941 116.571 50.2036C119.015 47.9667 121.458 45.7299 123.902 43.493C122.269 41.2034 120.277 39.2159 118.012 37.6135Z" fill="#F9A826"/>
<path d="M104.844 134.436L104.847 134.293C104.909 131.9 105.471 129.549 106.493 127.404C107.515 125.26 108.974 123.373 110.767 121.874C111.779 121.042 112.888 120.346 114.067 119.803L114.18 119.751L114.199 119.877C114.427 121.389 114.789 122.931 114.957 123.616L116.087 119.026L116.212 118.988C116.788 118.812 117.4 118.82 117.972 119.01C118.543 119.2 119.047 119.564 119.417 120.055C119.804 120.546 120.041 121.146 120.098 121.779C120.154 122.411 120.028 123.047 119.734 123.604C119.471 124.115 119.212 124.648 118.962 125.163C118.102 126.935 117.213 128.766 115.917 130.189C114.926 131.256 113.719 132.079 112.384 132.598C111.048 133.117 109.618 133.319 108.199 133.188L104.844 134.436Z" fill="#F2F2F2"/>
<path d="M79.5078 35.5295C79.3945 35.5295 79.2823 35.554 79.1784 35.6014C79.0746 35.6488 78.9813 35.7182 78.9045 35.805C78.8277 35.8919 78.769 35.9944 78.7321 36.1061C78.6952 36.2178 78.681 36.3362 78.6903 36.4539C79.5281 40.5666 79.8966 44.4885 79.6128 48.1452C79.6307 48.3585 79.7245 48.5572 79.8757 48.7023C80.027 48.8474 80.2248 48.9285 80.4304 48.9296H85.7229C85.9286 48.9285 86.1264 48.8474 86.2776 48.7023C86.4288 48.5572 86.5226 48.3585 86.5405 48.1452C86.113 44.4568 86.5651 40.5187 87.4631 36.4539C87.4723 36.3362 87.4581 36.2178 87.4212 36.1061C87.3844 35.9944 87.3257 35.8919 87.2488 35.805C87.172 35.7182 87.0787 35.6488 86.9749 35.6014C86.871 35.554 86.7589 35.5295 86.6455 35.5295H79.5078Z" fill="#F9A826"/>
<path d="M87.8828 37.0879L87.4879 35.1343C87.452 34.9567 87.3585 34.7973 87.2232 34.6829C87.0878 34.5685 86.9188 34.5061 86.7445 34.5061H84.2796C84.2699 34.472 84.2542 34.4401 84.2333 34.4121L83.9594 34.0555C83.9335 34.0218 83.9008 33.9947 83.8636 33.9761C83.8263 33.9574 83.7855 33.9478 83.7442 33.9478H82.2222C82.1809 33.9478 82.1401 33.9574 82.1029 33.9761C82.0657 33.9947 82.0329 34.0218 82.0071 34.0555L81.7332 34.4121C81.7122 34.4401 81.6965 34.472 81.6869 34.5061H79.4006C79.2263 34.5061 79.0573 34.5685 78.922 34.6829C78.7866 34.7973 78.6932 34.9567 78.6572 35.1343L78.2624 37.0879C78.2391 37.2032 78.2408 37.3223 78.2673 37.4368C78.2939 37.5512 78.3446 37.6581 78.4158 37.7495C78.4871 37.8409 78.577 37.9147 78.679 37.9653C78.7811 38.0159 78.8927 38.0422 79.0057 38.0422C81.5878 38.8944 84.299 38.8944 87.1394 38.0422C87.2524 38.0422 87.364 38.0159 87.4661 37.9653C87.5681 37.9147 87.6581 37.8409 87.7293 37.7495C87.8005 37.6581 87.8512 37.5512 87.8778 37.4368C87.9043 37.3223 87.906 37.2032 87.8828 37.0879V37.0879Z" fill="#3F3D56"/>
</svg>
