<svg width="200" height="150" viewBox="0 0 200 150" fill="none" xmlns="http://www.w3.org/2000/svg">
<path d="M59.4663 48.5141C59.352 49.2085 59.3912 49.9194 59.5814 50.5969C59.7715 51.2744 60.1079 51.902 60.5668 52.4355C61.0257 52.9689 61.596 53.3952 62.2376 53.6844C62.8791 53.9736 63.5762 54.1187 64.2798 54.1093L76.0708 88.4179L83.5943 83.2473L69.0707 48.8853C68.9766 47.7043 68.4525 46.5989 67.5979 45.7784C66.7432 44.958 65.6172 44.4795 64.4334 44.4338C63.2495 44.388 62.09 44.7781 61.1745 45.5302C60.2591 46.2822 59.6513 47.3439 59.4663 48.5141V48.5141Z" fill="#A0616A"/>
<path d="M121.008 60.1222C115.772 66.0795 102.861 76.578 92.2246 83.8071C89.9256 85.3697 87.7315 86.7771 85.745 87.955C84.4032 88.7504 83.1553 89.4388 82.0321 90.0005C81.2782 90.376 80.4548 90.5919 79.6136 90.6345C78.7724 90.6771 77.9315 90.5455 77.1435 90.248C76.3555 89.9506 75.6374 89.4936 75.0342 88.9057C74.4311 88.3178 73.9558 87.6118 73.6381 86.8317L66.2734 69.0144L68.8216 67.3251L75.1045 63.1577L76.5315 62.2136L82.4233 76.2458L88.6362 71.2588L92.4934 68.1621L110.077 54.0513L111.593 53.6011L115.132 57.0539L117.634 59.4972L119.987 59.9058C120.339 59.967 120.68 60.0392 121.008 60.1222Z" fill="#F9A826"/>
<path d="M167.986 109.077C168.351 109.54 168.729 110.002 169.107 110.465C167.805 113.139 166.341 115.731 164.723 118.227C164.603 118.142 164.483 118.057 164.363 117.972C164.344 117.961 164.325 117.95 164.308 117.937C163.86 117.618 163.41 117.303 162.962 116.984V116.982C162.592 115.724 162.386 114.424 162.348 113.114C162.579 113.061 162.788 112.938 162.947 112.762C163.106 112.586 163.207 112.365 163.236 112.13C163.265 111.895 163.222 111.656 163.111 111.447C163 111.237 162.827 111.067 162.616 110.959C162.557 110.856 162.516 110.782 162.457 110.677C162.459 110.651 162.463 110.622 162.466 110.596C162.809 107.866 166.288 106.914 167.986 109.077Z" fill="white"/>
<path d="M171.908 99.7238C172.17 100.445 172.409 101.174 172.625 101.911C172.476 102.348 172.324 102.784 172.168 103.218C172.109 102.989 172.048 102.759 171.984 102.53C171.629 101.254 171.202 99.999 170.706 98.771C170.299 97.7635 169.849 96.7772 169.355 95.812C166.67 90.5685 162.778 86.0372 158 82.5905C156.026 82.1339 154.238 81.0828 152.88 79.5791C152.39 79.0388 151.98 78.4309 151.663 77.774C151.864 77.7456 152.065 77.7063 152.261 77.6647C152.323 77.6516 152.386 77.6363 152.447 77.6232L152.471 77.6188C152.686 77.569 152.882 77.4581 153.036 77.2994C153.189 77.1408 153.293 76.9412 153.336 76.7247C153.379 76.5081 153.358 76.2838 153.276 76.0788C153.195 75.8738 153.055 75.6968 152.875 75.569C152.764 75.4881 152.65 75.4095 152.539 75.3308C152.368 75.2062 152.196 75.0882 152.023 74.9658C152.005 74.9545 151.987 74.9421 151.971 74.9287C151.774 74.7888 151.577 74.6533 151.383 74.5113C151.534 74.0243 151.795 73.5787 152.146 73.2088C153.367 71.9478 155.548 71.9763 156.973 73.0034C158.4 74.0305 159.117 75.8291 159.209 77.5817C159.289 79.0831 158.966 80.5691 158.54 82.018C158.647 82.0967 158.758 82.171 158.865 82.2518C160.833 83.71 162.653 85.3576 164.298 87.1711C163.348 84.9158 163.002 81.9743 163.249 79.9485C163.531 77.6407 164.652 75.4488 165.57 73.2656C166.669 70.6432 170.42 70.6082 171.477 73.2481C171.488 73.2744 171.499 73.2984 171.508 73.3246C171.331 73.5016 171.16 73.6852 170.996 73.8753C170.791 74.1149 170.662 74.411 170.627 74.7249C170.593 75.0389 170.654 75.3559 170.802 75.6346C170.951 75.9133 171.18 76.1407 171.46 76.2869C171.74 76.4331 172.057 76.4914 172.371 76.4541L172.404 76.4497C172.54 77.2288 172.618 78.017 172.635 78.8077C172.663 81.0199 172.232 83.2139 171.372 85.2521C170.512 87.2903 169.24 89.1288 167.635 90.6524C167.53 90.7507 167.428 90.8469 167.321 90.9408C168.333 92.3805 169.242 93.8899 170.041 95.458C170.751 96.8401 171.374 98.2647 171.908 99.7238V99.7238Z" fill="white"/>
<path d="M129.802 79.2222L129.142 124.549L75.8281 123.019L84.3423 104.225C84.2811 103.622 88.0793 99.3887 88.0574 98.7615C87.9918 96.9236 89.3642 95.2213 89.5872 93.2981C90.0417 89.3317 87.4389 74.3532 88.6387 71.2588C89.1498 69.877 89.8046 68.5527 90.5924 67.3077C91.2743 66.2762 91.9736 65.5812 92.6423 65.3299L94.6135 60.7363L96.3618 58.1138L110.079 54.0513L111.596 53.6011L115.134 57.0539L117.636 59.4972L119.99 59.9058C120.342 59.967 120.683 60.0392 121.01 60.1222C122.589 60.4863 124.061 61.2153 125.307 62.2507C129.415 65.7407 129.894 72.3056 129.802 79.2222Z" fill="#F9A826"/>
<path d="M160.418 124.208C158.914 126.094 157.321 127.902 155.638 129.633L149.873 129.637L118.87 129.672L113.288 129.678L109.577 129.683L104.057 129.687L99.8111 129.692L91.9678 129.7L87.3414 129.707L77.599 129.716L72.9486 129.722L60.0615 129.735L51.9669 129.744L49.7947 129.746C49.3117 129.252 48.836 128.751 48.3676 128.243C47.2007 126.977 46.0781 125.673 45 124.329L49.4975 124.324L52.5614 124.322L59.655 124.313L73.3441 124.3L77.9705 124.296L79.8412 124.294H79.8478L81.3163 124.292L81.9741 124.289L83.659 124.287H84.3715L89.3672 124.283L100.143 124.27L104.885 124.265L109.427 124.261L113.684 124.257L119.792 124.25L152.415 124.217L160.418 124.208Z" fill="#CCCCCC"/>
<path d="M86.6587 56.1497L86.6469 56.1509C86.0164 56.2095 85.3885 56.0154 84.9012 55.611C84.414 55.2067 84.1073 54.6254 84.0486 53.995L82.8058 40.7299C82.5808 38.3536 82.836 35.9563 83.5561 33.6805C84.9676 29.2388 88.0386 25.5132 92.1292 23.28C94.2414 22.13 96.5646 21.4195 98.9587 21.1914C108.753 20.2582 112.333 22.2982 118.383 37.2366C124.434 52.175 119.628 50.5219 119.628 50.5219C119.658 50.8416 119.624 51.1641 119.527 51.4702C119.336 52.0674 118.923 52.568 118.372 52.8673C118.089 53.0206 117.779 53.1154 117.459 53.1463C105.879 56.0896 94.195 59.1879 86.6568 56.1499L86.6587 56.1497Z" fill="#2F2E41"/>
<path d="M108.212 33.7604C109.666 35.9111 110.45 38.4442 110.464 41.04C110.479 43.6357 109.724 46.1776 108.295 48.3446C106.866 50.5116 104.827 52.2065 102.435 53.2152C100.043 54.224 97.4064 54.5013 94.8571 54.0123C93.1696 53.694 91.562 53.044 90.1274 52.1C88.6929 51.156 87.4599 49.9367 86.5 48.5128C85.0495 46.3628 84.268 43.8316 84.2541 41.2381C84.2402 38.6447 84.9944 36.1052 86.4218 33.9398C87.8491 31.7745 89.8856 30.0802 92.2745 29.0706C94.6634 28.061 97.2978 27.7813 99.8454 28.2668C101.534 28.5832 103.144 29.2318 104.58 30.1749C106.016 31.118 107.251 32.3369 108.212 33.7609L108.212 33.7604Z" fill="#A5626C"/>
<path d="M78.6954 42.2035C78.5176 40.3241 78.7195 38.4281 79.2889 36.6283C79.421 32.2254 80.6984 28.2374 86.0685 28.4048C87.7285 27.5018 89.5532 26.9419 91.4339 26.7584L94.0877 26.4964C94.1175 26.4934 94.1473 26.4905 94.1771 26.4878C96.0157 26.3166 97.8699 26.5093 99.634 27.0548C101.398 27.6003 103.037 28.4879 104.458 29.667C105.879 30.8461 107.054 32.2935 107.916 33.9266C108.778 35.5597 109.309 37.3465 109.48 39.1851L109.505 39.4508L103.891 39.9997L101.474 34.8287L101.594 40.2253L98.694 40.5099L97.4754 37.9011L97.5349 40.622C93.2294 44.4139 86.7007 44.6127 78.7228 42.4695L78.6954 42.2035Z" fill="#2F2E41"/>
<path d="M96.6586 54.7913C96.6109 55.2283 96.6867 55.67 96.8775 56.0661C96.9737 56.269 97.0978 56.4574 97.2462 56.6258C97.3732 56.7693 97.5167 56.8972 97.6738 57.007C98.1389 57.3308 98.7042 57.4783 99.2682 57.423C99.3034 57.4193 99.3384 57.4151 99.3734 57.4101C99.4084 57.4052 99.4434 57.3994 99.4782 57.3929C99.5134 57.3866 99.5484 57.3793 99.5831 57.3711C99.6178 57.3629 99.6526 57.354 99.6875 57.3444L101.647 56.7953L103.843 50.6721L104.347 56.0452L113.257 53.5644L111.121 30.7634L95.9336 32.2599L96.3501 32.6609C97.734 34.0079 98.7194 35.7106 99.198 37.5816C99.673 39.4776 99.8196 41.4409 99.6314 43.3864C99.4557 45.3536 99.0915 47.2994 98.5438 49.1969C98.067 50.8772 97.4939 52.5286 96.8271 54.143C96.7409 54.3501 96.6842 54.5683 96.6586 54.7913V54.7913Z" fill="#2F2E41"/>
<path d="M98.6809 126.68C98.4197 126.679 98.162 126.621 97.9261 126.509L55.8536 127.582C55.5307 127.429 55.2619 127.182 55.0825 126.873C54.9031 126.564 54.8217 126.208 54.8489 125.852C54.8761 125.496 55.0107 125.156 55.235 124.878C55.4593 124.6 55.7626 124.397 56.1049 124.295L83.63 116.087C83.915 116.002 84.2169 115.991 84.5076 116.054L127.084 121.243C127.461 121.325 127.801 121.527 128.052 121.82C128.302 122.112 128.451 122.479 128.474 122.864C128.497 123.249 128.393 123.63 128.179 123.951C127.964 124.271 127.651 124.513 127.287 124.638L99.2574 126.583C99.0719 126.647 98.8771 126.68 98.6809 126.68V126.68Z" fill="#3F3D56"/>
<path d="M100.231 123.751C100.041 123.751 99.8538 123.702 99.688 123.609L65.5189 125.206C65.3249 125.097 65.1681 124.932 65.069 124.733C64.97 124.534 64.9332 124.309 64.9634 124.089C64.9937 123.869 65.0896 123.662 65.2387 123.497C65.3878 123.332 65.5832 123.216 65.7994 123.163L78.1693 120.161C78.3624 120.114 78.5644 120.12 78.7544 120.178L110.519 120.14C110.746 120.209 110.944 120.349 111.085 120.539C111.226 120.729 111.302 120.959 111.303 121.195C111.304 121.432 111.229 121.662 111.089 121.853C110.95 122.044 110.752 122.185 110.527 122.256L100.561 123.7C100.454 123.734 100.343 123.751 100.231 123.751V123.751Z" fill="#2F2E41"/>
<path d="M96.6341 121.929C97.2256 122.311 97.8934 122.558 98.5906 122.653C99.2878 122.748 99.9974 122.689 100.669 122.481C101.342 122.272 101.96 121.919 102.48 121.445C103.001 120.972 103.412 120.39 103.683 119.741L139.85 122.582L138.101 113.622L100.798 113.267C99.6771 112.883 98.4544 112.923 97.3615 113.381C96.2687 113.838 95.3816 114.681 94.8683 115.749C94.3551 116.816 94.2514 118.035 94.5768 119.175C94.9023 120.314 95.6343 121.294 96.6341 121.929V121.929Z" fill="#A0616A"/>
<path d="M117.995 63.5774C117.995 63.5774 123.458 59.2067 130.014 67.074C134.436 72.3796 142.965 104.453 143.672 117.744C143.717 118.585 143.587 119.427 143.291 120.215C142.996 121.004 142.541 121.723 141.954 122.327C141.368 122.932 140.663 123.409 139.883 123.728C139.104 124.047 138.267 124.202 137.425 124.183L118.148 123.847L115.992 111.729L131.212 111.909L117.995 63.5774Z" fill="#F9A826"/>
<path d="M96.3419 126.684C95.6806 126.684 95.026 126.551 94.4165 126.295L55.4205 127.184C54.3914 126.755 53.537 125.991 52.9957 125.017C52.4543 124.042 52.2576 122.913 52.4373 121.812L50.9883 87.5652C51.1804 86.3419 51.8243 85.2351 52.7927 84.4634C53.7611 83.6917 54.9837 83.3112 56.219 83.3969L92.4223 84.8985C93.1173 84.944 93.7949 85.1351 94.4112 85.4594C95.0275 85.7837 95.5688 86.2339 95.9999 86.7809C96.431 87.3278 96.7424 87.9593 96.9137 88.6343C97.0851 89.3093 97.1126 90.0128 96.9946 90.6992L101.236 122.555C101.037 123.709 100.437 124.756 99.5414 125.511C98.6462 126.267 97.5132 126.682 96.3419 126.684V126.684Z" fill="#3F3D56"/>
<path d="M66.7333 24.7239L50.459 24.678C50.0227 24.6775 49.6041 24.8499 49.2948 25.1576C48.9855 25.4652 48.8108 25.883 48.809 26.3192L48.75 47.869C48.7491 48.3048 48.9212 48.7232 49.2285 49.0321C49.5358 49.3411 49.9532 49.5154 50.389 49.5168L59.4168 49.543L66.6656 49.5627C67.1017 49.5635 67.5203 49.391 67.8293 49.0833C68.1383 48.7755 68.3124 48.3576 68.3134 47.9215L68.3177 46.6474L68.3745 26.3738C68.3754 25.9375 68.2031 25.5186 67.8954 25.2092C67.5876 24.8999 67.1697 24.7253 66.7333 24.7239V24.7239Z" fill="#E6E6E6"/>
<path d="M65.5824 26.011L51.5961 25.9717C51.1877 25.9712 50.7957 26.1326 50.5061 26.4206C50.2165 26.7085 50.0529 27.0996 50.0511 27.508L50.0117 41.3632C50.009 43.1827 50.728 44.9291 52.0112 46.2192C53.2943 47.5093 55.0367 48.2378 56.8563 48.2449L59.5137 48.2514L65.5212 48.2689C65.9298 48.2698 66.3219 48.1085 66.6116 47.8205C66.9013 47.5324 67.0649 47.1411 67.0663 46.7326L67.0706 45.3384L67.1187 27.5561C67.1196 27.1475 66.9583 26.7554 66.6703 26.4657C66.3822 26.176 65.991 26.0124 65.5824 26.011V26.011Z" fill="white"/>
<path d="M64.0126 35.478H53.1076C53.0217 35.478 52.9366 35.495 52.8572 35.5278C52.7778 35.5607 52.7056 35.609 52.6448 35.6697C52.584 35.7305 52.5358 35.8027 52.5029 35.8821C52.4701 35.9615 52.4531 36.0466 52.4531 36.1325C52.4531 36.2185 52.4701 36.3036 52.5029 36.383C52.5358 36.4624 52.584 36.5346 52.6448 36.5954C52.7056 36.6561 52.7778 36.7043 52.8572 36.7372C52.9366 36.7701 53.0217 36.7871 53.1076 36.7871H64.0126C64.1862 36.7871 64.3527 36.7181 64.4754 36.5954C64.5982 36.4726 64.6671 36.3061 64.6671 36.1325C64.6671 35.959 64.5982 35.7925 64.4754 35.6697C64.3527 35.547 64.1862 35.478 64.0126 35.478V35.478Z" fill="#F9A826"/>
<path d="M55.505 31.8896H53.1076C52.9341 31.8896 52.7676 31.9586 52.6448 32.0814C52.5221 32.2041 52.4531 32.3706 52.4531 32.5442C52.4531 32.7177 52.5221 32.8842 52.6448 33.007C52.7676 33.1297 52.9341 33.1987 53.1076 33.1987H55.505C55.6786 33.1987 55.845 33.1297 55.9678 33.007C56.0905 32.8842 56.1595 32.7177 56.1595 32.5442C56.1595 32.3706 56.0905 32.2041 55.9678 32.0814C55.845 31.9586 55.6786 31.8896 55.505 31.8896V31.8896Z" fill="#F9A826"/>
<path d="M64.0126 41.2322H53.1076C52.9341 41.2322 52.7676 41.3011 52.6448 41.4239C52.5221 41.5466 52.4531 41.7131 52.4531 41.8867C52.4531 42.0603 52.5221 42.2268 52.6448 42.3495C52.7676 42.4723 52.9341 42.5412 53.1076 42.5412H64.0126C64.1862 42.5412 64.3527 42.4723 64.4754 42.3495C64.5982 42.2268 64.6671 42.0603 64.6671 41.8867C64.6671 41.7131 64.5982 41.5466 64.4754 41.4239C64.3527 41.3011 64.1862 41.2322 64.0126 41.2322V41.2322Z" fill="#F9A826"/>
<path d="M64.0115 38.3562H53.1065C52.9332 38.3562 52.767 38.425 52.6445 38.5476C52.522 38.6701 52.4531 38.8363 52.4531 39.0096C52.4531 39.1829 52.522 39.3491 52.6445 39.4717C52.767 39.5942 52.9332 39.663 53.1065 39.663H64.0115C64.1848 39.663 64.351 39.5942 64.4735 39.4717C64.5961 39.3491 64.6649 39.1829 64.6649 39.0096C64.6649 38.8363 64.5961 38.6701 64.4735 38.5476C64.351 38.425 64.1848 38.3562 64.0115 38.3562V38.3562Z" fill="#F9A826"/>
<path d="M61.8951 34.204C61.1294 34.204 60.3808 33.977 59.7441 33.5516C59.1074 33.1261 58.6112 32.5215 58.3182 31.814C58.0251 31.1065 57.9484 30.3281 58.0978 29.577C58.2472 28.826 58.616 28.1361 59.1574 27.5947C59.6989 27.0532 60.3888 26.6845 61.1398 26.5351C61.8908 26.3857 62.6693 26.4624 63.3767 26.7554C64.0842 27.0484 64.6889 27.5447 65.1143 28.1814C65.5397 28.8181 65.7668 29.5666 65.7668 30.3324C65.7656 31.3588 65.3573 32.3429 64.6315 33.0688C63.9057 33.7946 62.9216 34.2029 61.8951 34.204V34.204ZM61.8951 26.7298C61.1826 26.7297 60.4861 26.941 59.8936 27.3369C59.3012 27.7328 58.8394 28.2954 58.5667 28.9537C58.294 29.612 58.2227 30.3364 58.3617 31.0352C58.5007 31.734 58.8438 32.376 59.3477 32.8798C59.8515 33.3836 60.4934 33.7268 61.1923 33.8658C61.8911 34.0048 62.6155 33.9334 63.2738 33.6608C63.9321 33.3881 64.4947 32.9263 64.8906 32.3339C65.2864 31.7414 65.4977 31.0449 65.4977 30.3324C65.4966 29.3772 65.1167 28.4615 64.4413 27.7861C63.766 27.1108 62.8503 26.7308 61.8951 26.7298V26.7298Z" fill="#F9A826"/>
<path d="M63.5173 31.8322C63.2499 30.4515 62.6929 29.1431 61.8831 27.9933C61.8648 27.9635 61.8392 27.9389 61.8087 27.9218C61.7782 27.9047 61.7438 27.8958 61.7088 27.8958C61.6739 27.8958 61.6395 27.9047 61.609 27.9218C61.5785 27.9389 61.5529 27.9635 61.5346 27.9933C60.8293 29.227 60.3785 30.5895 60.2088 32.0003C60.1774 32.2576 60.5813 32.2553 60.6124 32.0003C60.6691 31.5431 60.7575 31.0904 60.8769 30.6454C60.8924 30.6424 60.9075 30.6377 60.922 30.6316C61.4587 30.3622 62.0649 30.2634 62.6593 30.3487C62.6645 30.3495 62.6695 30.3483 62.6747 30.3488C62.8709 30.8651 63.0227 31.3973 63.1282 31.9394C63.1774 32.1942 63.5664 32.0863 63.5173 31.8322ZM61.0222 30.1505C61.2074 29.5758 61.4433 29.0187 61.7269 28.4856C62.0271 28.9443 62.2878 29.4277 62.5062 29.9306C62.0013 29.8926 61.4943 29.9677 61.0222 30.1505V30.1505Z" fill="#F9A826"/>
</svg>
