<svg width="200" height="150" viewBox="0 0 200 150" fill="none" xmlns="http://www.w3.org/2000/svg">
<g clip-path="url(#clip0_649_2554)">
<mask id="mask0_649_2554" style="mask-type:alpha" maskUnits="userSpaceOnUse" x="68" y="120" width="65" height="9">
<rect x="68.4648" y="120.231" width="64.0769" height="8.07692" fill="#DDDDDD"/>
</mask>
<g mask="url(#mask0_649_2554)">
<path d="M67.9102 47.5385H131.987L121.926 123.629C121.572 126.307 119.289 128.308 116.588 128.308H83.3092C80.6081 128.308 78.3251 126.307 77.971 123.629L67.9102 47.5385Z" fill="#DDDDDD"/>
</g>
<mask id="mask1_649_2554" style="mask-type:alpha" maskUnits="userSpaceOnUse" x="68" y="112" width="65" height="9">
<rect x="68.4648" y="112.154" width="64.0769" height="8.07692" fill="#797979"/>
</mask>
<g mask="url(#mask1_649_2554)">
<path d="M67.9102 47.5387H131.987L121.926 123.629C121.572 126.307 119.289 128.308 116.588 128.308H83.3092C80.6081 128.308 78.3251 126.307 77.971 123.629L67.9102 47.5387Z" fill="#797979"/>
</g>
<mask id="mask2_649_2554" style="mask-type:alpha" maskUnits="userSpaceOnUse" x="68" y="104" width="65" height="9">
<rect x="68.4648" y="104.077" width="64.0769" height="8.07692" fill="#797979"/>
</mask>
<g mask="url(#mask2_649_2554)">
<path d="M67.9102 47.5386H131.987L121.926 123.629C121.572 126.307 119.289 128.308 116.588 128.308H83.3092C80.6081 128.308 78.3251 126.307 77.971 123.629L67.9102 47.5386Z" fill="#797979"/>
</g>
<mask id="mask3_649_2554" style="mask-type:alpha" maskUnits="userSpaceOnUse" x="68" y="96" width="65" height="9">
<rect x="68.4648" y="96" width="64.0769" height="8.07692" fill="#797979"/>
</mask>
<g mask="url(#mask3_649_2554)">
<path d="M67.9102 47.5383H131.987L121.926 123.629C121.572 126.306 119.289 128.308 116.588 128.308H83.3092C80.6081 128.308 78.3251 126.306 77.971 123.629L67.9102 47.5383Z" fill="#797979"/>
</g>
<mask id="mask4_649_2554" style="mask-type:alpha" maskUnits="userSpaceOnUse" x="68" y="87" width="65" height="9">
<rect x="68.4648" y="87.923" width="64.0769" height="8.07692" fill="#DDDDDD"/>
</mask>
<g mask="url(#mask4_649_2554)">
<path d="M67.9102 47.5383H131.987L121.926 123.629C121.572 126.306 119.289 128.308 116.588 128.308H83.3092C80.6081 128.308 78.3251 126.306 77.971 123.629L67.9102 47.5383Z" fill="#DDDDDD"/>
</g>
<mask id="mask5_649_2554" style="mask-type:alpha" maskUnits="userSpaceOnUse" x="68" y="79" width="65" height="9">
<rect x="68.4648" y="79.8463" width="64.0769" height="8.07692" fill="#DDDDDD"/>
</mask>
<g mask="url(#mask5_649_2554)">
<path d="M67.9102 47.5388H131.987L121.926 123.629C121.572 126.307 119.289 128.308 116.588 128.308H83.3092C80.6081 128.308 78.3251 126.307 77.971 123.629L67.9102 47.5388Z" fill="#DDDDDD"/>
</g>
<mask id="mask6_649_2554" style="mask-type:alpha" maskUnits="userSpaceOnUse" x="68" y="71" width="65" height="9">
<rect x="68.4648" y="71.7693" width="64.0769" height="8.07692" fill="#DDDDDD"/>
</mask>
<g mask="url(#mask6_649_2554)">
<path d="M67.9102 47.5385H131.987L121.926 123.629C121.572 126.307 119.289 128.308 116.588 128.308H83.3092C80.6081 128.308 78.3251 126.307 77.971 123.629L67.9102 47.5385Z" fill="#DDDDDD"/>
</g>
<mask id="mask7_649_2554" style="mask-type:alpha" maskUnits="userSpaceOnUse" x="68" y="63" width="65" height="9">
<rect x="68.4648" y="63.692" width="64.0769" height="8.07692" fill="#DDDDDD"/>
</mask>
<g mask="url(#mask7_649_2554)">
<path d="M67.9102 47.5381H131.987L121.926 123.629C121.572 126.306 119.289 128.307 116.588 128.307H83.3092C80.6081 128.307 78.3251 126.306 77.971 123.629L67.9102 47.5381Z" fill="#DDDDDD"/>
</g>
<mask id="mask8_649_2554" style="mask-type:alpha" maskUnits="userSpaceOnUse" x="68" y="55" width="65" height="9">
<rect x="68.4648" y="55.6155" width="64.0769" height="8.07692" fill="#DDDDDD"/>
</mask>
<g mask="url(#mask8_649_2554)">
<path d="M67.9102 47.5385H131.987L121.926 123.629C121.572 126.307 119.289 128.308 116.588 128.308H83.3092C80.6081 128.308 78.3251 126.307 77.971 123.629L67.9102 47.5385Z" fill="#DDDDDD"/>
</g>
<mask id="mask9_649_2554" style="mask-type:alpha" maskUnits="userSpaceOnUse" x="68" y="47" width="65" height="9">
<rect x="68.4648" y="47.5385" width="64.0769" height="8.07692" fill="#DDDDDD"/>
</mask>
<g mask="url(#mask9_649_2554)">
<path d="M67.9102 47.5385H131.987L121.926 123.629C121.572 126.307 119.289 128.308 116.588 128.308H83.3092C80.6081 128.308 78.3251 126.307 77.971 123.629L67.9102 47.5385Z" fill="#DDDDDD"/>
</g>
<path d="M97.8692 44.483L104.726 19.0049L109.928 20.3929L103.072 45.871L97.8692 44.483Z" fill="#454545" stroke="#454545" stroke-width="0.538461"/>
<rect x="62.2692" y="44.0383" width="74.8462" height="3.23077" rx="1.61538" fill="#454545" stroke="#454545" stroke-width="0.538461"/>
<path d="M68.4609 46.1921H66.9318L67.1256 47.7088L76.8453 123.776C77.2747 127.136 80.1343 129.654 83.5218 129.654H115.323C118.711 129.654 121.57 127.136 122 123.776L131.719 47.7088L131.913 46.1921H130.384H68.4609Z" stroke="#454545" stroke-width="2.69231"/>
<path d="M89.2198 123.074V127.308H88.6848V123.742L87.606 124.135V123.652L89.136 123.074H89.2198ZM93.6379 124.867V125.509C93.6379 125.854 93.6071 126.145 93.5454 126.382C93.4837 126.62 93.395 126.81 93.2793 126.955C93.1636 127.1 93.0238 127.205 92.86 127.27C92.698 127.334 92.5148 127.366 92.3105 127.366C92.1485 127.366 91.9991 127.345 91.8622 127.305C91.7253 127.264 91.6019 127.2 91.492 127.111C91.384 127.021 91.2915 126.903 91.2143 126.758C91.1372 126.614 91.0784 126.438 91.0379 126.232C90.9974 126.026 90.9772 125.785 90.9772 125.509V124.867C90.9772 124.522 91.008 124.233 91.0697 123.999C91.1334 123.766 91.223 123.579 91.3387 123.438C91.4544 123.296 91.5932 123.193 91.7552 123.132C91.9191 123.07 92.1022 123.039 92.3047 123.039C92.4686 123.039 92.6189 123.059 92.7558 123.1C92.8947 123.138 93.0181 123.201 93.126 123.288C93.234 123.373 93.3256 123.486 93.4008 123.629C93.4779 123.77 93.5367 123.942 93.5772 124.147C93.6177 124.351 93.6379 124.591 93.6379 124.867ZM93.1 125.596V124.777C93.1 124.588 93.0884 124.422 93.0653 124.28C93.0441 124.135 93.0123 124.012 92.9699 123.91C92.9274 123.807 92.8735 123.725 92.8079 123.661C92.7443 123.597 92.67 123.551 92.5852 123.522C92.5023 123.491 92.4088 123.476 92.3047 123.476C92.1774 123.476 92.0646 123.5 91.9663 123.548C91.868 123.594 91.7851 123.669 91.7176 123.771C91.652 123.873 91.6019 124.007 91.5672 124.173C91.5325 124.339 91.5151 124.54 91.5151 124.777V125.596C91.5151 125.785 91.5257 125.951 91.5469 126.096C91.5701 126.241 91.6038 126.366 91.6482 126.472C91.6925 126.576 91.7465 126.662 91.8101 126.729C91.8737 126.797 91.947 126.847 92.0299 126.88C92.1148 126.911 92.2083 126.926 92.3105 126.926C92.4416 126.926 92.5563 126.901 92.6546 126.851C92.7529 126.801 92.8349 126.723 92.9004 126.617C92.9679 126.509 93.0181 126.371 93.0508 126.203C93.0836 126.033 93.1 125.831 93.1 125.596ZM94.4814 124.129V123.907C94.4814 123.747 94.5161 123.601 94.5855 123.47C94.6549 123.339 94.7542 123.234 94.8834 123.155C95.0126 123.076 95.1658 123.036 95.3432 123.036C95.5245 123.036 95.6787 123.076 95.806 123.155C95.9352 123.234 96.0344 123.339 96.1039 123.47C96.1733 123.601 96.208 123.747 96.208 123.907V124.129C96.208 124.286 96.1733 124.429 96.1039 124.56C96.0364 124.691 95.938 124.797 95.8089 124.876C95.6816 124.955 95.5283 124.994 95.349 124.994C95.1697 124.994 95.0145 124.955 94.8834 124.876C94.7542 124.797 94.6549 124.691 94.5855 124.56C94.5161 124.429 94.4814 124.286 94.4814 124.129ZM94.8834 123.907V124.129C94.8834 124.218 94.8998 124.302 94.9325 124.381C94.9673 124.46 95.0193 124.525 95.0887 124.575C95.1581 124.623 95.2449 124.647 95.349 124.647C95.4531 124.647 95.5389 124.623 95.6064 124.575C95.6739 124.525 95.724 124.46 95.7568 124.381C95.7896 124.302 95.806 124.218 95.806 124.129V123.907C95.806 123.816 95.7886 123.731 95.7539 123.652C95.7211 123.571 95.67 123.507 95.6006 123.458C95.5331 123.408 95.4473 123.383 95.3432 123.383C95.241 123.383 95.1552 123.408 95.0858 123.458C95.0183 123.507 94.9673 123.571 94.9325 123.652C94.8998 123.731 94.8834 123.816 94.8834 123.907ZM96.5319 126.501V126.275C96.5319 126.117 96.5666 125.973 96.636 125.842C96.7054 125.71 96.8047 125.605 96.9339 125.526C97.0631 125.447 97.2164 125.408 97.3937 125.408C97.575 125.408 97.7292 125.447 97.8565 125.526C97.9857 125.605 98.085 125.71 98.1544 125.842C98.2238 125.973 98.2585 126.117 98.2585 126.275V126.501C98.2585 126.659 98.2238 126.804 98.1544 126.935C98.0869 127.066 97.9886 127.171 97.8594 127.25C97.7321 127.329 97.5788 127.369 97.3995 127.369C97.2202 127.369 97.066 127.329 96.9368 127.25C96.8076 127.171 96.7074 127.066 96.636 126.935C96.5666 126.804 96.5319 126.659 96.5319 126.501ZM96.9339 126.275V126.501C96.9339 126.59 96.9503 126.674 96.9831 126.755C97.0178 126.835 97.0698 126.899 97.1392 126.949C97.2087 126.997 97.2954 127.022 97.3995 127.022C97.5036 127.022 97.5894 126.997 97.6569 126.949C97.7263 126.899 97.7774 126.835 97.8102 126.755C97.843 126.676 97.8594 126.592 97.8594 126.501V126.275C97.8594 126.185 97.842 126.1 97.8073 126.021C97.7745 125.942 97.7235 125.878 97.654 125.83C97.5866 125.78 97.4998 125.755 97.3937 125.755C97.2916 125.755 97.2058 125.78 97.1363 125.83C97.0689 125.878 97.0178 125.942 96.9831 126.021C96.9503 126.1 96.9339 126.185 96.9339 126.275ZM97.5268 123.696L95.4705 126.987L95.1697 126.796L97.226 123.505L97.5268 123.696ZM101.395 122.332V127.776H101.833V122.332H101.395ZM100.862 123.476C100.82 123.955 100.708 124.607 100.554 125.004L100.903 125.122C101.057 124.69 101.17 124.009 101.199 123.529L100.862 123.476ZM101.845 123.422C102.023 123.778 102.218 124.252 102.283 124.536L102.621 124.364C102.544 124.092 102.348 123.636 102.165 123.286L101.845 123.422ZM102.656 123.28V123.701H105.15V125.294H105.588V123.28H102.656ZM102.342 125.057V125.484H106.098V125.057H102.342ZM104.333 125.146L103.936 125.229C104.256 126.419 104.848 127.373 105.831 127.799C105.902 127.675 106.044 127.486 106.151 127.391C105.221 127.047 104.611 126.171 104.333 125.146ZM103.817 122.332V124.311C103.817 125.347 103.758 126.656 102.147 127.462C102.248 127.551 102.396 127.711 102.455 127.805C104.113 126.899 104.262 125.472 104.262 124.311V122.332H103.817ZM108.058 124.672H106.797V125.087H107.626V126.769H108.058V124.672ZM108.058 126.573H107.655C107.353 126.828 107.004 127.089 106.72 127.278L106.957 127.734C107.276 127.474 107.578 127.219 107.863 126.964C108.242 127.432 108.775 127.64 109.545 127.669C110.202 127.693 111.428 127.681 112.08 127.657C112.098 127.521 112.175 127.308 112.222 127.201C111.523 127.249 110.191 127.266 109.545 127.243C108.864 127.213 108.337 127.012 108.058 126.573ZM106.862 122.747C107.247 123.008 107.691 123.41 107.881 123.695L108.23 123.405C108.023 123.114 107.578 122.729 107.188 122.481L106.862 122.747ZM109.053 124.186H111.405V124.939H109.053V124.186ZM108.639 123.825V125.3H111.837V123.825H108.639ZM108.396 122.954V123.339H112.104V122.954H108.396ZM109.989 122.344V127.018H110.416V122.344H109.989ZM109.841 125.158C109.515 125.703 108.87 126.254 108.283 126.508C108.378 126.585 108.508 126.739 108.574 126.846C109.172 126.532 109.817 125.916 110.167 125.282L109.841 125.158ZM110.522 125.158L110.208 125.3C110.581 125.886 111.257 126.514 111.837 126.828C111.902 126.716 112.039 126.567 112.139 126.479C111.553 126.224 110.878 125.679 110.522 125.158Z" fill="black"/>
<path d="M90.453 108.785H90.8347C91.0217 108.785 91.176 108.754 91.2975 108.693C91.4209 108.629 91.5124 108.543 91.5722 108.435C91.6339 108.325 91.6648 108.202 91.6648 108.065C91.6648 107.903 91.6378 107.767 91.5838 107.657C91.5298 107.547 91.4488 107.464 91.3408 107.409C91.2329 107.353 91.096 107.325 90.9302 107.325C90.7798 107.325 90.6467 107.355 90.5311 107.414C90.4173 107.472 90.3276 107.555 90.2621 107.663C90.1985 107.771 90.1666 107.898 90.1666 108.045H89.6316C89.6316 107.831 89.6856 107.636 89.7936 107.461C89.9015 107.285 90.0529 107.145 90.2476 107.041C90.4443 106.937 90.6718 106.885 90.9302 106.885C91.1847 106.885 91.4074 106.93 91.5982 107.021C91.7891 107.11 91.9376 107.243 92.0436 107.42C92.1497 107.596 92.2027 107.814 92.2027 108.077C92.2027 108.183 92.1776 108.296 92.1275 108.418C92.0793 108.537 92.0031 108.649 91.899 108.753C91.7968 108.857 91.6638 108.943 91.4999 109.011C91.336 109.076 91.1394 109.109 90.9099 109.109H90.453V108.785ZM90.453 109.225V108.904H90.9099C91.1779 108.904 91.3997 108.936 91.5751 108.999C91.7506 109.063 91.8884 109.148 91.9887 109.254C92.0909 109.36 92.1622 109.476 92.2027 109.604C92.2451 109.729 92.2663 109.854 92.2663 109.98C92.2663 110.176 92.2326 110.351 92.1651 110.503C92.0995 110.655 92.006 110.785 91.8846 110.891C91.765 110.997 91.6243 111.077 91.4623 111.131C91.3004 111.185 91.1239 111.212 90.9331 111.212C90.7499 111.212 90.5773 111.186 90.4154 111.134C90.2553 111.082 90.1136 111.006 89.9902 110.908C89.8668 110.808 89.7704 110.685 89.701 110.541C89.6316 110.394 89.5969 110.227 89.5969 110.04H90.1319C90.1319 110.187 90.1638 110.315 90.2274 110.425C90.2929 110.535 90.3855 110.621 90.505 110.682C90.6265 110.742 90.7692 110.772 90.9331 110.772C91.0969 110.772 91.2377 110.744 91.3553 110.688C91.4748 110.63 91.5664 110.544 91.6301 110.428C91.6956 110.312 91.7284 110.167 91.7284 109.991C91.7284 109.816 91.6918 109.672 91.6185 109.56C91.5452 109.446 91.4411 109.363 91.3061 109.309C91.1731 109.253 91.016 109.225 90.8347 109.225H90.453ZM95.8486 108.713V109.355C95.8486 109.7 95.8178 109.991 95.7561 110.228C95.6944 110.465 95.6057 110.656 95.49 110.801C95.3743 110.946 95.2345 111.051 95.0706 111.116C94.9087 111.18 94.7255 111.212 94.5211 111.212C94.3592 111.212 94.2097 111.191 94.0728 111.151C93.9359 111.11 93.8126 111.046 93.7026 110.957C93.5947 110.867 93.5021 110.749 93.425 110.604C93.3479 110.46 93.2891 110.284 93.2486 110.078C93.2081 109.872 93.1879 109.631 93.1879 109.355V108.713C93.1879 108.368 93.2187 108.079 93.2804 107.845C93.344 107.612 93.4337 107.425 93.5494 107.284C93.6651 107.141 93.8039 107.039 93.9658 106.978C94.1297 106.916 94.3129 106.885 94.5153 106.885C94.6792 106.885 94.8296 106.905 94.9665 106.946C95.1053 106.984 95.2287 107.047 95.3367 107.134C95.4447 107.219 95.5363 107.332 95.6115 107.475C95.6886 107.616 95.7474 107.788 95.7879 107.993C95.8284 108.197 95.8486 108.437 95.8486 108.713ZM95.3107 109.442V108.623C95.3107 108.434 95.2991 108.268 95.276 108.126C95.2548 107.981 95.2229 107.858 95.1805 107.756C95.1381 107.653 95.0841 107.57 95.0186 107.507C94.9549 107.443 94.8807 107.397 94.7959 107.368C94.713 107.337 94.6195 107.322 94.5153 107.322C94.3881 107.322 94.2753 107.346 94.177 107.394C94.0786 107.44 93.9957 107.515 93.9282 107.617C93.8627 107.719 93.8126 107.853 93.7778 108.019C93.7431 108.185 93.7258 108.386 93.7258 108.623V109.442C93.7258 109.631 93.7364 109.797 93.7576 109.942C93.7807 110.087 93.8145 110.212 93.8588 110.318C93.9032 110.422 93.9572 110.508 94.0208 110.575C94.0844 110.643 94.1577 110.693 94.2406 110.726C94.3254 110.757 94.4189 110.772 94.5211 110.772C94.6522 110.772 94.767 110.747 94.8653 110.697C94.9636 110.647 95.0456 110.569 95.1111 110.463C95.1786 110.355 95.2287 110.217 95.2615 110.049C95.2943 109.879 95.3107 109.677 95.3107 109.442ZM96.692 107.975V107.753C96.692 107.593 96.7268 107.447 96.7962 107.316C96.8656 107.185 96.9649 107.08 97.0941 107.001C97.2232 106.922 97.3765 106.882 97.5539 106.882C97.7351 106.882 97.8894 106.922 98.0166 107.001C98.1458 107.08 98.2451 107.185 98.3145 107.316C98.3839 107.447 98.4186 107.593 98.4186 107.753V107.975C98.4186 108.132 98.3839 108.275 98.3145 108.406C98.247 108.537 98.1487 108.642 98.0195 108.722C97.8923 108.801 97.739 108.84 97.5597 108.84C97.3804 108.84 97.2252 108.801 97.0941 108.722C96.9649 108.642 96.8656 108.537 96.7962 108.406C96.7268 108.275 96.692 108.132 96.692 107.975ZM97.0941 107.753V107.975C97.0941 108.064 97.1104 108.148 97.1432 108.227C97.1779 108.306 97.23 108.371 97.2994 108.421C97.3688 108.469 97.4556 108.493 97.5597 108.493C97.6638 108.493 97.7496 108.469 97.8171 108.421C97.8846 108.371 97.9347 108.306 97.9675 108.227C98.0003 108.148 98.0166 108.064 98.0166 107.975V107.753C98.0166 107.662 97.9993 107.577 97.9646 107.498C97.9318 107.417 97.8807 107.353 97.8113 107.304C97.7438 107.254 97.658 107.229 97.5539 107.229C97.4517 107.229 97.3659 107.254 97.2965 107.304C97.229 107.353 97.1779 107.417 97.1432 107.498C97.1104 107.577 97.0941 107.662 97.0941 107.753ZM98.7426 110.347V110.121C98.7426 109.963 98.7773 109.819 98.8467 109.688C98.9161 109.556 99.0154 109.451 99.1446 109.372C99.2738 109.293 99.427 109.254 99.6044 109.254C99.7857 109.254 99.9399 109.293 100.067 109.372C100.196 109.451 100.296 109.556 100.365 109.688C100.434 109.819 100.469 109.963 100.469 110.121V110.347C100.469 110.505 100.434 110.65 100.365 110.781C100.298 110.912 100.199 111.017 100.07 111.096C99.9428 111.175 99.7895 111.215 99.6102 111.215C99.4309 111.215 99.2766 111.175 99.1475 111.096C99.0183 111.017 98.918 110.912 98.8467 110.781C98.7773 110.65 98.7426 110.505 98.7426 110.347ZM99.1446 110.121V110.347C99.1446 110.436 99.161 110.52 99.1937 110.601C99.2284 110.68 99.2805 110.745 99.3499 110.795C99.4193 110.843 99.5061 110.867 99.6102 110.867C99.7143 110.867 99.8001 110.843 99.8676 110.795C99.937 110.745 99.9881 110.68 100.021 110.601C100.054 110.522 100.07 110.438 100.07 110.347V110.121C100.07 110.031 100.053 109.946 100.018 109.867C99.9852 109.788 99.9341 109.724 99.8647 109.676C99.7972 109.626 99.7105 109.601 99.6044 109.601C99.5022 109.601 99.4164 109.626 99.347 109.676C99.2795 109.724 99.2284 109.788 99.1937 109.867C99.161 109.946 99.1446 110.031 99.1446 110.121ZM99.7375 107.542L97.6812 110.833L97.3804 110.642L99.4367 107.351L99.7375 107.542ZM104.144 106.818H107.035V107.256H104.144V106.818ZM103.718 106.522V107.553H107.479V106.522H103.718ZM105.335 106.178V108.021H105.773V106.178H105.335ZM102.918 107.872V108.222H108.202V107.872H102.918ZM104.103 109.442H107.082V109.809H104.103V109.442ZM104.103 110.088H107.082V110.461H104.103V110.088ZM104.103 108.802H107.082V109.164H104.103V108.802ZM103.671 108.512V110.745H107.527V108.512H103.671ZM106.04 111.041C106.685 111.231 107.325 111.462 107.698 111.634L108.208 111.409C107.775 111.231 107.059 110.994 106.407 110.816L106.04 111.041ZM104.672 110.804C104.245 111.018 103.528 111.201 102.912 111.32C103.013 111.397 103.167 111.563 103.238 111.651C103.831 111.503 104.589 111.249 105.068 110.982L104.672 110.804Z" fill="black"/>
<path d="M83.4646 69.7833H83.5109V70.2373H83.4646C83.1812 70.2373 82.944 70.2836 82.7531 70.3762C82.5622 70.4668 82.4109 70.5892 82.2991 70.7435C82.1872 70.8958 82.1063 71.0674 82.0561 71.2583C82.0079 71.4491 81.9838 71.6429 81.9838 71.8396V72.4585C81.9838 72.6455 82.006 72.8113 82.0503 72.9559C82.0947 73.0986 82.1554 73.2191 82.2325 73.3175C82.3097 73.4158 82.3964 73.49 82.4928 73.5402C82.5912 73.5903 82.6934 73.6153 82.7994 73.6153C82.9228 73.6153 83.0327 73.5922 83.1291 73.5459C83.2255 73.4977 83.3065 73.4312 83.372 73.3464C83.4395 73.2596 83.4906 73.1574 83.5253 73.0398C83.56 72.9222 83.5774 72.793 83.5774 72.6523C83.5774 72.5269 83.562 72.4064 83.5311 72.2908C83.5003 72.1731 83.453 72.069 83.3894 71.9784C83.3258 71.8859 83.2458 71.8136 83.1493 71.7615C83.0549 71.7075 82.9421 71.6805 82.811 71.6805C82.6625 71.6805 82.5237 71.7171 82.3945 71.7904C82.2672 71.8618 82.1622 71.9562 82.0793 72.0738C81.9983 72.1895 81.952 72.3158 81.9404 72.4527L81.657 72.4498C81.684 72.2339 81.7341 72.0497 81.8074 71.8974C81.8826 71.7432 81.9751 71.6179 82.085 71.5214C82.1969 71.4231 82.3212 71.3518 82.4581 71.3074C82.597 71.2612 82.7435 71.238 82.8977 71.238C83.1079 71.238 83.2891 71.2775 83.4415 71.3566C83.5938 71.4356 83.7191 71.5417 83.8174 71.6747C83.9158 71.8058 83.9881 71.9543 84.0343 72.1201C84.0825 72.284 84.1066 72.4527 84.1066 72.6262C84.1066 72.8248 84.0787 73.0109 84.0228 73.1844C83.9669 73.3579 83.883 73.5103 83.7712 73.6414C83.6613 73.7725 83.5253 73.8747 83.3634 73.9479C83.2014 74.0212 83.0134 74.0578 82.7994 74.0578C82.5719 74.0578 82.3733 74.0116 82.2036 73.919C82.034 73.8245 81.8932 73.6992 81.7814 73.543C81.6695 73.3869 81.5857 73.2133 81.5298 73.0225C81.4738 72.8316 81.4459 72.6378 81.4459 72.4411V72.1895C81.4459 71.8926 81.4758 71.6015 81.5355 71.3161C81.5953 71.0307 81.6985 70.7724 81.845 70.541C81.9935 70.3096 82.1988 70.1255 82.461 69.9886C82.7232 69.8517 83.0578 69.7833 83.4646 69.7833ZM87.5877 71.559V72.2011C87.5877 72.5462 87.5568 72.8374 87.4951 73.0745C87.4335 73.3117 87.3448 73.5026 87.2291 73.6472C87.1134 73.7918 86.9736 73.8968 86.8097 73.9624C86.6478 74.026 86.4646 74.0578 86.2602 74.0578C86.0983 74.0578 85.9488 74.0376 85.8119 73.9971C85.675 73.9566 85.5516 73.892 85.4417 73.8033C85.3338 73.7127 85.2412 73.5951 85.1641 73.4505C85.087 73.3059 85.0282 73.1304 84.9877 72.9241C84.9472 72.7178 84.9269 72.4768 84.9269 72.2011V71.559C84.9269 71.2139 84.9578 70.9247 85.0195 70.6914C85.0831 70.4581 85.1728 70.2711 85.2885 70.1303C85.4041 69.9877 85.543 69.8855 85.7049 69.8238C85.8688 69.7621 86.052 69.7312 86.2544 69.7312C86.4183 69.7312 86.5687 69.7515 86.7056 69.792C86.8444 69.8305 86.9678 69.8932 87.0758 69.9799C87.1838 70.0648 87.2753 70.1785 87.3505 70.3212C87.4277 70.462 87.4865 70.6345 87.527 70.8389C87.5675 71.0433 87.5877 71.2833 87.5877 71.559ZM87.0498 72.2879V71.4694C87.0498 71.2804 87.0382 71.1146 87.0151 70.9719C86.9938 70.8273 86.962 70.7039 86.9196 70.6018C86.8772 70.4996 86.8232 70.4167 86.7577 70.353C86.694 70.2894 86.6198 70.2431 86.535 70.2142C86.4521 70.1834 86.3585 70.1679 86.2544 70.1679C86.1272 70.1679 86.0144 70.192 85.916 70.2402C85.8177 70.2865 85.7348 70.3607 85.6673 70.4629C85.6018 70.5651 85.5516 70.6991 85.5169 70.8649C85.4822 71.0307 85.4649 71.2322 85.4649 71.4694V72.2879C85.4649 72.4768 85.4755 72.6436 85.4967 72.7882C85.5198 72.9328 85.5536 73.0581 85.5979 73.1642C85.6423 73.2683 85.6962 73.3541 85.7599 73.4216C85.8235 73.4891 85.8968 73.5392 85.9797 73.572C86.0645 73.6028 86.158 73.6182 86.2602 73.6182C86.3913 73.6182 86.506 73.5932 86.6044 73.543C86.7027 73.4929 86.7847 73.4148 86.8502 73.3088C86.9177 73.2008 86.9678 73.063 87.0006 72.8952C87.0334 72.7255 87.0498 72.5231 87.0498 72.2879ZM88.4311 70.8216V70.5989C88.4311 70.4388 88.4658 70.2933 88.5353 70.1621C88.6047 70.031 88.704 69.926 88.8331 69.8469C88.9623 69.7679 89.1156 69.7283 89.293 69.7283C89.4742 69.7283 89.6285 69.7679 89.7557 69.8469C89.8849 69.926 89.9842 70.031 90.0536 70.1621C90.123 70.2933 90.1577 70.4388 90.1577 70.5989V70.8216C90.1577 70.9777 90.123 71.1214 90.0536 71.2525C89.9861 71.3836 89.8878 71.4887 89.7586 71.5677C89.6314 71.6468 89.4781 71.6863 89.2988 71.6863C89.1195 71.6863 88.9643 71.6468 88.8331 71.5677C88.704 71.4887 88.6047 71.3836 88.5353 71.2525C88.4658 71.1214 88.4311 70.9777 88.4311 70.8216ZM88.8331 70.5989V70.8216C88.8331 70.9102 88.8495 70.9941 88.8823 71.0732C88.917 71.1522 88.9691 71.2168 89.0385 71.2669C89.1079 71.3151 89.1947 71.3392 89.2988 71.3392C89.4029 71.3392 89.4887 71.3151 89.5562 71.2669C89.6237 71.2168 89.6738 71.1522 89.7066 71.0732C89.7393 70.9941 89.7557 70.9102 89.7557 70.8216V70.5989C89.7557 70.5082 89.7384 70.4234 89.7037 70.3444C89.6709 70.2634 89.6198 70.1988 89.5504 70.1506C89.4829 70.1004 89.3971 70.0754 89.293 70.0754C89.1908 70.0754 89.105 70.1004 89.0356 70.1506C88.9681 70.1988 88.917 70.2634 88.8823 70.3444C88.8495 70.4234 88.8331 70.5082 88.8331 70.5989ZM90.4817 73.1931V72.9675C90.4817 72.8094 90.5164 72.6648 90.5858 72.5337C90.6552 72.4026 90.7545 72.2975 90.8837 72.2184C91.0128 72.1394 91.1661 72.0999 91.3435 72.0999C91.5247 72.0999 91.679 72.1394 91.8062 72.2184C91.9354 72.2975 92.0347 72.4026 92.1041 72.5337C92.1735 72.6648 92.2083 72.8094 92.2083 72.9675V73.1931C92.2083 73.3512 92.1735 73.4958 92.1041 73.6269C92.0367 73.758 91.9383 73.8631 91.8091 73.9422C91.6819 74.0212 91.5286 74.0607 91.3493 74.0607C91.17 74.0607 91.0157 74.0212 90.8866 73.9422C90.7574 73.8631 90.6571 73.758 90.5858 73.6269C90.5164 73.4958 90.4817 73.3512 90.4817 73.1931ZM90.8837 72.9675V73.1931C90.8837 73.2818 90.9 73.3666 90.9328 73.4476C90.9675 73.5267 91.0196 73.5912 91.089 73.6414C91.1584 73.6896 91.2452 73.7137 91.3493 73.7137C91.4534 73.7137 91.5392 73.6896 91.6067 73.6414C91.6761 73.5912 91.7272 73.5267 91.76 73.4476C91.7928 73.3686 91.8091 73.2837 91.8091 73.1931V72.9675C91.8091 72.8769 91.7918 72.7921 91.7571 72.713C91.7243 72.634 91.6732 72.5703 91.6038 72.5221C91.5363 72.472 91.4496 72.4469 91.3435 72.4469C91.2413 72.4469 91.1555 72.472 91.0861 72.5221C91.0186 72.5703 90.9675 72.634 90.9328 72.713C90.9 72.7921 90.8837 72.8769 90.8837 72.9675ZM91.4765 70.3877L89.4202 73.679L89.1195 73.4881L91.1758 70.1969L91.4765 70.3877ZM97.6309 70.8667C97.4887 72.3771 97.1274 73.5025 96.2389 74.1777C96.3396 74.2428 96.5173 74.385 96.5825 74.462C97.4769 73.6979 97.8796 72.537 98.0514 70.9082L97.6309 70.8667ZM99.4137 69.6228C99.2952 69.9249 99.0642 70.3692 98.8806 70.6357L99.2005 70.766C99.3841 70.5113 99.621 70.1026 99.8105 69.765L99.4137 69.6228ZM96.8845 69.9545C97.0267 70.1915 97.1629 70.5054 97.2103 70.7186L97.5657 70.5942C97.5124 70.3869 97.3643 70.073 97.2222 69.842L96.8845 69.9545ZM97.8915 69.8302C98.004 70.0789 98.1106 70.4047 98.1343 70.6238L98.4956 70.5113C98.4601 70.3099 98.3535 69.9842 98.2291 69.7413L97.8915 69.8302ZM99.5559 69.0957C98.8806 69.2497 97.6782 69.3622 96.695 69.4096C96.7365 69.5044 96.7898 69.6525 96.8016 69.7532C97.7967 69.7117 99.0287 69.6051 99.8046 69.4333L99.5559 69.0957ZM96.7661 70.7008V71.0562H99.9112V70.7008H96.7661ZM96.6713 71.5538V71.9151H99.9645V71.5538H96.6713ZM97.6782 72.3001L97.5005 72.6555H99.3308V72.3001H97.6782ZM99.1827 72.3001V72.3652C98.8925 73.2892 98.0751 73.9052 97.1985 74.1599C97.2814 74.2369 97.3821 74.3791 97.4295 74.4738C98.389 74.154 99.2479 73.5084 99.5973 72.383L99.3367 72.2823L99.2656 72.3001H99.1827ZM97.7079 72.5488L97.3702 72.6555C97.8204 73.5735 98.7029 74.2192 99.8046 74.4916C99.8639 74.3791 99.9823 74.2192 100.077 74.1303C98.9991 73.9052 98.1225 73.3366 97.7079 72.5488ZM95.4985 69.0305C95.3505 69.4215 95.078 70.0019 94.8707 70.3455L95.1669 70.4758C95.386 70.1441 95.6644 69.611 95.8776 69.1727L95.4985 69.0305ZM96.1264 69.7058C95.8184 70.3277 95.2853 71.2102 94.8648 71.7374L95.1313 71.8795C95.5578 71.3702 96.1027 70.5291 96.4936 69.8716L96.1264 69.7058ZM94.5509 70.2566C94.8648 70.5528 95.2202 70.9733 95.3682 71.2576L95.617 70.9318C95.463 70.6653 95.1017 70.2625 94.7878 69.9723L94.5509 70.2566ZM95.9013 71.0444C96.1205 71.4472 96.3219 71.9802 96.387 72.3119L96.7187 72.1698C96.6595 71.8381 96.4403 71.3168 96.2152 70.9259L95.9013 71.0444ZM94.5035 71.6485L94.5509 72.0454C95.0662 72.0098 95.7414 71.9684 96.4107 71.9269V71.5478C95.6999 71.5893 94.9951 71.6248 94.5035 71.6485ZM96.0139 72.4837C96.1501 72.8272 96.2626 73.2774 96.2922 73.5735L96.6239 73.4728C96.5943 73.1826 96.4699 72.7325 96.3278 72.3948L96.0139 72.4837ZM94.8589 72.4126C94.7937 72.9279 94.6812 73.461 94.4916 73.8223C94.5805 73.8578 94.7522 73.9348 94.8233 73.9882C95.0069 73.6091 95.1491 73.0345 95.2261 72.4778L94.8589 72.4126ZM95.4571 71.8203V74.4738H95.8421V71.8203H95.4571ZM104.922 71.3405H105.538V71.8736H104.922V71.3405ZM103.974 71.3405H104.585V71.8736H103.974V71.3405ZM103.05 71.3405H103.631V71.8736H103.05V71.3405ZM102.648 71.0444V72.1757H105.965V71.0444H102.648ZM102.588 72.46V72.8272H105.514V72.46H102.588ZM105.355 72.46V72.5192C104.881 73.4669 103.595 73.9585 102.28 74.1185C102.357 74.2132 102.446 74.3791 102.482 74.4916C103.886 74.2725 105.224 73.7394 105.787 72.5725L105.52 72.4422L105.437 72.46H105.355ZM103.335 70.1382H105.248V70.4817H103.335V70.1382ZM103.335 69.5222H105.248V69.8598H103.335V69.5222ZM102.932 69.2319V70.7719H105.674V69.2319H102.932ZM103.477 72.7917L103.104 72.9457C103.684 73.7216 104.762 74.2606 105.929 74.4798C105.988 74.3613 106.113 74.1895 106.207 74.0948C105.058 73.923 103.986 73.461 103.477 72.7917ZM101.457 69.0246V74.4679H101.884V69.0246H101.457ZM100.924 70.1678C100.912 70.689 100.823 71.3346 100.616 71.6959L100.912 71.8322C101.137 71.4235 101.232 70.7482 101.232 70.2152L100.924 70.1678ZM101.925 70.0967C102.097 70.4698 102.251 70.9555 102.298 71.2576L102.6 71.1214C102.547 70.8312 102.387 70.3573 102.209 69.996L101.925 70.0967ZM106.841 69.9842V70.4047H109.477V69.9842H106.841ZM107.801 71.1925V71.6012H108.938V71.1925H107.801ZM107.925 69.0365V70.1855H108.363V69.0365H107.925ZM108.784 71.1925V71.2813C108.748 73.1826 108.701 73.8401 108.6 73.9822C108.553 74.0474 108.5 74.0652 108.417 74.0592C108.322 74.0592 108.103 74.0592 107.854 74.0415C107.919 74.154 107.961 74.3258 107.973 74.4502C108.221 74.462 108.476 74.462 108.618 74.4502C108.778 74.4265 108.873 74.385 108.968 74.2547C109.128 74.0474 109.163 73.3722 109.205 71.3938C109.21 71.3346 109.21 71.1925 109.21 71.1925H108.784ZM110.034 70.1322V70.5468H112.285V70.1322H110.034ZM110.17 69.0246C109.998 70.0434 109.69 71.0385 109.216 71.6663C109.323 71.7315 109.518 71.8795 109.595 71.9565C110.081 71.2695 110.425 70.2092 110.626 69.0898L110.17 69.0246ZM111.432 70.3573C111.159 72.2527 110.531 73.4432 109.068 74.1007C109.157 74.1955 109.287 74.3909 109.329 74.4916C110.869 73.7275 111.544 72.4659 111.87 70.4047L111.432 70.3573ZM110.206 70.5113L109.821 70.5824C110.146 72.383 110.762 73.8105 112.012 74.462C112.077 74.3435 112.219 74.1718 112.326 74.0829C111.124 73.5202 110.496 72.152 110.206 70.5113ZM107.546 70.1915V71.6367C107.546 72.4718 107.457 73.4136 106.729 74.1836C106.841 74.2606 106.983 74.3791 107.06 74.4679C107.848 73.6328 107.967 72.6199 107.967 71.6367V70.1915H107.546ZM113.789 69.7354V69.996H115.596V69.7354H113.789ZM113.789 70.2388V70.4995H115.596V70.2388H113.789ZM113.066 72.229V72.5844H115.317V72.229H113.066ZM116.247 71.8085V72.1638H117.307V71.8085H116.247ZM113.025 70.7423V71.0325H116.034V70.7423H113.025ZM113.54 69.2023V70.8608H113.943V69.4866H115.744V69.2023H113.54ZM113.825 70.8489C113.753 71.0266 113.623 71.2991 113.517 71.4768L113.825 71.5775C113.937 71.4116 114.073 71.1865 114.204 70.9555L113.825 70.8489ZM113.149 71.4294L113.173 71.7433C113.807 71.7078 114.689 71.6604 115.56 71.6012L115.566 71.3228C114.666 71.3642 113.759 71.4057 113.149 71.4294ZM114.932 71.1332C115.193 71.3287 115.489 71.6248 115.619 71.8262L115.915 71.6604C115.779 71.4531 115.483 71.1688 115.216 70.9792L114.932 71.1332ZM117.574 69.0661C117.195 69.3326 116.502 69.5932 115.981 69.7413C116.081 69.8124 116.182 69.9308 116.247 70.0138C116.792 69.842 117.473 69.5577 117.929 69.2378L117.574 69.0661ZM117.775 69.8361C117.414 70.1263 116.727 70.3751 116.135 70.5054C116.229 70.5824 116.33 70.7008 116.389 70.7897C117.023 70.6298 117.71 70.3514 118.137 69.9901L117.775 69.8361ZM117.947 70.6298C117.556 71.0148 116.762 71.2695 115.951 71.3879C116.04 71.4768 116.135 71.6071 116.182 71.7078C117.047 71.5419 117.87 71.2398 118.308 70.7719L117.947 70.6298ZM114.056 71.7255V74.4679H114.458V71.7255H114.056ZM115.815 72.0513C115.678 72.4245 115.424 72.768 115.116 72.999C115.211 73.0582 115.353 73.2004 115.412 73.2715C115.732 73.0049 116.034 72.5844 116.2 72.1402L115.815 72.0513ZM115.276 73.9822L115.311 74.3732C115.981 74.3258 116.893 74.2606 117.787 74.1895L117.799 73.846C116.869 73.9052 115.909 73.9526 115.276 73.9822ZM116.342 72.7384C116.223 73.1471 115.992 73.7335 115.809 74.1007L116.14 74.2073C116.336 73.8638 116.579 73.307 116.774 72.8509L116.342 72.7384ZM117.047 73.3603C117.367 73.6979 117.698 74.1658 117.829 74.4798L118.172 74.308C118.03 73.9822 117.686 73.5321 117.367 73.2063L117.047 73.3603ZM114.441 72.8035L114.227 72.9753C114.423 73.1352 114.908 73.5854 115.062 73.769L115.311 73.4669C115.181 73.3485 114.6 72.9161 114.441 72.8035ZM117.023 71.8085V72.0217H117.124C117.301 72.5133 117.716 72.9575 118.16 73.2122C118.214 73.1056 118.332 72.9516 118.415 72.8687C118 72.6732 117.603 72.2823 117.444 71.8085H117.023ZM114.091 72.4126C113.83 72.922 113.333 73.4906 112.912 73.7631C113.001 73.8342 113.126 73.9763 113.191 74.0652C113.611 73.7394 114.103 73.0938 114.369 72.5133L114.091 72.4126Z" fill="black"/>
</g>
<defs>
<clipPath id="clip0_649_2554">
<rect width="75.3846" height="112" fill="white" transform="translate(62 19)"/>
</clipPath>
</defs>
</svg>
