<svg width="422" height="44" viewBox="0 0 422 44" fill="none" xmlns="http://www.w3.org/2000/svg">
<path d="M14 21.2083H26.5V23.2917H14V21.2083ZM14 16H30.6667V18.0833H14V16ZM14 28.5H21.5365V26.4167H14V28.5Z" fill="#724E39"/>
<path d="M76 22C76.9283 22 77.8185 21.6313 78.4749 20.9749C79.1313 20.3185 79.5 19.4283 79.5 18.5C79.5 17.5717 79.1313 16.6815 78.4749 16.0251C77.8185 15.3687 76.9283 15 76 15C75.0717 15 74.1815 15.3687 73.5251 16.0251C72.8687 16.6815 72.5 17.5717 72.5 18.5C72.5 19.4283 72.8687 20.3185 73.5251 20.9749C74.1815 21.6313 75.0717 22 76 22ZM78.3333 18.5C78.3333 19.1188 78.0875 19.7123 77.6499 20.1499C77.2123 20.5875 76.6188 20.8333 76 20.8333C75.3812 20.8333 74.7877 20.5875 74.3501 20.1499C73.9125 19.7123 73.6667 19.1188 73.6667 18.5C73.6667 17.8812 73.9125 17.2877 74.3501 16.8501C74.7877 16.4125 75.3812 16.1667 76 16.1667C76.6188 16.1667 77.2123 16.4125 77.6499 16.8501C78.0875 17.2877 78.3333 17.8812 78.3333 18.5ZM83 27.8333C83 29 81.8333 29 81.8333 29H70.1667C70.1667 29 69 29 69 27.8333C69 26.6667 70.1667 23.1667 76 23.1667C81.8333 23.1667 83 26.6667 83 27.8333ZM81.8333 27.8287C81.8322 27.5417 81.6537 26.6783 80.8627 25.8873C80.102 25.1267 78.6705 24.3333 76 24.3333C73.3283 24.3333 71.898 25.1267 71.1373 25.8873C70.3463 26.6783 70.169 27.5417 70.1667 27.8287H81.8333Z" fill="#724E39"/>
<path d="M129.409 15.9569C129.368 15.9459 129.343 15.9035 129.355 15.8624L130.359 12.1133C130.37 12.0722 130.412 12.0477 130.454 12.0587C130.495 12.0698 130.519 12.1121 130.508 12.1533L129.504 15.9023C129.493 15.9435 129.45 15.9679 129.409 15.9569Z" stroke="#724E39" stroke-width="0.554469"/>
<path d="M124.269 20.0405C124.074 19.1478 124.754 18.3034 125.668 18.3034H132.308C133.195 18.3034 133.869 19.1019 133.719 19.9763L132.498 27.1284C132.302 28.2748 131.309 29.113 130.146 29.113H128.17C127.048 29.113 126.078 28.3316 125.839 27.2355L124.269 20.0405Z" stroke="#724E39" stroke-width="0.954545"/>
<rect x="122.794" y="16.4773" width="12.3527" height="1.49632" rx="0.748158" stroke="#724E39" stroke-width="0.954545"/>
<path fill-rule="evenodd" clip-rule="evenodd" d="M178.719 15.239C178.859 15.099 179.05 15.0203 179.248 15.0203C179.447 15.0203 179.637 15.099 179.778 15.239L184.99 20.444L190.203 15.239C190.272 15.1655 190.354 15.1066 190.446 15.0657C190.538 15.0248 190.637 15.0029 190.738 15.0011C190.838 14.9993 190.938 15.0178 191.032 15.0554C191.125 15.093 191.21 15.149 191.281 15.22C191.352 15.291 191.408 15.3756 191.445 15.4687C191.483 15.5619 191.502 15.6616 191.5 15.762C191.498 15.8624 191.476 15.9615 191.435 16.0532C191.394 16.1449 191.335 16.2275 191.262 16.296L186.049 21.501L191.262 26.706C191.335 26.7745 191.394 26.857 191.435 26.9488C191.476 27.0405 191.498 27.1395 191.5 27.2399C191.502 27.3404 191.483 27.4401 191.445 27.5332C191.408 27.6263 191.352 27.7109 191.281 27.7819C191.21 27.853 191.125 27.9089 191.032 27.9465C190.938 27.9842 190.838 28.0026 190.738 28.0009C190.637 27.9991 190.538 27.9771 190.446 27.9362C190.354 27.8954 190.272 27.8364 190.203 27.763L184.99 22.5579L179.778 27.763C179.636 27.8951 179.448 27.967 179.254 27.9636C179.06 27.9601 178.875 27.8816 178.737 27.7446C178.6 27.6076 178.522 27.4228 178.518 27.229C178.515 27.0353 178.587 26.8478 178.719 26.706L183.932 21.501L178.719 16.296C178.579 16.1557 178.5 15.9657 178.5 15.7675C178.5 15.5693 178.579 15.3792 178.719 15.239Z" fill="#724E39"/>
<path d="M239.668 14.5V29.5H230.501C230.28 29.5 230.068 29.4122 229.912 29.2559C229.756 29.0996 229.668 28.8877 229.668 28.6667V24.0833C230.221 24.0833 230.75 23.8638 231.141 23.4731C231.532 23.0824 231.751 22.5525 231.751 22C231.751 21.4475 231.532 20.9176 231.141 20.5269C230.75 20.1362 230.221 19.9167 229.668 19.9167V15.3333C229.668 15.1123 229.756 14.9004 229.912 14.7441C230.068 14.5878 230.28 14.5 230.501 14.5H239.668ZM241.335 14.5H245.501C245.722 14.5 245.934 14.5878 246.091 14.7441C246.247 14.9004 246.335 15.1123 246.335 15.3333V19.9167C245.782 19.9167 245.252 20.1362 244.861 20.5269C244.471 20.9176 244.251 21.4475 244.251 22C244.251 22.5525 244.471 23.0824 244.861 23.4731C245.252 23.8638 245.782 24.0833 246.335 24.0833V28.6667C246.335 28.8877 246.247 29.0996 246.091 29.2559C245.934 29.4122 245.722 29.5 245.501 29.5H241.335V14.5Z" fill="#598214"/>
<path d="M292.155 30.7406L291.796 30.4419C284.091 24.1698 282 21.9596 282 18.3756C282 15.3889 284.389 12.9995 287.376 12.9995C289.825 12.9995 291.199 14.3734 292.155 15.4486C293.111 14.3734 294.484 12.9995 296.934 12.9995C299.92 12.9995 302.31 15.3889 302.31 18.3756C302.31 21.9596 300.219 24.1698 292.513 30.4419L292.155 30.7406ZM287.376 14.1942C285.046 14.1942 283.195 16.046 283.195 18.3756C283.195 21.422 285.106 23.453 292.155 29.1875C299.203 23.453 301.115 21.422 301.115 18.3756C301.115 16.046 299.263 14.1942 296.934 14.1942C294.843 14.1942 293.708 15.4486 292.812 16.4641L292.155 17.2406L291.498 16.4641C290.602 15.4486 289.467 14.1942 287.376 14.1942Z" fill="url(#paint0_linear_433_1423)"/>
<path d="M338.5 15.1112C338.5 14.2861 338.828 13.4947 339.411 12.9113C339.995 12.3278 340.786 12 341.611 12H350.323C351.148 12 351.939 12.3278 352.523 12.9113C353.106 13.4947 353.434 14.2861 353.434 15.1112V31.2897C353.434 31.4044 353.402 31.5169 353.342 31.6146C353.282 31.7124 353.196 31.7917 353.094 31.8437C352.992 31.8958 352.877 31.9185 352.763 31.9095C352.648 31.9004 352.539 31.8599 352.446 31.7925L345.967 27.0808L339.488 31.7925C339.395 31.8599 339.286 31.9004 339.171 31.9095C339.057 31.9185 338.942 31.8958 338.84 31.8437C338.738 31.7917 338.652 31.7124 338.592 31.6146C338.532 31.5169 338.5 31.4044 338.5 31.2897V15.1112ZM341.611 13.2445C341.116 13.2445 340.641 13.4412 340.291 13.7913C339.941 14.1413 339.744 14.6161 339.744 15.1112V30.0676L345.601 25.8089C345.707 25.7316 345.836 25.69 345.967 25.69C346.098 25.69 346.227 25.7316 346.333 25.8089L352.189 30.0676V15.1112C352.189 14.6161 351.993 14.1413 351.643 13.7913C351.293 13.4412 350.818 13.2445 350.323 13.2445H341.611Z" fill="url(#paint1_linear_433_1423)"/>
<path d="M393.987 24.9461C392.314 24.9461 391 23.6319 391 21.9594C391 20.2868 392.314 18.9727 393.987 18.9727C395.659 18.9727 396.973 20.2868 396.973 21.9594C396.973 23.6319 395.659 24.9461 393.987 24.9461ZM393.987 20.1673C392.971 20.1673 392.195 20.9439 392.195 21.9594C392.195 22.9748 392.971 23.7514 393.987 23.7514C395.002 23.7514 395.779 22.9748 395.779 21.9594C395.779 20.9439 395.002 20.1673 393.987 20.1673Z" fill="url(#paint2_linear_433_1423)"/>
<path d="M405.932 18.9729C404.259 18.9729 402.945 17.6588 402.945 15.9862C402.945 14.3137 404.259 12.9995 405.932 12.9995C407.605 12.9995 408.919 14.3137 408.919 15.9862C408.919 17.6588 407.605 18.9729 405.932 18.9729ZM405.932 14.1942C404.917 14.1942 404.14 14.9707 404.14 15.9862C404.14 17.0017 404.917 17.7782 405.932 17.7782C406.948 17.7782 407.724 17.0017 407.724 15.9862C407.724 14.9707 406.948 14.1942 405.932 14.1942Z" fill="url(#paint3_linear_433_1423)"/>
<path d="M405.932 30.9197C404.259 30.9197 402.945 29.6056 402.945 27.933C402.945 26.2604 404.259 24.9463 405.932 24.9463C407.605 24.9463 408.919 26.2604 408.919 27.933C408.919 29.6056 407.605 30.9197 405.932 30.9197ZM405.932 26.141C404.917 26.141 404.14 26.9175 404.14 27.933C404.14 28.9485 404.917 29.725 405.932 29.725C406.948 29.725 407.724 28.9485 407.724 27.933C407.724 26.9175 406.948 26.141 405.932 26.141Z" fill="url(#paint4_linear_433_1423)"/>
<path d="M396.382 22.4883L404.076 26.3352L403.541 27.4032L395.848 23.5563L396.382 22.4883Z" fill="url(#paint5_linear_433_1423)"/>
<path d="M403.541 16.5151L404.075 17.5844L396.382 21.4301L395.848 20.3608L403.541 16.5151Z" fill="url(#paint6_linear_433_1423)"/>
<defs>
<linearGradient id="paint0_linear_433_1423" x1="282" y1="21.87" x2="302.31" y2="21.87" gradientUnits="userSpaceOnUse">
<stop stop-color="#E19D3C"/>
<stop offset="1" stop-color="#9BDD92"/>
</linearGradient>
<linearGradient id="paint1_linear_433_1423" x1="338.5" y1="21.9557" x2="353.434" y2="21.9557" gradientUnits="userSpaceOnUse">
<stop stop-color="#E19D3C"/>
<stop offset="1" stop-color="#9BDD92"/>
</linearGradient>
<linearGradient id="paint2_linear_433_1423" x1="391" y1="21.9594" x2="396.973" y2="21.9594" gradientUnits="userSpaceOnUse">
<stop stop-color="#E19D3C"/>
<stop offset="1" stop-color="#9BDD92"/>
</linearGradient>
<linearGradient id="paint3_linear_433_1423" x1="402.945" y1="15.9862" x2="408.919" y2="15.9862" gradientUnits="userSpaceOnUse">
<stop stop-color="#E19D3C"/>
<stop offset="1" stop-color="#9BDD92"/>
</linearGradient>
<linearGradient id="paint4_linear_433_1423" x1="402.945" y1="27.933" x2="408.919" y2="27.933" gradientUnits="userSpaceOnUse">
<stop stop-color="#E19D3C"/>
<stop offset="1" stop-color="#9BDD92"/>
</linearGradient>
<linearGradient id="paint5_linear_433_1423" x1="395.848" y1="24.9457" x2="404.076" y2="24.9457" gradientUnits="userSpaceOnUse">
<stop stop-color="#E19D3C"/>
<stop offset="1" stop-color="#9BDD92"/>
</linearGradient>
<linearGradient id="paint6_linear_433_1423" x1="395.848" y1="18.9726" x2="404.075" y2="18.9726" gradientUnits="userSpaceOnUse">
<stop stop-color="#E19D3C"/>
<stop offset="1" stop-color="#9BDD92"/>
</linearGradient>
</defs>
</svg>
