<svg width="534" height="201" viewBox="0 0 534 201" fill="none" xmlns="http://www.w3.org/2000/svg">
<rect x="1" y="0.613281" width="149" height="199" rx="9.5" fill="white"/>
<rect x="11.5" y="8.11328" width="8" height="184" fill="#E5E5E5"/>
<rect x="11.5" y="8.11328" width="8" height="184" fill="#FFCF2D" fill-opacity="0.5"/>
<rect x="22.5" y="8.11328" width="8" height="184" fill="#E5E5E5"/>
<rect x="33.5" y="8.11328" width="8" height="184" fill="#E5E5E5"/>
<rect x="44.5" y="8.11328" width="8" height="184" fill="#E5E5E5"/>
<rect x="55.5" y="8.11328" width="8" height="184" fill="#E5E5E5"/>
<rect x="66.5" y="8.11328" width="8" height="184" fill="#E5E5E5"/>
<rect x="77.5" y="8.11328" width="8" height="184" fill="#E5E5E5"/>
<rect x="88.5" y="8.11328" width="8" height="184" fill="#E5E5E5"/>
<rect x="99.5" y="8.11328" width="8" height="184" fill="#E5E5E5"/>
<rect x="110.5" y="8.11328" width="8" height="184" fill="#E5E5E5"/>
<rect x="121.5" y="8.11328" width="8" height="184" fill="#E5E5E5"/>
<rect x="132.5" y="8.11328" width="8" height="184" fill="#E5E5E5"/>
<rect x="132.5" y="8.11328" width="8" height="184" fill="#FFCF2D" fill-opacity="0.5"/>
<rect x="33.5" y="8.11328" width="85" height="184" fill="#FFCF2D" fill-opacity="0.5"/>
<rect x="1" y="0.613281" width="149" height="199" rx="9.5" stroke="black"/>
<rect x="170" y="0.613281" width="363" height="199" rx="9.5" fill="white"/>
<rect x="180.5" y="9.11328" width="24" height="182" fill="#E5E5E5"/>
<rect x="209.5" y="9.11328" width="24" height="182" fill="#E5E5E5"/>
<rect x="238.5" y="9.11328" width="24" height="182" fill="#E5E5E5"/>
<rect x="267.5" y="9.11328" width="24" height="182" fill="#E5E5E5"/>
<rect x="296.5" y="9.11328" width="24" height="182" fill="#E5E5E5"/>
<rect x="325.5" y="9.11328" width="24" height="182" fill="#E5E5E5"/>
<rect x="354.5" y="9.11328" width="24" height="182" fill="#E5E5E5"/>
<rect x="383.5" y="9.11328" width="24" height="182" fill="#E5E5E5"/>
<rect x="412.5" y="9.11328" width="24" height="182" fill="#E5E5E5"/>
<rect x="441.5" y="9.11328" width="24" height="182" fill="#E5E5E5"/>
<rect x="470.5" y="9.11328" width="24" height="182" fill="#E5E5E5"/>
<rect x="499.5" y="9.11328" width="24" height="182" fill="#E5E5E5"/>
<rect x="180.5" y="9.11328" width="24" height="182" fill="#FFCF2D" fill-opacity="0.5"/>
<rect x="441.5" y="9.11328" width="82" height="182" fill="#FFCF2D" fill-opacity="0.5"/>
<rect x="238.5" y="9.11328" width="169" height="182" fill="#FFCF2D" fill-opacity="0.5"/>
<rect x="170" y="0.613281" width="363" height="199" rx="9.5" stroke="black"/>
</svg>
