<svg width="375" height="812" viewBox="0 0 375 812" fill="none" xmlns="http://www.w3.org/2000/svg">
<g clip-path="url(#clip0_235_2312)">
<rect width="375" height="812" rx="40" fill="black"/>
<path d="M16 344.5C16 323.789 32.7893 307 53.5 307C74.2107 307 91 323.789 91 344.5C91 365.211 74.2107 382 53.5 382C32.7893 382 16 365.211 16 344.5Z" fill="#A5A5A5"/>
<path d="M54.0859 355.852C55.5605 355.852 56.8984 355.578 58.0996 355.031C59.3008 354.484 60.3018 353.713 61.1025 352.717C61.9033 351.711 62.4355 350.534 62.6992 349.187L62.7285 349.04H60.0625L60.0186 349.172C59.7158 350.1 59.2861 350.881 58.7295 351.516C58.1729 352.141 57.5039 352.614 56.7227 352.937C55.9512 353.259 55.0723 353.42 54.0859 353.42C52.6895 353.42 51.4688 353.068 50.4238 352.365C49.3789 351.662 48.5684 350.676 47.9922 349.406C47.4258 348.127 47.1426 346.633 47.1426 344.924V344.909C47.1426 343.19 47.4258 341.701 47.9922 340.441C48.5684 339.172 49.374 338.19 50.4092 337.497C51.4541 336.794 52.6797 336.442 54.0859 336.442C55.082 336.442 55.9707 336.604 56.752 336.926C57.5332 337.248 58.1924 337.712 58.7295 338.317C59.2764 338.913 59.6865 339.641 59.96 340.5L60.0625 340.822H62.7285L62.6992 340.676C62.4355 339.338 61.8984 338.171 61.0879 337.175C60.2871 336.179 59.2861 335.402 58.085 334.846C56.8838 334.289 55.5508 334.011 54.0859 334.011C52.123 334.011 50.4189 334.46 48.9736 335.358C47.5283 336.247 46.4102 337.507 45.6191 339.138C44.8281 340.769 44.4326 342.692 44.4326 344.909V344.924C44.4326 347.141 44.8281 349.069 45.6191 350.71C46.4102 352.341 47.5283 353.605 48.9736 354.504C50.4287 355.402 52.1328 355.852 54.0859 355.852Z" fill="black"/>
<path d="M105 344.5C105 323.789 121.789 307 142.5 307C163.211 307 180 323.789 180 344.5C180 365.211 163.211 382 142.5 382C121.789 382 105 365.211 105 344.5Z" fill="#A5A5A5"/>
<path fill-rule="evenodd" clip-rule="evenodd" d="M135.582 355.201L148.83 334L151.223 334L138 355.201H135.582ZM134 337.816H131V339.816H134V342.816H136V339.816H139V337.816H136V334.816H134V337.816ZM155 348.816H147V350.816H155V348.816Z" fill="black"/>
<path d="M194 344.5C194 323.789 210.789 307 231.5 307C252.211 307 269 323.789 269 344.5C269 365.211 252.211 382 231.5 382C210.789 382 194 365.211 194 344.5Z" fill="#A5A5A5"/>
<path d="M224.718 344.953C225.655 344.953 226.461 344.738 227.135 344.309C227.809 343.869 228.321 343.244 228.673 342.434C229.034 341.623 229.215 340.671 229.215 339.577V339.562C229.215 338.459 229.034 337.507 228.673 336.706C228.321 335.896 227.809 335.275 227.135 334.846C226.461 334.406 225.655 334.187 224.718 334.187C223.78 334.187 222.975 334.406 222.301 334.846C221.627 335.275 221.109 335.896 220.748 336.706C220.387 337.507 220.206 338.459 220.206 339.562V339.577C220.206 340.671 220.387 341.623 220.748 342.434C221.109 343.244 221.627 343.869 222.301 344.309C222.975 344.738 223.78 344.953 224.718 344.953ZM224.718 342.946C224.054 342.946 223.536 342.653 223.165 342.067C222.804 341.472 222.623 340.642 222.623 339.577V339.562C222.623 338.488 222.804 337.658 223.165 337.072C223.536 336.486 224.054 336.193 224.718 336.193C225.382 336.193 225.895 336.486 226.256 337.072C226.627 337.658 226.812 338.488 226.812 339.562V339.577C226.812 340.642 226.627 341.472 226.256 342.067C225.895 342.653 225.382 342.946 224.718 342.946ZM226.124 355.5L239.586 334.362H236.891L223.399 355.5H226.124ZM238.268 355.676C239.205 355.676 240.011 355.461 240.685 355.031C241.358 354.592 241.871 353.967 242.223 353.156C242.584 352.346 242.765 351.389 242.765 350.285V350.271C242.765 349.177 242.584 348.229 242.223 347.429C241.871 346.618 241.358 345.998 240.685 345.568C240.011 345.129 239.205 344.909 238.268 344.909C237.33 344.909 236.524 345.129 235.851 345.568C235.177 345.998 234.659 346.618 234.298 347.429C233.937 348.229 233.756 349.177 233.756 350.271V350.285C233.756 351.389 233.937 352.346 234.298 353.156C234.659 353.967 235.177 354.592 235.851 355.031C236.524 355.461 237.33 355.676 238.268 355.676ZM238.268 353.669C237.604 353.669 237.086 353.376 236.715 352.79C236.354 352.194 236.173 351.364 236.173 350.3V350.285C236.173 349.211 236.354 348.381 236.715 347.795C237.086 347.209 237.604 346.916 238.268 346.916C238.932 346.916 239.444 347.209 239.806 347.795C240.177 348.381 240.362 349.211 240.362 350.285V350.3C240.362 351.364 240.177 352.194 239.806 352.79C239.444 353.376 238.932 353.669 238.268 353.669Z" fill="black"/>
<path d="M16 433.5C16 412.789 32.7893 396 53.5 396C74.2107 396 91 412.789 91 433.5C91 454.211 74.2107 471 53.5 471C32.7893 471 16 454.211 16 433.5Z" fill="#333333"/>
<path d="M47.1719 446H50.4941L61.7793 423.57V420.635H44.9922V423.447H58.6504V423.518L47.1719 446Z" fill="white"/>
<path d="M105 433.5C105 412.789 121.789 396 142.5 396C163.211 396 180 412.789 180 433.5C180 454.211 163.211 471 142.5 471C121.789 471 105 454.211 105 433.5Z" fill="#333333"/>
<path d="M142.5 446.422C144.293 446.422 145.881 446.111 147.264 445.49C148.658 444.869 149.748 444.014 150.533 442.924C151.318 441.822 151.711 440.562 151.711 439.145V439.109C151.711 438.066 151.482 437.1 151.025 436.209C150.568 435.318 149.93 434.562 149.109 433.941C148.301 433.309 147.352 432.869 146.262 432.623V432.553C147.656 432.119 148.758 431.404 149.566 430.408C150.387 429.412 150.797 428.246 150.797 426.91V426.875C150.797 425.598 150.439 424.461 149.725 423.465C149.01 422.457 148.025 421.666 146.771 421.092C145.529 420.506 144.105 420.213 142.5 420.213C140.906 420.213 139.482 420.506 138.229 421.092C136.975 421.666 135.99 422.457 135.275 423.465C134.561 424.461 134.203 425.598 134.203 426.875V426.91C134.203 428.246 134.613 429.412 135.434 430.408C136.254 431.404 137.355 432.119 138.738 432.553V432.623C137.66 432.869 136.711 433.309 135.891 433.941C135.07 434.562 134.432 435.318 133.975 436.209C133.518 437.1 133.289 438.066 133.289 439.109V439.145C133.289 440.562 133.682 441.822 134.467 442.924C135.264 444.014 136.354 444.869 137.736 445.49C139.119 446.111 140.707 446.422 142.5 446.422ZM142.5 443.662C141.34 443.662 140.309 443.463 139.406 443.064C138.504 442.654 137.795 442.098 137.279 441.395C136.764 440.68 136.506 439.865 136.506 438.951V438.916C136.506 437.99 136.758 437.17 137.262 436.455C137.777 435.74 138.486 435.178 139.389 434.768C140.291 434.357 141.328 434.152 142.5 434.152C143.672 434.152 144.709 434.357 145.611 434.768C146.514 435.178 147.217 435.74 147.721 436.455C148.236 437.17 148.494 437.99 148.494 438.916V438.951C148.494 439.865 148.236 440.68 147.721 441.395C147.205 442.098 146.496 442.654 145.594 443.064C144.703 443.463 143.672 443.662 142.5 443.662ZM142.5 431.375C141.48 431.375 140.584 431.199 139.811 430.848C139.037 430.484 138.434 429.986 138 429.354C137.566 428.721 137.35 427.994 137.35 427.174V427.139C137.35 426.318 137.566 425.592 138 424.959C138.434 424.326 139.037 423.834 139.811 423.482C140.584 423.119 141.48 422.938 142.5 422.938C143.52 422.938 144.416 423.119 145.189 423.482C145.963 423.834 146.566 424.326 147 424.959C147.434 425.592 147.65 426.318 147.65 427.139V427.174C147.65 427.994 147.434 428.721 147 429.354C146.566 429.986 145.963 430.484 145.189 430.848C144.416 431.199 143.52 431.375 142.5 431.375Z" fill="white"/>
<path d="M194 433.5C194 412.789 210.789 396 231.5 396C252.211 396 269 412.789 269 433.5C269 454.211 252.211 471 231.5 471C210.789 471 194 454.211 194 433.5Z" fill="#333333"/>
<path d="M231.377 420.213C229.643 420.213 228.102 420.588 226.754 421.338C225.406 422.076 224.34 423.096 223.555 424.396C222.781 425.686 222.395 427.162 222.395 428.826V428.861C222.395 430.467 222.758 431.902 223.484 433.168C224.223 434.434 225.225 435.43 226.49 436.156C227.768 436.883 229.209 437.246 230.814 437.246C231.963 437.246 233.006 437.064 233.943 436.701C234.893 436.326 235.701 435.834 236.369 435.225C237.037 434.604 237.541 433.918 237.881 433.168H238.25V428.861H237.195V428.879C237.195 429.957 236.938 430.918 236.422 431.762C235.918 432.605 235.227 433.268 234.348 433.748C233.469 434.229 232.473 434.469 231.359 434.469C230.246 434.469 229.256 434.229 228.389 433.748C227.521 433.256 226.842 432.582 226.35 431.727C225.857 430.871 225.611 429.893 225.611 428.791V428.756C225.611 427.689 225.869 426.723 226.385 425.855C226.9 424.988 227.598 424.303 228.477 423.799C229.355 423.283 230.334 423.025 231.412 423.025C232.502 423.025 233.48 423.289 234.348 423.816C235.227 424.332 235.918 425.029 236.422 425.908C236.938 426.787 237.195 427.771 237.195 428.861L237.951 433.027C237.951 433.145 237.951 433.262 237.951 433.379C237.951 433.484 237.945 433.596 237.934 433.713C237.887 435.482 237.629 437.123 237.16 438.635C236.703 440.135 235.988 441.342 235.016 442.256C234.055 443.17 232.783 443.627 231.201 443.627C230.334 443.627 229.555 443.492 228.863 443.223C228.184 442.941 227.604 442.549 227.123 442.045C226.654 441.529 226.291 440.926 226.033 440.234L225.963 440.041H222.746L222.799 440.27C223.08 441.5 223.607 442.578 224.381 443.504C225.154 444.418 226.121 445.133 227.281 445.648C228.441 446.164 229.736 446.422 231.166 446.422C233.24 446.422 235.01 445.889 236.475 444.822C237.939 443.756 239.059 442.215 239.832 440.199C240.617 438.172 241.01 435.734 241.01 432.887V432.852C241.01 430.496 240.729 428.516 240.166 426.91C239.615 425.293 238.871 423.992 237.934 423.008C237.008 422.023 235.977 421.314 234.84 420.881C233.703 420.436 232.549 420.213 231.377 420.213Z" fill="white"/>
<path d="M16 522.5C16 501.789 32.7893 485 53.5 485C74.2107 485 91 501.789 91 522.5C91 543.211 74.2107 560 53.5 560C32.7893 560 16 543.211 16 522.5Z" fill="#333333"/>
<path d="M56.7344 535H59.793V529.727H63.3789V526.949H59.793V509.635H55.1172C54.3789 510.783 53.6348 511.932 52.8848 513.08C52.1465 514.229 51.4082 515.377 50.6699 516.525C49.9316 517.674 49.1875 518.822 48.4375 519.971C47.6992 521.119 46.9551 522.268 46.2051 523.416C45.4668 524.564 44.7285 525.713 43.9902 526.861V529.727H56.7344V535ZM47.1191 526.949V526.879C47.752 525.906 48.3848 524.939 49.0176 523.979C49.6504 523.006 50.2832 522.033 50.916 521.061C51.5605 520.088 52.1992 519.121 52.832 518.16C53.4648 517.188 54.0977 516.221 54.7305 515.26C55.3633 514.287 55.9961 513.314 56.6289 512.342H56.7344V526.949H47.1191Z" fill="white"/>
<path d="M105 522.5C105 501.789 121.789 485 142.5 485C163.211 485 180 501.789 180 522.5C180 543.211 163.211 560 142.5 560C121.789 560 105 543.211 105 522.5Z" fill="#333333"/>
<path d="M142.746 535.422C144.504 535.422 146.062 535.059 147.422 534.332C148.781 533.594 149.848 532.574 150.621 531.273C151.395 529.973 151.781 528.479 151.781 526.791V526.756C151.781 525.127 151.418 523.686 150.691 522.432C149.977 521.166 148.986 520.17 147.721 519.443C146.467 518.717 145.025 518.354 143.396 518.354C142.576 518.354 141.803 518.453 141.076 518.652C140.35 518.852 139.693 519.145 139.107 519.531C138.521 519.918 138.029 520.398 137.631 520.973H137.561L138.422 512.447H150.34V509.635H135.82L134.52 524.102H137.314C137.479 523.809 137.66 523.539 137.859 523.293C138.07 523.047 138.287 522.818 138.51 522.607C139.072 522.092 139.717 521.711 140.443 521.465C141.182 521.207 141.979 521.078 142.834 521.078C143.959 521.078 144.955 521.324 145.822 521.816C146.689 522.309 147.369 522.988 147.861 523.855C148.365 524.711 148.617 525.695 148.617 526.809V526.844C148.617 527.98 148.371 528.988 147.879 529.867C147.387 530.734 146.701 531.414 145.822 531.906C144.943 532.398 143.93 532.645 142.781 532.645C141.773 532.645 140.865 532.451 140.057 532.064C139.248 531.678 138.592 531.15 138.088 530.482C137.584 529.803 137.279 529.047 137.174 528.215L137.156 528.074H134.045L134.062 528.268C134.191 529.639 134.637 530.863 135.398 531.941C136.16 533.02 137.168 533.869 138.422 534.49C139.688 535.111 141.129 535.422 142.746 535.422Z" fill="white"/>
<path d="M194 522.5C194 501.789 210.789 485 231.5 485C252.211 485 269 501.789 269 522.5C269 543.211 252.211 560 231.5 560C210.789 560 194 543.211 194 522.5Z" fill="#333333"/>
<path d="M231.623 535.422C233.357 535.422 234.898 535.053 236.246 534.314C237.594 533.564 238.654 532.545 239.428 531.256C240.213 529.955 240.605 528.473 240.605 526.809V526.773C240.605 525.168 240.236 523.732 239.498 522.467C238.771 521.201 237.775 520.205 236.51 519.479C235.244 518.752 233.803 518.389 232.186 518.389C231.037 518.389 229.994 518.576 229.057 518.951C228.119 519.314 227.311 519.807 226.631 520.428C225.963 521.037 225.459 521.717 225.119 522.467H224.75V526.773H225.805V526.756C225.805 525.678 226.057 524.717 226.561 523.873C227.076 523.029 227.773 522.367 228.652 521.887C229.543 521.406 230.539 521.166 231.641 521.166C232.754 521.166 233.744 521.412 234.611 521.904C235.479 522.385 236.158 523.053 236.65 523.908C237.143 524.764 237.389 525.742 237.389 526.844V526.879C237.389 527.945 237.131 528.912 236.615 529.779C236.1 530.646 235.402 531.338 234.523 531.854C233.645 532.357 232.666 532.609 231.588 532.609C230.51 532.609 229.531 532.352 228.652 531.836C227.773 531.309 227.076 530.605 226.561 529.727C226.057 528.836 225.805 527.852 225.805 526.773L225.049 522.607C225.049 522.49 225.049 522.379 225.049 522.273C225.049 522.156 225.055 522.039 225.066 521.922C225.113 520.141 225.365 518.5 225.822 517C226.291 515.5 227.012 514.293 227.984 513.379C228.957 512.465 230.229 512.008 231.799 512.008C232.666 512.008 233.439 512.148 234.119 512.43C234.811 512.699 235.396 513.086 235.877 513.59C236.357 514.094 236.721 514.697 236.967 515.4L237.037 515.594H240.254L240.201 515.365C239.92 514.135 239.393 513.057 238.619 512.131C237.846 511.205 236.879 510.49 235.719 509.986C234.57 509.471 233.275 509.213 231.834 509.213C229.771 509.213 228.002 509.746 226.525 510.812C225.061 511.879 223.936 513.426 223.15 515.453C222.377 517.469 221.99 519.9 221.99 522.748V522.783C221.99 525.139 222.266 527.125 222.816 528.742C223.379 530.348 224.123 531.643 225.049 532.627C225.986 533.611 227.023 534.326 228.16 534.771C229.297 535.205 230.451 535.422 231.623 535.422Z" fill="white"/>
<path d="M16 611.5C16 590.789 32.7893 574 53.5 574C74.2107 574 91 590.789 91 611.5C91 632.211 74.2107 649 53.5 649C32.7893 649 16 632.211 16 611.5Z" fill="#333333"/>
<path d="M54.0449 624H57.1035V598.635H54.0098L47.2598 603.486V606.668L53.9746 601.992H54.0449V624Z" fill="white"/>
<path d="M105 611.5C105 590.789 121.789 574 142.5 574C163.211 574 180 590.789 180 611.5C180 632.211 163.211 649 142.5 649C121.789 649 105 632.211 105 611.5Z" fill="#333333"/>
<path d="M134.361 624H151.096V621.188H137.771L138.703 622.066V620.115L137.771 622.066L144.732 614.93C146.291 613.336 147.498 612 148.354 610.922C149.209 609.832 149.807 608.854 150.146 607.986C150.498 607.119 150.674 606.223 150.674 605.297V605.262C150.674 603.938 150.328 602.742 149.637 601.676C148.957 600.609 148.02 599.766 146.824 599.145C145.629 598.523 144.264 598.213 142.729 598.213C141.158 598.213 139.723 598.547 138.422 599.215C137.133 599.871 136.107 600.779 135.346 601.939C134.584 603.088 134.203 604.395 134.203 605.859V605.965H137.262V605.877C137.262 604.963 137.502 604.137 137.982 603.398C138.463 602.66 139.119 602.074 139.951 601.641C140.783 601.195 141.727 600.973 142.781 600.973C143.707 600.973 144.521 601.166 145.225 601.553C145.939 601.928 146.496 602.449 146.895 603.117C147.305 603.785 147.51 604.553 147.51 605.42V605.455C147.51 606.158 147.393 606.82 147.158 607.441C146.936 608.062 146.52 608.766 145.91 609.551C145.312 610.324 144.439 611.309 143.291 612.504L134.361 621.82V624Z" fill="white"/>
<path d="M194 611.5C194 590.789 210.789 574 231.5 574C252.211 574 269 590.789 269 611.5C269 632.211 252.211 649 231.5 649C210.789 649 194 632.211 194 611.5Z" fill="#333333"/>
<path d="M231.447 624.422C233.146 624.422 234.658 624.105 235.982 623.473C237.307 622.828 238.35 621.949 239.111 620.836C239.873 619.723 240.254 618.463 240.254 617.057V617.021C240.254 615.217 239.68 613.77 238.531 612.68C237.395 611.578 235.9 610.951 234.049 610.799V610.729C235.104 610.506 236.035 610.125 236.844 609.586C237.652 609.047 238.285 608.373 238.742 607.564C239.199 606.756 239.428 605.83 239.428 604.787V604.752C239.428 603.463 239.094 602.332 238.426 601.359C237.77 600.375 236.838 599.607 235.631 599.057C234.436 598.494 233.029 598.213 231.412 598.213C229.83 598.213 228.43 598.5 227.211 599.074C226.004 599.648 225.031 600.451 224.293 601.482C223.566 602.514 223.133 603.721 222.992 605.104L222.975 605.279H226.016L226.033 605.104C226.127 604.248 226.408 603.51 226.877 602.889C227.346 602.268 227.967 601.793 228.74 601.465C229.525 601.125 230.416 600.955 231.412 600.955C232.443 600.955 233.316 601.119 234.031 601.447C234.758 601.775 235.309 602.25 235.684 602.871C236.059 603.492 236.246 604.248 236.246 605.139V605.174C236.246 606.018 236.029 606.773 235.596 607.441C235.162 608.098 234.559 608.619 233.785 609.006C233.012 609.381 232.121 609.568 231.113 609.568H228.072V612.24H231.254C233.035 612.24 234.441 612.662 235.473 613.506C236.516 614.338 237.037 615.533 237.037 617.092V617.127C237.037 618.018 236.803 618.809 236.334 619.5C235.865 620.18 235.209 620.713 234.365 621.1C233.533 621.486 232.561 621.68 231.447 621.68C230.322 621.68 229.332 621.504 228.477 621.152C227.621 620.789 226.936 620.291 226.42 619.658C225.916 619.025 225.617 618.293 225.523 617.461L225.506 617.285H222.465L222.482 617.496C222.6 618.832 223.033 620.021 223.783 621.064C224.545 622.107 225.576 622.928 226.877 623.525C228.178 624.123 229.701 624.422 231.447 624.422Z" fill="white"/>
<path d="M16 700.5C16 679.789 32.7893 663 53.5 663C74.2107 663 91 679.789 91 700.5C91 721.211 74.2107 738 53.5 738C32.7893 738 16 721.211 16 700.5Z" fill="#A5A5A5"/>
<path d="M51.7253 696.719C51.795 696.649 51.8777 696.594 51.9689 696.556C52.06 696.518 52.1577 696.499 52.2563 696.499C52.355 696.499 52.4526 696.518 52.5438 696.556C52.6349 696.594 52.7176 696.649 52.7873 696.719L56.0063 699.94L59.2253 696.719C59.3661 696.578 59.5571 696.499 59.7563 696.499C59.9555 696.499 60.1465 696.578 60.2873 696.719C60.4281 696.86 60.5073 697.051 60.5073 697.25C60.5073 697.449 60.4281 697.64 60.2873 697.781L57.0668 701L60.2873 704.219C60.4281 704.36 60.5073 704.551 60.5073 704.75C60.5073 704.949 60.4281 705.14 60.2873 705.281C60.1465 705.422 59.9555 705.501 59.7563 705.501C59.5571 705.501 59.3661 705.422 59.2253 705.281L56.0063 702.06L52.7873 705.281C52.6467 705.422 52.4559 705.501 52.2568 705.501C52.0578 705.501 51.8669 705.422 51.7261 705.282C51.5852 705.141 51.506 704.95 51.5059 704.751C51.5058 704.552 51.5847 704.361 51.7253 704.221L54.9458 701L51.7253 697.781C51.6555 697.711 51.6001 697.629 51.5622 697.537C51.5244 697.446 51.505 697.349 51.505 697.25C51.505 697.151 51.5244 697.054 51.5622 696.963C51.6001 696.871 51.6555 696.789 51.7253 696.719ZM47.8853 692.996C48.5783 692.356 49.4872 692 50.4308 692H61.2563C62.2509 692 63.2047 692.395 63.908 693.098C64.6112 693.802 65.0063 694.755 65.0063 695.75V706.25C65.0063 707.245 64.6112 708.198 63.908 708.902C63.2047 709.605 62.2509 710 61.2563 710H50.4308C49.4872 710 48.5783 709.644 47.8853 709.004L42.2048 703.754C41.8249 703.403 41.5217 702.977 41.3144 702.503C41.107 702.029 41 701.517 41 701C41 700.483 41.107 699.971 41.3144 699.497C41.5217 699.023 41.8249 698.597 42.2048 698.246L47.8853 692.996ZM50.4308 693.5C49.8646 693.5 49.3194 693.714 48.9038 694.099L43.2233 699.349C42.9954 699.559 42.8135 699.815 42.6892 700.099C42.5648 700.383 42.5006 700.69 42.5006 701.001C42.5006 701.311 42.5648 701.618 42.6892 701.902C42.8135 702.187 42.9954 702.442 43.2233 702.653L48.9038 707.903C49.3196 708.287 49.8648 708.5 50.4308 708.5H61.2563C61.853 708.5 62.4253 708.263 62.8473 707.841C63.2693 707.419 63.5063 706.847 63.5063 706.25V695.75C63.5063 695.153 63.2693 694.581 62.8473 694.159C62.4253 693.737 61.853 693.5 61.2563 693.5H50.4308Z" fill="black"/>
<path d="M105 700.5C105 679.789 121.789 663 142.5 663C163.211 663 180 679.789 180 700.5C180 721.211 163.211 738 142.5 738C121.789 738 105 721.211 105 700.5Z" fill="#333333"/>
<path d="M142.482 713.422C144.428 713.422 146.098 712.889 147.492 711.822C148.887 710.756 149.953 709.244 150.691 707.287C151.441 705.33 151.816 703.01 151.816 700.326V700.291C151.816 697.607 151.441 695.287 150.691 693.33C149.953 691.373 148.887 689.867 147.492 688.812C146.098 687.746 144.428 687.213 142.482 687.213C140.537 687.213 138.867 687.746 137.473 688.812C136.09 689.867 135.029 691.373 134.291 693.33C133.553 695.287 133.184 697.607 133.184 700.291V700.326C133.184 703.01 133.553 705.33 134.291 707.287C135.029 709.244 136.09 710.756 137.473 711.822C138.867 712.889 140.537 713.422 142.482 713.422ZM142.482 710.662C141.193 710.662 140.092 710.246 139.178 709.414C138.264 708.57 137.566 707.375 137.086 705.828C136.605 704.281 136.365 702.447 136.365 700.326V700.291C136.365 698.17 136.605 696.342 137.086 694.807C137.566 693.26 138.264 692.07 139.178 691.238C140.092 690.406 141.193 689.99 142.482 689.99C143.771 689.99 144.873 690.406 145.787 691.238C146.713 692.07 147.416 693.26 147.896 694.807C148.389 696.342 148.635 698.17 148.635 700.291V700.326C148.635 702.447 148.389 704.281 147.896 705.828C147.416 707.375 146.713 708.57 145.787 709.414C144.873 710.246 143.771 710.662 142.482 710.662Z" fill="white"/>
<path d="M194 700.5C194 679.789 210.789 663 231.5 663C252.211 663 269 679.789 269 700.5C269 721.211 252.211 738 231.5 738C210.789 738 194 721.211 194 700.5Z" fill="#333333"/>
<path d="M231.5 713.246C232.062 713.246 232.537 713.053 232.924 712.666C233.311 712.279 233.504 711.805 233.504 711.242C233.504 710.68 233.311 710.205 232.924 709.818C232.537 709.432 232.062 709.238 231.5 709.238C230.938 709.238 230.463 709.432 230.076 709.818C229.689 710.205 229.496 710.68 229.496 711.242C229.496 711.805 229.689 712.279 230.076 712.666C230.463 713.053 230.938 713.246 231.5 713.246Z" fill="white"/>
<path d="M283 344.5C283 323.789 299.789 307 320.5 307C341.211 307 358 323.789 358 344.5C358 365.211 341.211 382 320.5 382C299.789 382 283 365.211 283 344.5Z" fill="#FEA00A"/>
<path fill-rule="evenodd" clip-rule="evenodd" d="M323 337C323 338.105 322.105 339 321 339C319.895 339 319 338.105 319 337C319 335.895 319.895 335 321 335C322.105 335 323 335.895 323 337ZM332 343V346H310V343H332ZM321 354C322.105 354 323 353.105 323 352C323 350.895 322.105 350 321 350C319.895 350 319 350.895 319 352C319 353.105 319.895 354 321 354Z" fill="white"/>
<path d="M283 433.5C283 412.789 299.789 396 320.5 396C341.211 396 358 412.789 358 433.5C358 454.211 341.211 471 320.5 471C299.789 471 283 454.211 283 433.5Z" fill="#FEA00A"/>
<path fill-rule="evenodd" clip-rule="evenodd" d="M328.678 424L330.799 426.121L323.021 433.899L330.799 441.678L328.678 443.799L320.9 436.021L313.121 443.799L311 441.678L318.778 433.899L311 426.121L313.121 424L320.9 431.778L328.678 424Z" fill="white"/>
<path d="M283 522.5C283 501.789 299.789 485 320.5 485C341.211 485 358 501.789 358 522.5C358 543.211 341.211 560 320.5 560C299.789 560 283 543.211 283 522.5Z" fill="#FEA00A"/>
<path d="M331.12 520.63H309.85V523.66H331.12V520.63Z" fill="white"/>
<path d="M283 611.5C283 590.789 299.789 574 320.5 574C341.211 574 358 590.789 358 611.5C358 632.211 341.211 649 320.5 649C299.789 649 283 632.211 283 611.5Z" fill="#FEA00A"/>
<path d="M331.12 612.66V609.63H322V600.51H318.97V609.63H309.85V612.66H318.97V621.78H322V612.66H331.12Z" fill="white"/>
<path d="M283 700.5C283 679.789 299.789 663 320.5 663C341.211 663 358 679.789 358 700.5C358 721.211 341.211 738 320.5 738C299.789 738 283 721.211 283 700.5Z" fill="#FEA00A"/>
<path fill-rule="evenodd" clip-rule="evenodd" d="M332 694H310V697H332V694ZM332 704H310V707H332V704Z" fill="white"/>
<rect x="121" y="799" width="134" height="5" rx="2.5" fill="white"/>
<g filter="url(#filter0_b_235_2312)">
<path d="M0 -521H375V265.4C375 274.361 375 278.841 373.256 282.264C371.722 285.274 369.274 287.722 366.264 289.256C362.841 291 358.361 291 349.4 291H25.6C16.6392 291 12.1587 291 8.73615 289.256C5.72556 287.722 3.27787 285.274 1.7439 282.264C0 278.841 0 274.361 0 265.4V-521Z" fill="#333333"/>
<path d="M183.448 148H185.367V126.862H183.419L177.721 130.773V132.795L183.39 129.001H183.448V148ZM197.377 148.337C198.969 148.337 200.336 147.897 201.479 147.019C202.621 146.13 203.495 144.875 204.101 143.254C204.716 141.623 205.023 139.689 205.023 137.453V137.409C205.023 135.183 204.716 133.254 204.101 131.623C203.495 129.992 202.621 128.737 201.479 127.858C200.336 126.97 198.969 126.525 197.377 126.525C195.785 126.525 194.418 126.97 193.275 127.858C192.143 128.737 191.269 129.992 190.653 131.623C190.048 133.244 189.745 135.173 189.745 137.409V137.453C189.745 139.68 190.048 141.608 190.653 143.239C191.269 144.86 192.143 146.115 193.275 147.004C194.418 147.893 195.785 148.337 197.377 148.337ZM197.377 146.579C196.195 146.579 195.185 146.208 194.345 145.466C193.505 144.724 192.86 143.669 192.411 142.302C191.972 140.935 191.752 139.318 191.752 137.453V137.409C191.752 135.544 191.972 133.928 192.411 132.561C192.86 131.193 193.505 130.139 194.345 129.396C195.185 128.654 196.195 128.283 197.377 128.283C198.559 128.283 199.569 128.654 200.409 129.396C201.259 130.139 201.908 131.193 202.357 132.561C202.807 133.918 203.031 135.534 203.031 137.409V137.453C203.031 139.318 202.807 140.935 202.357 142.302C201.908 143.669 201.259 144.724 200.409 145.466C199.569 146.208 198.559 146.579 197.377 146.579ZM214.777 148.337C216.369 148.337 217.736 147.897 218.879 147.019C220.021 146.13 220.896 144.875 221.501 143.254C222.116 141.623 222.424 139.689 222.424 137.453V137.409C222.424 135.183 222.116 133.254 221.501 131.623C220.896 129.992 220.021 128.737 218.879 127.858C217.736 126.97 216.369 126.525 214.777 126.525C213.186 126.525 211.818 126.97 210.676 127.858C209.543 128.737 208.669 129.992 208.054 131.623C207.448 133.244 207.146 135.173 207.146 137.409V137.453C207.146 139.68 207.448 141.608 208.054 143.239C208.669 144.86 209.543 146.115 210.676 147.004C211.818 147.893 213.186 148.337 214.777 148.337ZM214.777 146.579C213.596 146.579 212.585 146.208 211.745 145.466C210.905 144.724 210.261 143.669 209.812 142.302C209.372 140.935 209.152 139.318 209.152 137.453V137.409C209.152 135.544 209.372 133.928 209.812 132.561C210.261 131.193 210.905 130.139 211.745 129.396C212.585 128.654 213.596 128.283 214.777 128.283C215.959 128.283 216.97 128.654 217.81 129.396C218.659 130.139 219.309 131.193 219.758 132.561C220.207 133.918 220.432 135.534 220.432 137.409V137.453C220.432 139.318 220.207 140.935 219.758 142.302C219.309 143.669 218.659 144.724 217.81 145.466C216.97 146.208 215.959 146.579 214.777 146.579ZM230.521 140.368H245.242V138.566H230.521V140.368ZM236.98 146.638H238.768V132.282H236.98V146.638ZM253.793 148H267.577V146.213H255.917L256.562 146.828V145.451L255.917 146.828L262.23 140.251C263.48 138.962 264.452 137.873 265.146 136.984C265.839 136.096 266.327 135.295 266.61 134.582C266.894 133.869 267.035 133.137 267.035 132.385V132.355C267.035 131.262 266.752 130.275 266.186 129.396C265.629 128.518 264.862 127.819 263.886 127.302C262.909 126.784 261.791 126.525 260.531 126.525C259.262 126.525 258.114 126.794 257.089 127.331C256.063 127.858 255.243 128.586 254.628 129.514C254.022 130.432 253.71 131.481 253.69 132.663V132.795H255.624V132.678C255.644 131.848 255.868 131.101 256.298 130.437C256.728 129.772 257.309 129.25 258.041 128.869C258.783 128.479 259.628 128.283 260.575 128.283C261.435 128.283 262.201 128.464 262.875 128.825C263.549 129.187 264.076 129.68 264.457 130.305C264.848 130.93 265.043 131.643 265.043 132.443V132.473C265.043 133.088 264.936 133.674 264.721 134.23C264.516 134.787 264.14 135.417 263.593 136.12C263.056 136.813 262.284 137.688 261.278 138.742L253.793 146.594V148ZM277.316 148.337C278.908 148.337 280.275 147.897 281.418 147.019C282.561 146.13 283.435 144.875 284.04 143.254C284.655 141.623 284.963 139.689 284.963 137.453V137.409C284.963 135.183 284.655 133.254 284.04 131.623C283.435 129.992 282.561 128.737 281.418 127.858C280.275 126.97 278.908 126.525 277.316 126.525C275.725 126.525 274.357 126.97 273.215 127.858C272.082 128.737 271.208 129.992 270.593 131.623C269.987 133.244 269.685 135.173 269.685 137.409V137.453C269.685 139.68 269.987 141.608 270.593 143.239C271.208 144.86 272.082 146.115 273.215 147.004C274.357 147.893 275.725 148.337 277.316 148.337ZM277.316 146.579C276.135 146.579 275.124 146.208 274.284 145.466C273.444 144.724 272.8 143.669 272.351 142.302C271.911 140.935 271.691 139.318 271.691 137.453V137.409C271.691 135.544 271.911 133.928 272.351 132.561C272.8 131.193 273.444 130.139 274.284 129.396C275.124 128.654 276.135 128.283 277.316 128.283C278.498 128.283 279.509 128.654 280.349 129.396C281.198 130.139 281.848 131.193 282.297 132.561C282.746 133.918 282.971 135.534 282.971 137.409V137.453C282.971 139.318 282.746 140.935 282.297 142.302C281.848 143.669 281.198 144.724 280.349 145.466C279.509 146.208 278.498 146.579 277.316 146.579ZM293.06 140.368H307.781V138.566H293.06V140.368ZM299.52 146.638H301.307V132.282H299.52V146.638ZM323.173 148.337C324.569 148.337 325.81 148.073 326.894 147.546C327.978 147.019 328.832 146.296 329.457 145.378C330.082 144.45 330.395 143.405 330.395 142.243V142.214C330.395 140.71 329.911 139.494 328.944 138.566C327.987 137.639 326.718 137.116 325.136 136.999V136.94C326.034 136.755 326.82 136.438 327.494 135.988C328.168 135.529 328.69 134.963 329.062 134.289C329.442 133.605 329.633 132.829 329.633 131.96V131.931C329.633 130.876 329.359 129.943 328.812 129.133C328.266 128.322 327.499 127.688 326.513 127.229C325.536 126.76 324.394 126.525 323.085 126.525C321.806 126.525 320.678 126.765 319.701 127.243C318.725 127.712 317.943 128.361 317.357 129.191C316.771 130.012 316.425 130.969 316.317 132.062L316.303 132.209H318.222L318.236 132.062C318.324 131.311 318.573 130.651 318.983 130.085C319.403 129.519 319.965 129.074 320.668 128.752C321.371 128.43 322.177 128.269 323.085 128.269C324.022 128.269 324.828 128.43 325.502 128.752C326.186 129.074 326.713 129.523 327.084 130.1C327.455 130.676 327.641 131.359 327.641 132.15V132.18C327.641 132.961 327.436 133.654 327.025 134.26C326.625 134.865 326.063 135.344 325.341 135.695C324.618 136.037 323.788 136.208 322.851 136.208H320.39V137.907H322.924C324.613 137.907 325.941 138.288 326.908 139.05C327.885 139.802 328.373 140.871 328.373 142.258V142.287C328.373 143.117 328.153 143.859 327.714 144.514C327.274 145.158 326.664 145.666 325.883 146.037C325.102 146.408 324.198 146.594 323.173 146.594C322.147 146.594 321.249 146.423 320.478 146.081C319.706 145.739 319.091 145.275 318.632 144.689C318.173 144.094 317.895 143.415 317.797 142.653L317.782 142.536H315.863L315.878 142.683C315.985 143.767 316.347 144.733 316.962 145.583C317.587 146.433 318.422 147.106 319.467 147.604C320.521 148.093 321.757 148.337 323.173 148.337ZM338.843 143.942H353.198V142.155H338.843V143.942ZM338.843 136.765H353.198V134.963H338.843V136.765Z" fill="#A5A5A5"/>
<path d="M260.973 244H265.578V193.27H260.902L247.227 202.656V207.508L260.832 198.402H260.973V244ZM277.664 244H310.746V239.711H282.762L284.309 241.188V237.883L282.762 241.188L297.914 225.402C300.914 222.309 303.246 219.695 304.91 217.562C306.574 215.43 307.746 213.508 308.426 211.797C309.105 210.086 309.445 208.328 309.445 206.523V206.453C309.445 203.828 308.766 201.461 307.406 199.352C306.07 197.242 304.23 195.566 301.887 194.324C299.543 193.082 296.859 192.461 293.836 192.461C290.789 192.461 288.035 193.105 285.574 194.395C283.113 195.66 281.145 197.406 279.668 199.633C278.215 201.836 277.465 204.355 277.418 207.191V207.508H282.059V207.227C282.105 205.234 282.645 203.441 283.676 201.848C284.707 200.254 286.102 199 287.859 198.086C289.641 197.148 291.668 196.68 293.941 196.68C296.004 196.68 297.844 197.113 299.461 197.98C301.078 198.848 302.344 200.031 303.258 201.531C304.195 203.031 304.664 204.742 304.664 206.664V206.734C304.664 208.211 304.406 209.617 303.891 210.953C303.398 212.289 302.496 213.801 301.184 215.488C299.895 217.152 298.043 219.25 295.629 221.781L277.664 240.625V244ZM334.082 244.809C337.434 244.809 340.41 244.176 343.012 242.91C345.613 241.645 347.664 239.91 349.164 237.707C350.664 235.48 351.414 232.973 351.414 230.184V230.113C351.414 226.504 350.254 223.586 347.934 221.359C345.637 219.133 342.59 217.879 338.793 217.598V217.457C340.949 217.012 342.836 216.25 344.453 215.172C346.07 214.07 347.324 212.711 348.215 211.094C349.129 209.453 349.586 207.59 349.586 205.504V205.434C349.586 202.902 348.93 200.664 347.617 198.719C346.305 196.773 344.465 195.25 342.098 194.148C339.754 193.023 337.012 192.461 333.871 192.461C330.801 192.461 328.094 193.035 325.75 194.184C323.406 195.309 321.531 196.867 320.125 198.859C318.719 200.828 317.887 203.125 317.629 205.75L317.594 206.102H322.199L322.234 205.75C322.445 203.945 323.043 202.363 324.027 201.004C325.035 199.645 326.383 198.578 328.07 197.805C329.758 197.031 331.691 196.645 333.871 196.645C336.121 196.645 338.055 197.031 339.672 197.805C341.312 198.578 342.578 199.656 343.469 201.039C344.359 202.422 344.805 204.062 344.805 205.961V206.031C344.805 207.906 344.312 209.57 343.328 211.023C342.367 212.477 341.02 213.625 339.285 214.469C337.551 215.289 335.559 215.699 333.309 215.699H327.402V219.777H333.484C337.539 219.777 340.727 220.691 343.047 222.52C345.391 224.324 346.562 226.891 346.562 230.219V230.289C346.562 232.281 346.035 234.062 344.98 235.633C343.926 237.18 342.461 238.398 340.586 239.289C338.711 240.18 336.543 240.625 334.082 240.625C331.621 240.625 329.465 240.215 327.613 239.395C325.762 238.574 324.285 237.461 323.184 236.055C322.082 234.625 321.414 232.996 321.18 231.168L321.145 230.887H316.539L316.574 231.238C316.832 233.84 317.699 236.16 319.176 238.199C320.676 240.238 322.68 241.855 325.188 243.051C327.719 244.223 330.684 244.809 334.082 244.809Z" fill="white"/>
<path d="M0 43.5H375V42.5H0V43.5Z" fill="#A5A5A5"/>
<g filter="url(#filter1_b_235_2312)">
<path d="M0 -153H375V19H0V-153Z" fill="#333333"/>
<path d="M0 -152.5H375V-153.5H0V-152.5Z" fill="#A5A5A5"/>
</g>
<rect x="171" y="279" width="34" height="5" rx="2.5" fill="white"/>
</g>
<g clip-path="url(#clip1_235_2312)">
<rect width="375" height="44" fill="#333333"/>
<path d="M106 -2H270C268.396 -1.36663 267.327 0.165139 267.286 1.88899L267.242 3.74719C267.242 17.6939 255.936 29 241.989 29H134.011C120.064 29 108.758 17.6939 108.758 3.74719L108.714 1.88899C108.673 0.165139 107.604 -1.36663 106 -2Z" fill="black"/>
<path opacity="0.35" d="M336.5 19.9987C336.5 18.8021 337.47 17.832 338.667 17.832H355.333C356.53 17.832 357.5 18.8021 357.5 19.9987V25.9987C357.5 27.1953 356.53 28.1654 355.333 28.1654H338.667C337.47 28.1654 336.5 27.1953 336.5 25.9987V19.9987Z" stroke="white"/>
<path opacity="0.4" d="M359 20.998V24.998C359.805 24.6593 360.328 23.8712 360.328 22.998C360.328 22.1249 359.805 21.3368 359 20.998Z" fill="white"/>
<path d="M338 20.432C338 19.8245 338.492 19.332 339.1 19.332H354.9C355.508 19.332 356 19.8245 356 20.432V25.5654C356 26.1729 355.508 26.6654 354.9 26.6654H339.1C338.492 26.6654 338 26.1729 338 25.5654V20.432Z" fill="white"/>
<path fill-rule="evenodd" clip-rule="evenodd" d="M323.33 19.6074C325.546 19.6075 327.677 20.4589 329.283 21.9857C329.404 22.1036 329.597 22.1021 329.716 21.9824L330.872 20.8157C330.933 20.755 330.966 20.6728 330.966 20.5872C330.965 20.5016 330.931 20.4198 330.87 20.3597C326.655 16.3202 320.005 16.3202 315.79 20.3597C315.729 20.4197 315.694 20.5015 315.693 20.5871C315.693 20.6727 315.726 20.755 315.787 20.8157L316.943 21.9824C317.062 22.1023 317.255 22.1038 317.376 21.9857C318.982 20.4588 321.114 19.6074 323.33 19.6074ZM323.33 23.4031C324.547 23.403 325.721 23.8555 326.624 24.6727C326.746 24.7887 326.938 24.7862 327.057 24.6671L328.212 23.5004C328.273 23.4392 328.307 23.3562 328.306 23.2699C328.305 23.1837 328.269 23.1014 328.207 23.0414C325.459 20.485 321.203 20.485 318.455 23.0414C318.393 23.1014 318.357 23.1837 318.357 23.27C318.356 23.3563 318.39 23.4393 318.451 23.5004L319.605 24.6671C319.724 24.7862 319.916 24.7887 320.038 24.6727C320.94 23.8561 322.113 23.4036 323.33 23.4031ZM325.643 25.9569C325.645 26.0434 325.611 26.1268 325.549 26.1874L323.552 28.2031C323.493 28.2623 323.413 28.2957 323.33 28.2957C323.247 28.2957 323.167 28.2623 323.108 28.2031L321.111 26.1874C321.049 26.1268 321.015 26.0433 321.017 25.9568C321.019 25.8703 321.056 25.7884 321.12 25.7304C322.396 24.6515 324.264 24.6515 325.54 25.7304C325.604 25.7884 325.641 25.8704 325.643 25.9569Z" fill="white"/>
<path fill-rule="evenodd" clip-rule="evenodd" d="M309.666 17.666H308.666C308.114 17.666 307.666 18.1137 307.666 18.666V27.3327C307.666 27.885 308.114 28.3327 308.666 28.3327H309.666C310.218 28.3327 310.666 27.885 310.666 27.3327V18.666C310.666 18.1137 310.218 17.666 309.666 17.666ZM303.999 19.9993H304.999C305.552 19.9993 305.999 20.4471 305.999 20.9993V27.3327C305.999 27.885 305.552 28.3327 304.999 28.3327H303.999C303.447 28.3327 302.999 27.885 302.999 27.3327V20.9993C302.999 20.4471 303.447 19.9993 303.999 19.9993ZM300.333 22.3327H299.333C298.78 22.3327 298.333 22.7804 298.333 23.3327V27.3327C298.333 27.885 298.78 28.3327 299.333 28.3327H300.333C300.885 28.3327 301.333 27.885 301.333 27.3327V23.3327C301.333 22.7804 300.885 22.3327 300.333 22.3327ZM295.666 24.3327H294.666C294.114 24.3327 293.666 24.7804 293.666 25.3327V27.3327C293.666 27.885 294.114 28.3327 294.666 28.3327H295.666C296.218 28.3327 296.666 27.885 296.666 27.3327V25.3327C296.666 24.7804 296.218 24.3327 295.666 24.3327Z" fill="white"/>
<path d="M37.5146 17.1675C35.2222 17.1675 33.5889 18.7349 33.5889 20.8809V20.8955C33.5889 22.9023 35.0098 24.3818 37.0386 24.3818C38.4888 24.3818 39.4116 23.6421 39.7998 22.8071H39.9463C39.9463 22.8877 39.939 22.9683 39.939 23.0488C39.8584 25.0703 39.1479 26.7109 37.4707 26.7109C36.5405 26.7109 35.8887 26.2275 35.6104 25.4878L35.5884 25.4146H33.728L33.7427 25.4951C34.0796 27.1138 35.5298 28.2637 37.4707 28.2637C40.1294 28.2637 41.7334 26.1543 41.7334 22.5947V22.5801C41.7334 18.7715 39.7705 17.1675 37.5146 17.1675ZM37.5073 22.9316C36.3062 22.9316 35.4346 22.0527 35.4346 20.8296V20.8149C35.4346 19.6357 36.3647 18.7056 37.5293 18.7056C38.7012 18.7056 39.6167 19.6504 39.6167 20.8589V20.8735C39.6167 22.0674 38.7012 22.9316 37.5073 22.9316ZM44.5586 21.1519C45.2324 21.1519 45.7231 20.6392 45.7231 19.9946C45.7231 19.3428 45.2324 18.8374 44.5586 18.8374C43.8921 18.8374 43.394 19.3428 43.394 19.9946C43.394 20.6392 43.8921 21.1519 44.5586 21.1519ZM44.5586 26.5864C45.2324 26.5864 45.7231 26.0811 45.7231 25.4292C45.7231 24.7773 45.2324 24.272 44.5586 24.272C43.8921 24.272 43.394 24.7773 43.394 25.4292C43.394 26.0811 43.8921 26.5864 44.5586 26.5864ZM52.5107 28H54.3198V25.9712H55.7407V24.4111H54.3198V17.4312H51.6465C50.2109 19.6138 48.7095 22.0454 47.3398 24.4258V25.9712H52.5107V28ZM49.0977 24.4551V24.3452C50.123 22.5508 51.3462 20.5952 52.4302 18.9399H52.54V24.4551H49.0977ZM59.6206 28H61.5103V17.4312H59.6279L56.8667 19.3721V21.1519L59.4961 19.2915H59.6206V28Z" fill="white"/>
</g>
</g>
<defs>
<filter id="filter0_b_235_2312" x="-80" y="-601" width="535" height="972" filterUnits="userSpaceOnUse" color-interpolation-filters="sRGB">
<feFlood flood-opacity="0" result="BackgroundImageFix"/>
<feGaussianBlur in="BackgroundImage" stdDeviation="40"/>
<feComposite in2="SourceAlpha" operator="in" result="effect1_backgroundBlur_235_2312"/>
<feBlend mode="normal" in="SourceGraphic" in2="effect1_backgroundBlur_235_2312" result="shape"/>
</filter>
<filter id="filter1_b_235_2312" x="-80" y="-233.5" width="535" height="332.5" filterUnits="userSpaceOnUse" color-interpolation-filters="sRGB">
<feFlood flood-opacity="0" result="BackgroundImageFix"/>
<feGaussianBlur in="BackgroundImage" stdDeviation="40"/>
<feComposite in2="SourceAlpha" operator="in" result="effect1_backgroundBlur_235_2312"/>
<feBlend mode="normal" in="SourceGraphic" in2="effect1_backgroundBlur_235_2312" result="shape"/>
</filter>
<clipPath id="clip0_235_2312">
<rect width="375" height="812" rx="40" fill="white"/>
</clipPath>
<clipPath id="clip1_235_2312">
<rect width="375" height="44" fill="white"/>
</clipPath>
</defs>
</svg>
