<svg width="512" height="330" viewBox="0 0 512 330" fill="none" xmlns="http://www.w3.org/2000/svg">
<g clip-path="url(#clip0_151_655)">
<path d="M423.743 182.316C424.121 181.938 424.121 181.324 423.743 180.946L417.575 174.777C417.196 174.399 416.583 174.399 416.204 174.777C415.826 175.156 415.826 175.77 416.204 176.148L421.687 181.631L416.204 187.114C415.826 187.492 415.826 188.106 416.204 188.484C416.583 188.863 417.196 188.863 417.575 188.484L423.743 182.316ZM15 182.6H423.058V180.662H15V182.6Z" fill="#797979"/>
<path d="M447.183 176.974V179.534H448.287V177.95H459.471V179.534H460.607V176.974H447.183ZM453.487 179.038C453.423 180.03 453.295 181.278 453.151 182.094H454.207C454.319 181.31 454.431 180.062 454.511 179.038H453.487ZM449.983 185.182H457.839V185.918H449.983V185.182ZM449.983 186.606H457.839V187.374H449.983V186.606ZM449.983 183.774H457.839V184.494H449.983V183.774ZM448.831 183.054V188.078H459.055V183.054H448.831ZM454.895 188.782C456.767 189.294 458.655 189.902 459.823 190.35L460.623 189.566C459.359 189.118 457.391 188.526 455.519 188.062L454.895 188.782ZM450.511 179.422H457.455L457.295 181.662H450.207L450.511 179.422ZM449.519 178.702L449.039 182.382H458.335L458.655 178.702H449.519ZM451.919 188.062C450.911 188.622 448.719 189.214 446.991 189.486C447.215 189.71 447.503 190.11 447.663 190.334C449.423 190.03 451.583 189.422 452.911 188.718L451.919 188.062ZM446.655 180.046V180.974H450.095V180.878H457.631V180.974H461.151V180.046H457.631V180.158H450.095V180.046H446.655ZM452.671 175.79C453.087 176.35 453.519 177.118 453.663 177.63L454.767 177.262C454.591 176.75 454.143 175.998 453.711 175.454L452.671 175.79ZM465.007 176.702V177.854H475.359V176.702H465.007ZM465.007 180.43V181.566H475.343V180.43H465.007ZM464.927 184.254V185.39H475.375V184.254H464.927ZM464.335 176.702V182.494C464.335 184.75 464.159 187.598 462.399 189.582C462.655 189.742 463.135 190.142 463.327 190.382C465.231 188.254 465.519 184.942 465.519 182.51V176.702H464.335ZM474.879 176.702V188.654C474.879 188.958 474.767 189.054 474.463 189.07C474.159 189.07 473.071 189.086 471.935 189.038C472.111 189.358 472.303 189.886 472.351 190.206C473.871 190.222 474.799 190.206 475.343 190.014C475.871 189.806 476.063 189.438 476.063 188.654V176.702H474.879ZM469.359 177.134V190.142H470.575V177.134H469.359ZM480.623 175.566V190.27H481.839V175.566H480.623ZM479.151 178.606C479.039 179.902 478.751 181.662 478.319 182.734L479.263 183.054C479.695 181.902 479.983 180.046 480.063 178.75L479.151 178.606ZM481.951 178.51C482.399 179.406 482.879 180.574 483.055 181.278L483.951 180.83C483.775 180.142 483.279 179.006 482.783 178.142L481.951 178.51ZM485.215 176.318C484.863 178.478 484.223 180.654 483.279 182.062C483.583 182.19 484.127 182.446 484.367 182.622C485.263 181.118 485.967 178.846 486.383 176.51L485.215 176.318ZM485.231 178.958L484.863 180.11H492.671V178.958H485.231ZM487.823 175.63V189.23H489.023V175.63H487.823ZM484.415 183.438V184.574H492.319V183.438H484.415ZM483.215 188.574V189.726H493.055V188.574H483.215Z" fill="#797979"/>
<path d="M209.51 52.4308C209.131 52.0523 208.517 52.0523 208.139 52.4308L201.971 58.5989C201.592 58.9774 201.592 59.5911 201.971 59.9696C202.349 60.3481 202.963 60.3481 203.341 59.9696L208.824 54.4868L214.307 59.9696C214.685 60.3481 215.299 60.3481 215.678 59.9696C216.056 59.5911 216.056 58.9774 215.678 58.5989L209.51 52.4308ZM209.793 305L209.793 53.1161H207.855L207.855 305H209.793Z" fill="#797979"/>
<path d="M174.12 22.336V23.456H184.392V22.336H174.12ZM175.704 26.032H182.696V28.432H175.704V26.032ZM174.6 25.008V29.456H183.864V25.008H174.6ZM175.592 29.776L174.6 30.112C176.296 33.04 179.576 34.704 183.816 35.312C183.976 34.976 184.28 34.496 184.536 34.24C180.376 33.776 177.096 32.288 175.592 29.776ZM178.568 20.624V27.696C178.568 30.4 178.296 33.136 173.544 34.336C173.784 34.592 174.12 35.072 174.264 35.344C179.224 33.872 179.752 30.8 179.752 27.712V20.624H178.568ZM173.432 20.528C172.504 22.96 170.936 25.344 169.32 26.864C169.544 27.152 169.88 27.776 169.992 28.048C171.768 26.272 173.48 23.584 174.568 20.88L173.432 20.528ZM171.752 24.72V35.36H172.904V23.6L172.888 23.584L171.752 24.72ZM188.12 21.696V22.848H198.472V21.696H188.12ZM188.12 25.424V26.56H198.456V25.424H188.12ZM188.04 29.248V30.384H198.488V29.248H188.04ZM187.448 21.696V27.488C187.448 29.744 187.272 32.592 185.512 34.576C185.768 34.736 186.248 35.136 186.44 35.376C188.344 33.248 188.632 29.936 188.632 27.504V21.696H187.448ZM197.992 21.696V33.648C197.992 33.952 197.88 34.048 197.576 34.064C197.272 34.064 196.184 34.08 195.048 34.032C195.224 34.352 195.416 34.88 195.464 35.2C196.984 35.216 197.912 35.2 198.456 35.008C198.984 34.8 199.176 34.432 199.176 33.648V21.696H197.992ZM192.472 22.128V35.136H193.688V22.128H192.472ZM201.864 25.712V26.784H216.12V25.712H201.864ZM203.272 22.576V23.648H212.536V22.576H203.272ZM205.864 31.072V32.032H213.4V31.072H205.864ZM205.864 33.728V34.768H213.4V33.728H205.864ZM207.384 20.56V26.288H208.552V20.56H207.384ZM214.392 21.12C211.432 25.088 206.664 28.192 201.496 29.984C201.736 30.224 202.12 30.72 202.264 30.992C207.384 29.024 212.2 25.872 215.416 21.664L214.392 21.12ZM205.208 28.48V35.296H206.408V29.488H212.92V35.232H214.168V28.48H205.208ZM226.248 32.416V33.552H230.984V32.416H226.248ZM225.752 21.952V34.832H226.904V23.088H230.312V34.656H231.512V21.952H225.752ZM221.016 23.264V26.464C221.016 28.944 220.648 32.128 217.528 34.352C217.784 34.528 218.216 34.992 218.376 35.248C221.688 32.88 222.232 29.2 222.232 26.48V23.264H221.016ZM219.368 22.72V23.84H224.76V22.72H219.368ZM217.704 27.024V28.176H225.24V27.024H217.704ZM221.848 29.136L221.112 29.824C221.848 30.608 223.688 32.8 224.36 33.776L225.176 32.768C224.664 32.16 222.472 29.696 221.848 29.136ZM219.512 20.56C219.128 22.512 218.472 24.432 217.512 25.664C217.784 25.824 218.296 26.16 218.504 26.352C219.448 24.992 220.216 22.928 220.68 20.784L219.512 20.56ZM237.976 22.688V23.696H248.152V22.688H237.976ZM242.344 23.104C242.216 23.76 241.944 24.704 241.704 25.36L242.712 25.52C243.016 24.928 243.416 24.048 243.704 23.232L242.344 23.104ZM245.144 20.576C244.84 21.248 244.28 22.24 243.8 22.864L244.76 23.168C245.24 22.592 245.8 21.712 246.328 20.912L245.144 20.576ZM239.608 21.008C240.056 21.568 240.536 22.336 240.712 22.832L241.704 22.368C241.512 21.888 241.016 21.136 240.568 20.608L239.608 21.008ZM240.424 28.048H245.608V29.392H240.424V28.048ZM240.424 30.24H245.608V31.584H240.424V30.24ZM240.424 25.872H245.608V27.2H240.424V25.872ZM239.288 24.96V32.512H246.792V24.96H239.288ZM234.328 21.12C235.032 21.904 235.912 23.024 236.344 23.696L237.272 23.04C236.84 22.384 235.96 21.36 235.224 20.592L234.328 21.12ZM233.752 24.256V25.264H237.256V24.256H233.752ZM236.6 31.6L235.8 31.968C237 34.608 239.096 35.056 242.84 35.056C244.6 35.056 246.616 35.008 248.12 34.928C248.184 34.592 248.344 34.032 248.52 33.776C246.888 33.904 244.536 33.984 242.856 33.984C239.672 33.984 237.592 33.696 236.6 31.6ZM236.824 28.256V28.464C236.376 31.392 235.144 33.424 233.448 34.496C233.672 34.672 234.072 35.072 234.232 35.328C236.024 34.128 237.352 31.872 237.912 28.448L237.304 28.224L237.096 28.256H236.824ZM233.976 29.456C234.088 29.328 234.504 29.232 234.92 29.232H237.208L237.224 28.256H234.552L233.976 28.544V29.456ZM233.976 29.456C233.976 29.152 234.872 28.704 234.872 28.704C235.816 27.68 237.304 25.648 238.088 24.56L237.288 24.176L236.92 24.336V24.384C236.376 25.232 234.808 27.392 234.296 27.888C234.024 28.208 233.768 28.304 233.528 28.368C233.656 28.624 233.896 29.184 233.976 29.456Z" fill="#797979"/>
<circle cx="356" cy="134" r="4" fill="#FFCF2D"/>
<path d="M377.14 128.226C376.636 129.626 375.81 131.04 374.872 131.95C375.124 132.09 375.572 132.398 375.768 132.58C376.692 131.572 377.602 130.032 378.176 128.492L377.14 128.226ZM377.196 129.654L376.734 130.55H383.216V129.654H377.196ZM377.21 133.798H381.396V134.736H377.21V133.798ZM377.21 132.174H381.396V133.098H377.21V132.174ZM376.216 131.446V135.478H382.432V131.446H376.216ZM378.092 135.142C377.406 136.416 376.146 137.522 374.83 138.236C375.054 138.404 375.418 138.768 375.572 138.95C376.902 138.138 378.26 136.878 379.058 135.422L378.092 135.142ZM376.426 135.884L375.558 136.192C376.916 138.754 379.506 140.462 382.838 141.12C382.978 140.854 383.258 140.448 383.482 140.224C380.22 139.678 377.616 138.11 376.426 135.884ZM377.812 136.346L377.294 137.158H381.886V136.346H377.812ZM381.564 136.346V136.5C380.472 138.614 377.518 139.846 374.634 140.308C374.816 140.518 375.04 140.91 375.138 141.162C378.218 140.574 381.298 139.244 382.614 136.654L381.956 136.304L381.774 136.346H381.564ZM372.52 134.806V141.106H373.5V133.658L372.52 134.806ZM374.984 133.406C374.676 133.882 374.102 134.624 373.724 135.058L374.2 135.534C374.634 135.142 375.138 134.554 375.656 134.022L374.984 133.406ZM370.616 130.732V131.684H374.396V130.732H370.616ZM373.374 134.12L372.828 134.582C373.262 135.086 374.326 136.542 374.69 137.144L375.334 136.346C375.026 135.982 373.752 134.47 373.374 134.12ZM374.088 130.732V130.956C373.402 132.93 371.792 135.114 370.336 136.318C370.504 136.486 370.798 137.018 370.896 137.298C372.464 135.912 374.2 133.49 375.096 131.096L374.494 130.69L374.298 130.732H374.088ZM372.002 128.688C372.366 129.29 372.814 130.102 372.996 130.62L373.864 130.172C373.654 129.668 373.22 128.898 372.814 128.31L372.002 128.688ZM390.454 136.206C389.18 137.284 386.688 138.18 384.532 138.572C384.728 138.768 384.994 139.118 385.12 139.356C387.304 138.894 389.866 137.844 391.28 136.598L390.454 136.206ZM391.658 136.122L390.79 136.332C391.812 138.824 393.814 140.35 396.824 140.952C396.95 140.686 397.216 140.308 397.412 140.098C394.542 139.622 392.54 138.264 391.658 136.122ZM395.774 136.878C395.046 137.41 393.8 138.11 392.89 138.53L393.548 139.062C394.472 138.656 395.648 138.054 396.544 137.424L395.774 136.878ZM384.77 135.898V136.752H397.23V135.898H384.77ZM392.862 128.968V133.56H393.814V128.968H392.862ZM395.522 128.38V134.176C395.522 134.358 395.466 134.414 395.256 134.414C395.06 134.428 394.374 134.428 393.604 134.4C393.744 134.666 393.898 135.016 393.94 135.282C394.934 135.282 395.578 135.268 395.97 135.128C396.362 134.974 396.474 134.736 396.474 134.19V128.38H395.522ZM387.892 128.24V135.352H388.802V128.24H387.892ZM390.538 132.356V134.078C390.538 134.19 390.496 134.218 390.37 134.232C390.258 134.246 389.894 134.246 389.446 134.232C389.544 134.428 389.684 134.68 389.726 134.904C390.342 134.904 390.762 134.904 391.056 134.778C391.35 134.652 391.406 134.456 391.406 134.064V132.356H390.538ZM385.442 132.356V134.988H386.282V133.07H390.93V132.356H385.442ZM384.714 130.844V131.614H391.784V130.844H384.714ZM386.17 129.248L385.862 129.99H391.294V129.248H386.17ZM386.044 128.296C385.792 129.052 385.4 129.85 384.91 130.424C385.12 130.522 385.498 130.704 385.666 130.83C386.114 130.242 386.576 129.332 386.87 128.492L386.044 128.296ZM387.332 141.134C387.598 140.966 388.018 140.854 391.742 139.972C391.728 139.776 391.742 139.426 391.77 139.174L387.724 140.042L387.29 140.392L387.332 141.134ZM387.346 141.134C387.346 140.728 388.536 140.014 388.536 140.014V137.942L387.542 137.956V139.286C387.542 139.93 387.178 140.21 386.954 140.35C387.094 140.518 387.276 140.91 387.346 141.134ZM390.286 135.016C390.538 135.464 390.818 136.094 390.916 136.472L391.952 136.136C391.826 135.772 391.532 135.17 391.252 134.736L390.286 135.016ZM403.866 130.116V131.096H411.3V130.116H403.866ZM404.286 133.308V134.288H410.922V133.308H404.286ZM405.126 139.552V140.518H410.026V139.552H405.126ZM406.946 128.24V133.826H408.01V128.24H406.946ZM404.566 135.744V141.12H405.546V136.71H409.494V141.064H410.516V135.744H404.566ZM402.102 133.77C402.48 134.736 402.858 135.982 402.998 136.752L403.852 136.458C403.698 135.716 403.292 134.484 402.9 133.546L402.102 133.77ZM400.744 137.368C400.926 138.376 401.08 139.692 401.108 140.56L401.962 140.392C401.906 139.524 401.738 138.236 401.542 137.228L400.744 137.368ZM399.162 137.256C399.022 138.418 398.826 139.72 398.476 140.602C398.714 140.672 399.134 140.812 399.33 140.91C399.61 140.028 399.89 138.656 400.044 137.41L399.162 137.256ZM398.826 133.49C398.826 133.28 399.47 132.958 399.47 132.958V132.944C400.436 131.81 401.416 130.186 402.186 128.618L401.22 128.198C400.618 129.738 399.61 131.348 399.288 131.768C398.994 132.188 398.742 132.482 398.49 132.538C398.602 132.804 398.77 133.28 398.826 133.49ZM398.826 133.49C399.05 133.378 399.442 133.308 401.696 133.042C401.696 132.832 401.724 132.468 401.78 132.216L399.288 132.426L398.798 132.72L398.826 133.49ZM398.91 136.64C398.91 136.43 399.568 136.122 399.568 136.122V136.094C400.926 134.75 402.312 132.832 403.418 130.942L402.522 130.41C401.584 132.286 400.1 134.26 399.638 134.75C399.204 135.268 398.882 135.618 398.574 135.674C398.7 135.954 398.868 136.43 398.91 136.64ZM398.91 136.64C399.204 136.5 399.666 136.388 403.166 135.884C403.152 135.66 403.166 135.282 403.208 135.03L399.4 135.52L398.882 135.856L398.91 136.64ZM402.186 137.102C402.494 137.97 402.83 139.118 402.97 139.86L403.754 139.594C403.614 138.866 403.264 137.732 402.928 136.864L402.186 137.102ZM412.854 135.674V136.654H425.146V135.674H412.854ZM418.44 129.262V141.12H419.546V129.262H418.44ZM418.062 136.094C416.886 137.634 414.576 139.118 412.504 139.804C412.728 140.014 413.064 140.406 413.218 140.658C415.318 139.86 417.642 138.264 418.944 136.472L418.062 136.094ZM419.868 136.052L419.028 136.43C420.372 138.152 422.752 139.79 424.782 140.602C424.95 140.336 425.272 139.93 425.51 139.72C423.466 139.034 421.086 137.55 419.868 136.052ZM415.29 132.118H422.738V133.588H415.29V132.118ZM415.29 129.822H422.738V131.264H415.29V129.822ZM414.212 128.926V134.484H423.858V128.926H414.212Z" fill="black"/>
<circle cx="295" cy="257" r="4" fill="#FFCF2D"/>
<path d="M309.938 253.774V254.796H322.02V253.774H309.938ZM313.69 257.484V258.492H321.656V257.484H313.69ZM312.248 262.706V263.714H322.272V262.706H312.248ZM316.84 257.932V263.28H317.904V257.932H316.84ZM314.166 251.254C313.55 255.3 312.318 259.822 309.392 262.454C309.602 262.664 309.938 263.042 310.092 263.28C313.214 260.41 314.502 255.748 315.258 251.394L314.166 251.254ZM323.896 253.858V254.88H336.132V253.858H323.896ZM327.382 262.328V263.35H334.424V262.328H327.382ZM326.752 257.596V264.148H327.788V258.618H334.018V264.078H335.124V257.596H326.752ZM328.754 251.24C328.012 254.782 326.486 258.45 323.434 260.536C323.658 260.746 323.98 261.124 324.134 261.362C327.34 259.094 328.95 255.272 329.86 251.45L328.754 251.24ZM347.92 257.386V263.07C347.92 263.238 347.864 263.294 347.668 263.308C347.472 263.308 346.8 263.308 346.1 263.28C346.226 263.532 346.352 263.896 346.394 264.148C347.402 264.148 348.032 264.134 348.41 263.994C348.802 263.84 348.914 263.588 348.914 263.07V257.386H347.92ZM341.102 255.538V257.918H342.068V256.392H349.306V257.918H350.314V255.538H341.102ZM342.572 251.758V256H343.524V252.598H347.85V256H348.83V251.758H342.572ZM338.302 252.136C339.156 252.654 340.276 253.438 340.822 253.942L341.494 253.144C340.934 252.654 339.786 251.926 338.96 251.436L338.302 252.136ZM337.574 256.028C338.386 256.476 339.436 257.134 339.968 257.568L340.598 256.742C340.052 256.322 338.988 255.692 338.19 255.3L337.574 256.028ZM338.05 263.224L338.988 263.868C339.66 262.594 340.458 260.886 341.046 259.458L340.206 258.828C339.562 260.382 338.666 262.174 338.05 263.224ZM342.95 257.386V258.226H348.298V257.386H342.95ZM342.46 257.386V259.57C342.46 260.788 342.334 262.426 341.382 263.644C341.606 263.756 342.04 264.05 342.208 264.232C343.258 262.902 343.44 260.97 343.44 259.57V257.386H342.46ZM343.468 261.376L343.79 262.216C345.078 261.95 346.73 261.572 348.326 261.194L348.214 260.424C346.478 260.788 344.672 261.152 343.468 261.376ZM343.902 259.612C344.994 259.752 346.408 260.102 347.164 260.424L347.472 259.682C346.73 259.36 345.316 259.038 344.224 258.926L343.902 259.612ZM345.176 253.55V256.042H346.044V254.264H348.382V253.55H345.176ZM351.966 260.396V261.194H358.35V260.396H351.966ZM351.588 253.648V254.46H358.574V253.648H351.588ZM354.626 252.374V262.678H355.592V252.374H354.626ZM351.574 262.706L351.728 263.616C353.506 263.434 356.04 263.14 358.42 262.86L358.406 262.034C355.9 262.3 353.282 262.552 351.574 262.706ZM352.876 257.778H357.412V258.814H352.876V257.778ZM352.876 256.07H357.412V257.078H352.876V256.07ZM351.994 255.342V259.542H358.308V255.342H351.994ZM357.804 251.38C356.362 251.716 353.814 251.968 351.728 252.08C351.84 252.29 351.938 252.64 351.98 252.864C354.08 252.794 356.684 252.556 358.336 252.192L357.804 251.38ZM358.476 254.516V255.496H363.53V254.516H358.476ZM363.124 254.516V254.768C362.97 260.438 362.816 262.454 362.466 262.888C362.34 263.07 362.2 263.112 361.976 263.112C361.696 263.112 361.08 263.098 360.394 263.042C360.562 263.322 360.674 263.756 360.702 264.05C361.346 264.092 362.018 264.092 362.41 264.05C362.83 264.008 363.11 263.882 363.362 263.518C363.824 262.916 363.964 260.956 364.118 255.048C364.118 254.908 364.132 254.516 364.132 254.516H363.124ZM360.17 251.422C360.156 256.714 360.226 261.152 357.02 263.448C357.272 263.616 357.636 263.952 357.804 264.204C361.15 261.698 361.164 256.994 361.178 251.422H360.17ZM374.282 252.934V260.69H375.22V252.934H374.282ZM376.844 251.506V262.762C376.844 262.986 376.788 263.056 376.578 263.056C376.326 263.07 375.57 263.084 374.786 263.056C374.926 263.35 375.066 263.826 375.108 264.106C376.116 264.106 376.858 264.064 377.264 263.896C377.67 263.728 377.824 263.42 377.824 262.762V251.506H376.844ZM372.154 251.94V262.986C372.154 263.14 372.112 263.182 371.972 263.182C371.86 263.196 371.482 263.196 371.062 263.182C371.202 263.434 371.342 263.868 371.384 264.106C372.014 264.106 372.42 264.078 372.7 263.924C372.994 263.742 373.078 263.462 373.078 263V251.94H372.154ZM366.442 251.94V264.134H367.338V252.878H372.658V251.94H366.442ZM365.546 256.882V257.862H373.946V256.882H365.546ZM368.416 252.332V263.686H369.158V252.332H368.416ZM370.264 252.332V263.616H371.006V252.332H370.264ZM380.078 251.814V264.092H381.016V252.766H383.34V251.814H380.078ZM383.06 251.814V252.094C382.724 253.046 382.178 254.67 381.632 255.93C382.71 257.05 382.976 258.002 382.99 258.772C382.99 259.206 382.906 259.584 382.668 259.738C382.556 259.836 382.388 259.878 382.206 259.878C381.968 259.892 381.66 259.892 381.324 259.864C381.492 260.13 381.576 260.536 381.576 260.788C381.912 260.802 382.304 260.802 382.584 260.774C382.892 260.732 383.144 260.662 383.354 260.508C383.76 260.214 383.928 259.64 383.928 258.87C383.914 257.988 383.662 256.98 382.57 255.818C383.074 254.712 383.634 253.34 384.068 252.178L383.382 251.772L383.228 251.814H383.06ZM385.496 255.538V256.476H391.026V255.538H385.496ZM384.194 258.184V259.15H392.342V258.184H384.194ZM385.622 259.92C385.16 260.914 384.432 261.978 383.704 262.706C383.928 262.832 384.334 263.126 384.502 263.28C385.216 262.496 386.028 261.306 386.56 260.186L385.622 259.92ZM389.682 260.2C390.438 261.096 391.306 262.342 391.698 263.154L392.524 262.664C392.132 261.88 391.264 260.676 390.48 259.794L389.682 260.2ZM387.862 255.762V262.902C387.862 263.084 387.806 263.154 387.596 263.168C387.386 263.168 386.714 263.168 385.93 263.14C386.084 263.42 386.238 263.84 386.294 264.12C387.302 264.12 387.946 264.106 388.338 263.938C388.744 263.77 388.884 263.49 388.884 262.902V255.762H387.862ZM388.254 251.156C387.316 252.836 385.566 254.446 383.816 255.356C384.068 255.552 384.348 255.874 384.516 256.126C386.336 255.076 388.086 253.368 389.15 251.506L388.254 251.156ZM388.716 251.898L387.89 252.248C389.22 254.04 390.55 255.118 391.922 255.986C392.076 255.706 392.384 255.356 392.636 255.16C391.306 254.418 389.948 253.466 388.716 251.898ZM402.002 254.012V254.964H406.44V254.012H402.002ZM402.478 251.24C402.058 253.606 401.358 255.986 400.378 257.526C400.588 257.666 400.966 258.002 401.12 258.17C402.114 256.49 402.898 253.956 403.374 251.422L402.478 251.24ZM404.466 254.586C404.018 259.038 402.828 261.824 399.622 263.35C399.79 263.532 400.07 263.938 400.168 264.148C403.542 262.384 404.858 259.472 405.404 254.67L404.466 254.586ZM402.408 254.992L401.638 255.104C402.226 259.192 403.36 262.51 405.866 264.064C406.02 263.798 406.328 263.434 406.552 263.252C404.116 261.922 402.94 258.73 402.408 254.992ZM396.892 251.24V258.59H397.732V251.24H396.892ZM395.394 252.892H399.328V255.272H395.394V252.892ZM394.568 252.15V256H400.196V252.15H394.568ZM395.142 257.288H399.552V258.226H395.142V257.288ZM394.246 256.616V258.898H400.476V256.616H394.246ZM393.602 253.606V254.418H394.918V254.376H399.594V254.418H400.994V253.606H399.594V253.648H394.918V253.606H393.602ZM394.568 261.81L395.478 261.978C396.066 261.166 396.878 259.85 397.368 258.716L396.486 258.52C396.038 259.612 395.226 260.942 394.568 261.81ZM394.568 261.81C396.234 262.244 398.264 263.098 399.356 263.756L400.042 263.126C398.908 262.496 396.892 261.656 395.268 261.222L394.568 261.81ZM398.6 259.234V259.696C398.6 260.816 398.208 262.482 393.504 263.406C393.672 263.588 393.882 263.91 393.966 264.106C398.95 263.084 399.468 261.166 399.468 259.724V259.234H398.6ZM393.616 259.794V260.564H400.882V259.794H393.616ZM410.262 255.3V256.28H416.982V255.3H410.262ZM407.952 258.814V259.808H420.006V258.814H407.952ZM413.44 257.932V262.818C413.44 263.014 413.356 263.07 413.104 263.084C412.852 263.098 411.956 263.098 411.004 263.07C411.186 263.35 411.396 263.812 411.466 264.106C412.642 264.106 413.384 264.106 413.874 263.938C414.378 263.77 414.546 263.462 414.546 262.832V257.932H413.44ZM416.66 255.3V255.51C415.974 256.308 414.63 257.358 413.44 257.932C413.608 258.072 413.888 258.366 414.028 258.548C415.414 257.904 416.898 256.812 417.906 255.79L417.192 255.244L416.94 255.3H416.66ZM408.12 252.71V255.594H409.156V253.718H418.788V255.594H419.866V252.71H408.12ZM412.922 251.478C413.328 252.01 413.706 252.752 413.86 253.242L414.938 252.864C414.77 252.374 414.364 251.66 413.944 251.142L412.922 251.478Z" fill="black"/>
<circle cx="253" cy="114" r="4" fill="#FFCF2D"/>
<path d="M269.968 109.402V121.092H270.99V109.402H269.968ZM267.602 112.188V113.182H273.062V112.188H267.602ZM270.024 112.566C269.52 114.302 268.4 116.486 267.392 117.606C267.574 117.844 267.826 118.278 267.924 118.572C269.002 117.27 270.122 114.82 270.682 112.846L270.024 112.566ZM272.208 108.436C271.144 108.912 269.31 109.318 267.728 109.57C267.84 109.808 267.98 110.158 268.036 110.396C269.632 110.172 271.564 109.794 272.852 109.29L272.208 108.436ZM270.934 113.364L270.444 113.798C270.864 114.344 271.956 116.01 272.292 116.682L272.95 115.856C272.642 115.436 271.298 113.742 270.934 113.364ZM277.668 108.24V121.106H278.704V108.24H277.668ZM272.894 117.354L273.048 118.348L280.51 117.13L280.342 116.15L272.894 117.354ZM274.028 109.836C274.854 110.396 275.834 111.236 276.282 111.824L277.01 111.138C276.534 110.55 275.54 109.752 274.7 109.22L274.028 109.836ZM273.468 113.476C274.378 114.05 275.442 114.932 275.96 115.548L276.66 114.848C276.142 114.246 275.036 113.406 274.126 112.86L273.468 113.476ZM281.742 117.494V118.376H294.272V117.494H281.742ZM284.346 115.03V115.828H290.968V115.03H284.346ZM287.608 116.878V119.972C287.608 120.168 287.552 120.21 287.328 120.224C287.104 120.224 286.306 120.224 285.452 120.196C285.592 120.462 285.746 120.826 285.802 121.092C286.922 121.092 287.636 121.092 288.07 120.952C288.518 120.798 288.644 120.546 288.644 120V116.878H287.608ZM290.702 115.03V115.212C290.044 115.786 288.728 116.486 287.608 116.878C287.762 117.004 288.014 117.27 288.126 117.438C289.386 116.99 290.814 116.262 291.808 115.506L291.178 114.974L290.954 115.03H290.702ZM282.036 113.266V115.828H283.044V114.078H292.956V115.828H293.992V113.266H282.036ZM292.214 108.772C292.144 110.34 292.004 112.44 291.836 113.714H292.844C292.984 112.468 293.124 110.382 293.208 108.772H292.214ZM289.946 108.772V109.5H292.634V108.772H289.946ZM285.606 108.366C284.906 108.576 283.702 108.926 282.89 109.052L283.282 109.668C284.108 109.542 285.27 109.332 286.082 109.01L285.606 108.366ZM283.45 110.27V110.984H285.998V110.27H283.45ZM283.52 111.754V112.482H286.068V111.754H283.52ZM290.016 110.27V110.984H292.522V110.27H290.016ZM289.932 111.754V112.482H292.41V111.754H289.932ZM288.672 108.38C288.112 109.108 287.146 109.794 286.18 110.256C286.362 110.368 286.656 110.634 286.782 110.774C287.734 110.256 288.77 109.444 289.414 108.576L288.672 108.38ZM286.446 109.01C287.384 109.444 288.504 110.13 289.05 110.648L289.596 110.13C289.022 109.626 287.888 108.954 286.964 108.548L286.446 109.01ZM288.7 110.732C288.126 111.516 287.09 112.23 286.096 112.692C286.264 112.818 286.558 113.112 286.67 113.252C287.678 112.72 288.77 111.866 289.442 110.956L288.7 110.732ZM286.404 111.362C287.37 111.838 288.532 112.594 289.078 113.154L289.638 112.622C289.064 112.076 287.888 111.348 286.936 110.9L286.404 111.362ZM282.89 109.052L283.184 113.672H284.178L283.898 109.332L282.89 109.052ZM296.512 112.482V113.322H301.09V112.482H296.512ZM296.512 114.316V115.156H301.062V114.316H296.512ZM295.882 110.62V111.502H301.678V110.62H295.882ZM297.058 116.192V117.074H300.152V119.398H297.058V120.28H301.076V116.192H297.058ZM296.61 116.192V120.938H297.52V116.192H296.61ZM297.548 108.604C297.926 109.178 298.388 109.976 298.598 110.494L299.438 109.99C299.214 109.5 298.766 108.758 298.374 108.184L297.548 108.604ZM301.664 113.098V114.134H308.37V113.098H301.664ZM304.408 108.506V121.12H305.486V108.506H304.408ZM309.784 117.886V118.754H322.272V117.886H309.784ZM312.528 113.616H319.696V114.428H312.528V113.616ZM312.528 115.114H319.696V115.954H312.528V115.114ZM312.528 112.132H319.696V112.944H312.528V112.132ZM311.464 111.418V116.654H320.788V111.418H311.464ZM317.988 116.472V121.106H319.052V116.472H317.988ZM311.478 109.234V110.06H316.126V109.234H311.478ZM317.274 109.22V110.032H322.37V109.22H317.274ZM311.744 108.184C311.254 109.332 310.4 110.438 309.546 111.18C309.742 111.376 310.078 111.824 310.204 112.034C311.142 111.152 312.122 109.808 312.696 108.478L311.744 108.184ZM317.638 108.17C317.26 109.234 316.532 110.256 315.678 110.942C315.944 111.054 316.392 111.306 316.602 111.46C317.4 110.732 318.198 109.612 318.646 108.408L317.638 108.17ZM312.976 110.382C313.214 110.704 313.452 111.152 313.564 111.432L314.474 111.11C314.362 110.83 314.082 110.396 313.858 110.088L312.976 110.382ZM319.122 110.34C319.472 110.69 319.822 111.152 319.99 111.46L320.83 111.068C320.662 110.76 320.27 110.298 319.934 109.976L319.122 110.34ZM313.354 116.458V117.592C313.354 118.446 313.032 119.664 310.33 120.42C310.568 120.63 310.848 120.966 310.988 121.204C313.928 120.224 314.418 118.81 314.418 117.606V116.458H313.354Z" fill="black"/>
<circle cx="247" cy="233" r="4" fill="#FFCF2D"/>
<path d="M261.942 227.94V228.556H268.116V227.94H261.942ZM262.404 229.172V229.788H267.724V229.172H262.404ZM263.048 230.278V230.894H266.828V231.902H262.978V232.504H267.682V230.278H263.048ZM262.586 230.278V231.062C262.586 231.734 262.46 232.63 261.76 233.372C261.956 233.456 262.334 233.708 262.488 233.848C263.258 233.05 263.426 231.902 263.426 231.076V230.278H262.586ZM264.574 227.24V229.48H265.526V227.24H264.574ZM264.658 230.516V232.14H265.456V230.516H264.658ZM268.466 230.152V230.81H272.918V230.152H268.466ZM269.642 227.646V228.388H272.274V227.646H269.642ZM272.638 230.152V230.278C271.952 231.804 269.936 232.574 267.85 232.84C268.018 233.022 268.2 233.372 268.284 233.596C270.608 233.19 272.722 232.308 273.562 230.348L273.002 230.124L272.834 230.152H272.638ZM269.614 230.558L268.858 230.782C269.74 232.266 271.518 233.204 273.772 233.568C273.884 233.33 274.108 233.008 274.304 232.826C272.148 232.574 270.384 231.79 269.614 230.558ZM269.166 227.646V228.346C269.166 228.822 268.984 229.298 267.948 229.69C268.116 229.816 268.424 230.152 268.536 230.348C269.726 229.816 270.006 229.06 270.006 228.36V227.646H269.166ZM262.376 233.694V234.492H273.982V233.694H262.376ZM264.714 235.206V235.92H271.714V235.206H264.714ZM264.742 236.718V237.404H271.742V236.718H264.742ZM264.028 234.016V238.608H265.05V234.016H264.028ZM271.196 233.974V240.162H272.232V233.974H271.196ZM271.812 227.646V228.962C271.812 229.69 271.952 230.012 272.694 230.012C272.876 230.012 273.478 230.012 273.66 230.012C273.912 230.012 274.192 229.998 274.332 229.942C274.318 229.732 274.29 229.494 274.276 229.27C274.108 229.312 273.8 229.34 273.646 229.34C273.492 229.34 273.03 229.34 272.904 229.34C272.722 229.34 272.694 229.242 272.694 228.976V227.646H271.812ZM261.914 238.146V238.93H274.276V238.146H261.914ZM280.604 234.828V235.78H287.898V234.828H280.604ZM279.722 238.762V239.728H288.57V238.762H279.722ZM280.142 228.864V231.272H281.066V229.774H287.478V231.146H288.444V228.864H280.142ZM283.642 235.304V239.266H284.678V235.304H283.642ZM275.578 235.01L275.802 236.06C277.02 235.682 278.616 235.192 280.142 234.716L279.974 233.764C278.35 234.24 276.698 234.73 275.578 235.01ZM275.732 230.11V231.09H279.862V230.11H275.732ZM277.468 227.254V238.902C277.468 239.112 277.384 239.154 277.216 239.154C277.048 239.168 276.516 239.168 275.9 239.154C276.04 239.448 276.166 239.882 276.208 240.134C277.09 240.134 277.636 240.106 277.958 239.938C278.308 239.77 278.448 239.49 278.448 238.902V227.254H277.468ZM283.054 227.478C283.39 228.108 283.782 228.948 283.95 229.466L284.944 229.116C284.762 228.598 284.356 227.8 284.02 227.184L283.054 227.478ZM282.816 229.606C282.732 231.58 282.326 232.574 280.254 233.092C280.45 233.274 280.702 233.624 280.786 233.848C283.152 233.19 283.67 231.93 283.796 229.606H282.816ZM284.93 229.536V232.112C284.93 233.12 285.154 233.47 286.148 233.47C286.344 233.47 287.366 233.47 287.632 233.47C287.954 233.47 288.29 233.456 288.472 233.4C288.444 233.176 288.416 232.798 288.388 232.546C288.192 232.588 287.842 232.616 287.604 232.616C287.366 232.616 286.4 232.616 286.176 232.616C285.938 232.616 285.882 232.49 285.882 232.126V229.536H284.93ZM296.503 239.196C298.659 239.196 299.989 237.908 299.989 236.284C299.989 234.758 299.079 234.044 297.875 233.526L296.419 232.896C295.621 232.56 294.725 232.196 294.725 231.188C294.725 230.278 295.481 229.69 296.643 229.69C297.581 229.69 298.337 230.068 298.967 230.656L299.653 229.83C298.939 229.074 297.861 228.556 296.643 228.556C294.767 228.556 293.409 229.704 293.409 231.286C293.409 232.784 294.529 233.512 295.495 233.918L296.965 234.562C297.931 234.982 298.673 235.318 298.673 236.382C298.673 237.376 297.875 238.048 296.531 238.048C295.467 238.048 294.431 237.558 293.689 236.774L292.919 237.67C293.815 238.608 295.061 239.196 296.503 239.196ZM301.889 239H303.163V231.398H301.889V239ZM302.533 229.83C303.023 229.83 303.387 229.508 303.387 228.976C303.387 228.486 303.023 228.164 302.533 228.164C302.029 228.164 301.679 228.486 301.679 228.976C301.679 229.508 302.029 229.83 302.533 229.83ZM305.744 239H307.018V234.128C307.522 232.826 308.306 232.364 308.936 232.364C309.244 232.364 309.412 232.406 309.678 232.49L309.916 231.37C309.664 231.258 309.44 231.216 309.104 231.216C308.25 231.216 307.466 231.818 306.948 232.784H306.906L306.78 231.398H305.744V239ZM311.172 239H312.446V231.398H311.172V239ZM311.816 229.83C312.306 229.83 312.67 229.508 312.67 228.976C312.67 228.486 312.306 228.164 311.816 228.164C311.312 228.164 310.962 228.486 310.962 228.976C310.962 229.508 311.312 229.83 311.816 229.83ZM318.382 231.482V232.322H322.96V231.482H318.382ZM318.382 233.316V234.156H322.932V233.316H318.382ZM317.752 229.62V230.502H323.548V229.62H317.752ZM318.928 235.192V236.074H322.022V238.398H318.928V239.28H322.946V235.192H318.928ZM318.48 235.192V239.938H319.39V235.192H318.48ZM319.418 227.604C319.796 228.178 320.258 228.976 320.468 229.494L321.308 228.99C321.084 228.5 320.636 227.758 320.244 227.184L319.418 227.604ZM323.534 232.098V233.134H330.24V232.098H323.534ZM326.278 227.506V240.12H327.356V227.506H326.278ZM331.654 236.886V237.754H344.142V236.886H331.654ZM334.398 232.616H341.566V233.428H334.398V232.616ZM334.398 234.114H341.566V234.954H334.398V234.114ZM334.398 231.132H341.566V231.944H334.398V231.132ZM333.334 230.418V235.654H342.658V230.418H333.334ZM339.858 235.472V240.106H340.922V235.472H339.858ZM333.348 228.234V229.06H337.996V228.234H333.348ZM339.144 228.22V229.032H344.24V228.22H339.144ZM333.614 227.184C333.124 228.332 332.27 229.438 331.416 230.18C331.612 230.376 331.948 230.824 332.074 231.034C333.012 230.152 333.992 228.808 334.566 227.478L333.614 227.184ZM339.508 227.17C339.13 228.234 338.402 229.256 337.548 229.942C337.814 230.054 338.262 230.306 338.472 230.46C339.27 229.732 340.068 228.612 340.516 227.408L339.508 227.17ZM334.846 229.382C335.084 229.704 335.322 230.152 335.434 230.432L336.344 230.11C336.232 229.83 335.952 229.396 335.728 229.088L334.846 229.382ZM340.992 229.34C341.342 229.69 341.692 230.152 341.86 230.46L342.7 230.068C342.532 229.76 342.14 229.298 341.804 228.976L340.992 229.34ZM335.224 235.458V236.592C335.224 237.446 334.902 238.664 332.2 239.42C332.438 239.63 332.718 239.966 332.858 240.204C335.798 239.224 336.288 237.81 336.288 236.606V235.458H335.224Z" fill="black"/>
<circle cx="41" cy="262" r="4" fill="#FFCF2D"/>
<path d="M59.6736 268.196C61.8296 268.196 63.1596 266.908 63.1596 265.284C63.1596 263.758 62.2496 263.044 61.0456 262.526L59.5896 261.896C58.7916 261.56 57.8956 261.196 57.8956 260.188C57.8956 259.278 58.6516 258.69 59.8136 258.69C60.7516 258.69 61.5076 259.068 62.1376 259.656L62.8236 258.83C62.1096 258.074 61.0316 257.556 59.8136 257.556C57.9376 257.556 56.5796 258.704 56.5796 260.286C56.5796 261.784 57.6996 262.512 58.6656 262.918L60.1356 263.562C61.1016 263.982 61.8436 264.318 61.8436 265.382C61.8436 266.376 61.0456 267.048 59.7016 267.048C58.6376 267.048 57.6016 266.558 56.8596 265.774L56.0896 266.67C56.9856 267.608 58.2316 268.196 59.6736 268.196ZM65.0595 271.206H66.3335V268.644L66.3055 267.314C66.9915 267.874 67.7055 268.196 68.3915 268.196C70.1415 268.196 71.6955 266.684 71.6955 264.094C71.6955 261.742 70.6455 260.216 68.6715 260.216C67.7895 260.216 66.9495 260.706 66.2635 261.28H66.2215L66.0955 260.398H65.0595V271.206ZM68.1955 267.118C67.6915 267.118 67.0195 266.908 66.3335 266.334V262.33C67.0755 261.644 67.7195 261.28 68.3635 261.28C69.8055 261.28 70.3795 262.414 70.3795 264.108C70.3795 265.984 69.4415 267.118 68.1955 267.118ZM76.6951 268.196C78.5571 268.196 80.2091 266.726 80.2091 264.22C80.2091 261.672 78.5571 260.216 76.6951 260.216C74.8191 260.216 73.1671 261.672 73.1671 264.22C73.1671 266.726 74.8191 268.196 76.6951 268.196ZM76.6951 267.132C75.3651 267.132 74.4831 265.956 74.4831 264.22C74.4831 262.456 75.3651 261.28 76.6951 261.28C78.0111 261.28 78.8931 262.456 78.8931 264.22C78.8931 265.956 78.0111 267.132 76.6951 267.132ZM84.3106 268.196C84.7866 268.196 85.2906 268.056 85.7106 267.902L85.4586 266.95C85.2206 267.048 84.8706 267.16 84.6046 267.16C83.7226 267.16 83.4286 266.614 83.4286 265.69V261.434H85.4866V260.398H83.4286V258.256H82.3506L82.2106 260.398L81.0206 260.482V261.434H82.1546V265.662C82.1546 267.174 82.6866 268.196 84.3106 268.196ZM88.5519 268.196C88.9019 268.196 89.0979 268.14 89.2799 268.084L89.1119 267.104C88.9579 267.132 88.9019 267.132 88.8459 267.132C88.6499 267.132 88.4819 266.978 88.4819 266.572V256.87H87.2079V266.488C87.2079 267.58 87.5859 268.196 88.5519 268.196ZM91.1864 268H92.4604V260.398H91.1864V268ZM91.8304 258.83C92.3204 258.83 92.6844 258.508 92.6844 257.976C92.6844 257.486 92.3204 257.164 91.8304 257.164C91.3264 257.164 90.9764 257.486 90.9764 257.976C90.9764 258.508 91.3264 258.83 91.8304 258.83ZM97.6039 271.5C99.9419 271.5 101.44 270.296 101.44 268.882C101.44 267.622 100.558 267.076 98.7939 267.076H97.3099C96.2879 267.076 95.9659 266.726 95.9659 266.236C95.9659 265.83 96.1899 265.564 96.4559 265.34C96.8059 265.508 97.2259 265.592 97.5899 265.592C99.1439 265.592 100.376 264.584 100.376 262.96C100.376 262.302 100.124 261.742 99.7599 261.392H101.314V260.398H98.6679C98.4019 260.3 98.0239 260.216 97.5899 260.216C96.0499 260.216 94.7339 261.252 94.7339 262.932C94.7339 263.842 95.2379 264.57 95.7419 264.976V265.032C95.3359 265.312 94.8879 265.802 94.8879 266.432C94.8879 267.034 95.1819 267.44 95.5739 267.692V267.748C94.8739 268.196 94.4539 268.826 94.4539 269.47C94.4539 270.772 95.7419 271.5 97.6039 271.5ZM97.5899 264.738C96.7079 264.738 95.9659 264.024 95.9659 262.932C95.9659 261.798 96.6939 261.14 97.5899 261.14C98.4859 261.14 99.2139 261.812 99.2139 262.932C99.2139 264.024 98.4719 264.738 97.5899 264.738ZM97.7719 270.632C96.3999 270.632 95.5739 270.114 95.5739 269.288C95.5739 268.854 95.7979 268.392 96.3439 268C96.6939 268.098 97.0439 268.126 97.3379 268.126H98.6539C99.6479 268.126 100.194 268.364 100.194 269.078C100.194 269.862 99.2419 270.632 97.7719 270.632ZM102.944 268H104.218V262.484C104.974 261.728 105.52 261.322 106.29 261.322C107.298 261.322 107.732 261.924 107.732 263.352V268H109.02V263.184C109.02 261.252 108.292 260.216 106.696 260.216C105.646 260.216 104.876 260.79 104.176 261.476L104.218 259.908V256.87H102.944V268ZM113.828 268.196C114.304 268.196 114.808 268.056 115.228 267.902L114.976 266.95C114.738 267.048 114.388 267.16 114.122 267.16C113.24 267.16 112.946 266.614 112.946 265.69V261.434H115.004V260.398H112.946V258.256H111.868L111.728 260.398L110.538 260.482V261.434H111.672V265.662C111.672 267.174 112.204 268.196 113.828 268.196ZM120.08 260.482V261.322H124.658V260.482H120.08ZM120.08 262.316V263.156H124.63V262.316H120.08ZM119.45 258.62V259.502H125.246V258.62H119.45ZM120.626 264.192V265.074H123.72V267.398H120.626V268.28H124.644V264.192H120.626ZM120.178 264.192V268.938H121.088V264.192H120.178ZM121.116 256.604C121.494 257.178 121.956 257.976 122.166 258.494L123.006 257.99C122.782 257.5 122.334 256.758 121.942 256.184L121.116 256.604ZM125.232 261.098V262.134H131.938V261.098H125.232ZM127.976 256.506V269.12H129.054V256.506H127.976ZM133.352 265.886V266.754H145.84V265.886H133.352ZM136.096 261.616H143.264V262.428H136.096V261.616ZM136.096 263.114H143.264V263.954H136.096V263.114ZM136.096 260.132H143.264V260.944H136.096V260.132ZM135.032 259.418V264.654H144.356V259.418H135.032ZM141.556 264.472V269.106H142.62V264.472H141.556ZM135.046 257.234V258.06H139.694V257.234H135.046ZM140.842 257.22V258.032H145.938V257.22H140.842ZM135.312 256.184C134.822 257.332 133.968 258.438 133.114 259.18C133.31 259.376 133.646 259.824 133.772 260.034C134.71 259.152 135.69 257.808 136.264 256.478L135.312 256.184ZM141.206 256.17C140.828 257.234 140.1 258.256 139.246 258.942C139.512 259.054 139.96 259.306 140.17 259.46C140.968 258.732 141.766 257.612 142.214 256.408L141.206 256.17ZM136.544 258.382C136.782 258.704 137.02 259.152 137.132 259.432L138.042 259.11C137.93 258.83 137.65 258.396 137.426 258.088L136.544 258.382ZM142.69 258.34C143.04 258.69 143.39 259.152 143.558 259.46L144.398 259.068C144.23 258.76 143.838 258.298 143.502 257.976L142.69 258.34ZM136.922 264.458V265.592C136.922 266.446 136.6 267.664 133.898 268.42C134.136 268.63 134.416 268.966 134.556 269.204C137.496 268.224 137.986 266.81 137.986 265.606V264.458H136.922ZM154.268 256.912V257.822H159.812V256.912H154.268ZM155.514 262.106H158.664V263.45H155.514V262.106ZM155.514 264.248H158.664V265.62H155.514V264.248ZM155.514 259.964H158.664V261.294H155.514V259.964ZM154.66 259.138V266.446H159.546V259.138H154.66ZM156.494 257.332C156.466 257.99 156.34 258.942 156.214 259.572L157.04 259.74C157.208 259.152 157.376 258.27 157.572 257.486L156.494 257.332ZM155.864 266.796C155.388 267.384 154.436 268.098 153.582 268.504C153.792 268.686 154.114 268.966 154.254 269.162C155.094 268.728 156.102 267.986 156.732 267.3L155.864 266.796ZM157.572 267.314C158.216 267.86 159 268.644 159.378 269.148L160.148 268.616C159.756 268.098 158.958 267.342 158.314 266.838L157.572 267.314ZM148.71 259.292H152.77V260.314H148.71V259.292ZM148.71 257.612H152.77V258.606H148.71V257.612ZM147.786 256.898V261.028H153.708V256.898H147.786ZM149.452 264.192C149.718 264.78 149.97 265.564 150.068 266.096L150.698 265.872C150.6 265.368 150.348 264.584 150.04 263.996L149.452 264.192ZM149.396 266.6C149.536 267.328 149.648 268.28 149.662 268.91L150.488 268.77C150.46 268.154 150.334 267.216 150.166 266.488L149.396 266.6ZM150.852 266.488C151.118 267.16 151.37 268.028 151.468 268.588L152.238 268.364C152.14 267.804 151.874 266.95 151.594 266.306L150.852 266.488ZM152.434 266.222C152.798 266.796 153.19 267.58 153.372 268.098L154.1 267.776C153.932 267.272 153.512 266.516 153.134 265.942L152.434 266.222ZM148.08 266.32C147.87 267.09 147.492 268.098 147.044 268.7L147.842 269.12C148.29 268.462 148.64 267.44 148.864 266.642L148.08 266.32ZM153.092 264.15C153.428 264.78 153.778 265.606 153.932 266.166L154.618 265.858C154.45 265.326 154.086 264.5 153.722 263.898L153.092 264.15ZM147.464 265.984C147.464 265.788 148.024 265.522 148.024 265.522V265.508C148.878 264.724 149.788 263.562 150.558 262.344L149.732 262.036C149.144 263.184 148.206 264.346 147.912 264.64C147.632 264.934 147.408 265.144 147.184 265.172C147.282 265.382 147.422 265.802 147.464 265.984ZM147.464 265.984C147.674 265.872 148.052 265.816 150.334 265.564C150.278 265.396 150.208 265.102 150.18 264.892L147.87 265.102L147.45 265.354L147.464 265.984ZM147.506 263.786C147.506 263.604 148.024 263.338 148.024 263.338V263.31C148.444 262.834 148.948 262.022 149.284 261.21L148.472 260.972C148.248 261.714 147.772 262.47 147.646 262.652C147.506 262.848 147.38 262.974 147.226 263.002C147.324 263.212 147.45 263.604 147.506 263.786ZM147.506 263.786C147.674 263.702 147.996 263.632 149.55 263.506C149.606 263.338 149.704 263.016 149.774 262.806L147.912 262.932L147.492 263.17L147.506 263.786ZM150.936 265.9C150.936 265.704 151.51 265.452 151.51 265.452V265.438C152.378 264.654 153.302 263.506 154.086 262.302L153.26 261.98C152.644 263.114 151.692 264.262 151.398 264.556C151.104 264.85 150.894 265.046 150.67 265.088C150.754 265.298 150.894 265.718 150.936 265.9ZM150.936 265.9C151.16 265.802 151.538 265.732 154.03 265.466C153.974 265.298 153.904 264.99 153.89 264.766L151.356 265.004L150.922 265.27L150.936 265.9ZM150.95 263.744C150.95 263.548 151.482 263.282 151.482 263.282V263.268C151.916 262.806 152.434 262.036 152.812 261.252L151.972 261C151.72 261.714 151.244 262.442 151.09 262.61C150.964 262.792 150.824 262.918 150.67 262.946C150.768 263.156 150.908 263.562 150.95 263.744ZM150.95 263.744C151.132 263.66 151.454 263.59 153.05 263.45C153.092 263.282 153.162 262.96 153.246 262.736L151.356 262.876L150.936 263.114L150.95 263.744ZM163.746 263.156C163.172 264.738 162.164 266.292 161.058 267.286C161.338 267.426 161.814 267.748 162.038 267.93C163.116 266.852 164.18 265.172 164.852 263.45L163.746 263.156ZM170.396 263.534C171.418 264.878 172.482 266.698 172.86 267.86L173.924 267.384C173.504 266.194 172.398 264.43 171.362 263.114L170.396 263.534ZM162.668 257.248V258.284H172.524V257.248H162.668ZM161.408 260.594V261.644H173.742V260.594H161.408ZM166.952 260.986V269.064H168.058V260.986H166.952ZM175.352 265.886V266.754H187.84V265.886H175.352ZM178.096 261.616H185.264V262.428H178.096V261.616ZM178.096 263.114H185.264V263.954H178.096V263.114ZM178.096 260.132H185.264V260.944H178.096V260.132ZM177.032 259.418V264.654H186.356V259.418H177.032ZM183.556 264.472V269.106H184.62V264.472H183.556ZM177.046 257.234V258.06H181.694V257.234H177.046ZM182.842 257.22V258.032H187.938V257.22H182.842ZM177.312 256.184C176.822 257.332 175.968 258.438 175.114 259.18C175.31 259.376 175.646 259.824 175.772 260.034C176.71 259.152 177.69 257.808 178.264 256.478L177.312 256.184ZM183.206 256.17C182.828 257.234 182.1 258.256 181.246 258.942C181.512 259.054 181.96 259.306 182.17 259.46C182.968 258.732 183.766 257.612 184.214 256.408L183.206 256.17ZM178.544 258.382C178.782 258.704 179.02 259.152 179.132 259.432L180.042 259.11C179.93 258.83 179.65 258.396 179.426 258.088L178.544 258.382ZM184.69 258.34C185.04 258.69 185.39 259.152 185.558 259.46L186.398 259.068C186.23 258.76 185.838 258.298 185.502 257.976L184.69 258.34ZM178.922 264.458V265.592C178.922 266.446 178.6 267.664 175.898 268.42C176.136 268.63 176.416 268.966 176.556 269.204C179.496 268.224 179.986 266.81 179.986 265.606V264.458H178.922ZM198.494 256.94C199.222 257.444 200.076 258.2 200.496 258.704L201.238 258.046C200.804 257.556 199.922 256.828 199.194 256.338L198.494 256.94ZM189.338 258.858V259.88H201.812V258.858H189.338ZM189.814 261.98V263.002H196.002V261.98H189.814ZM192.334 262.526V267.524H193.384V262.526H192.334ZM189.394 267.664L189.716 268.714C191.522 268.308 194.084 267.72 196.478 267.16L196.394 266.222C193.804 266.782 191.06 267.342 189.394 267.664ZM196.464 256.31C196.52 263.086 197.654 269.148 200.44 269.148C201.518 269.148 201.924 268.434 202.106 265.984C201.812 265.886 201.406 265.648 201.168 265.41C201.084 267.286 200.916 268.056 200.524 268.056C198.802 268.056 197.542 262.806 197.584 256.31H196.464Z" fill="black"/>
<circle cx="27" cy="293" r="4" fill="#FFCF2D"/>
<path d="M45.6736 299.196C47.8296 299.196 49.1596 297.908 49.1596 296.284C49.1596 294.758 48.2496 294.044 47.0456 293.526L45.5896 292.896C44.7916 292.56 43.8956 292.196 43.8956 291.188C43.8956 290.278 44.6516 289.69 45.8136 289.69C46.7516 289.69 47.5076 290.068 48.1376 290.656L48.8236 289.83C48.1096 289.074 47.0316 288.556 45.8136 288.556C43.9376 288.556 42.5796 289.704 42.5796 291.286C42.5796 292.784 43.6996 293.512 44.6656 293.918L46.1356 294.562C47.1016 294.982 47.8436 295.318 47.8436 296.382C47.8436 297.376 47.0456 298.048 45.7016 298.048C44.6376 298.048 43.6016 297.558 42.8596 296.774L42.0896 297.67C42.9856 298.608 44.2316 299.196 45.6736 299.196ZM51.0595 302.206H52.3335V299.644L52.3055 298.314C52.9915 298.874 53.7055 299.196 54.3915 299.196C56.1415 299.196 57.6955 297.684 57.6955 295.094C57.6955 292.742 56.6455 291.216 54.6715 291.216C53.7895 291.216 52.9495 291.706 52.2635 292.28H52.2215L52.0955 291.398H51.0595V302.206ZM54.1955 298.118C53.6915 298.118 53.0195 297.908 52.3335 297.334V293.33C53.0755 292.644 53.7195 292.28 54.3635 292.28C55.8055 292.28 56.3795 293.414 56.3795 295.108C56.3795 296.984 55.4415 298.118 54.1955 298.118ZM62.6951 299.196C64.5571 299.196 66.2091 297.726 66.2091 295.22C66.2091 292.672 64.5571 291.216 62.6951 291.216C60.8191 291.216 59.1671 292.672 59.1671 295.22C59.1671 297.726 60.8191 299.196 62.6951 299.196ZM62.6951 298.132C61.3651 298.132 60.4831 296.956 60.4831 295.22C60.4831 293.456 61.3651 292.28 62.6951 292.28C64.0111 292.28 64.8931 293.456 64.8931 295.22C64.8931 296.956 64.0111 298.132 62.6951 298.132ZM70.3106 299.196C70.7866 299.196 71.2906 299.056 71.7106 298.902L71.4586 297.95C71.2206 298.048 70.8706 298.16 70.6046 298.16C69.7226 298.16 69.4286 297.614 69.4286 296.69V292.434H71.4866V291.398H69.4286V289.256H68.3506L68.2106 291.398L67.0206 291.482V292.434H68.1546V296.662C68.1546 298.174 68.6866 299.196 70.3106 299.196ZM74.5519 299.196C74.9019 299.196 75.0979 299.14 75.2799 299.084L75.1119 298.104C74.9579 298.132 74.9019 298.132 74.8459 298.132C74.6499 298.132 74.4819 297.978 74.4819 297.572V287.87H73.2079V297.488C73.2079 298.58 73.5859 299.196 74.5519 299.196ZM77.1864 299H78.4604V291.398H77.1864V299ZM77.8304 289.83C78.3204 289.83 78.6844 289.508 78.6844 288.976C78.6844 288.486 78.3204 288.164 77.8304 288.164C77.3264 288.164 76.9764 288.486 76.9764 288.976C76.9764 289.508 77.3264 289.83 77.8304 289.83ZM83.6039 302.5C85.9419 302.5 87.4399 301.296 87.4399 299.882C87.4399 298.622 86.5579 298.076 84.7939 298.076H83.3099C82.2879 298.076 81.9659 297.726 81.9659 297.236C81.9659 296.83 82.1899 296.564 82.4559 296.34C82.8059 296.508 83.2259 296.592 83.5899 296.592C85.1439 296.592 86.3759 295.584 86.3759 293.96C86.3759 293.302 86.1239 292.742 85.7599 292.392H87.3139V291.398H84.6679C84.4019 291.3 84.0239 291.216 83.5899 291.216C82.0499 291.216 80.7339 292.252 80.7339 293.932C80.7339 294.842 81.2379 295.57 81.7419 295.976V296.032C81.3359 296.312 80.8879 296.802 80.8879 297.432C80.8879 298.034 81.1819 298.44 81.5739 298.692V298.748C80.8739 299.196 80.4539 299.826 80.4539 300.47C80.4539 301.772 81.7419 302.5 83.6039 302.5ZM83.5899 295.738C82.7079 295.738 81.9659 295.024 81.9659 293.932C81.9659 292.798 82.6939 292.14 83.5899 292.14C84.4859 292.14 85.2139 292.812 85.2139 293.932C85.2139 295.024 84.4719 295.738 83.5899 295.738ZM83.7719 301.632C82.3999 301.632 81.5739 301.114 81.5739 300.288C81.5739 299.854 81.7979 299.392 82.3439 299C82.6939 299.098 83.0439 299.126 83.3379 299.126H84.6539C85.6479 299.126 86.1939 299.364 86.1939 300.078C86.1939 300.862 85.2419 301.632 83.7719 301.632ZM88.9443 299H90.2183V293.484C90.9743 292.728 91.5203 292.322 92.2903 292.322C93.2983 292.322 93.7323 292.924 93.7323 294.352V299H95.0203V294.184C95.0203 292.252 94.2923 291.216 92.6963 291.216C91.6463 291.216 90.8763 291.79 90.1763 292.476L90.2183 290.908V287.87H88.9443V299ZM99.8282 299.196C100.304 299.196 100.808 299.056 101.228 298.902L100.976 297.95C100.738 298.048 100.388 298.16 100.122 298.16C99.2402 298.16 98.9462 297.614 98.9462 296.69V292.434H101.004V291.398H98.9462V289.256H97.8682L97.7282 291.398L96.5382 291.482V292.434H97.6722V296.662C97.6722 298.174 98.2042 299.196 99.8282 299.196ZM105.002 294.674L105.282 295.682C106.444 295.276 107.914 294.744 109.314 294.24L109.146 293.288C107.62 293.82 106.052 294.352 105.002 294.674ZM105.156 290.068V291.048H109.244V290.068H105.156ZM106.808 287.24V298.818C106.808 299 106.752 299.056 106.584 299.056C106.416 299.056 105.912 299.056 105.352 299.042C105.478 299.35 105.618 299.798 105.66 300.078C106.5 300.078 107.018 300.036 107.354 299.868C107.704 299.686 107.83 299.392 107.83 298.804V287.24H106.808ZM112.058 287.24C111.582 288.486 110.686 290.054 109.314 291.216C109.524 291.356 109.832 291.678 109.972 291.902C111.47 290.572 112.436 288.892 113.052 287.394L112.058 287.24ZM112.086 288.318L111.582 289.172H114.844V288.318H112.086ZM110.364 290.586V296.2H111.246V291.454H116.174V296.2H117.084V290.586H110.364ZM109.174 295.892V296.774H117.98V295.892H109.174ZM113.192 294.506C112.968 297.11 112.31 298.622 108.768 299.322C108.95 299.532 109.202 299.896 109.286 300.134C113.122 299.294 113.934 297.516 114.214 294.506H113.192ZM114.578 288.318V288.5C114.326 289.158 113.836 290.124 113.36 290.698C113.57 290.81 113.892 291.006 114.06 291.132C114.564 290.516 115.18 289.522 115.558 288.682L114.942 288.276L114.774 288.318H114.578ZM113.57 291.412C113.136 292.462 112.352 293.4 111.414 294.016C111.624 294.142 111.974 294.394 112.128 294.534C113.024 293.862 113.906 292.784 114.382 291.622L113.57 291.412ZM113.262 292.728C114.088 293.232 115.11 293.96 115.6 294.478L116.118 293.89C115.614 293.386 114.592 292.672 113.766 292.21L113.262 292.728ZM114.102 297.488C115.208 298.314 116.664 299.462 117.378 300.148L118.064 299.49C117.308 298.832 115.824 297.712 114.746 296.928L114.102 297.488ZM119.352 296.886V297.754H131.84V296.886H119.352ZM122.096 292.616H129.264V293.428H122.096V292.616ZM122.096 294.114H129.264V294.954H122.096V294.114ZM122.096 291.132H129.264V291.944H122.096V291.132ZM121.032 290.418V295.654H130.356V290.418H121.032ZM127.556 295.472V300.106H128.62V295.472H127.556ZM121.046 288.234V289.06H125.694V288.234H121.046ZM126.842 288.22V289.032H131.938V288.22H126.842ZM121.312 287.184C120.822 288.332 119.968 289.438 119.114 290.18C119.31 290.376 119.646 290.824 119.772 291.034C120.71 290.152 121.69 288.808 122.264 287.478L121.312 287.184ZM127.206 287.17C126.828 288.234 126.1 289.256 125.246 289.942C125.512 290.054 125.96 290.306 126.17 290.46C126.968 289.732 127.766 288.612 128.214 287.408L127.206 287.17ZM122.544 289.382C122.782 289.704 123.02 290.152 123.132 290.432L124.042 290.11C123.93 289.83 123.65 289.396 123.426 289.088L122.544 289.382ZM128.69 289.34C129.04 289.69 129.39 290.152 129.558 290.46L130.398 290.068C130.23 289.76 129.838 289.298 129.502 288.976L128.69 289.34ZM122.922 295.458V296.592C122.922 297.446 122.6 298.664 119.898 299.42C120.136 299.63 120.416 299.966 120.556 300.204C123.496 299.224 123.986 297.81 123.986 296.606V295.458H122.922ZM138.98 291.72V300.12H140.058V291.72H138.98ZM135.802 294.086H143.418V295.304H135.802V294.086ZM135.802 292.084H143.418V293.274H135.802V292.084ZM134.78 291.23V296.144H144.482V291.23H134.78ZM133.366 297.222V298.146H145.784V297.222H133.366ZM135.354 288.5H138.042V289.83H135.354V288.5ZM134.402 287.8V290.53H139.022V287.8H134.402ZM141.108 288.5H143.824V289.83H141.108V288.5ZM140.156 287.8V290.53H144.818V287.8H140.156ZM151.72 289.788V290.81H159.35V289.788H151.72ZM152.644 291.874C153.078 293.834 153.484 296.41 153.596 297.88L154.646 297.586C154.492 296.158 154.058 293.624 153.596 291.664L152.644 291.874ZM157.404 291.552C157.124 293.722 156.536 296.83 156.004 298.706L156.928 298.93C157.474 297.054 158.104 294.058 158.51 291.734L157.404 291.552ZM151.132 298.538V299.546H159.924V298.538H151.132ZM154.534 287.408C154.8 288.108 155.094 289.046 155.206 289.634L156.242 289.34C156.102 288.738 155.794 287.842 155.528 287.142L154.534 287.408ZM150.572 287.296C149.774 289.424 148.472 291.524 147.086 292.882C147.282 293.12 147.59 293.68 147.688 293.918C149.214 292.35 150.642 289.984 151.552 287.604L150.572 287.296ZM149.074 290.908V300.106H150.124V289.872V289.858L149.074 290.908Z" fill="black"/>
<circle cx="115" cy="235" r="4" fill="#FFCF2D"/>
<path d="M129.868 214.41V215.432H142.132V214.41H129.868ZM134.208 218.848V219.828H141.586V218.848H134.208ZM133.662 223.804V224.798H142.132V223.804H133.662ZM137.372 216.146V224.336H138.422V216.146H137.372ZM134.474 212.24C133.69 215.124 132.052 218.232 129.532 220.01C129.7 220.248 129.966 220.696 130.078 220.976C132.864 218.974 134.572 215.712 135.552 212.506L134.474 212.24ZM131.702 218.008V225.078H132.752V218.008H131.702ZM148.474 219.828V220.78H155.768V219.828H148.474ZM147.592 223.762V224.728H156.44V223.762H147.592ZM148.012 213.864V216.272H148.936V214.774H155.348V216.146H156.314V213.864H148.012ZM151.512 220.304V224.266H152.548V220.304H151.512ZM143.448 220.01L143.672 221.06C144.89 220.682 146.486 220.192 148.012 219.716L147.844 218.764C146.22 219.24 144.568 219.73 143.448 220.01ZM143.602 215.11V216.09H147.732V215.11H143.602ZM145.338 212.254V223.902C145.338 224.112 145.254 224.154 145.086 224.154C144.918 224.168 144.386 224.168 143.77 224.154C143.91 224.448 144.036 224.882 144.078 225.134C144.96 225.134 145.506 225.106 145.828 224.938C146.178 224.77 146.318 224.49 146.318 223.902V212.254H145.338ZM150.924 212.478C151.26 213.108 151.652 213.948 151.82 214.466L152.814 214.116C152.632 213.598 152.226 212.8 151.89 212.184L150.924 212.478ZM150.686 214.606C150.602 216.58 150.196 217.574 148.124 218.092C148.32 218.274 148.572 218.624 148.656 218.848C151.022 218.19 151.54 216.93 151.666 214.606H150.686ZM152.8 214.536V217.112C152.8 218.12 153.024 218.47 154.018 218.47C154.214 218.47 155.236 218.47 155.502 218.47C155.824 218.47 156.16 218.456 156.342 218.4C156.314 218.176 156.286 217.798 156.258 217.546C156.062 217.588 155.712 217.616 155.474 217.616C155.236 217.616 154.27 217.616 154.046 217.616C153.808 217.616 153.752 217.49 153.752 217.126V214.536H152.8ZM166.464 213.528V221.284H167.444V213.528H166.464ZM168.956 212.394V223.678C168.956 223.916 168.886 223.972 168.662 223.986C168.41 223.986 167.626 223.986 166.8 223.958C166.94 224.294 167.094 224.77 167.15 225.078C168.186 225.078 168.956 225.05 169.376 224.868C169.81 224.672 169.978 224.364 169.978 223.664V212.394H168.956ZM161.046 212.296V225.12H162.04V212.296H161.046ZM163.986 219.086V222.922C163.986 223.062 163.944 223.104 163.804 223.104C163.636 223.118 163.188 223.118 162.586 223.104C162.726 223.37 162.852 223.748 162.88 224.014C163.664 224.028 164.196 224.014 164.532 223.846C164.882 223.678 164.952 223.412 164.952 222.936V219.086H163.986ZM158.26 219.086V223.972H159.212V220.038H164.378V219.086H158.26ZM157.616 216.706V217.672H165.456V216.706H157.616ZM158.974 214.27L158.778 215.236H164.896V214.27H158.974ZM158.988 212.576C158.694 213.934 158.204 215.334 157.574 216.286C157.826 216.37 158.288 216.552 158.498 216.664C159.086 215.712 159.632 214.228 159.968 212.772L158.988 212.576ZM172.344 214.746V221.41H173.394V215.782H182.536V221.34H183.628V214.746H172.344ZM172.904 219.506V220.528H183.166V219.506H172.904ZM177.412 212.24V225.106H178.504V212.24H177.412ZM189.13 216.16V223.09C189.13 224.49 189.564 224.868 191.09 224.868C191.398 224.868 193.568 224.868 193.918 224.868C195.486 224.868 195.822 224.084 195.962 221.424C195.682 221.34 195.22 221.158 194.968 220.962C194.856 223.384 194.73 223.874 193.862 223.874C193.372 223.874 191.552 223.874 191.174 223.874C190.376 223.874 190.208 223.748 190.208 223.104V216.16H189.13ZM186.89 217.196C186.68 218.862 186.218 221.06 185.616 222.502L186.666 222.95C187.24 221.438 187.674 219.058 187.898 217.406L186.89 217.196ZM195.654 217.21C196.438 218.876 197.208 221.088 197.474 222.53L198.524 222.124C198.216 220.668 197.432 218.512 196.62 216.846L195.654 217.21ZM189.788 213.43C191.118 214.368 192.77 215.754 193.54 216.622L194.296 215.838C193.484 214.956 191.804 213.64 190.502 212.744L189.788 213.43ZM136.14 233.226C135.636 234.626 134.81 236.04 133.872 236.95C134.124 237.09 134.572 237.398 134.768 237.58C135.692 236.572 136.602 235.032 137.176 233.492L136.14 233.226ZM136.196 234.654L135.734 235.55H142.216V234.654H136.196ZM136.21 238.798H140.396V239.736H136.21V238.798ZM136.21 237.174H140.396V238.098H136.21V237.174ZM135.216 236.446V240.478H141.432V236.446H135.216ZM137.092 240.142C136.406 241.416 135.146 242.522 133.83 243.236C134.054 243.404 134.418 243.768 134.572 243.95C135.902 243.138 137.26 241.878 138.058 240.422L137.092 240.142ZM135.426 240.884L134.558 241.192C135.916 243.754 138.506 245.462 141.838 246.12C141.978 245.854 142.258 245.448 142.482 245.224C139.22 244.678 136.616 243.11 135.426 240.884ZM136.812 241.346L136.294 242.158H140.886V241.346H136.812ZM140.564 241.346V241.5C139.472 243.614 136.518 244.846 133.634 245.308C133.816 245.518 134.04 245.91 134.138 246.162C137.218 245.574 140.298 244.244 141.614 241.654L140.956 241.304L140.774 241.346H140.564ZM131.52 239.806V246.106H132.5V238.658L131.52 239.806ZM133.984 238.406C133.676 238.882 133.102 239.624 132.724 240.058L133.2 240.534C133.634 240.142 134.138 239.554 134.656 239.022L133.984 238.406ZM129.616 235.732V236.684H133.396V235.732H129.616ZM132.374 239.12L131.828 239.582C132.262 240.086 133.326 241.542 133.69 242.144L134.334 241.346C134.026 240.982 132.752 239.47 132.374 239.12ZM133.088 235.732V235.956C132.402 237.93 130.792 240.114 129.336 241.318C129.504 241.486 129.798 242.018 129.896 242.298C131.464 240.912 133.2 238.49 134.096 236.096L133.494 235.69L133.298 235.732H133.088ZM131.002 233.688C131.366 234.29 131.814 235.102 131.996 235.62L132.864 235.172C132.654 234.668 132.22 233.898 131.814 233.31L131.002 233.688ZM149.454 241.206C148.18 242.284 145.688 243.18 143.532 243.572C143.728 243.768 143.994 244.118 144.12 244.356C146.304 243.894 148.866 242.844 150.28 241.598L149.454 241.206ZM150.658 241.122L149.79 241.332C150.812 243.824 152.814 245.35 155.824 245.952C155.95 245.686 156.216 245.308 156.412 245.098C153.542 244.622 151.54 243.264 150.658 241.122ZM154.774 241.878C154.046 242.41 152.8 243.11 151.89 243.53L152.548 244.062C153.472 243.656 154.648 243.054 155.544 242.424L154.774 241.878ZM143.77 240.898V241.752H156.23V240.898H143.77ZM151.862 233.968V238.56H152.814V233.968H151.862ZM154.522 233.38V239.176C154.522 239.358 154.466 239.414 154.256 239.414C154.06 239.428 153.374 239.428 152.604 239.4C152.744 239.666 152.898 240.016 152.94 240.282C153.934 240.282 154.578 240.268 154.97 240.128C155.362 239.974 155.474 239.736 155.474 239.19V233.38H154.522ZM146.892 233.24V240.352H147.802V233.24H146.892ZM149.538 237.356V239.078C149.538 239.19 149.496 239.218 149.37 239.232C149.258 239.246 148.894 239.246 148.446 239.232C148.544 239.428 148.684 239.68 148.726 239.904C149.342 239.904 149.762 239.904 150.056 239.778C150.35 239.652 150.406 239.456 150.406 239.064V237.356H149.538ZM144.442 237.356V239.988H145.282V238.07H149.93V237.356H144.442ZM143.714 235.844V236.614H150.784V235.844H143.714ZM145.17 234.248L144.862 234.99H150.294V234.248H145.17ZM145.044 233.296C144.792 234.052 144.4 234.85 143.91 235.424C144.12 235.522 144.498 235.704 144.666 235.83C145.114 235.242 145.576 234.332 145.87 233.492L145.044 233.296ZM146.332 246.134C146.598 245.966 147.018 245.854 150.742 244.972C150.728 244.776 150.742 244.426 150.77 244.174L146.724 245.042L146.29 245.392L146.332 246.134ZM146.346 246.134C146.346 245.728 147.536 245.014 147.536 245.014V242.942L146.542 242.956V244.286C146.542 244.93 146.178 245.21 145.954 245.35C146.094 245.518 146.276 245.91 146.346 246.134ZM149.286 240.016C149.538 240.464 149.818 241.094 149.916 241.472L150.952 241.136C150.826 240.772 150.532 240.17 150.252 239.736L149.286 240.016ZM162.866 235.116V236.096H170.3V235.116H162.866ZM163.286 238.308V239.288H169.922V238.308H163.286ZM164.126 244.552V245.518H169.026V244.552H164.126ZM165.946 233.24V238.826H167.01V233.24H165.946ZM163.566 240.744V246.12H164.546V241.71H168.494V246.064H169.516V240.744H163.566ZM161.102 238.77C161.48 239.736 161.858 240.982 161.998 241.752L162.852 241.458C162.698 240.716 162.292 239.484 161.9 238.546L161.102 238.77ZM159.744 242.368C159.926 243.376 160.08 244.692 160.108 245.56L160.962 245.392C160.906 244.524 160.738 243.236 160.542 242.228L159.744 242.368ZM158.162 242.256C158.022 243.418 157.826 244.72 157.476 245.602C157.714 245.672 158.134 245.812 158.33 245.91C158.61 245.028 158.89 243.656 159.044 242.41L158.162 242.256ZM157.826 238.49C157.826 238.28 158.47 237.958 158.47 237.958V237.944C159.436 236.81 160.416 235.186 161.186 233.618L160.22 233.198C159.618 234.738 158.61 236.348 158.288 236.768C157.994 237.188 157.742 237.482 157.49 237.538C157.602 237.804 157.77 238.28 157.826 238.49ZM157.826 238.49C158.05 238.378 158.442 238.308 160.696 238.042C160.696 237.832 160.724 237.468 160.78 237.216L158.288 237.426L157.798 237.72L157.826 238.49ZM157.91 241.64C157.91 241.43 158.568 241.122 158.568 241.122V241.094C159.926 239.75 161.312 237.832 162.418 235.942L161.522 235.41C160.584 237.286 159.1 239.26 158.638 239.75C158.204 240.268 157.882 240.618 157.574 240.674C157.7 240.954 157.868 241.43 157.91 241.64ZM157.91 241.64C158.204 241.5 158.666 241.388 162.166 240.884C162.152 240.66 162.166 240.282 162.208 240.03L158.4 240.52L157.882 240.856L157.91 241.64ZM161.186 242.102C161.494 242.97 161.83 244.118 161.97 244.86L162.754 244.594C162.614 243.866 162.264 242.732 161.928 241.864L161.186 242.102ZM171.854 240.674V241.654H184.146V240.674H171.854ZM177.44 234.262V246.12H178.546V234.262H177.44ZM177.062 241.094C175.886 242.634 173.576 244.118 171.504 244.804C171.728 245.014 172.064 245.406 172.218 245.658C174.318 244.86 176.642 243.264 177.944 241.472L177.062 241.094ZM178.868 241.052L178.028 241.43C179.372 243.152 181.752 244.79 183.782 245.602C183.95 245.336 184.272 244.93 184.51 244.72C182.466 244.034 180.086 242.55 178.868 241.052ZM174.29 237.118H181.738V238.588H174.29V237.118ZM174.29 234.822H181.738V236.264H174.29V234.822ZM173.212 233.926V239.484H182.858V233.926H173.212Z" fill="black"/>
<circle cx="116" cy="124" r="4" fill="#FFCF2D"/>
<path d="M135.315 130.196C136.645 130.196 137.639 129.664 138.451 128.712L137.751 127.9C137.093 128.628 136.337 129.048 135.371 129.048C133.411 129.048 132.179 127.438 132.179 124.848C132.179 122.286 133.467 120.69 135.413 120.69C136.281 120.69 136.967 121.082 137.499 121.656L138.213 120.816C137.611 120.158 136.645 119.556 135.399 119.556C132.795 119.556 130.849 121.572 130.849 124.876C130.849 128.208 132.753 130.196 135.315 130.196ZM139.119 132.506H140.043L144.229 118.884H143.319L139.119 132.506ZM147.62 130H148.936L150.742 124.26C151.12 123.112 151.442 121.992 151.778 120.802H151.834C152.17 121.992 152.492 123.112 152.856 124.26L154.662 130H156.02L152.548 119.738H151.092L147.62 130ZM149.44 126.864H154.172V125.842H149.44V126.864ZM161.182 130.196C162.512 130.196 163.506 129.664 164.318 128.712L163.618 127.9C162.96 128.628 162.204 129.048 161.238 129.048C159.278 129.048 158.046 127.438 158.046 124.848C158.046 122.286 159.334 120.69 161.28 120.69C162.148 120.69 162.834 121.082 163.366 121.656L164.08 120.816C163.478 120.158 162.512 119.556 161.266 119.556C158.662 119.556 156.716 121.572 156.716 124.876C156.716 128.208 158.62 130.196 161.182 130.196ZM172.933 123.938V124.904H181.431V123.938H172.933ZM178.925 122.776C178.547 127.368 176.965 129.3 172.625 130.168C172.807 130.42 173.073 130.896 173.143 131.134C177.749 130.042 179.527 127.9 180.059 122.818L178.925 122.776ZM173.801 127.074C176.125 128.194 179.107 129.916 180.549 131.078L181.249 130.238C179.737 129.076 176.727 127.424 174.445 126.36L173.801 127.074ZM176.265 118.394C176.503 119.08 176.797 119.976 176.909 120.564L177.973 120.34C177.861 119.766 177.567 118.87 177.287 118.198L176.265 118.394ZM173.801 127.074L174.879 127.27C175.649 125.884 176.685 123.574 177.245 121.684L176.167 121.53C175.663 123.336 174.627 125.66 173.801 127.074ZM173.325 120.046V122.776H174.319V120.97H180.171V122.748H181.193V120.046H173.325ZM168.383 126.122L168.635 127.144C169.937 126.752 171.631 126.206 173.241 125.688L173.087 124.736C171.365 125.268 169.587 125.8 168.383 126.122ZM168.537 121.068V122.048H172.961V121.068H168.537ZM170.427 118.254V129.916C170.427 130.112 170.343 130.182 170.175 130.182C169.993 130.182 169.405 130.182 168.775 130.168C168.901 130.448 169.055 130.868 169.083 131.12C170.021 131.134 170.581 131.106 170.945 130.938C171.309 130.784 171.449 130.49 171.449 129.916V118.254H170.427ZM183.433 121.824V122.706H186.653V121.824H183.433ZM182.705 124.232V125.142H186.891V124.232H182.705ZM183.027 126.066C183.223 126.892 183.419 127.97 183.475 128.684L184.133 128.446C184.077 127.746 183.881 126.668 183.671 125.856L183.027 126.066ZM182.551 129.706L182.747 130.644C183.909 130.336 185.533 129.888 187.073 129.454L187.031 128.614C185.351 129.034 183.643 129.454 182.551 129.706ZM186.135 125.688C186.023 126.444 185.785 127.564 185.603 128.264L186.163 128.516C186.373 127.858 186.611 126.836 186.835 125.968L186.135 125.688ZM184.553 122.202V129.804L185.309 129.664V122.202H184.553ZM184.889 118.17C184.315 119.542 183.335 120.844 182.397 121.656C182.523 121.922 182.719 122.482 182.775 122.734C183.825 121.726 184.889 120.158 185.547 118.548L184.889 118.17ZM184.581 119.612C185.379 120.256 186.275 121.138 186.807 121.81L187.213 120.942C186.681 120.312 185.785 119.458 184.945 118.842L184.581 119.612ZM191.707 118.282V129.566H192.547V118.282H191.707ZM189.705 121.236V122.062H195.459V121.236H189.705ZM189.649 127.004V127.83H195.151V127.004H189.649ZM190.013 125.044V125.87H194.829V125.044H190.013ZM187.003 119.066V120.046H189.173V119.066H187.003ZM188.921 123.168V123.336C188.683 127.116 187.731 129.412 186.093 130.462C186.275 130.63 186.485 130.952 186.611 131.162C188.459 129.874 189.453 127.536 189.733 123.21L189.229 123.14L189.089 123.168H188.921ZM187.801 125.338L187.073 125.618C188.193 130.112 190.517 130.924 193.345 130.924H195.137C195.179 130.672 195.319 130.252 195.459 130.028C194.997 130.042 193.737 130.042 193.401 130.042C190.951 130.028 188.725 129.342 187.801 125.338ZM190.055 119.36V120.13H193.835V123.196H190.055V123.966H194.605V119.36H190.055ZM187.563 123.168L187.283 124.05H189.173V123.168H187.563ZM187.213 124.302C187.213 124.092 187.885 123.798 187.885 123.798V123.784C188.557 122.636 189.271 120.97 189.803 119.304L189.215 118.926L188.879 119.08V119.15C188.515 120.648 187.773 122.272 187.549 122.692C187.311 123.126 186.989 123.518 186.779 123.56C186.905 123.742 187.129 124.106 187.213 124.302Z" fill="black"/>
</g>
<defs>
<clipPath id="clip0_151_655">
<rect width="512" height="330" fill="white"/>
</clipPath>
</defs>
</svg>
