<svg width="512" height="342" viewBox="0 0 512 342" fill="none" xmlns="http://www.w3.org/2000/svg">
<rect width="512" height="342" fill="white"/>
<g opacity="0.2">
<path d="M86.3669 328.014C86.4922 328.528 86.6588 329.031 86.865 329.518C90.0702 328.259 93.3107 327.052 96.5866 325.898C96.5589 325.761 96.5312 325.618 96.4967 325.478C96.1666 324.027 95.4622 322.688 94.4536 321.595C93.1439 320.211 91.456 319.542 89.8142 319.951C88.1724 320.359 86.9803 321.756 86.4361 323.594C86.0292 325.036 86.0054 326.56 86.3669 328.014V328.014Z" fill="#3F3D56"/>
<path d="M90.9719 325.263C93.7858 324.634 95.3853 321.073 94.5444 317.308C93.7036 313.544 90.7409 311.001 87.927 311.63C85.1131 312.258 83.5136 315.819 84.3545 319.584C85.1953 323.349 88.158 325.891 90.9719 325.263Z" fill="#3F3D56"/>
<path d="M88.9983 316.958C91.8121 316.33 93.4116 312.768 92.5708 309.004C91.73 305.239 88.7673 302.696 85.9534 303.325C83.1395 303.953 81.54 307.515 82.3808 311.279C83.2217 315.044 86.1844 317.587 88.9983 316.958Z" fill="#3F3D56"/>
<path d="M87.0188 308.659C89.8327 308.031 91.4321 304.469 90.5913 300.705C89.7505 296.94 86.7878 294.398 83.9739 295.026C81.16 295.655 79.5605 299.216 80.4013 302.981C81.2422 306.745 84.2049 309.288 87.0188 308.659Z" fill="#3F3D56"/>
<path d="M85.0412 300.357C87.8551 299.728 89.4546 296.167 88.6138 292.402C87.773 288.637 84.8102 286.095 81.9964 286.723C79.1825 287.352 77.583 290.913 78.4238 294.678C79.2646 298.443 82.2273 300.985 85.0412 300.357Z" fill="#3F3D56"/>
<path d="M88.9479 231.978C89.4277 230.902 89.8329 229.794 90.1608 228.662L76.3255 229.751L90.7465 226.262C91.4356 222.636 91.3483 218.904 90.4906 215.314C89.7385 212.135 88.3903 209.128 86.5175 206.452L69.6385 221.544L84.2508 203.681C78.2855 197.312 69.2626 194.282 60.295 196.532C46.8956 199.883 38.6843 213.727 41.9541 227.454C43.2538 232.999 46.3697 237.95 50.8063 241.52C50.061 243.196 49.4944 244.946 49.1161 246.741L68.5824 251.615L48.655 249.888C48.4166 252.67 48.6252 255.473 49.2729 258.189C50.5749 263.733 53.6913 268.684 58.1275 272.255C55.7962 277.49 55.2579 283.348 56.5964 288.92C59.8661 302.647 73.3786 311.056 86.7781 307.708C100.178 304.36 108.389 290.515 105.119 276.789C103.817 271.244 100.701 266.294 96.2645 262.723C98.5958 257.488 99.1341 251.63 97.7956 246.058C96.4994 240.509 93.3851 235.553 88.9479 231.978Z" fill="#84B6C7"/>
<path opacity="0.1" d="M49.2781 258.18C50.58 263.724 53.6964 268.674 58.1326 272.246C55.8013 277.48 55.2631 283.338 56.6015 288.91C59.8713 302.637 73.3837 311.047 86.7832 307.699C100.183 304.35 108.394 290.506 105.124 276.779C103.822 271.235 100.706 266.284 96.2696 262.713C98.5155 257.672 48.614 255.397 49.2781 258.18Z" fill="black"/>
</g>
<g opacity="0.2">
<path d="M410.732 325.482C410.648 326.082 410.615 326.689 410.633 327.294C414.653 327.359 418.688 327.494 422.739 327.7C422.766 327.541 422.794 327.38 422.817 327.216C423.078 325.525 422.883 323.796 422.252 322.205C421.417 320.172 419.861 318.717 417.912 318.435C415.964 318.154 414.064 319.113 412.692 320.824C411.635 322.175 410.959 323.783 410.732 325.482Z" fill="#3F3D56"/>
<path d="M424.216 317.555C424.844 313.186 422.647 309.255 419.309 308.776C415.971 308.296 412.756 311.449 412.128 315.818C411.5 320.187 413.697 324.117 417.035 324.597C420.373 325.077 423.588 321.924 424.216 317.555Z" fill="#3F3D56"/>
<path d="M425.605 307.885C426.233 303.516 424.036 299.585 420.698 299.106C417.36 298.626 414.145 301.779 413.517 306.148C412.889 310.517 415.086 314.448 418.424 314.927C421.762 315.407 424.977 312.254 425.605 307.885Z" fill="#3F3D56"/>
<path d="M426.994 298.219C427.622 293.85 425.426 289.919 422.088 289.44C418.75 288.96 415.535 292.113 414.907 296.482C414.279 300.851 416.475 304.782 419.813 305.261C423.151 305.741 426.366 302.588 426.994 298.219Z" fill="#3F3D56"/>
<path d="M428.386 288.547C429.014 284.178 426.817 280.248 423.479 279.768C420.141 279.288 416.926 282.441 416.298 286.81C415.67 291.179 417.867 295.11 421.205 295.589C424.543 296.069 427.758 292.916 428.386 288.547Z" fill="#3F3D56"/>
<path d="M454.465 224.758C455.443 223.824 456.354 222.822 457.191 221.761L441.689 216.891L458.842 219.485C461.004 216.137 462.46 212.383 463.122 208.453C463.784 204.524 463.637 200.5 462.69 196.629L437.935 205.262L461.427 192.695C459.931 188.969 457.683 185.591 454.824 182.771C451.965 179.952 448.557 177.751 444.81 176.306C441.064 174.862 437.06 174.204 433.049 174.374C429.037 174.544 425.103 175.538 421.493 177.295C417.882 179.052 414.672 181.533 412.062 184.585C409.452 187.636 407.499 191.193 406.323 195.032C405.148 198.871 404.776 202.912 405.23 206.901C405.684 210.891 406.955 214.744 408.963 218.221C407.445 219.672 406.086 221.283 404.912 223.024L423.984 236.693L403.067 226.16C400.867 230.5 399.783 235.319 399.915 240.183C400.046 245.047 401.388 249.801 403.819 254.015C399.847 257.802 397.021 262.63 395.663 267.948C394.306 273.265 394.472 278.857 396.143 284.085C397.815 289.312 400.923 293.964 405.113 297.508C409.303 301.052 414.406 303.346 419.838 304.126C425.27 304.907 430.812 304.143 435.831 301.923C440.85 299.702 445.142 296.114 448.218 291.569C451.293 287.024 453.028 281.705 453.223 276.22C453.418 270.736 452.066 265.307 449.321 260.555C454.068 256.029 457.156 250.039 458.089 243.547C459.022 237.055 457.746 230.438 454.465 224.758V224.758Z" fill="#84B6C7"/>
<path opacity="0.1" d="M400.196 235.227C399.254 241.719 400.53 248.339 403.819 254.015C399.847 257.802 397.021 262.63 395.663 267.948C394.306 273.265 394.472 278.857 396.143 284.085C397.815 289.312 400.923 293.964 405.113 297.508C409.303 301.052 414.406 303.345 419.838 304.126C425.27 304.907 430.812 304.143 435.831 301.923C440.85 299.702 445.142 296.114 448.218 291.569C451.293 287.023 453.028 281.705 453.223 276.22C453.418 270.736 452.066 265.307 449.321 260.555C453.91 256.185 400.665 231.978 400.196 235.227Z" fill="black"/>
</g>
<path opacity="0.1" d="M255.838 341.523C397.133 341.523 511.675 338.323 511.675 334.375C511.675 330.427 397.133 327.227 255.838 327.227C114.542 327.227 0 330.427 0 334.375C0 338.323 114.542 341.523 255.838 341.523Z" fill="#84B6C7"/>
<path d="M468.486 331.496C471.708 331.496 474.32 330.993 474.32 330.373C474.32 329.753 471.708 329.25 468.486 329.25C465.264 329.25 462.652 329.753 462.652 330.373C462.652 330.993 465.264 331.496 468.486 331.496Z" fill="#F9A826"/>
<path d="M468.388 330.788C468.764 330.788 469.068 330.389 469.068 329.898C469.068 329.406 468.764 329.008 468.388 329.008C468.013 329.008 467.708 329.406 467.708 329.898C467.708 330.389 468.013 330.788 468.388 330.788Z" fill="#3F3D56"/>
<path d="M468.388 329.698C468.764 329.698 469.068 329.3 469.068 328.808C469.068 328.316 468.764 327.918 468.388 327.918C468.013 327.918 467.708 328.316 467.708 328.808C467.708 329.3 468.013 329.698 468.388 329.698Z" fill="#3F3D56"/>
<path d="M468.388 328.612C468.764 328.612 469.068 328.214 469.068 327.722C469.068 327.231 468.764 326.832 468.388 326.832C468.013 326.832 467.708 327.231 467.708 327.722C467.708 328.214 468.013 328.612 468.388 328.612Z" fill="#3F3D56"/>
<path d="M468.388 327.526C468.764 327.526 469.068 327.128 469.068 326.636C469.068 326.145 468.764 325.746 468.388 325.746C468.013 325.746 467.708 326.145 467.708 326.636C467.708 327.128 468.013 327.526 468.388 327.526Z" fill="#3F3D56"/>
<path d="M468.388 326.436C468.764 326.436 469.068 326.038 469.068 325.546C469.068 325.055 468.764 324.656 468.388 324.656C468.013 324.656 467.708 325.055 467.708 325.546C467.708 326.038 468.013 326.436 468.388 326.436Z" fill="#3F3D56"/>
<path d="M468.388 325.35C468.764 325.35 469.068 324.952 469.068 324.46C469.068 323.969 468.764 323.57 468.388 323.57C468.013 323.57 467.708 323.969 467.708 324.46C467.708 324.952 468.013 325.35 468.388 325.35Z" fill="#3F3D56"/>
<path d="M468.388 324.265C468.764 324.265 469.068 323.866 469.068 323.374C469.068 322.883 468.764 322.484 468.388 322.484C468.013 322.484 467.708 322.883 467.708 323.374C467.708 323.866 468.013 324.265 468.388 324.265Z" fill="#3F3D56"/>
<path d="M470.929 315.94C471.023 315.822 471.108 315.697 471.183 315.567L469.398 315.274L471.328 315.288C471.513 314.885 471.614 314.448 471.625 314.005C471.636 313.562 471.556 313.121 471.391 312.71L468.801 314.054L471.19 312.297C470.967 311.908 470.666 311.569 470.307 311.302C469.947 311.035 469.536 310.845 469.099 310.744C468.662 310.643 468.21 310.633 467.769 310.715C467.328 310.797 466.909 310.969 466.538 311.221C466.167 311.472 465.852 311.798 465.613 312.177C465.374 312.555 465.215 312.98 465.147 313.423C465.079 313.866 465.103 314.318 465.218 314.751C465.333 315.184 465.536 315.589 465.815 315.94C465.671 316.124 465.546 316.323 465.444 316.533L467.75 317.736L465.28 316.906C465.107 317.42 465.065 317.969 465.159 318.503C465.252 319.037 465.478 319.539 465.815 319.964C465.438 320.444 465.203 321.02 465.137 321.627C465.072 322.235 465.179 322.848 465.446 323.397C465.712 323.946 466.128 324.409 466.646 324.733C467.163 325.057 467.762 325.229 468.372 325.229C468.983 325.229 469.581 325.057 470.099 324.733C470.616 324.409 471.032 323.946 471.299 323.397C471.566 322.848 471.673 322.235 471.607 321.627C471.542 321.02 471.307 320.444 470.929 319.964C471.381 319.391 471.626 318.683 471.626 317.953C471.626 317.224 471.381 316.516 470.929 315.942V315.94Z" fill="#F9A826"/>
<path opacity="0.1" d="M465.118 317.95C465.116 318.679 465.359 319.388 465.81 319.961C465.432 320.441 465.197 321.017 465.132 321.624C465.067 322.231 465.173 322.845 465.44 323.394C465.707 323.943 466.123 324.406 466.64 324.73C467.158 325.054 467.756 325.226 468.367 325.226C468.977 325.226 469.576 325.054 470.093 324.73C470.611 324.406 471.027 323.943 471.294 323.394C471.56 322.845 471.667 322.231 471.602 321.624C471.536 321.017 471.302 320.441 470.924 319.961C471.365 319.407 465.118 317.586 465.118 317.95Z" fill="black"/>
<path d="M72.3349 340.525C76.6393 340.525 80.1288 339.854 80.1288 339.026C80.1288 338.198 76.6393 337.527 72.3349 337.527C68.0305 337.527 64.541 338.198 64.541 339.026C64.541 339.854 68.0305 340.525 72.3349 340.525Z" fill="#F9A826"/>
<path d="M72.2044 339.578C72.7062 339.578 73.1129 339.046 73.1129 338.391C73.1129 337.735 72.7062 337.203 72.2044 337.203C71.7027 337.203 71.2959 337.735 71.2959 338.391C71.2959 339.046 71.7027 339.578 72.2044 339.578Z" fill="#3F3D56"/>
<path d="M72.2044 338.125C72.7062 338.125 73.1129 337.593 73.1129 336.938C73.1129 336.282 72.7062 335.75 72.2044 335.75C71.7027 335.75 71.2959 336.282 71.2959 336.938C71.2959 337.593 71.7027 338.125 72.2044 338.125Z" fill="#3F3D56"/>
<path d="M72.2044 336.676C72.7062 336.676 73.1129 336.144 73.1129 335.488C73.1129 334.832 72.7062 334.301 72.2044 334.301C71.7027 334.301 71.2959 334.832 71.2959 335.488C71.2959 336.144 71.7027 336.676 72.2044 336.676Z" fill="#3F3D56"/>
<path d="M72.2044 335.223C72.7062 335.223 73.1129 334.691 73.1129 334.035C73.1129 333.379 72.7062 332.848 72.2044 332.848C71.7027 332.848 71.2959 333.379 71.2959 334.035C71.2959 334.691 71.7027 335.223 72.2044 335.223Z" fill="#3F3D56"/>
<path d="M72.2044 333.77C72.7062 333.77 73.1129 333.238 73.1129 332.582C73.1129 331.926 72.7062 331.395 72.2044 331.395C71.7027 331.395 71.2959 331.926 71.2959 332.582C71.2959 333.238 71.7027 333.77 72.2044 333.77Z" fill="#3F3D56"/>
<path d="M72.2044 332.316C72.7062 332.316 73.1129 331.785 73.1129 331.129C73.1129 330.473 72.7062 329.941 72.2044 329.941C71.7027 329.941 71.2959 330.473 71.2959 331.129C71.2959 331.785 71.7027 332.316 72.2044 332.316Z" fill="#3F3D56"/>
<path d="M72.2044 330.867C72.7062 330.867 73.1129 330.336 73.1129 329.68C73.1129 329.024 72.7062 328.492 72.2044 328.492C71.7027 328.492 71.2959 329.024 71.2959 329.68C71.2959 330.336 71.7027 330.867 72.2044 330.867Z" fill="#3F3D56"/>
<path d="M75.6032 319.743C75.7262 319.585 75.8386 319.418 75.9399 319.245L73.5579 318.853L76.1359 318.874C76.3839 318.336 76.5193 317.752 76.5336 317.16C76.5478 316.568 76.4407 315.978 76.2189 315.429L72.7601 317.223L75.9491 314.889C75.6489 314.375 75.2463 313.928 74.7663 313.576C74.2862 313.224 73.739 312.974 73.1584 312.842C72.5779 312.71 71.9765 312.699 71.3914 312.809C70.8063 312.92 70.2501 313.149 69.7573 313.483C69.2644 313.817 68.8454 314.248 68.5263 314.751C68.2071 315.253 67.9946 315.816 67.9019 316.404C67.8092 316.992 67.8383 317.593 67.9874 318.169C68.1365 318.746 68.4024 319.285 68.7686 319.755C68.5759 320.001 68.4097 320.267 68.2728 320.548L71.3696 322.162L68.0676 321.055C67.8353 321.74 67.7769 322.471 67.8976 323.183C68.0184 323.896 68.3145 324.567 68.7593 325.137C68.2554 325.778 67.9419 326.548 67.8549 327.359C67.7679 328.17 67.9107 328.989 68.2672 329.722C68.6236 330.456 69.1793 331.074 69.8706 331.507C70.562 331.94 71.3611 332.169 72.1767 332.169C72.9922 332.169 73.7914 331.94 74.4827 331.507C75.174 331.074 75.7297 330.456 76.0861 329.722C76.4426 328.989 76.5855 328.17 76.4984 327.359C76.4114 326.548 76.098 325.778 75.594 325.137C76.1959 324.37 76.5232 323.424 76.5232 322.449C76.5232 321.475 76.1959 320.528 75.594 319.762L75.6032 319.743Z" fill="#F9A826"/>
<path opacity="0.1" d="M67.839 322.431C67.836 323.405 68.1609 324.352 68.7613 325.12C68.2573 325.761 67.9439 326.531 67.8569 327.342C67.7698 328.153 67.9127 328.972 68.2692 329.705C68.6256 330.439 69.1813 331.057 69.8726 331.49C70.5639 331.923 71.363 332.152 72.1786 332.152C72.9942 332.152 73.7933 331.923 74.4847 331.49C75.176 331.057 75.7316 330.439 76.0881 329.705C76.4445 328.972 76.5874 328.153 76.5004 327.342C76.4134 326.531 76.0999 325.761 75.5959 325.12C76.1839 324.379 67.839 321.944 67.839 322.431Z" fill="black"/>
<path d="M113.371 273.021C112.783 269.945 112.125 266.862 112.017 263.733C111.952 261.888 112.082 260.011 111.844 258.171C111.727 257.267 111.521 256.379 111.318 255.492L110.502 251.938C110.595 251.257 110.568 250.565 110.424 249.893C110.342 249.539 110.233 249.191 110.099 248.853C110.861 247.781 111.489 246.619 111.969 245.394C112.185 244.841 112.372 244.253 112.287 243.667C112.121 242.544 111.032 241.804 110.02 241.251C109.407 240.916 108.761 240.593 108.06 240.54C107.57 240.521 107.082 240.614 106.634 240.814C106.186 241.014 105.79 241.315 105.478 241.693C105.307 240.784 105.364 239.847 105.644 238.965C105.042 238.696 104.435 238.442 103.824 238.195C103.736 237.398 103.705 236.596 103.732 235.795C103.746 234.833 103.762 233.862 103.817 232.899C105.457 232.3 106.875 231.214 107.88 229.787C108.884 228.36 109.429 226.659 109.439 224.913C109.439 224.814 109.439 224.717 109.439 224.621C109.886 223.817 110.169 222.933 110.271 222.019C110.373 221.106 110.292 220.181 110.034 219.299C109.358 216.993 107.592 215.093 105.464 213.919C103.335 212.745 100.868 212.249 98.4262 212.162C97.6067 212.114 96.7843 212.166 95.9773 212.316C95.1136 212.529 94.2767 212.838 93.4824 213.239C92.2626 213.801 91.0335 214.417 90.1204 215.388C88.5363 217.078 88.1812 219.561 88.3541 221.844C88.5847 224.842 89.5854 227.743 90.743 230.533C91.1281 231.455 91.5385 232.391 92.1726 233.178C92.6638 233.784 93.517 233.821 94.1949 233.397C94.1411 234.133 94.1241 234.872 94.1442 235.61C92.8921 235.567 91.6723 235.772 90.6669 236.477C90.2057 236.807 89.7676 237.326 89.8691 237.884C90.177 237.892 90.4722 238.009 90.7026 238.213C90.9329 238.418 91.0836 238.697 91.1281 239.002C91.1788 239.493 90.9321 239.962 90.6923 240.386C90.5885 240.575 90.4847 240.766 90.3787 240.955C89.3871 242.016 88.3702 243.344 88.2803 244.661C88.1185 244.676 87.9577 244.7 87.7984 244.732C86.8991 244.898 86.0044 245.205 85.1212 245.436L78.7293 247.119L77.1498 247.557L74.6133 248.226C72.9992 248.65 71.3551 249.086 69.9232 249.939C68.4912 250.792 67.276 252.132 66.9878 253.746C66.8448 254.549 66.9325 255.383 66.7572 256.179C66.7572 256.216 66.7434 256.25 66.7342 256.285C66.5877 256.788 66.3907 257.276 66.1461 257.74C64.7142 260.758 63.695 264.049 63.8864 267.372C64.004 269.412 64.5782 271.402 65.1362 273.367C65.7219 275.376 66.2999 277.385 66.8702 279.394C67.2463 280.833 67.7232 282.243 68.2975 283.614C69.2814 285.811 70.7408 287.762 72.5703 289.326C73.0838 289.786 73.6579 290.174 74.2767 290.479C75.2202 290.887 76.2502 291.054 77.2743 290.965C77.551 290.947 77.8231 290.917 78.0929 290.873C80.0737 290.559 81.9207 289.605 83.6155 288.53C84.3242 288.081 85.0159 287.609 85.6908 287.112C85.7765 287.887 85.9308 288.652 86.152 289.4C86.3019 289.914 86.4863 290.442 86.4264 290.975C86.3434 291.717 85.8038 292.326 85.5248 293.022C84.9322 294.493 85.5409 296.133 85.6401 297.71C85.7346 299.188 85.3749 300.655 85.0867 302.11C84.6053 304.536 84.3208 306.998 84.2358 309.47C84.2332 310.406 84.1716 311.341 84.0513 312.269C83.8369 313.579 83.3342 314.843 83.2466 316.166C83.1128 318.228 84.0029 320.245 83.9222 322.309C83.8277 324.733 82.4049 327.087 82.9007 329.457C82.9629 329.755 83.1313 330.098 83.4034 330.175L83.2696 330.297C82.8615 330.675 82.4649 331.374 82.9284 331.68C83.035 331.744 83.1535 331.784 83.2765 331.8C83.9937 331.95 84.7154 332.086 85.4372 332.213C85.4213 332.88 85.5052 333.545 85.6862 334.187C85.8176 334.281 85.9514 334.367 86.0851 334.447C85.9836 334.719 85.9906 334.982 86.2304 335.139C86.337 335.202 86.4555 335.243 86.5786 335.259C92.5184 336.485 98.5846 336.988 104.645 336.758C105.729 336.716 106.861 336.638 107.786 336.085C108.71 335.531 109.335 334.353 108.895 333.382C108.505 332.524 107.486 332.153 106.571 331.867L105.496 331.535C105.634 331.291 105.714 331.019 105.731 330.739C105.748 330.459 105.7 330.18 105.593 329.921C105.203 329.063 104.184 328.692 103.269 328.406L100.794 327.638C100.469 327.561 100.163 327.417 99.895 327.216C99.7178 327.04 99.5544 326.85 99.4062 326.649C99.0492 326.241 98.5801 325.946 98.0572 325.803C98.0294 325.278 98.041 324.753 98.0918 324.23L98.7836 315.88C98.9381 313.99 99.0903 312.062 98.6499 310.215C98.4723 309.465 98.1887 308.698 98.3616 307.946C98.6314 306.719 99.9227 306.037 100.804 305.126C102.132 303.742 102.544 301.775 102.849 299.903C104.109 292.176 104.505 284.333 104.029 276.519C106.798 275.739 109.647 275.281 112.52 275.154C113.009 275.133 113.248 274.903 113.401 274.446C113.553 273.989 113.461 273.494 113.371 273.021ZM99.5699 273.429C99.586 273.348 99.6045 273.268 99.6183 273.187L99.8097 273.431L99.5699 273.429Z" fill="url(#paint0_linear_162_587)"/>
<path d="M95.0745 231.104C95.0145 231.906 94.7309 232.676 94.6271 233.477C94.5095 234.357 94.6133 235.254 94.5556 236.142C94.498 237.03 94.242 237.964 93.5664 238.543C97.4933 238.883 101.361 239.72 105.077 241.033C103.954 239.649 103.924 237.717 103.952 235.942C103.989 233.315 104.035 230.638 104.893 228.159C102.335 227.587 99.6853 227.553 97.1129 228.058C96.5548 228.168 94.8646 228.099 94.6133 228.62C94.4311 229.003 95.116 230.523 95.0745 231.104Z" fill="#FFB7B7"/>
<path opacity="0.1" d="M95.0745 231.104C95.0145 231.906 94.7309 232.676 94.6271 233.477C94.5095 234.357 94.6133 235.254 94.5556 236.142C94.498 237.03 94.242 237.964 93.5664 238.543C97.4933 238.883 101.361 239.72 105.077 241.033C103.954 239.649 103.924 237.717 103.952 235.942C103.989 233.315 104.035 230.638 104.893 228.159C102.335 227.587 99.6853 227.553 97.1129 228.058C96.5548 228.168 94.8646 228.099 94.6133 228.62C94.4311 229.003 95.116 230.523 95.0745 231.104Z" fill="black"/>
<path d="M99.7235 326.662C99.862 326.867 100.016 327.06 100.185 327.241C100.444 327.443 100.744 327.586 101.063 327.663L103.48 328.431C104.377 328.717 105.373 329.086 105.753 329.944C106.182 330.912 105.571 332.09 104.667 332.642C103.763 333.193 102.657 333.273 101.598 333.315C95.6721 333.543 89.7405 333.041 83.9374 331.818C83.8176 331.801 83.7025 331.76 83.5984 331.698C83.1373 331.387 83.5316 330.691 83.9305 330.315C85.4869 328.839 87.1795 327.292 89.2986 326.951C90.4123 326.769 91.5307 326.842 92.6375 326.577C93.433 326.386 94.1847 326.056 94.978 325.86C96.456 325.498 98.6674 325.369 99.7235 326.662Z" fill="#46455B"/>
<path opacity="0.1" d="M99.7235 326.662C99.862 326.867 100.016 327.06 100.185 327.241C100.444 327.443 100.744 327.586 101.063 327.663L103.48 328.431C104.377 328.717 105.373 329.086 105.753 329.944C106.182 330.912 105.571 332.09 104.667 332.642C103.763 333.193 102.657 333.273 101.598 333.315C95.6721 333.543 89.7405 333.041 83.9374 331.818C83.8176 331.801 83.7025 331.76 83.5984 331.698C83.1373 331.387 83.5316 330.691 83.9305 330.315C85.4869 328.839 87.1795 327.292 89.2986 326.951C90.4123 326.769 91.5307 326.842 92.6375 326.577C93.433 326.386 94.1847 326.056 94.978 325.86C96.456 325.498 98.6674 325.369 99.7235 326.662Z" fill="black"/>
<path d="M87.589 274.507C86.3965 277.654 86.3233 281.115 87.3815 284.309C86.5767 284.222 86.2285 285.31 86.2493 286.122C86.2779 287.252 86.4491 288.374 86.7589 289.461C86.9064 289.977 87.0863 290.503 87.0287 291.033C86.9456 291.776 86.4199 292.385 86.1455 293.079C85.569 294.548 86.1616 296.185 86.2608 297.76C86.353 299.238 86.0002 300.702 85.7166 302.155C85.2468 304.579 84.9692 307.036 84.8865 309.504C84.8848 310.439 84.824 311.373 84.7043 312.301C84.4968 313.61 84.0126 314.872 83.9203 316.193C83.7889 318.25 84.6582 320.267 84.5798 322.329C84.4876 324.748 83.0948 327.1 83.5814 329.477C83.6505 329.811 83.8373 330.206 84.1809 330.21C87.6582 330.254 90.9071 329.288 94.3475 329.793C94.698 321.833 95.0393 313.836 96.6073 306.022C97.9908 299.065 100.336 292.186 100.117 285.093C99.99 281.037 99.0262 277.06 98.4405 273.043C94.7642 272.227 90.9174 272.746 87.589 274.507V274.507Z" fill="#BBBDC8"/>
<path opacity="0.1" d="M87.589 274.507C86.3965 277.654 86.3233 281.115 87.3815 284.309C86.5767 284.222 86.2285 285.31 86.2493 286.122C86.2779 287.252 86.4491 288.374 86.7589 289.461C86.9064 289.977 87.0863 290.503 87.0287 291.033C86.9456 291.776 86.4199 292.385 86.1455 293.079C85.569 294.548 86.1616 296.185 86.2608 297.76C86.353 299.238 86.0002 300.702 85.7166 302.155C85.2468 304.579 84.9692 307.036 84.8865 309.504C84.8848 310.439 84.824 311.373 84.7043 312.301C84.4968 313.61 84.0126 314.872 83.9203 316.193C83.7889 318.25 84.6582 320.267 84.5798 322.329C84.4876 324.748 83.0948 327.1 83.5814 329.477C83.6505 329.811 83.8373 330.206 84.1809 330.21C87.6582 330.254 90.9071 329.288 94.3475 329.793C94.698 321.833 95.0393 313.836 96.6073 306.022C97.9908 299.065 100.336 292.186 100.117 285.093C99.99 281.037 99.0262 277.06 98.4405 273.043C94.7642 272.227 90.9174 272.746 87.589 274.507V274.507Z" fill="black"/>
<path d="M102.951 330.119C103.09 330.324 103.244 330.518 103.412 330.698C103.672 330.9 103.971 331.043 104.291 331.12L106.707 331.888C107.604 332.174 108.6 332.543 108.981 333.401C109.41 334.369 108.799 335.548 107.895 336.099C106.991 336.65 105.884 336.73 104.826 336.772C98.8996 337 92.9681 336.498 87.1649 335.275C87.0452 335.258 86.93 335.217 86.826 335.156C86.3648 334.844 86.7591 334.148 87.158 333.772C88.7145 332.296 90.407 330.749 92.5261 330.408C93.6399 330.226 94.7582 330.299 95.865 330.034C96.6606 329.843 97.4123 329.513 98.2055 329.317C99.6836 328.955 101.895 328.826 102.951 330.119Z" fill="#46455B"/>
<path d="M88.7884 274.734C87.8983 275.887 87.6354 277.409 87.7554 278.852C87.8753 280.296 88.3618 281.682 88.8391 283.049C88.205 283.633 88.3364 284.638 88.4194 285.496C88.7215 288.682 87.6147 291.862 87.7761 295.058C87.843 296.403 88.1358 297.728 88.205 299.073C88.2811 300.542 88.0943 302.01 87.9191 303.47C86.7996 312.814 86.1838 322.212 86.0744 331.623C86.0744 332.49 86.0605 333.37 86.3049 334.201C87.9813 335.434 90.0866 335.6 92.1158 335.139C94.1449 334.678 95.9966 333.649 97.8159 332.635C98.8126 332.119 99.7577 331.509 100.638 330.813C100.908 330.623 101.107 330.349 101.206 330.034C101.399 329.111 100.117 328.694 99.3816 328.097C98.3117 327.228 98.3278 325.618 98.4385 324.244L99.1072 315.906C99.2594 314.017 99.407 312.092 98.9781 310.247C98.8028 309.5 98.533 308.732 98.6945 307.98C98.9573 306.758 100.221 306.076 101.081 305.165C102.382 303.781 102.783 301.819 103.083 299.951C104.495 291.09 104.796 282.088 103.977 273.152C102.282 273.74 100.274 273.42 98.4869 273.558C96.6999 273.697 94.9243 274.294 93.1142 274.342C91.6062 274.377 89.7153 273.544 88.7884 274.734Z" fill="#BBBDC8"/>
<path d="M100.997 233.606C105.709 233.606 109.528 229.787 109.528 225.075C109.528 220.363 105.709 216.543 100.997 216.543C96.2846 216.543 92.4648 220.363 92.4648 225.075C92.4648 229.787 96.2846 233.606 100.997 233.606Z" fill="#FFB7B7"/>
<path d="M105.819 239.11C103.086 237.854 100.235 236.87 97.3084 236.172C95.247 235.681 92.8926 235.386 91.1702 236.62C90.709 236.95 90.2916 237.468 90.3908 238.026C90.6947 238.036 90.9852 238.154 91.2103 238.359C91.4355 238.563 91.5806 238.841 91.6198 239.142C91.6705 239.631 91.4307 240.099 91.1955 240.526L89.2055 244.215C88.8243 244.88 88.4965 245.574 88.2255 246.291C87.8243 247.462 87.7367 248.716 87.6514 249.952L87.4208 253.301C87.2778 255.41 87.1326 257.53 87.3239 259.635C87.4669 261.224 87.799 262.819 87.573 264.399C87.3908 265.669 86.8535 266.861 86.5515 268.111C85.9842 270.463 86.2425 273.041 85.1426 275.199C85.5893 274.993 86.0935 274.948 86.5699 275.07C89.9088 275.686 92.5352 278.322 95.7773 279.329C96.5959 278.135 97.705 277.254 98.6205 276.143C99.3013 275.309 99.752 274.313 99.9279 273.251C100.62 274.173 101.208 274.893 101.62 275.963C101.694 276.212 101.82 276.442 101.989 276.638C102.425 277.063 103.142 276.899 103.726 276.721C106.586 275.859 109.543 275.357 112.527 275.229C113.007 275.209 113.24 274.978 113.39 274.522C113.54 274.065 113.457 273.572 113.367 273.101C112.792 270.027 112.151 266.949 112.045 263.825C111.981 261.98 112.108 260.11 111.875 258.27C111.759 257.368 111.559 256.48 111.36 255.595L109.714 248.278C109.622 247.87 109.184 247.603 108.997 247.227C108.241 245.696 106.795 244.589 106.048 243.053C105.483 241.813 105.402 240.407 105.819 239.11V239.11Z" fill="#46455B"/>
<path d="M93.8488 228.49C93.8388 228.37 93.8671 228.251 93.9295 228.149C94.0207 228.053 94.1351 227.982 94.2615 227.943C94.6053 227.78 94.8866 227.509 95.0626 227.172C95.2386 226.834 95.2998 226.449 95.2369 226.073L96.044 225.905L96.0693 223.094C97.2684 222.43 98.9033 222.933 100.031 222.151C100.665 221.708 100.99 220.957 101.377 220.288C101.765 219.619 102.341 218.946 103.112 218.891C102.847 219.564 102.733 220.288 102.779 221.01C102.825 221.733 103.029 222.436 103.377 223.071C104.184 222.662 104.858 222.032 105.321 221.254L105.722 223.56C105.73 223.702 105.791 223.836 105.892 223.936C106.102 224.09 106.386 223.897 106.57 223.705L107.615 222.679C108.055 223.782 108.356 224.935 108.512 226.113C110.227 224.448 110.76 221.773 110.101 219.476C109.441 217.18 107.714 215.277 105.634 214.104C103.554 212.93 101.142 212.436 98.7557 212.349C97.9545 212.302 97.1507 212.354 96.3622 212.503C95.5163 212.716 94.6977 213.026 93.9226 213.426C92.7304 213.986 91.5268 214.602 90.6367 215.57C89.0871 217.258 88.7389 219.739 88.9096 222.027C89.1402 225.024 90.1132 227.918 91.2454 230.704C91.6213 231.626 92.0225 232.56 92.6428 233.346C93.5767 234.529 95.871 233.547 95.5782 231.209C95.3753 229.539 93.8488 230.182 93.8488 228.49Z" fill="#3F3D56"/>
<path d="M97.0776 274.167C94.2 280.047 89.781 285.036 84.2915 288.602C82.6336 289.674 80.8327 290.629 78.8935 290.942C78.6283 290.986 78.3631 291.016 78.0933 291.035C77.0933 291.117 76.0885 290.947 75.1718 290.539C74.5648 290.233 74.003 289.845 73.5023 289.386C71.7079 287.815 70.282 285.868 69.3264 283.683C68.7646 282.312 68.2985 280.904 67.9313 279.468C67.3656 277.461 66.8014 275.452 66.2388 273.443C65.6877 271.478 65.132 269.491 65.0167 267.448C64.8299 264.13 65.826 260.844 67.2257 257.83C67.4644 257.366 67.6567 256.879 67.7999 256.377C67.7999 256.343 67.816 256.308 67.8229 256.271C67.9889 255.476 67.9036 254.643 68.0535 253.841C68.3348 252.227 69.5247 250.889 70.922 250.038C72.3194 249.187 73.9197 248.752 75.5084 248.327L77.9826 247.661L79.5183 247.248L85.765 245.567C86.6297 245.337 87.5036 245.03 88.3822 244.875C89.3622 244.691 89.3552 244.788 89.4313 245.747C89.572 247.486 89.5259 249.194 89.8925 250.917C90.2407 252.561 90.8541 254.145 91.3152 255.759C92.4797 259.834 92.6734 264.123 93.5911 268.262C93.801 269.205 94.0915 270.21 94.8502 270.798C95.7195 271.49 97.1837 271.661 97.4143 272.744C97.4996 273.226 97.2852 273.72 97.0776 274.167Z" fill="#F9A826"/>
<path opacity="0.1" d="M78.8935 290.933C78.6283 290.977 78.3631 291.007 78.0933 291.026C77.0941 291.111 76.0893 290.944 75.1718 290.539C74.5648 290.234 74.003 289.846 73.5023 289.386C71.7079 287.816 70.282 285.869 69.3264 283.684C68.7646 282.313 68.2985 280.904 67.9313 279.469C67.3656 277.461 66.8014 275.453 66.2388 273.443C65.6877 271.479 65.132 269.491 65.0167 267.448C64.8299 264.13 65.826 260.844 67.2257 257.83C67.4644 257.366 67.6567 256.879 67.7999 256.378C67.7999 256.343 67.816 256.308 67.8229 256.271C71.5861 256.933 76.101 264.132 78.43 273.566C80.1455 280.619 80.2193 287.115 78.8935 290.933Z" fill="black"/>
<path opacity="0.1" d="M85.6952 266.113L85.0657 266.222C84.4178 264.52 83.7721 262.816 83.0135 261.16C82.6192 260.296 82.1926 259.442 81.8605 258.55C80.6154 255.124 80.8275 251.058 78.5193 248.236C78.3546 248.026 78.1666 247.836 77.959 247.669L79.4947 247.256C80.8395 249.382 81.7879 251.734 82.294 254.199C82.5431 255.403 82.6837 256.634 83.0896 257.791C83.4348 258.669 83.8297 259.527 84.2725 260.36C85.1487 262.156 85.8082 264.119 85.6952 266.113Z" fill="black"/>
<path d="M91.8243 240.133C93.4822 238.713 95.7443 237.933 97.8911 238.288C99.1547 238.494 100.328 239.063 101.461 239.672C103.667 240.843 105.842 242.192 107.433 244.118C108.387 245.332 109.179 246.665 109.789 248.084C110.089 248.704 110.321 249.354 110.481 250.023C111.044 252.629 109.663 255.218 108.332 257.529L105.773 261.97C104.597 264.011 103.411 266.065 101.88 267.857C101.175 268.682 100.4 269.446 99.6274 270.209L96.2355 273.557C96.1745 273.629 96.0946 273.682 96.0049 273.711C95.9308 273.715 95.8568 273.703 95.7879 273.676C95.7191 273.648 95.657 273.606 95.606 273.552L94.4853 272.66C95.5175 271.947 96.4768 271.133 97.3492 270.232C98.8158 268.715 100.022 266.969 101.221 265.23L104.952 259.821C106.042 258.237 107.181 256.493 107.059 254.575C107.002 253.653 106.656 252.786 106.294 251.939C105.653 250.434 104.956 248.953 104.205 247.496C103.361 245.861 102.438 244.247 101.223 242.866C100.008 241.484 98.4722 240.329 96.7036 239.829C96.1761 239.656 95.617 239.603 95.0664 239.672C93.8535 239.873 92.9911 240.915 92.2232 241.883L89.8851 244.881C89.3524 245.561 88.8636 246.35 88.8313 245.059C88.7759 243.216 90.6391 241.318 91.8243 240.133Z" fill="#F9A826"/>
<path d="M92.5488 260.355C93.01 262.131 93.6902 264.146 95.3989 264.819C96.6095 265.297 98.0276 264.909 99.0745 264.128C100.121 263.346 100.864 262.244 101.546 261.13C102.124 260.129 102.761 259.163 103.453 258.238C104.821 256.523 106.682 255.162 107.604 253.165C107.876 252.57 108.065 251.934 108.374 251.362C108.704 250.835 109.078 250.336 109.49 249.87C110.552 248.555 111.401 247.081 112.006 245.503C112.218 244.952 112.4 244.362 112.317 243.778C112.153 242.655 111.09 241.917 110.101 241.366C109.499 241.032 108.87 240.707 108.185 240.656C107.184 240.578 106.2 241.117 105.584 241.908C104.991 242.726 104.66 243.704 104.634 244.714C104.565 245.943 104.805 247.221 104.403 248.383C104.191 248.925 103.898 249.432 103.534 249.886C102.239 251.619 100.636 253.099 98.8047 254.251C98.7545 253.379 98.5653 252.521 98.2444 251.708C98.0691 251.261 94.6334 251.708 94.186 251.782C93.3006 251.911 91.585 252.012 91.027 252.856C90.4689 253.7 91.1607 255.118 91.3867 255.969L92.5488 260.355Z" fill="#FFB7B7"/>
<path d="M92.4653 240.979C91.9549 241.4 91.4798 241.863 91.0449 242.362C90.0211 243.596 89.5207 245.201 89.3916 246.799C89.2624 248.397 89.4815 250.002 89.7559 251.581C90.0049 252.998 90.2993 254.406 90.639 255.803C90.7336 254.749 91.5868 253.878 92.576 253.497C93.5652 253.117 94.6513 253.158 95.7051 253.313C97.0614 253.514 98.3845 253.896 99.6389 254.45L100.125 247.631C100.228 246.711 100.222 245.783 100.109 244.864C99.9561 244.012 99.6231 243.202 99.1324 242.488C98.6418 241.774 98.0048 241.173 97.2638 240.725C95.4145 239.6 94.1255 239.528 92.4653 240.979Z" fill="#46455B"/>
<path d="M380.241 200.082C380.496 199.744 380.817 199.461 381.184 199.25C381.09 199.665 380.914 200.057 380.665 200.403C380.264 200.949 379.842 201.325 379.724 201.235C379.607 201.145 379.835 200.629 380.241 200.082Z" fill="#99D55C"/>
<path opacity="0.1" d="M380.291 200.124C380.478 199.873 380.713 199.662 380.983 199.504C380.913 199.811 380.782 200.101 380.598 200.357C380.298 200.763 379.985 201.049 379.906 200.977C379.828 200.906 379.992 200.53 380.291 200.124Z" fill="black"/>
<path d="M379.68 199.621H379.91C379.925 199.621 379.939 199.624 379.953 199.63C379.966 199.635 379.978 199.643 379.989 199.654C379.999 199.664 380.007 199.676 380.013 199.689C380.018 199.703 380.021 199.717 380.021 199.732V202.344H379.583V199.732C379.583 199.705 379.593 199.678 379.61 199.658C379.628 199.638 379.653 199.624 379.68 199.621V199.621Z" fill="#F6987E"/>
<path d="M383.698 204.191C383.698 205.169 383.309 206.108 382.618 206.8C381.926 207.492 380.987 207.88 380.009 207.88C379.03 207.88 378.092 207.492 377.4 206.8C376.708 206.108 376.319 205.169 376.319 204.191C376.319 202.501 377.456 201.5 379.008 201.207C379.338 201.146 379.673 201.116 380.009 201.117C380.24 201.117 380.471 201.131 380.701 201.159C382.407 201.371 383.698 202.39 383.698 204.191Z" fill="#FC4A4A"/>
<path opacity="0.1" d="M380.7 201.158C380.633 201.285 380.271 201.388 379.833 201.388C379.547 201.409 379.261 201.349 379.008 201.216C379.338 201.155 379.673 201.125 380.009 201.126C380.24 201.122 380.471 201.133 380.7 201.158Z" fill="black"/>
<path opacity="0.1" d="M380.624 207.791C379.646 207.791 378.708 207.403 378.016 206.711C377.324 206.019 376.935 205.081 376.935 204.102C376.935 202.442 378.03 201.448 379.538 201.137C379.36 201.15 379.183 201.173 379.008 201.206C377.456 201.499 376.319 202.499 376.319 204.19C376.319 205.168 376.708 206.107 377.4 206.799C378.092 207.49 379.03 207.879 380.009 207.879C380.287 207.88 380.565 207.848 380.837 207.785C380.765 207.789 380.701 207.791 380.624 207.791Z" fill="black"/>
<path d="M416.212 210.032C417.335 208.649 417.365 206.716 417.337 204.941C417.337 204.249 417.316 203.534 417.291 202.831V202.815C417.26 201.522 417.123 200.234 416.883 198.964V198.964C416.762 198.354 416.6 197.754 416.399 197.165C416.551 197.131 416.703 197.099 416.86 197.071C419.277 196.594 421.764 196.594 424.181 197.071C424.598 197.154 425.654 197.135 426.256 197.341C426.428 197.382 426.577 197.486 426.674 197.634C426.791 197.88 426.549 198.595 426.374 199.229C426.278 199.515 426.223 199.813 426.213 200.115C426.236 200.398 426.279 200.679 426.342 200.956C426.45 201.466 426.593 201.971 426.66 202.487C426.777 203.368 426.674 204.265 426.731 205.153C426.789 206.041 427.045 206.975 427.721 207.553C423.795 207.89 419.928 208.723 416.212 210.032V210.032Z" fill="#FDA8A8"/>
<path opacity="0.1" d="M109.068 189.795C109.96 189.795 110.682 189.072 110.682 188.181C110.682 187.289 109.96 186.566 109.068 186.566C108.177 186.566 107.454 187.289 107.454 188.181C107.454 189.072 108.177 189.795 109.068 189.795Z" fill="#F9A826"/>
<path opacity="0.1" d="M382.085 220.924C382.976 220.924 383.699 220.201 383.699 219.309C383.699 218.418 382.976 217.695 382.085 217.695C381.193 217.695 380.471 218.418 380.471 219.309C380.471 220.201 381.193 220.924 382.085 220.924Z" fill="#F9A826"/>
<path opacity="0.1" d="M89.2372 191.408C90.1286 191.408 90.8513 190.685 90.8513 189.794C90.8513 188.902 90.1286 188.18 89.2372 188.18C88.3457 188.18 87.623 188.902 87.623 189.794C87.623 190.685 88.3457 191.408 89.2372 191.408Z" fill="#F9A826"/>
<path opacity="0.1" d="M39.6613 267.504C41.9536 267.504 43.8119 265.646 43.8119 263.354C43.8119 261.061 41.9536 259.203 39.6613 259.203C37.369 259.203 35.5107 261.061 35.5107 263.354C35.5107 265.646 37.369 267.504 39.6613 267.504Z" fill="#F9A826"/>
<path opacity="0.1" d="M469.016 199.017C469.908 199.017 470.631 198.295 470.631 197.403C470.631 196.512 469.908 195.789 469.016 195.789C468.125 195.789 467.402 196.512 467.402 197.403C467.402 198.295 468.125 199.017 469.016 199.017Z" fill="#F9A826"/>
<path opacity="0.1" d="M470.862 224.615C473.791 224.615 476.166 222.24 476.166 219.311C476.166 216.382 473.791 214.008 470.862 214.008C467.933 214.008 465.559 216.382 465.559 219.311C465.559 222.24 467.933 224.615 470.862 224.615Z" fill="#F9A826"/>
<path opacity="0.1" d="M445.752 205.935C447.581 205.935 449.064 205.213 449.064 204.321C449.064 203.43 447.581 202.707 445.752 202.707C443.922 202.707 442.439 203.43 442.439 204.321C442.439 205.213 443.922 205.935 445.752 205.935Z" fill="#F9A826"/>
<path opacity="0.1" d="M465.097 235.451C465.988 235.451 466.711 234.728 466.711 233.837C466.711 232.945 465.988 232.223 465.097 232.223C464.205 232.223 463.482 232.945 463.482 233.837C463.482 234.728 464.205 235.451 465.097 235.451Z" fill="#F9A826"/>
<path opacity="0.1" d="M105.84 202.709C106.731 202.709 107.454 201.986 107.454 201.095C107.454 200.203 106.731 199.48 105.84 199.48C104.948 199.48 104.226 200.203 104.226 201.095C104.226 201.986 104.948 202.709 105.84 202.709Z" fill="#F9A826"/>
<path opacity="0.1" d="M45.4256 284.338C46.3171 284.338 47.0398 283.615 47.0398 282.723C47.0398 281.832 46.3171 281.109 45.4256 281.109C44.5342 281.109 43.8115 281.832 43.8115 282.723C43.8115 283.615 44.5342 284.338 45.4256 284.338Z" fill="#F9A826"/>
<path opacity="0.1" d="M42.8885 247.443C43.78 247.443 44.5026 246.72 44.5026 245.829C44.5026 244.938 43.78 244.215 42.8885 244.215C41.9971 244.215 41.2744 244.938 41.2744 245.829C41.2744 246.72 41.9971 247.443 42.8885 247.443Z" fill="#F9A826"/>
<path opacity="0.1" d="M393.614 188.181C394.506 188.181 395.228 187.459 395.228 186.567C395.228 185.676 394.506 184.953 393.614 184.953C392.723 184.953 392 185.676 392 186.567C392 187.459 392.723 188.181 393.614 188.181Z" fill="#F9A826"/>
<path opacity="0.1" d="M398.917 202.709C399.808 202.709 400.531 201.986 400.531 201.095C400.531 200.203 399.808 199.48 398.917 199.48C398.025 199.48 397.303 200.203 397.303 201.095C397.303 201.986 398.025 202.709 398.917 202.709Z" fill="#F9A826"/>
<path d="M336.181 100.318H334.485V53.878C334.485 50.3483 333.79 46.8532 332.439 43.5922C331.087 40.3312 329.107 37.3682 326.61 34.8724C324.113 32.3765 321.149 30.3967 317.887 29.046C314.624 27.6952 311.128 27 307.597 27H209.17C202.039 27 195.199 29.8317 190.157 34.8723C185.114 39.9129 182.281 46.7494 182.281 53.8779V308.649C182.281 315.777 185.114 322.614 190.157 327.655C195.199 332.695 202.038 335.527 209.17 335.527H307.597C314.728 335.527 321.567 332.695 326.61 327.655C331.652 322.614 334.485 315.778 334.485 308.649V133.374H336.181L336.181 100.318Z" fill="#666666"/>
<path d="M328.797 53.9855V308.311C328.797 313.634 326.68 318.738 322.912 322.501C319.144 326.265 314.034 328.379 308.706 328.379H209.755C204.427 328.379 199.317 326.265 195.549 322.501C191.781 318.738 189.664 313.634 189.664 308.311V53.9855C189.664 48.6633 191.781 43.5591 195.549 39.7957C199.317 36.0324 204.427 33.9181 209.755 33.918H221.759C221.169 35.3657 220.945 36.936 221.105 38.4908C221.266 40.0456 221.806 41.5372 222.679 42.8344C223.552 44.1316 224.731 45.1947 226.111 45.9301C227.492 46.6656 229.033 47.0508 230.598 47.0519H287.015C288.58 47.0508 290.12 46.6655 291.501 45.9301C292.882 45.1947 294.061 44.1316 294.933 42.8344C295.806 41.5372 296.347 40.0456 296.507 38.4908C296.668 36.936 296.443 35.3657 295.853 33.918H308.706C314.034 33.9181 319.144 36.0324 322.912 39.7957C326.68 43.5591 328.797 48.6633 328.797 53.9855V53.9855Z" fill="white"/>
<path d="M232.003 103.556H216.777C215.523 103.554 214.32 103.056 213.433 102.169C212.546 101.283 212.047 100.081 212.046 98.8272V83.6114C212.047 82.3577 212.546 81.1558 213.433 80.2693C214.32 79.3829 215.523 78.8842 216.777 78.8828H232.003C233.257 78.8842 234.46 79.3829 235.347 80.2693C236.234 81.1558 236.733 82.3577 236.734 83.6114V98.8272C236.733 100.081 236.234 101.283 235.347 102.169C234.46 103.056 233.257 103.554 232.003 103.556V103.556Z" fill="#F9A826"/>
<path d="M266.844 103.556H251.618C250.364 103.554 249.161 103.056 248.274 102.169C247.387 101.283 246.888 100.081 246.887 98.8272V83.6114C246.888 82.3577 247.387 81.1558 248.274 80.2693C249.161 79.3829 250.364 78.8842 251.618 78.8828H266.844C268.098 78.8842 269.301 79.3829 270.188 80.2693C271.075 81.1558 271.574 82.3577 271.575 83.6114V98.8272C271.574 100.081 271.075 101.283 270.188 102.169C269.301 103.056 268.098 103.554 266.844 103.556Z" fill="#F9A826"/>
<path d="M301.684 103.556H286.458C285.204 103.554 284.001 103.056 283.114 102.169C282.227 101.283 281.728 100.081 281.727 98.8272V83.6114C281.728 82.3577 282.227 81.1558 283.114 80.2693C284.001 79.3829 285.204 78.8842 286.458 78.8828H301.684C302.938 78.8842 304.141 79.3829 305.028 80.2693C305.915 81.1558 306.414 82.3577 306.415 83.6114V98.8272C306.414 100.081 305.915 101.283 305.028 102.169C304.141 103.056 302.938 103.554 301.684 103.556Z" fill="#E6E6E6"/>
<path d="M232.003 142.524H216.777C215.523 142.523 214.32 142.024 213.433 141.138C212.546 140.251 212.047 139.05 212.046 137.796V122.58C212.047 121.326 212.546 120.125 213.433 119.238C214.32 118.352 215.523 117.853 216.777 117.852H232.003C233.257 117.853 234.46 118.352 235.347 119.238C236.234 120.125 236.733 121.326 236.734 122.58V137.796C236.733 139.05 236.234 140.251 235.347 141.138C234.46 142.024 233.257 142.523 232.003 142.524V142.524Z" fill="#E6E6E6"/>
<path d="M266.844 142.524H251.618C250.364 142.523 249.161 142.024 248.274 141.138C247.387 140.251 246.888 139.05 246.887 137.796V122.58C246.888 121.326 247.387 120.125 248.274 119.238C249.161 118.352 250.364 117.853 251.618 117.852H266.844C268.098 117.853 269.301 118.352 270.188 119.238C271.075 120.125 271.574 121.326 271.575 122.58V137.796C271.574 139.05 271.075 140.251 270.188 141.138C269.301 142.024 268.098 142.523 266.844 142.524V142.524Z" fill="#E6E6E6"/>
<path d="M301.684 142.524H286.458C285.204 142.523 284.001 142.024 283.114 141.138C282.227 140.251 281.728 139.05 281.727 137.796V122.58C281.728 121.326 282.227 120.125 283.114 119.238C284.001 118.352 285.204 117.853 286.458 117.852H301.684C302.938 117.853 304.141 118.352 305.028 119.238C305.915 120.125 306.414 121.326 306.415 122.58V137.796C306.414 139.05 305.915 140.251 305.028 141.138C304.141 142.024 302.938 142.523 301.684 142.524Z" fill="#E6E6E6"/>
<path d="M232.003 181.263H216.777C215.523 181.261 214.32 180.763 213.433 179.876C212.546 178.99 212.047 177.788 212.046 176.534V161.318C212.047 160.065 212.546 158.863 213.433 157.976C214.32 157.09 215.523 156.591 216.777 156.59H232.003C233.257 156.591 234.46 157.09 235.347 157.976C236.234 158.863 236.733 160.065 236.734 161.318V176.534C236.733 177.788 236.234 178.99 235.347 179.876C234.46 180.763 233.257 181.261 232.003 181.263V181.263Z" fill="#E6E6E6"/>
<path d="M266.844 181.263H251.618C250.364 181.261 249.161 180.763 248.274 179.876C247.387 178.99 246.888 177.788 246.887 176.534V161.318C246.888 160.065 247.387 158.863 248.274 157.976C249.161 157.09 250.364 156.591 251.618 156.59H266.844C268.098 156.591 269.301 157.09 270.188 157.976C271.075 158.863 271.574 160.065 271.575 161.318V176.534C271.574 177.788 271.075 178.99 270.188 179.876C269.301 180.763 268.098 181.261 266.844 181.263V181.263Z" fill="#E6E6E6"/>
<path d="M301.684 181.263H286.458C285.204 181.261 284.001 180.763 283.114 179.876C282.227 178.99 281.728 177.788 281.727 176.534V161.318C281.728 160.065 282.227 158.863 283.114 157.976C284.001 157.09 285.204 156.591 286.458 156.59H301.684C302.938 156.591 304.141 157.09 305.028 157.976C305.915 158.863 306.414 160.065 306.415 161.318V176.534C306.414 177.788 305.915 178.99 305.028 179.876C304.141 180.763 302.938 181.261 301.684 181.263Z" fill="#E6E6E6"/>
<path d="M232.003 220.001H216.777C215.523 220 214.32 219.506 213.433 218.627C212.546 217.749 212.047 216.559 212.046 215.317V200.243C212.047 199.001 212.546 197.81 213.433 196.932C214.32 196.054 215.523 195.56 216.777 195.559H232.003C233.257 195.56 234.46 196.054 235.347 196.932C236.234 197.81 236.733 199.001 236.734 200.243V215.317C236.733 216.558 236.234 217.749 235.347 218.627C234.46 219.506 233.257 220 232.003 220.001V220.001Z" fill="#E6E6E6"/>
<path d="M266.844 220.001H251.618C250.364 220 249.161 219.506 248.274 218.627C247.387 217.749 246.888 216.559 246.887 215.317V200.243C246.888 199.001 247.387 197.81 248.274 196.932C249.161 196.054 250.364 195.56 251.618 195.559H266.844C268.098 195.56 269.301 196.054 270.188 196.932C271.075 197.81 271.574 199.001 271.575 200.243V215.317C271.574 216.558 271.075 217.749 270.188 218.627C269.301 219.506 268.098 220 266.844 220.001V220.001Z" fill="#E6E6E6"/>
<path d="M301.684 220.001H286.458C285.204 220 284.001 219.506 283.114 218.627C282.227 217.749 281.728 216.559 281.727 215.317V200.243C281.728 199.001 282.227 197.81 283.114 196.932C284.001 196.054 285.204 195.56 286.458 195.559H301.684C302.938 195.56 304.141 196.054 305.028 196.932C305.915 197.81 306.414 199.001 306.415 200.243V215.317C306.414 216.558 305.915 217.749 305.028 218.627C304.141 219.506 302.938 220 301.684 220.001V220.001Z" fill="#E6E6E6"/>
<path d="M276.592 215.622H261.484C260.183 215.621 258.936 215.099 258.017 214.171C257.097 213.244 256.58 211.986 256.578 210.674V195.436C256.58 194.124 257.097 192.867 258.017 191.939C258.936 191.012 260.183 190.49 261.484 190.488H276.592C277.892 190.49 279.139 191.012 280.059 191.939C280.979 192.867 281.496 194.124 281.497 195.436V210.674C281.496 211.986 280.979 213.244 280.059 214.171C279.139 215.099 277.892 215.621 276.592 215.622V215.622Z" fill="#F9A826"/>
<path d="M204.634 254.806C205.211 254.519 205.718 254.11 206.119 253.607C206.521 253.104 206.807 252.519 206.957 251.893C207.107 251.268 207.118 250.617 206.989 249.987C206.86 249.357 206.595 248.763 206.211 248.246L209.507 216.082H202.383L199.763 247.489C198.936 248.19 198.396 249.169 198.245 250.242C198.093 251.314 198.341 252.404 198.942 253.306C199.542 254.208 200.453 254.859 201.502 255.135C202.551 255.412 203.666 255.295 204.634 254.806V254.806Z" fill="#FFB8B8"/>
<path d="M211.122 198.327C216.601 198.327 221.043 193.836 221.043 188.296C221.043 182.756 216.601 178.266 211.122 178.266C205.642 178.266 201.2 182.756 201.2 188.296C201.2 193.836 205.642 198.327 211.122 198.327Z" fill="#FFB8B8"/>
<path d="M213.168 234.759C212.767 234.759 212.377 234.628 212.058 234.385C211.739 234.142 211.508 233.801 211.402 233.415C210.598 230.5 208.509 225.572 205.192 218.767C204.443 217.229 204.029 215.55 203.976 213.841C203.922 212.131 204.231 210.43 204.883 208.848C205.534 207.266 206.513 205.84 207.755 204.662C208.997 203.485 210.474 202.583 212.089 202.016V202.016C213.62 201.476 215.243 201.248 216.864 201.346C218.484 201.444 220.069 201.866 221.523 202.586C222.978 203.306 224.273 204.311 225.332 205.54C226.391 206.769 227.192 208.198 227.689 209.742C230.26 217.795 230.136 226.421 229.963 229.756C229.942 230.157 229.789 230.541 229.529 230.847C229.268 231.154 228.914 231.367 228.521 231.454L213.562 234.717C213.433 234.745 213.301 234.76 213.168 234.759V234.759Z" fill="#CCCCCC"/>
<path d="M227.735 329.994L232.582 329.994L234.887 310.855L227.734 310.856L227.735 329.994Z" fill="#FFB8B8"/>
<path d="M242.261 334.641L226.524 334.641L226.524 328.565L236.181 328.565C236.979 328.565 237.77 328.722 238.507 329.027C239.245 329.333 239.915 329.78 240.48 330.344C241.044 330.908 241.492 331.578 241.798 332.315C242.103 333.053 242.261 333.843 242.261 334.641V334.641Z" fill="#2F2E41"/>
<path d="M177.436 323.454L181.862 325.842L193.356 310.227L186.823 306.703L177.436 323.454Z" fill="#FFB8B8"/>
<path d="M188.141 334.645L174.351 327.068L177.28 321.744L185.742 326.393C187.155 327.169 188.202 328.475 188.651 330.022C189.101 331.57 188.917 333.232 188.141 334.645V334.645V334.645Z" fill="#2F2E41"/>
<path d="M227.311 319.387C226.867 319.387 226.438 319.224 226.104 318.929C225.771 318.635 225.555 318.228 225.498 317.786L219.263 269.554C219.235 269.341 219.141 269.141 218.994 268.985C218.847 268.828 218.655 268.723 218.444 268.682C218.233 268.642 218.016 268.67 217.822 268.762C217.628 268.853 217.468 269.004 217.364 269.192L191.378 316.519C191.164 316.906 190.818 317.202 190.405 317.354C189.991 317.507 189.536 317.505 189.124 317.35L183.46 315.183C183.232 315.096 183.024 314.964 182.847 314.795C182.671 314.626 182.53 314.424 182.433 314.199C182.336 313.975 182.284 313.733 182.281 313.488C182.279 313.244 182.324 313.001 182.416 312.774L200.418 268.384C200.463 268.271 200.494 268.153 200.509 268.032C202.948 249.089 209.151 239.455 210.994 236.954C211.129 236.77 211.217 236.557 211.253 236.331C211.288 236.106 211.268 235.875 211.196 235.659L210.943 234.896C210.841 234.593 210.821 234.269 210.882 233.955C210.944 233.642 211.086 233.35 211.295 233.109C217.936 225.515 229.512 229.659 229.628 229.702L229.686 229.723L229.723 229.773C242.703 247.642 237.904 305.682 236.81 317.135C236.769 317.566 236.578 317.968 236.27 318.27C235.962 318.573 235.558 318.756 235.129 318.788L227.453 319.382C227.406 319.385 227.358 319.387 227.311 319.387Z" fill="#2F2E41"/>
<path d="M250.21 200.022C250.16 200.243 250.127 200.467 250.112 200.692L232.605 210.817L228.349 208.361L223.812 214.314L230.925 219.395C231.499 219.806 232.191 220.019 232.896 220.001C233.602 219.984 234.283 219.738 234.836 219.3L252.89 205.023C253.705 205.325 254.592 205.372 255.434 205.157C256.276 204.941 257.032 204.474 257.602 203.817C258.173 203.16 258.53 202.345 258.627 201.479C258.724 200.614 258.555 199.739 258.144 198.972C257.733 198.205 257.099 197.581 256.325 197.184C255.552 196.787 254.676 196.636 253.815 196.75C252.954 196.864 252.148 197.238 251.504 197.822C250.86 198.407 250.408 199.174 250.21 200.022V200.022Z" fill="#FFB8B8"/>
<path d="M231.969 211.237L226.344 218.593C226.184 218.803 225.982 218.975 225.75 219.098C225.518 219.221 225.262 219.292 225.001 219.307C224.739 219.321 224.478 219.278 224.234 219.182C223.99 219.085 223.77 218.936 223.588 218.746L217.221 212.073C216.164 211.241 215.479 210.02 215.313 208.678C215.148 207.336 215.516 205.982 216.338 204.914C217.16 203.846 218.368 203.15 219.697 202.979C221.026 202.807 222.369 203.175 223.43 204.001L231.416 208.508C231.645 208.637 231.843 208.814 231.998 209.027C232.152 209.241 232.259 209.485 232.312 209.744C232.364 210.003 232.361 210.271 232.302 210.528C232.243 210.786 232.129 211.028 231.969 211.237V211.237Z" fill="#CCCCCC"/>
<path d="M209.979 224.124L200.864 222.47C200.604 222.423 200.358 222.32 200.142 222.168C199.925 222.017 199.744 221.821 199.61 221.593C199.476 221.364 199.393 221.11 199.365 220.846C199.338 220.583 199.368 220.317 199.452 220.066L202.407 211.271C202.654 209.939 203.417 208.759 204.528 207.991C205.639 207.223 207.007 206.929 208.334 207.174C209.66 207.419 210.836 208.182 211.603 209.297C212.37 210.412 212.666 211.786 212.426 213.12L212.138 222.368C212.129 222.633 212.064 222.893 211.947 223.13C211.83 223.367 211.663 223.576 211.458 223.743C211.253 223.91 211.015 224.03 210.76 224.096C210.505 224.161 210.238 224.171 209.979 224.124H209.979Z" fill="#CCCCCC"/>
<path d="M212.681 186.041C215.248 187.807 218.618 189.623 221.24 187.742C222.06 187.114 222.655 186.236 222.938 185.24C223.22 184.243 223.173 183.182 222.805 182.214C221.55 178.605 218.101 177.017 214.803 175.799C210.516 174.216 205.848 172.956 201.422 174.09C196.996 175.224 193.084 179.532 193.883 184.052C194.526 187.688 197.937 190.713 197.453 194.373C196.965 198.057 192.845 199.996 189.206 200.654C185.568 201.312 181.497 201.524 178.883 204.151C175.547 207.502 176.38 213.492 179.519 217.03C182.657 220.569 187.393 222.172 191.982 223.263C198.063 224.707 204.639 225.466 210.414 223.069C216.189 220.672 220.683 214.218 219.01 208.166C218.303 205.61 216.639 203.45 215.03 201.347C213.421 199.243 211.792 197.044 211.179 194.464C210.667 192.313 211.046 189.817 212.464 188.204C212.722 187.922 212.885 187.564 212.928 187.183C212.971 186.803 212.894 186.418 212.706 186.084L212.681 186.041Z" fill="#2F2E41"/>
<path d="M413.476 329.071H408.316L405.862 309.24H413.477L413.476 329.071Z" fill="#FFB8B8"/>
<path d="M404.719 327.918H414.63V334.144H398.479C398.479 333.326 398.64 332.517 398.954 331.761C399.267 331.006 399.727 330.32 400.306 329.741C400.886 329.163 401.574 328.705 402.331 328.392C403.088 328.079 403.899 327.918 404.719 327.918Z" fill="#2F2E41"/>
<path d="M433.088 329.071H427.929L425.475 309.24H433.089L433.088 329.071Z" fill="#FFB8B8"/>
<path d="M424.19 327.918H434.243V334.144H417.86C417.86 333.326 418.024 332.517 418.342 331.761C418.66 331.006 419.126 330.32 419.714 329.741C420.302 329.163 421 328.705 421.768 328.392C422.536 328.079 423.359 327.918 424.19 327.918V327.918Z" fill="#2F2E41"/>
<path d="M432.426 269.53C431.88 269.171 431.419 268.694 431.073 268.133C430.728 267.572 430.507 266.94 430.426 266.282C430.344 265.623 430.405 264.955 430.604 264.324C430.802 263.692 431.134 263.113 431.575 262.627L428.243 214.238L437.839 215.191L438.103 262.578C438.852 263.39 439.284 264.455 439.316 265.572C439.349 266.688 438.981 267.778 438.281 268.635C437.581 269.492 436.599 270.056 435.519 270.221C434.44 270.386 433.339 270.14 432.426 269.53H432.426Z" fill="#FFB8B8"/>
<path d="M413.307 319.383L407.608 319.109C407.123 319.086 406.664 318.876 406.328 318.523C405.991 318.169 405.802 317.699 405.798 317.209L405.4 259.057C405.399 258.781 405.456 258.508 405.568 258.256C405.681 258.004 405.846 257.78 406.052 257.599C406.259 257.417 406.501 257.283 406.764 257.205C407.027 257.127 407.303 257.107 407.574 257.147L430.375 260.484C430.825 260.548 431.238 260.773 431.537 261.119C431.836 261.465 432.001 261.908 432.002 262.367L434.934 316.251C434.936 316.503 434.888 316.754 434.794 316.988C434.699 317.223 434.559 317.435 434.383 317.615C434.206 317.794 433.996 317.937 433.765 318.034C433.533 318.131 433.285 318.181 433.034 318.181H426.89C426.436 318.183 425.998 318.021 425.653 317.724C425.308 317.427 425.081 317.015 425.013 316.563L421.222 292.261C421.166 291.905 420.985 291.582 420.712 291.351C420.438 291.119 420.091 290.996 419.734 291.002C419.377 291.009 419.035 291.145 418.77 291.387C418.506 291.628 418.336 291.958 418.294 292.316L415.285 317.697C415.228 318.162 415.005 318.59 414.658 318.901C414.31 319.212 413.862 319.384 413.398 319.386C413.368 319.386 413.338 319.385 413.307 319.383Z" fill="#2F2E41"/>
<path d="M417.351 262.474C412.287 259.661 408.33 258.922 406.422 258.732C406.168 258.707 405.922 258.631 405.699 258.509C405.476 258.387 405.279 258.22 405.122 258.02C404.962 257.818 404.844 257.586 404.776 257.337C404.708 257.088 404.691 256.828 404.726 256.572L410.232 215.702C410.549 213.311 411.473 211.041 412.915 209.107C414.358 207.174 416.271 205.642 418.473 204.657C420.604 203.677 422.951 203.259 425.29 203.442C427.629 203.626 429.882 204.404 431.834 205.704C432.023 205.83 432.208 205.958 432.39 206.088C434.639 207.736 436.349 210.012 437.306 212.63C438.263 215.248 438.424 218.091 437.768 220.8C434.391 234.61 433.232 257.25 433.033 261.648C433.018 262.023 432.891 262.385 432.67 262.688C432.449 262.992 432.144 263.223 431.791 263.352C429.714 264.107 427.522 264.497 425.312 264.506C422.528 264.523 419.786 263.823 417.351 262.474V262.474Z" fill="#F9A826"/>
<path d="M430.254 230.476C430.019 230.309 429.824 230.092 429.685 229.842C429.546 229.591 429.466 229.313 429.45 229.028L428.713 215.885C428.64 214.583 429.06 213.3 429.891 212.284C430.722 211.268 431.906 210.591 433.214 210.384C434.522 210.176 435.863 210.452 436.976 211.16C438.09 211.867 438.898 212.954 439.244 214.213L442.482 225.964C442.616 226.454 442.548 226.977 442.291 227.418C442.034 227.858 441.61 228.181 441.113 228.314L431.903 230.771C431.623 230.847 431.33 230.859 431.045 230.808C430.759 230.757 430.489 230.643 430.254 230.476Z" fill="#F9A826"/>
<path d="M422.013 199.249C427.747 199.249 432.396 194.603 432.396 188.873C432.396 183.142 427.747 178.496 422.013 178.496C416.279 178.496 411.63 183.142 411.63 188.873C411.63 194.603 416.279 199.249 422.013 199.249Z" fill="#FFB8B8"/>
<path d="M383.263 210.015C383.335 210.241 383.389 210.473 383.424 210.709L402.581 219.775L406.799 216.824L412.059 222.664L403.147 230.289L380.914 215.496C380.092 215.884 379.171 216.012 378.274 215.86C377.378 215.709 376.548 215.286 375.894 214.647C375.241 214.009 374.796 213.186 374.618 212.287C374.44 211.389 374.538 210.457 374.898 209.616C375.258 208.776 375.864 208.066 376.635 207.581C377.406 207.097 378.305 206.86 379.213 206.904C380.121 206.947 380.995 207.268 381.718 207.823C382.442 208.379 382.981 209.144 383.263 210.015V210.015Z" fill="#FFB8B8"/>
<path d="M403.105 219.519C403.074 219.24 403.108 218.958 403.203 218.693C403.299 218.429 403.454 218.188 403.656 217.99L412.984 208.84C413.908 207.934 415.142 207.395 416.447 207.327C417.752 207.26 419.037 207.669 420.052 208.476C421.068 209.282 421.744 210.429 421.949 211.695C422.153 212.962 421.873 214.257 421.162 215.332L414.519 225.371C414.241 225.79 413.806 226.083 413.308 226.187C412.81 226.291 412.291 226.197 411.863 225.926L403.969 220.901C403.729 220.749 403.526 220.546 403.377 220.306C403.227 220.067 403.134 219.798 403.105 219.519Z" fill="#F9A826"/>
<path d="M429.243 197.255C427.291 199.334 423.665 198.218 423.411 195.378C423.391 195.157 423.392 194.935 423.415 194.715C423.547 193.457 424.274 192.315 424.1 190.986C424.06 190.655 423.937 190.34 423.742 190.071C422.186 187.988 418.534 191.002 417.066 189.117C416.166 187.961 417.224 186.14 416.533 184.848C415.621 183.143 412.921 183.984 411.227 183.05C409.343 182.011 409.455 179.12 410.696 177.362C412.208 175.218 414.861 174.074 417.48 173.909C420.099 173.744 422.701 174.452 425.146 175.405C427.924 176.487 430.68 177.983 432.389 180.426C434.469 183.396 434.669 187.39 433.629 190.863C432.996 192.976 430.837 195.557 429.243 197.255Z" fill="#E5E5E5"/>
<path d="M415.359 335.989H103.101C102.988 335.989 102.881 335.952 102.801 335.887C102.721 335.822 102.677 335.734 102.677 335.643C102.677 335.551 102.721 335.463 102.801 335.398C102.881 335.333 102.988 335.297 103.101 335.297H415.359C415.472 335.297 415.58 335.333 415.659 335.398C415.739 335.463 415.784 335.551 415.784 335.643C415.784 335.734 415.739 335.822 415.659 335.887C415.58 335.952 415.472 335.989 415.359 335.989Z" fill="#CCCCCC"/>
<path d="M340.271 266.321C339.858 265.908 339.54 265.41 339.341 264.861C339.141 264.313 339.064 263.727 339.116 263.146C339.167 262.565 339.345 262.002 339.638 261.497C339.931 260.992 340.331 260.557 340.809 260.223L336.954 246.57L343.983 248.805L346.567 261.427C347.075 262.268 347.256 263.266 347.077 264.233C346.898 265.199 346.37 266.065 345.594 266.669C344.818 267.272 343.847 267.57 342.866 267.505C341.885 267.441 340.962 267.02 340.271 266.321V266.321Z" fill="#FFB7B7"/>
<path d="M338.272 257.954C338.398 257.978 338.525 257.988 338.653 257.986L345.397 257.851C345.651 257.846 345.9 257.787 346.129 257.678C346.359 257.568 346.562 257.412 346.726 257.218C346.89 257.024 347.01 256.798 347.08 256.554C347.15 256.31 347.166 256.054 347.129 255.803L340.288 209.613C340.084 208.277 339.409 207.058 338.384 206.176C337.359 205.294 336.052 204.808 334.7 204.805C333.846 204.807 333.003 205.003 332.236 205.378C331.469 205.753 330.798 206.297 330.272 206.97C329.746 207.642 329.38 208.426 329.202 209.26C329.023 210.095 329.037 210.959 329.242 211.787L334.091 231.414L336.84 256.395C336.88 256.774 337.041 257.13 337.299 257.411C337.557 257.691 337.898 257.882 338.272 257.954V257.954Z" fill="#3F3D56"/>
<path d="M335.452 330.87H331.699L329.913 316.404L335.452 316.405L335.452 330.87Z" fill="#FFB7B7"/>
<path d="M336.409 329.647L329.018 329.646H329.018C327.769 329.647 326.571 330.142 325.688 331.025C324.805 331.908 324.308 333.105 324.308 334.353V334.506L336.409 334.507L336.409 329.647Z" fill="#2F2E41"/>
<path d="M319.449 329.651L315.72 330.069L312.332 315.892L317.837 315.275L319.449 329.651Z" fill="#FFB7B7"/>
<path d="M320.265 328.328L312.92 329.151L312.92 329.151C311.678 329.29 310.543 329.917 309.764 330.892C308.985 331.868 308.625 333.113 308.764 334.353L308.781 334.505L320.807 333.158L320.265 328.328Z" fill="#2F2E41"/>
<path d="M338.975 250.369C338.975 250.369 344.12 261.751 339.577 269.145L336.87 326.709H330.655L324.625 280.209L313.912 293.976L320.439 326.105L312.838 326.532L302.279 293.976C302.279 293.976 310.391 258.077 313.069 257.212L314.83 249.006L338.975 250.369Z" fill="#2F2E41"/>
<path d="M341.265 260.362C341.265 260.362 345.901 265.678 333.656 267.514C321.412 269.349 308.555 266.596 308.249 262.925C307.943 259.254 341.265 260.362 341.265 260.362Z" fill="#CBCBCB"/>
<path d="M279.884 194.416C279.903 194.935 280.035 195.444 280.272 195.906C280.509 196.368 280.844 196.773 281.255 197.091C281.665 197.41 282.14 197.635 282.647 197.75C283.153 197.865 283.679 197.868 284.187 197.758L288.815 204.429L293.558 202.606L286.889 193.278C286.648 192.438 286.107 191.715 285.368 191.247C284.629 190.779 283.744 190.597 282.881 190.738C282.017 190.878 281.235 191.33 280.683 192.008C280.13 192.686 279.846 193.543 279.884 194.416V194.416Z" fill="#FFB7B7"/>
<path d="M319.027 202.998L325.571 200.039L333.955 200.638C333.955 200.638 344.063 212.448 340.083 223.767L342.532 263.231C326.921 267.513 319.824 259.481 308.554 262.925L312.035 219.066L319.027 202.998Z" fill="#3F3D56"/>
<path d="M323.399 205.87L319.026 202.997C319.026 202.997 312.951 202.079 310.522 204.433C310.522 204.433 302.28 205.123 300.289 207.179L298.097 207.673L290.816 198.25L286.36 200.67L292.788 218.107L312.034 219.065L323.399 205.87Z" fill="#3F3D56"/>
<path d="M321.892 196.719C316.886 193.985 315.046 187.712 317.783 182.71C320.519 177.707 326.796 175.868 331.801 178.603C336.807 181.338 338.647 187.61 335.911 192.613C333.174 197.615 326.898 199.454 321.892 196.719Z" fill="#FFB7B7"/>
<path d="M335.78 179.592C333.936 176.278 331.632 174.132 327.838 174.209C324.045 174.287 320.763 174.137 319.056 177.523C318.605 176.679 318.379 175.733 318.4 174.776C317.885 175.111 317.479 175.589 317.232 176.151C316.985 176.713 316.908 177.336 317.011 177.941C316.679 177.747 316.401 177.472 316.203 177.143C316.004 176.813 315.892 176.439 315.876 176.055C314.61 176.476 314.281 178.259 314.921 179.429C315.562 180.599 316.818 181.275 318.024 181.847C319.229 182.419 318.673 185.443 319.46 186.52C320.009 187.271 320.26 188.192 320.631 189.046C320.646 189.08 320.672 189.107 320.706 189.124C321.554 189.597 322.09 190.442 321.94 191.402C321.922 191.474 321.927 191.549 321.952 191.619C323.027 193.642 324.187 195.759 326.134 196.966C327.697 197.909 329.569 198.198 331.344 197.771C333.335 197.295 335.056 195.976 336.297 194.349C337.538 192.722 338.336 190.8 338.936 188.844C339.468 187.109 339.855 185.254 339.433 183.489C339.011 181.724 337.582 180.09 335.771 179.953" fill="#2F2E41"/>
<defs>
<linearGradient id="paint0_linear_162_587" x1="88.6746" y1="336.825" x2="88.6746" y2="212.162" gradientUnits="userSpaceOnUse">
<stop stop-color="#808080" stop-opacity="0.25"/>
<stop offset="0.54" stop-color="#808080" stop-opacity="0.12"/>
<stop offset="1" stop-color="#808080" stop-opacity="0.1"/>
</linearGradient>
</defs>
</svg>
