<svg width="415" height="812" viewBox="0 0 415 812" fill="none" xmlns="http://www.w3.org/2000/svg">
<g clip-path="url(#clip0_235_3397)">
<rect x="20" width="375" height="812" rx="40" fill="black"/>
<g filter="url(#filter0_b_235_3397)">
<path d="M20 -521H395V265.4C395 274.361 395 278.841 393.256 282.264C391.722 285.274 389.274 287.722 386.264 289.256C382.841 291 378.361 291 369.4 291H45.6C36.6392 291 32.1587 291 28.7362 289.256C25.7256 287.722 23.2779 285.274 21.7439 282.264C20 278.841 20 274.361 20 265.4V-521Z" fill="#333333"/>
<path d="M203.448 148H205.367V126.862H203.419L197.721 130.773V132.795L203.39 129.001H203.448V148ZM217.377 148.337C218.969 148.337 220.336 147.897 221.479 147.019C222.621 146.13 223.495 144.875 224.101 143.254C224.716 141.623 225.023 139.689 225.023 137.453V137.409C225.023 135.183 224.716 133.254 224.101 131.623C223.495 129.992 222.621 128.737 221.479 127.858C220.336 126.97 218.969 126.525 217.377 126.525C215.785 126.525 214.418 126.97 213.275 127.858C212.143 128.737 211.269 129.992 210.653 131.623C210.048 133.244 209.745 135.173 209.745 137.409V137.453C209.745 139.68 210.048 141.608 210.653 143.239C211.269 144.86 212.143 146.115 213.275 147.004C214.418 147.893 215.785 148.337 217.377 148.337ZM217.377 146.579C216.195 146.579 215.185 146.208 214.345 145.466C213.505 144.724 212.86 143.669 212.411 142.302C211.972 140.935 211.752 139.318 211.752 137.453V137.409C211.752 135.544 211.972 133.928 212.411 132.561C212.86 131.193 213.505 130.139 214.345 129.396C215.185 128.654 216.195 128.283 217.377 128.283C218.559 128.283 219.569 128.654 220.409 129.396C221.259 130.139 221.908 131.193 222.357 132.561C222.807 133.918 223.031 135.534 223.031 137.409V137.453C223.031 139.318 222.807 140.935 222.357 142.302C221.908 143.669 221.259 144.724 220.409 145.466C219.569 146.208 218.559 146.579 217.377 146.579ZM234.777 148.337C236.369 148.337 237.736 147.897 238.879 147.019C240.021 146.13 240.896 144.875 241.501 143.254C242.116 141.623 242.424 139.689 242.424 137.453V137.409C242.424 135.183 242.116 133.254 241.501 131.623C240.896 129.992 240.021 128.737 238.879 127.858C237.736 126.97 236.369 126.525 234.777 126.525C233.186 126.525 231.818 126.97 230.676 127.858C229.543 128.737 228.669 129.992 228.054 131.623C227.448 133.244 227.146 135.173 227.146 137.409V137.453C227.146 139.68 227.448 141.608 228.054 143.239C228.669 144.86 229.543 146.115 230.676 147.004C231.818 147.893 233.186 148.337 234.777 148.337ZM234.777 146.579C233.596 146.579 232.585 146.208 231.745 145.466C230.905 144.724 230.261 143.669 229.812 142.302C229.372 140.935 229.152 139.318 229.152 137.453V137.409C229.152 135.544 229.372 133.928 229.812 132.561C230.261 131.193 230.905 130.139 231.745 129.396C232.585 128.654 233.596 128.283 234.777 128.283C235.959 128.283 236.97 128.654 237.81 129.396C238.659 130.139 239.309 131.193 239.758 132.561C240.207 133.918 240.432 135.534 240.432 137.409V137.453C240.432 139.318 240.207 140.935 239.758 142.302C239.309 143.669 238.659 144.724 237.81 145.466C236.97 146.208 235.959 146.579 234.777 146.579ZM250.521 140.368H265.242V138.566H250.521V140.368ZM256.98 146.638H258.768V132.282H256.98V146.638ZM273.793 148H287.577V146.213H275.917L276.562 146.828V145.451L275.917 146.828L282.23 140.251C283.48 138.962 284.452 137.873 285.146 136.984C285.839 136.096 286.327 135.295 286.61 134.582C286.894 133.869 287.035 133.137 287.035 132.385V132.355C287.035 131.262 286.752 130.275 286.186 129.396C285.629 128.518 284.862 127.819 283.886 127.302C282.909 126.784 281.791 126.525 280.531 126.525C279.262 126.525 278.114 126.794 277.089 127.331C276.063 127.858 275.243 128.586 274.628 129.514C274.022 130.432 273.71 131.481 273.69 132.663V132.795H275.624V132.678C275.644 131.848 275.868 131.101 276.298 130.437C276.728 129.772 277.309 129.25 278.041 128.869C278.783 128.479 279.628 128.283 280.575 128.283C281.435 128.283 282.201 128.464 282.875 128.825C283.549 129.187 284.076 129.68 284.457 130.305C284.848 130.93 285.043 131.643 285.043 132.443V132.473C285.043 133.088 284.936 133.674 284.721 134.23C284.516 134.787 284.14 135.417 283.593 136.12C283.056 136.813 282.284 137.688 281.278 138.742L273.793 146.594V148ZM297.316 148.337C298.908 148.337 300.275 147.897 301.418 147.019C302.561 146.13 303.435 144.875 304.04 143.254C304.655 141.623 304.963 139.689 304.963 137.453V137.409C304.963 135.183 304.655 133.254 304.04 131.623C303.435 129.992 302.561 128.737 301.418 127.858C300.275 126.97 298.908 126.525 297.316 126.525C295.725 126.525 294.357 126.97 293.215 127.858C292.082 128.737 291.208 129.992 290.593 131.623C289.987 133.244 289.685 135.173 289.685 137.409V137.453C289.685 139.68 289.987 141.608 290.593 143.239C291.208 144.86 292.082 146.115 293.215 147.004C294.357 147.893 295.725 148.337 297.316 148.337ZM297.316 146.579C296.135 146.579 295.124 146.208 294.284 145.466C293.444 144.724 292.8 143.669 292.351 142.302C291.911 140.935 291.691 139.318 291.691 137.453V137.409C291.691 135.544 291.911 133.928 292.351 132.561C292.8 131.193 293.444 130.139 294.284 129.396C295.124 128.654 296.135 128.283 297.316 128.283C298.498 128.283 299.509 128.654 300.349 129.396C301.198 130.139 301.848 131.193 302.297 132.561C302.746 133.918 302.971 135.534 302.971 137.409V137.453C302.971 139.318 302.746 140.935 302.297 142.302C301.848 143.669 301.198 144.724 300.349 145.466C299.509 146.208 298.498 146.579 297.316 146.579ZM313.06 140.368H327.781V138.566H313.06V140.368ZM319.52 146.638H321.307V132.282H319.52V146.638ZM343.173 148.337C344.569 148.337 345.81 148.073 346.894 147.546C347.978 147.019 348.832 146.296 349.457 145.378C350.082 144.45 350.395 143.405 350.395 142.243V142.214C350.395 140.71 349.911 139.494 348.944 138.566C347.987 137.639 346.718 137.116 345.136 136.999V136.94C346.034 136.755 346.82 136.438 347.494 135.988C348.168 135.529 348.69 134.963 349.062 134.289C349.442 133.605 349.633 132.829 349.633 131.96V131.931C349.633 130.876 349.359 129.943 348.812 129.133C348.266 128.322 347.499 127.688 346.513 127.229C345.536 126.76 344.394 126.525 343.085 126.525C341.806 126.525 340.678 126.765 339.701 127.243C338.725 127.712 337.943 128.361 337.357 129.191C336.771 130.012 336.425 130.969 336.317 132.062L336.303 132.209H338.222L338.236 132.062C338.324 131.311 338.573 130.651 338.983 130.085C339.403 129.519 339.965 129.074 340.668 128.752C341.371 128.43 342.177 128.269 343.085 128.269C344.022 128.269 344.828 128.43 345.502 128.752C346.186 129.074 346.713 129.523 347.084 130.1C347.455 130.676 347.641 131.359 347.641 132.15V132.18C347.641 132.961 347.436 133.654 347.025 134.26C346.625 134.865 346.063 135.344 345.341 135.695C344.618 136.037 343.788 136.208 342.851 136.208H340.39V137.907H342.924C344.613 137.907 345.941 138.288 346.908 139.05C347.885 139.802 348.373 140.871 348.373 142.258V142.287C348.373 143.117 348.153 143.859 347.714 144.514C347.274 145.158 346.664 145.666 345.883 146.037C345.102 146.408 344.198 146.594 343.173 146.594C342.147 146.594 341.249 146.423 340.478 146.081C339.706 145.739 339.091 145.275 338.632 144.689C338.173 144.094 337.895 143.415 337.797 142.653L337.782 142.536H335.863L335.878 142.683C335.985 143.767 336.347 144.733 336.962 145.583C337.587 146.433 338.422 147.106 339.467 147.604C340.521 148.093 341.757 148.337 343.173 148.337ZM358.843 143.942H373.198V142.155H358.843V143.942ZM358.843 136.765H373.198V134.963H358.843V136.765Z" fill="#A5A5A5"/>
<path d="M280.973 244H285.578V193.27H280.902L267.227 202.656V207.508L280.832 198.402H280.973V244ZM297.664 244H330.746V239.711H302.762L304.309 241.188V237.883L302.762 241.188L317.914 225.402C320.914 222.309 323.246 219.695 324.91 217.562C326.574 215.43 327.746 213.508 328.426 211.797C329.105 210.086 329.445 208.328 329.445 206.523V206.453C329.445 203.828 328.766 201.461 327.406 199.352C326.07 197.242 324.23 195.566 321.887 194.324C319.543 193.082 316.859 192.461 313.836 192.461C310.789 192.461 308.035 193.105 305.574 194.395C303.113 195.66 301.145 197.406 299.668 199.633C298.215 201.836 297.465 204.355 297.418 207.191V207.508H302.059V207.227C302.105 205.234 302.645 203.441 303.676 201.848C304.707 200.254 306.102 199 307.859 198.086C309.641 197.148 311.668 196.68 313.941 196.68C316.004 196.68 317.844 197.113 319.461 197.98C321.078 198.848 322.344 200.031 323.258 201.531C324.195 203.031 324.664 204.742 324.664 206.664V206.734C324.664 208.211 324.406 209.617 323.891 210.953C323.398 212.289 322.496 213.801 321.184 215.488C319.895 217.152 318.043 219.25 315.629 221.781L297.664 240.625V244ZM354.082 244.809C357.434 244.809 360.41 244.176 363.012 242.91C365.613 241.645 367.664 239.91 369.164 237.707C370.664 235.48 371.414 232.973 371.414 230.184V230.113C371.414 226.504 370.254 223.586 367.934 221.359C365.637 219.133 362.59 217.879 358.793 217.598V217.457C360.949 217.012 362.836 216.25 364.453 215.172C366.07 214.07 367.324 212.711 368.215 211.094C369.129 209.453 369.586 207.59 369.586 205.504V205.434C369.586 202.902 368.93 200.664 367.617 198.719C366.305 196.773 364.465 195.25 362.098 194.148C359.754 193.023 357.012 192.461 353.871 192.461C350.801 192.461 348.094 193.035 345.75 194.184C343.406 195.309 341.531 196.867 340.125 198.859C338.719 200.828 337.887 203.125 337.629 205.75L337.594 206.102H342.199L342.234 205.75C342.445 203.945 343.043 202.363 344.027 201.004C345.035 199.645 346.383 198.578 348.07 197.805C349.758 197.031 351.691 196.645 353.871 196.645C356.121 196.645 358.055 197.031 359.672 197.805C361.312 198.578 362.578 199.656 363.469 201.039C364.359 202.422 364.805 204.062 364.805 205.961V206.031C364.805 207.906 364.312 209.57 363.328 211.023C362.367 212.477 361.02 213.625 359.285 214.469C357.551 215.289 355.559 215.699 353.309 215.699H347.402V219.777H353.484C357.539 219.777 360.727 220.691 363.047 222.52C365.391 224.324 366.562 226.891 366.562 230.219V230.289C366.562 232.281 366.035 234.062 364.98 235.633C363.926 237.18 362.461 238.398 360.586 239.289C358.711 240.18 356.543 240.625 354.082 240.625C351.621 240.625 349.465 240.215 347.613 239.395C345.762 238.574 344.285 237.461 343.184 236.055C342.082 234.625 341.414 232.996 341.18 231.168L341.145 230.887H336.539L336.574 231.238C336.832 233.84 337.699 236.16 339.176 238.199C340.676 240.238 342.68 241.855 345.188 243.051C347.719 244.223 350.684 244.809 354.082 244.809Z" fill="white"/>
<path d="M20 43.5H395V42.5H20V43.5Z" fill="#A5A5A5"/>
<g filter="url(#filter1_b_235_3397)">
<path d="M20 -153H395V19H20V-153Z" fill="#333333"/>
<path d="M20 -152.5H395V-153.5H20V-152.5Z" fill="#A5A5A5"/>
</g>
<rect x="191" y="279" width="34" height="5" rx="2.5" fill="white"/>
</g>
<path d="M36 344.5C36 323.789 52.7893 307 73.5 307V307C94.2107 307 111 323.789 111 344.5V344.5C111 365.211 94.2107 382 73.5 382V382C52.7893 382 36 365.211 36 344.5V344.5Z" fill="#A5A5A5"/>
<path d="M74.0859 355.852C75.5605 355.852 76.8984 355.578 78.0996 355.031C79.3008 354.484 80.3018 353.713 81.1025 352.717C81.9033 351.711 82.4355 350.534 82.6992 349.187L82.7285 349.04H80.0625L80.0186 349.172C79.7158 350.1 79.2861 350.881 78.7295 351.516C78.1729 352.141 77.5039 352.614 76.7227 352.937C75.9512 353.259 75.0723 353.42 74.0859 353.42C72.6895 353.42 71.4688 353.068 70.4238 352.365C69.3789 351.662 68.5684 350.676 67.9922 349.406C67.4258 348.127 67.1426 346.633 67.1426 344.924V344.909C67.1426 343.19 67.4258 341.701 67.9922 340.441C68.5684 339.172 69.374 338.19 70.4092 337.497C71.4541 336.794 72.6797 336.442 74.0859 336.442C75.082 336.442 75.9707 336.604 76.752 336.926C77.5332 337.248 78.1924 337.712 78.7295 338.317C79.2764 338.913 79.6865 339.641 79.96 340.5L80.0625 340.822H82.7285L82.6992 340.676C82.4355 339.338 81.8984 338.171 81.0879 337.175C80.2871 336.179 79.2861 335.402 78.085 334.846C76.8838 334.289 75.5508 334.011 74.0859 334.011C72.123 334.011 70.4189 334.46 68.9736 335.358C67.5283 336.247 66.4102 337.507 65.6191 339.138C64.8281 340.769 64.4326 342.692 64.4326 344.909V344.924C64.4326 347.141 64.8281 349.069 65.6191 350.71C66.4102 352.341 67.5283 353.605 68.9736 354.504C70.4287 355.402 72.1328 355.852 74.0859 355.852Z" fill="black"/>
<path d="M125 344.5C125 323.789 141.789 307 162.5 307V307C183.211 307 200 323.789 200 344.5V344.5C200 365.211 183.211 382 162.5 382V382C141.789 382 125 365.211 125 344.5V344.5Z" fill="#A5A5A5"/>
<path fill-rule="evenodd" clip-rule="evenodd" d="M155.582 355.201L168.83 334L171.223 334L158 355.201H155.582ZM154 337.816H151V339.816H154V342.816H156V339.816H159V337.816H156V334.816H154V337.816ZM175 348.816H167V350.816H175V348.816Z" fill="black"/>
<path d="M214 344.5C214 323.789 230.789 307 251.5 307V307C272.211 307 289 323.789 289 344.5V344.5C289 365.211 272.211 382 251.5 382V382C230.789 382 214 365.211 214 344.5V344.5Z" fill="#A5A5A5"/>
<path d="M244.718 344.953C245.655 344.953 246.461 344.738 247.135 344.309C247.809 343.869 248.321 343.244 248.673 342.434C249.034 341.623 249.215 340.671 249.215 339.577V339.562C249.215 338.459 249.034 337.507 248.673 336.706C248.321 335.896 247.809 335.275 247.135 334.846C246.461 334.406 245.655 334.187 244.718 334.187C243.78 334.187 242.975 334.406 242.301 334.846C241.627 335.275 241.109 335.896 240.748 336.706C240.387 337.507 240.206 338.459 240.206 339.562V339.577C240.206 340.671 240.387 341.623 240.748 342.434C241.109 343.244 241.627 343.869 242.301 344.309C242.975 344.738 243.78 344.953 244.718 344.953ZM244.718 342.946C244.054 342.946 243.536 342.653 243.165 342.067C242.804 341.472 242.623 340.642 242.623 339.577V339.562C242.623 338.488 242.804 337.658 243.165 337.072C243.536 336.486 244.054 336.193 244.718 336.193C245.382 336.193 245.895 336.486 246.256 337.072C246.627 337.658 246.812 338.488 246.812 339.562V339.577C246.812 340.642 246.627 341.472 246.256 342.067C245.895 342.653 245.382 342.946 244.718 342.946ZM246.124 355.5L259.586 334.362H256.891L243.399 355.5H246.124ZM258.268 355.676C259.205 355.676 260.011 355.461 260.685 355.031C261.358 354.592 261.871 353.967 262.223 353.156C262.584 352.346 262.765 351.389 262.765 350.285V350.271C262.765 349.177 262.584 348.229 262.223 347.429C261.871 346.618 261.358 345.998 260.685 345.568C260.011 345.129 259.205 344.909 258.268 344.909C257.33 344.909 256.524 345.129 255.851 345.568C255.177 345.998 254.659 346.618 254.298 347.429C253.937 348.229 253.756 349.177 253.756 350.271V350.285C253.756 351.389 253.937 352.346 254.298 353.156C254.659 353.967 255.177 354.592 255.851 355.031C256.524 355.461 257.33 355.676 258.268 355.676ZM258.268 353.669C257.604 353.669 257.086 353.376 256.715 352.79C256.354 352.194 256.173 351.364 256.173 350.3V350.285C256.173 349.211 256.354 348.381 256.715 347.795C257.086 347.209 257.604 346.916 258.268 346.916C258.932 346.916 259.444 347.209 259.806 347.795C260.177 348.381 260.362 349.211 260.362 350.285V350.3C260.362 351.364 260.177 352.194 259.806 352.79C259.444 353.376 258.932 353.669 258.268 353.669Z" fill="black"/>
<path d="M36 433.5C36 412.789 52.7893 396 73.5 396V396C94.2107 396 111 412.789 111 433.5V433.5C111 454.211 94.2107 471 73.5 471V471C52.7893 471 36 454.211 36 433.5V433.5Z" fill="#333333"/>
<path d="M67.1719 446H70.4941L81.7793 423.57V420.635H64.9922V423.447H78.6504V423.518L67.1719 446Z" fill="white"/>
<path d="M125 433.5C125 412.789 141.789 396 162.5 396V396C183.211 396 200 412.789 200 433.5V433.5C200 454.211 183.211 471 162.5 471V471C141.789 471 125 454.211 125 433.5V433.5Z" fill="#333333"/>
<path d="M162.5 446.422C164.293 446.422 165.881 446.111 167.264 445.49C168.658 444.869 169.748 444.014 170.533 442.924C171.318 441.822 171.711 440.562 171.711 439.145V439.109C171.711 438.066 171.482 437.1 171.025 436.209C170.568 435.318 169.93 434.562 169.109 433.941C168.301 433.309 167.352 432.869 166.262 432.623V432.553C167.656 432.119 168.758 431.404 169.566 430.408C170.387 429.412 170.797 428.246 170.797 426.91V426.875C170.797 425.598 170.439 424.461 169.725 423.465C169.01 422.457 168.025 421.666 166.771 421.092C165.529 420.506 164.105 420.213 162.5 420.213C160.906 420.213 159.482 420.506 158.229 421.092C156.975 421.666 155.99 422.457 155.275 423.465C154.561 424.461 154.203 425.598 154.203 426.875V426.91C154.203 428.246 154.613 429.412 155.434 430.408C156.254 431.404 157.355 432.119 158.738 432.553V432.623C157.66 432.869 156.711 433.309 155.891 433.941C155.07 434.562 154.432 435.318 153.975 436.209C153.518 437.1 153.289 438.066 153.289 439.109V439.145C153.289 440.562 153.682 441.822 154.467 442.924C155.264 444.014 156.354 444.869 157.736 445.49C159.119 446.111 160.707 446.422 162.5 446.422ZM162.5 443.662C161.34 443.662 160.309 443.463 159.406 443.064C158.504 442.654 157.795 442.098 157.279 441.395C156.764 440.68 156.506 439.865 156.506 438.951V438.916C156.506 437.99 156.758 437.17 157.262 436.455C157.777 435.74 158.486 435.178 159.389 434.768C160.291 434.357 161.328 434.152 162.5 434.152C163.672 434.152 164.709 434.357 165.611 434.768C166.514 435.178 167.217 435.74 167.721 436.455C168.236 437.17 168.494 437.99 168.494 438.916V438.951C168.494 439.865 168.236 440.68 167.721 441.395C167.205 442.098 166.496 442.654 165.594 443.064C164.703 443.463 163.672 443.662 162.5 443.662ZM162.5 431.375C161.48 431.375 160.584 431.199 159.811 430.848C159.037 430.484 158.434 429.986 158 429.354C157.566 428.721 157.35 427.994 157.35 427.174V427.139C157.35 426.318 157.566 425.592 158 424.959C158.434 424.326 159.037 423.834 159.811 423.482C160.584 423.119 161.48 422.938 162.5 422.938C163.52 422.938 164.416 423.119 165.189 423.482C165.963 423.834 166.566 424.326 167 424.959C167.434 425.592 167.65 426.318 167.65 427.139V427.174C167.65 427.994 167.434 428.721 167 429.354C166.566 429.986 165.963 430.484 165.189 430.848C164.416 431.199 163.52 431.375 162.5 431.375Z" fill="white"/>
<path d="M214 433.5C214 412.789 230.789 396 251.5 396V396C272.211 396 289 412.789 289 433.5V433.5C289 454.211 272.211 471 251.5 471V471C230.789 471 214 454.211 214 433.5V433.5Z" fill="#333333"/>
<path d="M251.377 420.213C249.643 420.213 248.102 420.588 246.754 421.338C245.406 422.076 244.34 423.096 243.555 424.396C242.781 425.686 242.395 427.162 242.395 428.826V428.861C242.395 430.467 242.758 431.902 243.484 433.168C244.223 434.434 245.225 435.43 246.49 436.156C247.768 436.883 249.209 437.246 250.814 437.246C251.963 437.246 253.006 437.064 253.943 436.701C254.893 436.326 255.701 435.834 256.369 435.225C257.037 434.604 257.541 433.918 257.881 433.168H258.25V428.861H257.195V428.879C257.195 429.957 256.938 430.918 256.422 431.762C255.918 432.605 255.227 433.268 254.348 433.748C253.469 434.229 252.473 434.469 251.359 434.469C250.246 434.469 249.256 434.229 248.389 433.748C247.521 433.256 246.842 432.582 246.35 431.727C245.857 430.871 245.611 429.893 245.611 428.791V428.756C245.611 427.689 245.869 426.723 246.385 425.855C246.9 424.988 247.598 424.303 248.477 423.799C249.355 423.283 250.334 423.025 251.412 423.025C252.502 423.025 253.48 423.289 254.348 423.816C255.227 424.332 255.918 425.029 256.422 425.908C256.938 426.787 257.195 427.771 257.195 428.861L257.951 433.027C257.951 433.145 257.951 433.262 257.951 433.379C257.951 433.484 257.945 433.596 257.934 433.713C257.887 435.482 257.629 437.123 257.16 438.635C256.703 440.135 255.988 441.342 255.016 442.256C254.055 443.17 252.783 443.627 251.201 443.627C250.334 443.627 249.555 443.492 248.863 443.223C248.184 442.941 247.604 442.549 247.123 442.045C246.654 441.529 246.291 440.926 246.033 440.234L245.963 440.041H242.746L242.799 440.27C243.08 441.5 243.607 442.578 244.381 443.504C245.154 444.418 246.121 445.133 247.281 445.648C248.441 446.164 249.736 446.422 251.166 446.422C253.24 446.422 255.01 445.889 256.475 444.822C257.939 443.756 259.059 442.215 259.832 440.199C260.617 438.172 261.01 435.734 261.01 432.887V432.852C261.01 430.496 260.729 428.516 260.166 426.91C259.615 425.293 258.871 423.992 257.934 423.008C257.008 422.023 255.977 421.314 254.84 420.881C253.703 420.436 252.549 420.213 251.377 420.213Z" fill="white"/>
<path d="M36 522.5C36 501.789 52.7893 485 73.5 485V485C94.2107 485 111 501.789 111 522.5V522.5C111 543.211 94.2107 560 73.5 560V560C52.7893 560 36 543.211 36 522.5V522.5Z" fill="#333333"/>
<path d="M76.7344 535H79.793V529.727H83.3789V526.949H79.793V509.635H75.1172C74.3789 510.783 73.6348 511.932 72.8848 513.08C72.1465 514.229 71.4082 515.377 70.6699 516.525C69.9316 517.674 69.1875 518.822 68.4375 519.971C67.6992 521.119 66.9551 522.268 66.2051 523.416C65.4668 524.564 64.7285 525.713 63.9902 526.861V529.727H76.7344V535ZM67.1191 526.949V526.879C67.752 525.906 68.3848 524.939 69.0176 523.979C69.6504 523.006 70.2832 522.033 70.916 521.061C71.5605 520.088 72.1992 519.121 72.832 518.16C73.4648 517.188 74.0977 516.221 74.7305 515.26C75.3633 514.287 75.9961 513.314 76.6289 512.342H76.7344V526.949H67.1191Z" fill="white"/>
<path d="M125 522.5C125 501.789 141.789 485 162.5 485V485C183.211 485 200 501.789 200 522.5V522.5C200 543.211 183.211 560 162.5 560V560C141.789 560 125 543.211 125 522.5V522.5Z" fill="#333333"/>
<path d="M162.746 535.422C164.504 535.422 166.062 535.059 167.422 534.332C168.781 533.594 169.848 532.574 170.621 531.273C171.395 529.973 171.781 528.479 171.781 526.791V526.756C171.781 525.127 171.418 523.686 170.691 522.432C169.977 521.166 168.986 520.17 167.721 519.443C166.467 518.717 165.025 518.354 163.396 518.354C162.576 518.354 161.803 518.453 161.076 518.652C160.35 518.852 159.693 519.145 159.107 519.531C158.521 519.918 158.029 520.398 157.631 520.973H157.561L158.422 512.447H170.34V509.635H155.82L154.52 524.102H157.314C157.479 523.809 157.66 523.539 157.859 523.293C158.07 523.047 158.287 522.818 158.51 522.607C159.072 522.092 159.717 521.711 160.443 521.465C161.182 521.207 161.979 521.078 162.834 521.078C163.959 521.078 164.955 521.324 165.822 521.816C166.689 522.309 167.369 522.988 167.861 523.855C168.365 524.711 168.617 525.695 168.617 526.809V526.844C168.617 527.98 168.371 528.988 167.879 529.867C167.387 530.734 166.701 531.414 165.822 531.906C164.943 532.398 163.93 532.645 162.781 532.645C161.773 532.645 160.865 532.451 160.057 532.064C159.248 531.678 158.592 531.15 158.088 530.482C157.584 529.803 157.279 529.047 157.174 528.215L157.156 528.074H154.045L154.062 528.268C154.191 529.639 154.637 530.863 155.398 531.941C156.16 533.02 157.168 533.869 158.422 534.49C159.688 535.111 161.129 535.422 162.746 535.422Z" fill="white"/>
<path d="M214 522.5C214 501.789 230.789 485 251.5 485V485C272.211 485 289 501.789 289 522.5V522.5C289 543.211 272.211 560 251.5 560V560C230.789 560 214 543.211 214 522.5V522.5Z" fill="#333333"/>
<path d="M251.623 535.422C253.357 535.422 254.898 535.053 256.246 534.314C257.594 533.564 258.654 532.545 259.428 531.256C260.213 529.955 260.605 528.473 260.605 526.809V526.773C260.605 525.168 260.236 523.732 259.498 522.467C258.771 521.201 257.775 520.205 256.51 519.479C255.244 518.752 253.803 518.389 252.186 518.389C251.037 518.389 249.994 518.576 249.057 518.951C248.119 519.314 247.311 519.807 246.631 520.428C245.963 521.037 245.459 521.717 245.119 522.467H244.75V526.773H245.805V526.756C245.805 525.678 246.057 524.717 246.561 523.873C247.076 523.029 247.773 522.367 248.652 521.887C249.543 521.406 250.539 521.166 251.641 521.166C252.754 521.166 253.744 521.412 254.611 521.904C255.479 522.385 256.158 523.053 256.65 523.908C257.143 524.764 257.389 525.742 257.389 526.844V526.879C257.389 527.945 257.131 528.912 256.615 529.779C256.1 530.646 255.402 531.338 254.523 531.854C253.645 532.357 252.666 532.609 251.588 532.609C250.51 532.609 249.531 532.352 248.652 531.836C247.773 531.309 247.076 530.605 246.561 529.727C246.057 528.836 245.805 527.852 245.805 526.773L245.049 522.607C245.049 522.49 245.049 522.379 245.049 522.273C245.049 522.156 245.055 522.039 245.066 521.922C245.113 520.141 245.365 518.5 245.822 517C246.291 515.5 247.012 514.293 247.984 513.379C248.957 512.465 250.229 512.008 251.799 512.008C252.666 512.008 253.439 512.148 254.119 512.43C254.811 512.699 255.396 513.086 255.877 513.59C256.357 514.094 256.721 514.697 256.967 515.4L257.037 515.594H260.254L260.201 515.365C259.92 514.135 259.393 513.057 258.619 512.131C257.846 511.205 256.879 510.49 255.719 509.986C254.57 509.471 253.275 509.213 251.834 509.213C249.771 509.213 248.002 509.746 246.525 510.812C245.061 511.879 243.936 513.426 243.15 515.453C242.377 517.469 241.99 519.9 241.99 522.748V522.783C241.99 525.139 242.266 527.125 242.816 528.742C243.379 530.348 244.123 531.643 245.049 532.627C245.986 533.611 247.023 534.326 248.16 534.771C249.297 535.205 250.451 535.422 251.623 535.422Z" fill="white"/>
<path d="M36 611.5C36 590.789 52.7893 574 73.5 574V574C94.2107 574 111 590.789 111 611.5V611.5C111 632.211 94.2107 649 73.5 649V649C52.7893 649 36 632.211 36 611.5V611.5Z" fill="#333333"/>
<path d="M74.0449 624H77.1035V598.635H74.0098L67.2598 603.486V606.668L73.9746 601.992H74.0449V624Z" fill="white"/>
<path d="M125 611.5C125 590.789 141.789 574 162.5 574V574C183.211 574 200 590.789 200 611.5V611.5C200 632.211 183.211 649 162.5 649V649C141.789 649 125 632.211 125 611.5V611.5Z" fill="#333333"/>
<path d="M154.361 624H171.096V621.188H157.771L158.703 622.066V620.115L157.771 622.066L164.732 614.93C166.291 613.336 167.498 612 168.354 610.922C169.209 609.832 169.807 608.854 170.146 607.986C170.498 607.119 170.674 606.223 170.674 605.297V605.262C170.674 603.938 170.328 602.742 169.637 601.676C168.957 600.609 168.02 599.766 166.824 599.145C165.629 598.523 164.264 598.213 162.729 598.213C161.158 598.213 159.723 598.547 158.422 599.215C157.133 599.871 156.107 600.779 155.346 601.939C154.584 603.088 154.203 604.395 154.203 605.859V605.965H157.262V605.877C157.262 604.963 157.502 604.137 157.982 603.398C158.463 602.66 159.119 602.074 159.951 601.641C160.783 601.195 161.727 600.973 162.781 600.973C163.707 600.973 164.521 601.166 165.225 601.553C165.939 601.928 166.496 602.449 166.895 603.117C167.305 603.785 167.51 604.553 167.51 605.42V605.455C167.51 606.158 167.393 606.82 167.158 607.441C166.936 608.062 166.52 608.766 165.91 609.551C165.312 610.324 164.439 611.309 163.291 612.504L154.361 621.82V624Z" fill="white"/>
<path d="M214 611.5C214 590.789 230.789 574 251.5 574V574C272.211 574 289 590.789 289 611.5V611.5C289 632.211 272.211 649 251.5 649V649C230.789 649 214 632.211 214 611.5V611.5Z" fill="#333333"/>
<path d="M251.447 624.422C253.146 624.422 254.658 624.105 255.982 623.473C257.307 622.828 258.35 621.949 259.111 620.836C259.873 619.723 260.254 618.463 260.254 617.057V617.021C260.254 615.217 259.68 613.77 258.531 612.68C257.395 611.578 255.9 610.951 254.049 610.799V610.729C255.104 610.506 256.035 610.125 256.844 609.586C257.652 609.047 258.285 608.373 258.742 607.564C259.199 606.756 259.428 605.83 259.428 604.787V604.752C259.428 603.463 259.094 602.332 258.426 601.359C257.77 600.375 256.838 599.607 255.631 599.057C254.436 598.494 253.029 598.213 251.412 598.213C249.83 598.213 248.43 598.5 247.211 599.074C246.004 599.648 245.031 600.451 244.293 601.482C243.566 602.514 243.133 603.721 242.992 605.104L242.975 605.279H246.016L246.033 605.104C246.127 604.248 246.408 603.51 246.877 602.889C247.346 602.268 247.967 601.793 248.74 601.465C249.525 601.125 250.416 600.955 251.412 600.955C252.443 600.955 253.316 601.119 254.031 601.447C254.758 601.775 255.309 602.25 255.684 602.871C256.059 603.492 256.246 604.248 256.246 605.139V605.174C256.246 606.018 256.029 606.773 255.596 607.441C255.162 608.098 254.559 608.619 253.785 609.006C253.012 609.381 252.121 609.568 251.113 609.568H248.072V612.24H251.254C253.035 612.24 254.441 612.662 255.473 613.506C256.516 614.338 257.037 615.533 257.037 617.092V617.127C257.037 618.018 256.803 618.809 256.334 619.5C255.865 620.18 255.209 620.713 254.365 621.1C253.533 621.486 252.561 621.68 251.447 621.68C250.322 621.68 249.332 621.504 248.477 621.152C247.621 620.789 246.936 620.291 246.42 619.658C245.916 619.025 245.617 618.293 245.523 617.461L245.506 617.285H242.465L242.482 617.496C242.6 618.832 243.033 620.021 243.783 621.064C244.545 622.107 245.576 622.928 246.877 623.525C248.178 624.123 249.701 624.422 251.447 624.422Z" fill="white"/>
<path d="M36 700.5C36 679.789 52.7893 663 73.5 663V663C94.2107 663 111 679.789 111 700.5V700.5C111 721.211 94.2107 738 73.5 738V738C52.7893 738 36 721.211 36 700.5V700.5Z" fill="#A5A5A5"/>
<path d="M71.7253 696.719C71.795 696.649 71.8777 696.594 71.9689 696.556C72.06 696.518 72.1577 696.499 72.2563 696.499C72.355 696.499 72.4526 696.518 72.5438 696.556C72.6349 696.594 72.7176 696.649 72.7873 696.719L76.0063 699.94L79.2253 696.719C79.3661 696.578 79.5571 696.499 79.7563 696.499C79.9555 696.499 80.1465 696.578 80.2873 696.719C80.4281 696.86 80.5073 697.051 80.5073 697.25C80.5073 697.449 80.4281 697.64 80.2873 697.781L77.0668 701L80.2873 704.219C80.4281 704.36 80.5073 704.551 80.5073 704.75C80.5073 704.949 80.4281 705.14 80.2873 705.281C80.1465 705.422 79.9555 705.501 79.7563 705.501C79.5571 705.501 79.3661 705.422 79.2253 705.281L76.0063 702.06L72.7873 705.281C72.6467 705.422 72.4559 705.501 72.2568 705.501C72.0578 705.501 71.8669 705.422 71.7261 705.282C71.5852 705.141 71.506 704.95 71.5059 704.751C71.5058 704.552 71.5847 704.361 71.7253 704.221L74.9458 701L71.7253 697.781C71.6555 697.711 71.6001 697.629 71.5622 697.537C71.5244 697.446 71.505 697.349 71.505 697.25C71.505 697.151 71.5244 697.054 71.5622 696.963C71.6001 696.871 71.6555 696.789 71.7253 696.719ZM67.8853 692.996C68.5783 692.356 69.4872 692 70.4308 692H81.2563C82.2509 692 83.2047 692.395 83.908 693.098C84.6112 693.802 85.0063 694.755 85.0063 695.75V706.25C85.0063 707.245 84.6112 708.198 83.908 708.902C83.2047 709.605 82.2509 710 81.2563 710H70.4308C69.4872 710 68.5783 709.644 67.8853 709.004L62.2048 703.754C61.8249 703.403 61.5217 702.977 61.3144 702.503C61.107 702.029 61 701.517 61 701C61 700.483 61.107 699.971 61.3144 699.497C61.5217 699.023 61.8249 698.597 62.2048 698.246L67.8853 692.996V692.996ZM70.4308 693.5C69.8646 693.5 69.3194 693.714 68.9038 694.099L63.2233 699.349C62.9954 699.559 62.8135 699.815 62.6892 700.099C62.5648 700.383 62.5006 700.69 62.5006 701.001C62.5006 701.311 62.5648 701.618 62.6892 701.902C62.8135 702.187 62.9954 702.442 63.2233 702.653L68.9038 707.903C69.3196 708.287 69.8648 708.5 70.4308 708.5H81.2563C81.853 708.5 82.4253 708.263 82.8473 707.841C83.2693 707.419 83.5063 706.847 83.5063 706.25V695.75C83.5063 695.153 83.2693 694.581 82.8473 694.159C82.4253 693.737 81.853 693.5 81.2563 693.5H70.4308Z" fill="black"/>
<path d="M125 700.5C125 679.789 141.789 663 162.5 663V663C183.211 663 200 679.789 200 700.5V700.5C200 721.211 183.211 738 162.5 738V738C141.789 738 125 721.211 125 700.5V700.5Z" fill="#333333"/>
<path d="M162.482 713.422C164.428 713.422 166.098 712.889 167.492 711.822C168.887 710.756 169.953 709.244 170.691 707.287C171.441 705.33 171.816 703.01 171.816 700.326V700.291C171.816 697.607 171.441 695.287 170.691 693.33C169.953 691.373 168.887 689.867 167.492 688.812C166.098 687.746 164.428 687.213 162.482 687.213C160.537 687.213 158.867 687.746 157.473 688.812C156.09 689.867 155.029 691.373 154.291 693.33C153.553 695.287 153.184 697.607 153.184 700.291V700.326C153.184 703.01 153.553 705.33 154.291 707.287C155.029 709.244 156.09 710.756 157.473 711.822C158.867 712.889 160.537 713.422 162.482 713.422ZM162.482 710.662C161.193 710.662 160.092 710.246 159.178 709.414C158.264 708.57 157.566 707.375 157.086 705.828C156.605 704.281 156.365 702.447 156.365 700.326V700.291C156.365 698.17 156.605 696.342 157.086 694.807C157.566 693.26 158.264 692.07 159.178 691.238C160.092 690.406 161.193 689.99 162.482 689.99C163.771 689.99 164.873 690.406 165.787 691.238C166.713 692.07 167.416 693.26 167.896 694.807C168.389 696.342 168.635 698.17 168.635 700.291V700.326C168.635 702.447 168.389 704.281 167.896 705.828C167.416 707.375 166.713 708.57 165.787 709.414C164.873 710.246 163.771 710.662 162.482 710.662Z" fill="white"/>
<path d="M214 700.5C214 679.789 230.789 663 251.5 663V663C272.211 663 289 679.789 289 700.5V700.5C289 721.211 272.211 738 251.5 738V738C230.789 738 214 721.211 214 700.5V700.5Z" fill="#333333"/>
<path d="M251.5 713.246C252.062 713.246 252.537 713.053 252.924 712.666C253.311 712.279 253.504 711.805 253.504 711.242C253.504 710.68 253.311 710.205 252.924 709.818C252.537 709.432 252.062 709.238 251.5 709.238C250.938 709.238 250.463 709.432 250.076 709.818C249.689 710.205 249.496 710.68 249.496 711.242C249.496 711.805 249.689 712.279 250.076 712.666C250.463 713.053 250.938 713.246 251.5 713.246Z" fill="white"/>
<path d="M303 344.5C303 323.789 319.789 307 340.5 307V307C361.211 307 378 323.789 378 344.5V344.5C378 365.211 361.211 382 340.5 382V382C319.789 382 303 365.211 303 344.5V344.5Z" fill="#FEA00A"/>
<path fill-rule="evenodd" clip-rule="evenodd" d="M343 337C343 338.105 342.105 339 341 339C339.895 339 339 338.105 339 337C339 335.895 339.895 335 341 335C342.105 335 343 335.895 343 337ZM352 343V346H330V343H352ZM341 354C342.105 354 343 353.105 343 352C343 350.895 342.105 350 341 350C339.895 350 339 350.895 339 352C339 353.105 339.895 354 341 354Z" fill="white"/>
<path d="M303 433.5C303 412.789 319.789 396 340.5 396V396C361.211 396 378 412.789 378 433.5V433.5C378 454.211 361.211 471 340.5 471V471C319.789 471 303 454.211 303 433.5V433.5Z" fill="#FEA00A"/>
<path fill-rule="evenodd" clip-rule="evenodd" d="M348.678 424L350.799 426.121L343.021 433.899L350.799 441.678L348.678 443.799L340.9 436.021L333.121 443.799L331 441.678L338.778 433.899L331 426.121L333.121 424L340.9 431.778L348.678 424Z" fill="white"/>
<path d="M303 522.5C303 501.789 319.789 485 340.5 485V485C361.211 485 378 501.789 378 522.5V522.5C378 543.211 361.211 560 340.5 560V560C319.789 560 303 543.211 303 522.5V522.5Z" fill="#FEA00A"/>
<path d="M351.12 520.63H329.85V523.66H351.12V520.63Z" fill="white"/>
<path d="M303 611.5C303 590.789 319.789 574 340.5 574V574C361.211 574 378 590.789 378 611.5V611.5C378 632.211 361.211 649 340.5 649V649C319.789 649 303 632.211 303 611.5V611.5Z" fill="#FEA00A"/>
<path d="M351.12 612.66V609.63H342V600.51H338.97V609.63H329.85V612.66H338.97V621.78H342V612.66H351.12Z" fill="white"/>
<path d="M303 700.5C303 679.789 319.789 663 340.5 663V663C361.211 663 378 679.789 378 700.5V700.5C378 721.211 361.211 738 340.5 738V738C319.789 738 303 721.211 303 700.5V700.5Z" fill="#FEA00A"/>
<path fill-rule="evenodd" clip-rule="evenodd" d="M352 694H330V697H352V694ZM352 704H330V707H352V704Z" fill="white"/>
<rect x="141" y="799" width="134" height="5" rx="2.5" fill="white"/>
<g clip-path="url(#clip1_235_3397)">
<rect width="375" height="44" transform="translate(20)" fill="#333333"/>
<path d="M126 -2H290V-2C288.396 -1.36663 287.327 0.165139 287.286 1.88899L287.242 3.74719V3.74719C287.242 17.6939 275.936 29 261.989 29H154.011C140.064 29 128.758 17.6939 128.758 3.74719V3.74719L128.714 1.88899C128.673 0.165139 127.604 -1.36663 126 -2V-2Z" fill="black"/>
<path opacity="0.35" d="M358.667 17.832H375.333C376.53 17.832 377.5 18.8021 377.5 19.9987V25.9987C377.5 27.1953 376.53 28.1654 375.333 28.1654H358.667C357.47 28.1654 356.5 27.1953 356.5 25.9987V19.9987C356.5 18.8021 357.47 17.832 358.667 17.832Z" stroke="white"/>
<path opacity="0.4" d="M379 20.998V24.998C379.805 24.6593 380.328 23.8712 380.328 22.998C380.328 22.1249 379.805 21.3368 379 20.998" fill="white"/>
<path d="M358 20.432C358 19.8245 358.492 19.332 359.1 19.332H374.9C375.508 19.332 376 19.8245 376 20.432V25.5654C376 26.1729 375.508 26.6654 374.9 26.6654H359.1C358.492 26.6654 358 26.1729 358 25.5654V20.432Z" fill="white"/>
<path fill-rule="evenodd" clip-rule="evenodd" d="M343.33 19.6074C345.546 19.6075 347.677 20.4589 349.283 21.9857C349.404 22.1036 349.597 22.1021 349.716 21.9824L350.872 20.8157C350.933 20.755 350.966 20.6728 350.966 20.5872C350.965 20.5016 350.931 20.4198 350.87 20.3597C346.655 16.3202 340.005 16.3202 335.79 20.3597C335.729 20.4197 335.694 20.5015 335.693 20.5871C335.693 20.6727 335.726 20.755 335.787 20.8157L336.943 21.9824C337.062 22.1023 337.255 22.1038 337.376 21.9857C338.982 20.4588 341.114 19.6074 343.33 19.6074ZM343.33 23.4031C344.547 23.403 345.721 23.8555 346.624 24.6727C346.746 24.7887 346.938 24.7862 347.057 24.6671L348.212 23.5004C348.273 23.4392 348.307 23.3562 348.306 23.2699C348.305 23.1837 348.269 23.1014 348.207 23.0414C345.459 20.485 341.203 20.485 338.455 23.0414C338.393 23.1014 338.357 23.1837 338.357 23.27C338.356 23.3563 338.39 23.4393 338.451 23.5004L339.605 24.6671C339.724 24.7862 339.916 24.7887 340.038 24.6727C340.94 23.8561 342.113 23.4036 343.33 23.4031ZM345.643 25.9569C345.645 26.0434 345.611 26.1268 345.549 26.1874L343.552 28.2031C343.493 28.2623 343.413 28.2957 343.33 28.2957C343.247 28.2957 343.167 28.2623 343.108 28.2031L341.111 26.1874C341.049 26.1268 341.015 26.0433 341.017 25.9568C341.019 25.8703 341.056 25.7884 341.12 25.7304C342.396 24.6515 344.264 24.6515 345.54 25.7304C345.604 25.7884 345.641 25.8704 345.643 25.9569Z" fill="white"/>
<path fill-rule="evenodd" clip-rule="evenodd" d="M329.666 17.666H328.666C328.114 17.666 327.666 18.1137 327.666 18.666V27.3327C327.666 27.885 328.114 28.3327 328.666 28.3327H329.666C330.218 28.3327 330.666 27.885 330.666 27.3327V18.666C330.666 18.1137 330.218 17.666 329.666 17.666ZM323.999 19.9993H324.999C325.552 19.9993 325.999 20.4471 325.999 20.9993V27.3327C325.999 27.885 325.552 28.3327 324.999 28.3327H323.999C323.447 28.3327 322.999 27.885 322.999 27.3327V20.9993C322.999 20.4471 323.447 19.9993 323.999 19.9993ZM320.333 22.3327H319.333C318.78 22.3327 318.333 22.7804 318.333 23.3327V27.3327C318.333 27.885 318.78 28.3327 319.333 28.3327H320.333C320.885 28.3327 321.333 27.885 321.333 27.3327V23.3327C321.333 22.7804 320.885 22.3327 320.333 22.3327ZM315.666 24.3327H314.666C314.114 24.3327 313.666 24.7804 313.666 25.3327V27.3327C313.666 27.885 314.114 28.3327 314.666 28.3327H315.666C316.218 28.3327 316.666 27.885 316.666 27.3327V25.3327C316.666 24.7804 316.218 24.3327 315.666 24.3327Z" fill="white"/>
<path d="M57.5146 17.1675C55.2222 17.1675 53.5889 18.7349 53.5889 20.8809V20.8955C53.5889 22.9023 55.0098 24.3818 57.0386 24.3818C58.4888 24.3818 59.4116 23.6421 59.7998 22.8071H59.9463C59.9463 22.8877 59.939 22.9683 59.939 23.0488C59.8584 25.0703 59.1479 26.7109 57.4707 26.7109C56.5405 26.7109 55.8887 26.2275 55.6104 25.4878L55.5884 25.4146H53.728L53.7427 25.4951C54.0796 27.1138 55.5298 28.2637 57.4707 28.2637C60.1294 28.2637 61.7334 26.1543 61.7334 22.5947V22.5801C61.7334 18.7715 59.7705 17.1675 57.5146 17.1675ZM57.5073 22.9316C56.3062 22.9316 55.4346 22.0527 55.4346 20.8296V20.8149C55.4346 19.6357 56.3647 18.7056 57.5293 18.7056C58.7012 18.7056 59.6167 19.6504 59.6167 20.8589V20.8735C59.6167 22.0674 58.7012 22.9316 57.5073 22.9316ZM64.5586 21.1519C65.2324 21.1519 65.7231 20.6392 65.7231 19.9946C65.7231 19.3428 65.2324 18.8374 64.5586 18.8374C63.8921 18.8374 63.394 19.3428 63.394 19.9946C63.394 20.6392 63.8921 21.1519 64.5586 21.1519ZM64.5586 26.5864C65.2324 26.5864 65.7231 26.0811 65.7231 25.4292C65.7231 24.7773 65.2324 24.272 64.5586 24.272C63.8921 24.272 63.394 24.7773 63.394 25.4292C63.394 26.0811 63.8921 26.5864 64.5586 26.5864ZM72.5107 28H74.3198V25.9712H75.7407V24.4111H74.3198V17.4312H71.6465C70.2109 19.6138 68.7095 22.0454 67.3398 24.4258V25.9712H72.5107V28ZM69.0977 24.4551V24.3452C70.123 22.5508 71.3462 20.5952 72.4302 18.9399H72.54V24.4551H69.0977ZM79.6206 28H81.5103V17.4312H79.6279L76.8667 19.3721V21.1519L79.4961 19.2915H79.6206V28Z" fill="white"/>
</g>
<rect x="20" width="375" height="812" fill="white" fill-opacity="0.55"/>
</g>
<path d="M0 62.1333C0 49.9094 9.90943 40 22.1333 40H392.867C405.091 40 415 49.9094 415 62.1333V272.317C415 284.541 405.091 294.45 392.867 294.45H22.1333C9.90943 294.45 0 284.541 0 272.317V62.1333Z" fill="#333333"/>
<path d="M203.017 125.051H205.14V101.658H202.984L196.678 105.987V108.224L202.952 104.025H203.017V125.051ZM218.431 125.424C220.193 125.424 221.706 124.937 222.97 123.965C224.235 122.981 225.202 121.592 225.872 119.798C226.553 117.994 226.893 115.854 226.893 113.379V113.33C226.893 110.866 226.553 108.732 225.872 106.927C225.202 105.122 224.235 103.733 222.97 102.761C221.706 101.777 220.193 101.286 218.431 101.286C216.669 101.286 215.156 101.777 213.892 102.761C212.638 103.733 211.671 105.122 210.99 106.927C210.32 108.721 209.985 110.855 209.985 113.33V113.379C209.985 115.843 210.32 117.977 210.99 119.782C211.671 121.576 212.638 122.965 213.892 123.948C215.156 124.932 216.669 125.424 218.431 125.424ZM218.431 123.478C217.123 123.478 216.005 123.068 215.075 122.246C214.146 121.425 213.433 120.258 212.936 118.745C212.449 117.232 212.206 115.443 212.206 113.379V113.33C212.206 111.266 212.449 109.477 212.936 107.964C213.433 106.451 214.146 105.284 215.075 104.463C216.005 103.642 217.123 103.231 218.431 103.231C219.739 103.231 220.857 103.642 221.787 104.463C222.727 105.284 223.446 106.451 223.943 107.964C224.44 109.467 224.688 111.255 224.688 113.33V113.379C224.688 115.443 224.44 117.232 223.943 118.745C223.446 120.258 222.727 121.425 221.787 122.246C220.857 123.068 219.739 123.478 218.431 123.478ZM237.687 125.424C239.449 125.424 240.962 124.937 242.227 123.965C243.491 122.981 244.458 121.592 245.128 119.798C245.809 117.994 246.15 115.854 246.15 113.379V113.33C246.15 110.866 245.809 108.732 245.128 106.927C244.458 105.122 243.491 103.733 242.227 102.761C240.962 101.777 239.449 101.286 237.687 101.286C235.926 101.286 234.413 101.777 233.148 102.761C231.895 103.733 230.927 105.122 230.247 106.927C229.577 108.721 229.242 110.855 229.242 113.33V113.379C229.242 115.843 229.577 117.977 230.247 119.782C230.927 121.576 231.895 122.965 233.148 123.948C234.413 124.932 235.926 125.424 237.687 125.424ZM237.687 123.478C236.38 123.478 235.261 123.068 234.332 122.246C233.402 121.425 232.689 120.258 232.192 118.745C231.706 117.232 231.462 115.443 231.462 113.379V113.33C231.462 111.266 231.706 109.477 232.192 107.964C232.689 106.451 233.402 105.284 234.332 104.463C235.261 103.642 236.38 103.231 237.687 103.231C238.995 103.231 240.114 103.642 241.043 104.463C241.983 105.284 242.702 106.451 243.199 107.964C243.696 109.467 243.945 111.255 243.945 113.33V113.379C243.945 115.443 243.696 117.232 243.199 118.745C242.702 120.258 241.983 121.425 241.043 122.246C240.114 123.068 238.995 123.478 237.687 123.478ZM255.11 116.605H271.402V114.611H255.11V116.605ZM262.259 123.543H264.237V107.656H262.259V123.543ZM280.865 125.051H296.119V123.073H283.215L283.929 123.754V122.23L283.215 123.754L290.202 116.475C291.586 115.049 292.661 113.844 293.428 112.86C294.196 111.877 294.736 110.99 295.049 110.202C295.363 109.413 295.519 108.602 295.519 107.77V107.737C295.519 106.527 295.206 105.436 294.579 104.463C293.963 103.49 293.115 102.718 292.034 102.145C290.953 101.572 289.716 101.286 288.322 101.286C286.917 101.286 285.647 101.583 284.512 102.177C283.377 102.761 282.47 103.566 281.789 104.593C281.119 105.608 280.773 106.77 280.751 108.078V108.224H282.891V108.094C282.913 107.176 283.161 106.349 283.637 105.614C284.112 104.879 284.755 104.301 285.566 103.879C286.387 103.447 287.322 103.231 288.37 103.231C289.321 103.231 290.17 103.431 290.916 103.831C291.661 104.231 292.245 104.776 292.666 105.468C293.099 106.16 293.315 106.949 293.315 107.835V107.867C293.315 108.548 293.196 109.196 292.958 109.812C292.731 110.429 292.315 111.126 291.71 111.904C291.115 112.671 290.262 113.638 289.149 114.805L280.865 123.495V125.051ZM306.897 125.424C308.659 125.424 310.172 124.937 311.436 123.965C312.701 122.981 313.668 121.592 314.338 119.798C315.019 117.994 315.359 115.854 315.359 113.379V113.33C315.359 110.866 315.019 108.732 314.338 106.927C313.668 105.122 312.701 103.733 311.436 102.761C310.172 101.777 308.659 101.286 306.897 101.286C305.136 101.286 303.623 101.777 302.358 102.761C301.105 103.733 300.137 105.122 299.457 106.927C298.786 108.721 298.451 110.855 298.451 113.33V113.379C298.451 115.843 298.786 117.977 299.457 119.782C300.137 121.576 301.105 122.965 302.358 123.948C303.623 124.932 305.136 125.424 306.897 125.424ZM306.897 123.478C305.59 123.478 304.471 123.068 303.542 122.246C302.612 121.425 301.899 120.258 301.402 118.745C300.916 117.232 300.672 115.443 300.672 113.379V113.33C300.672 111.266 300.916 109.477 301.402 107.964C301.899 106.451 302.612 105.284 303.542 104.463C304.471 103.642 305.59 103.231 306.897 103.231C308.205 103.231 309.324 103.642 310.253 104.463C311.193 105.284 311.912 106.451 312.409 107.964C312.906 109.467 313.155 111.255 313.155 113.33V113.379C313.155 115.443 312.906 117.232 312.409 118.745C311.912 120.258 311.193 121.425 310.253 122.246C309.324 123.068 308.205 123.478 306.897 123.478ZM324.32 116.605H340.612V114.611H324.32V116.605ZM331.469 123.543H333.447V107.656H331.469V123.543ZM357.645 125.424C359.191 125.424 360.563 125.132 361.763 124.548C362.962 123.965 363.908 123.165 364.6 122.149C365.291 121.122 365.637 119.966 365.637 118.68V118.647C365.637 116.983 365.102 115.638 364.032 114.611C362.973 113.584 361.568 113.006 359.817 112.876V112.812C360.812 112.606 361.682 112.255 362.427 111.758C363.173 111.25 363.751 110.623 364.162 109.877C364.583 109.121 364.794 108.262 364.794 107.3V107.267C364.794 106.1 364.492 105.068 363.886 104.171C363.281 103.274 362.433 102.572 361.341 102.064C360.261 101.545 358.996 101.286 357.548 101.286C356.132 101.286 354.884 101.55 353.803 102.08C352.722 102.599 351.858 103.317 351.209 104.236C350.561 105.144 350.177 106.203 350.058 107.413L350.042 107.575H352.166L352.182 107.413C352.279 106.581 352.555 105.852 353.009 105.225C353.474 104.598 354.095 104.106 354.873 103.75C355.651 103.393 356.543 103.215 357.548 103.215C358.585 103.215 359.477 103.393 360.223 103.75C360.979 104.106 361.563 104.603 361.973 105.241C362.384 105.879 362.589 106.635 362.589 107.511V107.543C362.589 108.408 362.363 109.175 361.909 109.845C361.466 110.515 360.844 111.045 360.044 111.434C359.245 111.812 358.326 112.001 357.288 112.001H354.565V113.881H357.37C359.239 113.881 360.709 114.303 361.779 115.146C362.86 115.978 363.4 117.161 363.4 118.696V118.729C363.4 119.647 363.157 120.468 362.671 121.193C362.184 121.906 361.509 122.468 360.644 122.879C359.78 123.289 358.78 123.495 357.645 123.495C356.51 123.495 355.516 123.305 354.662 122.927C353.809 122.549 353.128 122.036 352.62 121.387C352.112 120.728 351.804 119.977 351.696 119.134L351.68 119.004H349.556L349.572 119.166C349.691 120.366 350.091 121.436 350.772 122.376C351.463 123.316 352.387 124.062 353.544 124.613C354.711 125.153 356.078 125.424 357.645 125.424ZM374.987 120.56H390.873V118.583H374.987V120.56ZM374.987 112.617H390.873V110.623H374.987V112.617Z" fill="#A5A5A5"/>
<path d="M288.81 231.184H293.907V175.042H288.732L273.598 185.43V190.799L288.655 180.722H288.81V231.184ZM307.282 231.184H343.893V226.437H312.923L314.635 228.071V224.414L312.923 228.071L329.692 210.602C333.012 207.178 335.593 204.286 337.434 201.926C339.276 199.566 340.573 197.439 341.325 195.545C342.077 193.652 342.453 191.707 342.453 189.71V189.632C342.453 186.727 341.701 184.107 340.197 181.773C338.718 179.438 336.682 177.584 334.088 176.209C331.495 174.834 328.525 174.147 325.179 174.147C321.807 174.147 318.759 174.86 316.036 176.287C313.313 177.687 311.134 179.62 309.5 182.084C307.892 184.522 307.062 187.31 307.01 190.449V190.799H312.145V190.488C312.197 188.283 312.794 186.299 313.935 184.535C315.076 182.771 316.62 181.384 318.565 180.372C320.536 179.335 322.78 178.816 325.296 178.816C327.578 178.816 329.614 179.296 331.404 180.255C333.194 181.215 334.594 182.525 335.606 184.185C336.643 185.845 337.162 187.738 337.162 189.865V189.943C337.162 191.577 336.877 193.133 336.306 194.612C335.761 196.09 334.763 197.763 333.31 199.631C331.884 201.472 329.835 203.794 327.163 206.595L307.282 227.449V231.184ZM369.718 232.078C373.427 232.078 376.721 231.378 379.6 229.977C382.479 228.577 384.749 226.657 386.409 224.219C388.069 221.755 388.899 218.98 388.899 215.893V215.816C388.899 211.821 387.615 208.592 385.047 206.128C382.505 203.664 379.133 202.276 374.931 201.965V201.809C377.318 201.317 379.406 200.474 381.195 199.28C382.985 198.061 384.373 196.557 385.358 194.767C386.37 192.952 386.876 190.89 386.876 188.581V188.503C386.876 185.702 386.149 183.225 384.697 181.072C383.244 178.92 381.208 177.234 378.589 176.015C375.995 174.77 372.96 174.147 369.485 174.147C366.087 174.147 363.091 174.782 360.497 176.053C357.903 177.298 355.828 179.023 354.272 181.228C352.716 183.407 351.795 185.949 351.51 188.854L351.471 189.243H356.568L356.607 188.854C356.84 186.856 357.501 185.106 358.591 183.601C359.706 182.097 361.198 180.917 363.065 180.061C364.933 179.205 367.072 178.777 369.485 178.777C371.975 178.777 374.114 179.205 375.904 180.061C377.72 180.917 379.12 182.11 380.106 183.64C381.092 185.17 381.584 186.986 381.584 189.087V189.165C381.584 191.24 381.04 193.081 379.95 194.69C378.887 196.298 377.395 197.569 375.476 198.502C373.557 199.41 371.352 199.864 368.862 199.864H362.326V204.377H369.057C373.544 204.377 377.071 205.389 379.639 207.412C382.233 209.409 383.53 212.249 383.53 215.932V216.01C383.53 218.215 382.946 220.186 381.779 221.924C380.612 223.636 378.991 224.985 376.916 225.97C374.841 226.956 372.441 227.449 369.718 227.449C366.995 227.449 364.608 226.995 362.559 226.087C360.51 225.179 358.876 223.947 357.657 222.391C356.438 220.809 355.699 219.006 355.439 216.983L355.4 216.672H350.304L350.343 217.061C350.628 219.94 351.588 222.507 353.222 224.764C354.882 227.021 357.099 228.81 359.875 230.133C362.676 231.43 365.957 232.078 369.718 232.078Z" fill="white"/>
<path d="M0 62.1333C0 49.6038 10.1572 39.4467 22.6867 39.4467H392.313C404.843 39.4467 415 49.6038 415 62.1333C415 50.215 405.091 40.5533 392.867 40.5533H22.1333C9.90943 40.5533 0 50.215 0 62.1333ZM415 294.45H0H415ZM0 294.45V40V294.45ZM415 40V294.45V40Z" fill="#A5A5A5"/>
<rect x="189.24" y="281.172" width="37.6267" height="5.53333" rx="2.76667" fill="white"/>
<defs>
<filter id="filter0_b_235_3397" x="-60" y="-601" width="535" height="972" filterUnits="userSpaceOnUse" color-interpolation-filters="sRGB">
<feFlood flood-opacity="0" result="BackgroundImageFix"/>
<feGaussianBlur in="BackgroundImage" stdDeviation="40"/>
<feComposite in2="SourceAlpha" operator="in" result="effect1_backgroundBlur_235_3397"/>
<feBlend mode="normal" in="SourceGraphic" in2="effect1_backgroundBlur_235_3397" result="shape"/>
</filter>
<filter id="filter1_b_235_3397" x="-60" y="-233.5" width="535" height="332.5" filterUnits="userSpaceOnUse" color-interpolation-filters="sRGB">
<feFlood flood-opacity="0" result="BackgroundImageFix"/>
<feGaussianBlur in="BackgroundImage" stdDeviation="40"/>
<feComposite in2="SourceAlpha" operator="in" result="effect1_backgroundBlur_235_3397"/>
<feBlend mode="normal" in="SourceGraphic" in2="effect1_backgroundBlur_235_3397" result="shape"/>
</filter>
<clipPath id="clip0_235_3397">
<rect x="20" width="375" height="812" rx="40" fill="white"/>
</clipPath>
<clipPath id="clip1_235_3397">
<rect width="375" height="44" fill="white" transform="translate(20)"/>
</clipPath>
</defs>
</svg>
