<svg width="383" height="237" viewBox="0 0 383 237" fill="none" xmlns="http://www.w3.org/2000/svg">
<g filter="url(#filter0_d_187_966)">
<rect x="4" y="3" width="375" height="229" rx="20" fill="black"/>
</g>
<path d="M177.661 94H179.58V72.8623H177.632L171.934 76.7734V78.7949L177.603 75.001H177.661V94ZM191.59 94.3369C193.182 94.3369 194.549 93.8975 195.692 93.0186C196.834 92.1299 197.708 90.875 198.314 89.2539C198.929 87.623 199.236 85.6895 199.236 83.4531V83.4092C199.236 81.1826 198.929 79.2539 198.314 77.623C197.708 75.9922 196.834 74.7373 195.692 73.8584C194.549 72.9697 193.182 72.5254 191.59 72.5254C189.998 72.5254 188.631 72.9697 187.488 73.8584C186.356 74.7373 185.482 75.9922 184.866 77.623C184.261 79.2441 183.958 81.1729 183.958 83.4092V83.4531C183.958 85.6797 184.261 87.6084 184.866 89.2393C185.482 90.8604 186.356 92.1152 187.488 93.0039C188.631 93.8926 189.998 94.3369 191.59 94.3369ZM191.59 92.5791C190.408 92.5791 189.398 92.208 188.558 91.4658C187.718 90.7236 187.073 89.6689 186.624 88.3018C186.185 86.9346 185.965 85.3184 185.965 83.4531V83.4092C185.965 81.5439 186.185 79.9277 186.624 78.5605C187.073 77.1934 187.718 76.1387 188.558 75.3965C189.398 74.6543 190.408 74.2832 191.59 74.2832C192.772 74.2832 193.782 74.6543 194.622 75.3965C195.472 76.1387 196.121 77.1934 196.57 78.5605C197.02 79.918 197.244 81.5342 197.244 83.4092V83.4531C197.244 85.3184 197.02 86.9346 196.57 88.3018C196.121 89.6689 195.472 90.7236 194.622 91.4658C193.782 92.208 192.772 92.5791 191.59 92.5791ZM208.99 94.3369C210.582 94.3369 211.949 93.8975 213.092 93.0186C214.235 92.1299 215.109 90.875 215.714 89.2539C216.329 87.623 216.637 85.6895 216.637 83.4531V83.4092C216.637 81.1826 216.329 79.2539 215.714 77.623C215.109 75.9922 214.235 74.7373 213.092 73.8584C211.949 72.9697 210.582 72.5254 208.99 72.5254C207.399 72.5254 206.031 72.9697 204.889 73.8584C203.756 74.7373 202.882 75.9922 202.267 77.623C201.661 79.2441 201.359 81.1729 201.359 83.4092V83.4531C201.359 85.6797 201.661 87.6084 202.267 89.2393C202.882 90.8604 203.756 92.1152 204.889 93.0039C206.031 93.8926 207.399 94.3369 208.99 94.3369ZM208.99 92.5791C207.809 92.5791 206.798 92.208 205.958 91.4658C205.118 90.7236 204.474 89.6689 204.025 88.3018C203.585 86.9346 203.365 85.3184 203.365 83.4531V83.4092C203.365 81.5439 203.585 79.9277 204.025 78.5605C204.474 77.1934 205.118 76.1387 205.958 75.3965C206.798 74.6543 207.809 74.2832 208.99 74.2832C210.172 74.2832 211.183 74.6543 212.023 75.3965C212.872 76.1387 213.522 77.1934 213.971 78.5605C214.42 79.918 214.645 81.5342 214.645 83.4092V83.4531C214.645 85.3184 214.42 86.9346 213.971 88.3018C213.522 89.6689 212.872 90.7236 212.023 91.4658C211.183 92.208 210.172 92.5791 208.99 92.5791ZM224.734 86.3682H239.455V84.5664H224.734V86.3682ZM231.194 92.6377H232.981V78.2822H231.194V92.6377ZM248.006 94H261.79V92.2129H250.13L250.775 92.8281V91.4512L250.13 92.8281L256.444 86.251C257.694 84.9619 258.665 83.873 259.359 82.9844C260.052 82.0957 260.54 81.2949 260.823 80.582C261.107 79.8691 261.248 79.1367 261.248 78.3848V78.3555C261.248 77.2617 260.965 76.2754 260.399 75.3965C259.842 74.5176 259.075 73.8193 258.099 73.3018C257.122 72.7842 256.004 72.5254 254.744 72.5254C253.475 72.5254 252.327 72.7939 251.302 73.3311C250.277 73.8584 249.456 74.5859 248.841 75.5137C248.236 76.4316 247.923 77.4814 247.903 78.6631V78.7949H249.837V78.6777C249.857 77.8477 250.081 77.1006 250.511 76.4365C250.941 75.7725 251.522 75.25 252.254 74.8691C252.996 74.4785 253.841 74.2832 254.788 74.2832C255.648 74.2832 256.414 74.4639 257.088 74.8252C257.762 75.1865 258.289 75.6797 258.67 76.3047C259.061 76.9297 259.256 77.6426 259.256 78.4434V78.4727C259.256 79.0879 259.149 79.6738 258.934 80.2305C258.729 80.7871 258.353 81.417 257.806 82.1201C257.269 82.8135 256.497 83.6875 255.491 84.7422L248.006 92.5938V94ZM271.529 94.3369C273.121 94.3369 274.488 93.8975 275.631 93.0186C276.774 92.1299 277.648 90.875 278.253 89.2539C278.868 87.623 279.176 85.6895 279.176 83.4531V83.4092C279.176 81.1826 278.868 79.2539 278.253 77.623C277.648 75.9922 276.774 74.7373 275.631 73.8584C274.488 72.9697 273.121 72.5254 271.529 72.5254C269.938 72.5254 268.57 72.9697 267.428 73.8584C266.295 74.7373 265.421 75.9922 264.806 77.623C264.2 79.2441 263.898 81.1729 263.898 83.4092V83.4531C263.898 85.6797 264.2 87.6084 264.806 89.2393C265.421 90.8604 266.295 92.1152 267.428 93.0039C268.57 93.8926 269.938 94.3369 271.529 94.3369ZM271.529 92.5791C270.348 92.5791 269.337 92.208 268.497 91.4658C267.657 90.7236 267.013 89.6689 266.564 88.3018C266.124 86.9346 265.904 85.3184 265.904 83.4531V83.4092C265.904 81.5439 266.124 79.9277 266.564 78.5605C267.013 77.1934 267.657 76.1387 268.497 75.3965C269.337 74.6543 270.348 74.2832 271.529 74.2832C272.711 74.2832 273.722 74.6543 274.562 75.3965C275.411 76.1387 276.061 77.1934 276.51 78.5605C276.959 79.918 277.184 81.5342 277.184 83.4092V83.4531C277.184 85.3184 276.959 86.9346 276.51 88.3018C276.061 89.6689 275.411 90.7236 274.562 91.4658C273.722 92.208 272.711 92.5791 271.529 92.5791ZM287.273 86.3682H301.994V84.5664H287.273V86.3682ZM293.733 92.6377H295.52V78.2822H293.733V92.6377ZM317.386 94.3369C318.782 94.3369 320.023 94.0732 321.107 93.5459C322.191 93.0186 323.045 92.2959 323.67 91.3779C324.295 90.4502 324.608 89.4053 324.608 88.2432V88.2139C324.608 86.71 324.124 85.4941 323.157 84.5664C322.2 83.6387 320.931 83.1162 319.349 82.999V82.9404C320.247 82.7549 321.033 82.4375 321.707 81.9883C322.381 81.5293 322.903 80.9629 323.275 80.2891C323.655 79.6055 323.846 78.8291 323.846 77.96V77.9307C323.846 76.876 323.572 75.9434 323.026 75.1328C322.479 74.3223 321.712 73.6875 320.726 73.2285C319.749 72.7598 318.607 72.5254 317.298 72.5254C316.019 72.5254 314.891 72.7646 313.914 73.2432C312.938 73.7119 312.156 74.3613 311.57 75.1914C310.985 76.0117 310.638 76.9688 310.53 78.0625L310.516 78.209H312.435L312.449 78.0625C312.537 77.3105 312.786 76.6514 313.196 76.085C313.616 75.5186 314.178 75.0742 314.881 74.752C315.584 74.4297 316.39 74.2686 317.298 74.2686C318.236 74.2686 319.041 74.4297 319.715 74.752C320.399 75.0742 320.926 75.5234 321.297 76.0996C321.668 76.6758 321.854 77.3594 321.854 78.1504V78.1797C321.854 78.9609 321.649 79.6543 321.238 80.2598C320.838 80.8652 320.277 81.3438 319.554 81.6953C318.831 82.0371 318.001 82.208 317.064 82.208H314.603V83.9072H317.137C318.826 83.9072 320.154 84.2881 321.121 85.0498C322.098 85.8018 322.586 86.8711 322.586 88.2578V88.2871C322.586 89.1172 322.366 89.8594 321.927 90.5137C321.487 91.1582 320.877 91.666 320.096 92.0371C319.315 92.4082 318.411 92.5938 317.386 92.5938C316.361 92.5938 315.462 92.4229 314.691 92.0811C313.919 91.7393 313.304 91.2754 312.845 90.6895C312.386 90.0938 312.108 89.415 312.01 88.6533L311.995 88.5361H310.076L310.091 88.6826C310.198 89.7666 310.56 90.7334 311.175 91.583C311.8 92.4326 312.635 93.1064 313.68 93.6045C314.735 94.0928 315.97 94.3369 317.386 94.3369ZM333.056 89.9424H347.411V88.1553H333.056V89.9424ZM333.056 82.7646H347.411V80.9629H333.056V82.7646Z" fill="#A5A5A5"/>
<path d="M217.484 189H223.369V124.178H217.394L199.919 136.172V142.371L217.304 130.736H217.484V189ZM238.951 189H281.222V183.52H245.464L247.441 185.406V181.184L245.464 185.406L264.826 165.236C268.659 161.283 271.639 157.944 273.765 155.219C275.891 152.493 277.389 150.038 278.257 147.852C279.126 145.665 279.56 143.419 279.56 141.113V141.023C279.56 137.669 278.691 134.645 276.955 131.949C275.247 129.254 272.897 127.113 269.902 125.525C266.907 123.938 263.478 123.145 259.615 123.145C255.721 123.145 252.203 123.968 249.058 125.615C245.913 127.232 243.398 129.464 241.511 132.309C239.654 135.124 238.696 138.343 238.636 141.967V142.371H244.566V142.012C244.626 139.466 245.315 137.175 246.632 135.139C247.95 133.102 249.732 131.5 251.978 130.332C254.254 129.134 256.844 128.535 259.749 128.535C262.385 128.535 264.736 129.089 266.802 130.197C268.869 131.305 270.486 132.818 271.654 134.734C272.852 136.651 273.451 138.837 273.451 141.293V141.383C273.451 143.27 273.121 145.066 272.462 146.773C271.833 148.48 270.68 150.412 269.003 152.568C267.356 154.695 264.99 157.375 261.906 160.609L238.951 184.688V189ZM311.179 190.033C315.462 190.033 319.265 189.225 322.589 187.607C325.913 185.99 328.534 183.774 330.451 180.959C332.367 178.114 333.326 174.91 333.326 171.346V171.256C333.326 166.644 331.843 162.915 328.878 160.07C325.943 157.225 322.05 155.623 317.199 155.264V155.084C319.954 154.515 322.365 153.542 324.431 152.164C326.497 150.757 328.1 149.02 329.238 146.953C330.406 144.857 330.99 142.476 330.99 139.811V139.721C330.99 136.486 330.151 133.626 328.474 131.141C326.797 128.655 324.446 126.708 321.421 125.301C318.427 123.863 314.923 123.145 310.91 123.145C306.986 123.145 303.527 123.878 300.533 125.346C297.538 126.783 295.142 128.775 293.345 131.32C291.548 133.836 290.485 136.771 290.156 140.125L290.111 140.574H295.996L296.04 140.125C296.31 137.819 297.074 135.798 298.331 134.061C299.619 132.324 301.341 130.961 303.497 129.973C305.654 128.984 308.124 128.49 310.91 128.49C313.785 128.49 316.255 128.984 318.322 129.973C320.418 130.961 322.035 132.339 323.173 134.105C324.311 135.872 324.88 137.969 324.88 140.395V140.484C324.88 142.88 324.251 145.007 322.994 146.863C321.766 148.72 320.044 150.188 317.828 151.266C315.611 152.314 313.066 152.838 310.191 152.838H302.644V158.049H310.415C315.596 158.049 319.669 159.217 322.634 161.553C325.629 163.859 327.126 167.138 327.126 171.391V171.48C327.126 174.026 326.453 176.302 325.105 178.309C323.757 180.285 321.886 181.842 319.49 182.98C317.094 184.118 314.324 184.688 311.179 184.688C308.035 184.688 305.279 184.163 302.913 183.115C300.548 182.067 298.661 180.645 297.253 178.848C295.846 177.021 294.992 174.939 294.693 172.604L294.648 172.244H288.763L288.808 172.693C289.137 176.018 290.246 178.982 292.132 181.588C294.049 184.193 296.609 186.26 299.814 187.787C303.048 189.285 306.837 190.033 311.179 190.033Z" fill="white"/>
<defs>
<filter id="filter0_d_187_966" x="0" y="0" width="383" height="237" filterUnits="userSpaceOnUse" color-interpolation-filters="sRGB">
<feFlood flood-opacity="0" result="BackgroundImageFix"/>
<feColorMatrix in="SourceAlpha" type="matrix" values="0 0 0 0 0 0 0 0 0 0 0 0 0 0 0 0 0 0 127 0" result="hardAlpha"/>
<feOffset dy="1"/>
<feGaussianBlur stdDeviation="2"/>
<feComposite in2="hardAlpha" operator="out"/>
<feColorMatrix type="matrix" values="0 0 0 0 0 0 0 0 0 0 0 0 0 0 0 0 0 0 0.25 0"/>
<feBlend mode="normal" in2="BackgroundImageFix" result="effect1_dropShadow_187_966"/>
<feBlend mode="normal" in="SourceGraphic" in2="effect1_dropShadow_187_966" result="shape"/>
</filter>
</defs>
</svg>
