<svg width="200" height="150" viewBox="0 0 200 150" fill="none" xmlns="http://www.w3.org/2000/svg">
<g clip-path="url(#clip0_842_3093)">
<path d="M80.9879 60.932C79.7646 60.932 78.7598 59.9272 78.7598 58.7039V41.2282C78.7598 40.0049 79.7646 39 80.9879 39C82.2112 39 83.2161 40.0049 83.2161 41.2282V58.6602C83.2161 59.9272 82.2112 60.932 80.9879 60.932Z" fill="#466D3F"/>
<path d="M91.9127 52.2378H70.068C68.8447 52.2378 67.8398 51.2329 67.8398 50.0096C67.8398 48.7863 68.8447 47.7378 70.068 47.7378H91.869C93.0923 47.7378 94.0971 48.7426 94.0971 49.9659C94.0971 51.1892 93.136 52.2378 91.9127 52.2378Z" fill="#466D3F"/>
<path d="M100.13 111C98.9072 111 97.9023 109.995 97.9023 108.772V79.4127C97.9023 78.1894 98.9072 77.1846 100.13 77.1846C101.354 77.1846 102.359 78.1894 102.359 79.4127V108.772C102.359 109.995 101.354 111 100.13 111Z" fill="#466D3F"/>
<path d="M113.189 91.2525H87.0192C85.7959 91.2525 84.791 90.2476 84.791 89.0243C84.791 87.801 85.7959 86.7961 87.0192 86.7961H113.189C114.412 86.7961 115.417 87.801 115.417 89.0243C115.461 90.2476 114.456 91.2525 113.189 91.2525Z" fill="#466D3F"/>
<path d="M118.998 60.932C117.774 60.932 116.77 59.9272 116.77 58.7039V41.2282C116.77 40.0049 117.774 39 118.998 39C120.221 39 121.226 40.0049 121.226 41.2282V58.6602C121.27 59.9272 120.265 60.932 118.998 60.932Z" fill="#466D3F"/>
<path d="M129.92 52.2378H108.119C106.895 52.2378 105.891 51.233 105.891 50.0096C105.891 48.7863 106.895 47.7815 108.119 47.7815H129.92C131.143 47.7815 132.148 48.7863 132.148 50.0096C132.148 51.233 131.143 52.2378 129.92 52.2378Z" fill="#466D3F"/>
<path d="M132.764 88.5003C132.152 88.5003 131.584 88.2819 131.104 87.8887L104.235 64.777C102.05 62.8984 98.2932 62.8984 96.1087 64.777L69.2398 87.8887C68.1475 88.8062 66.531 88.6751 65.6135 87.6266C64.6961 86.5343 64.8271 84.9178 65.8757 84.0003L92.7446 60.8887C96.8077 57.3935 103.492 57.3935 107.555 60.8887L134.424 84.0003C135.516 84.9178 135.604 86.5343 134.686 87.6266C134.206 88.1945 133.507 88.5003 132.764 88.5003Z" fill="#466D3F"/>
<path d="M121.622 107.898C121.142 107.898 120.486 107.767 119.656 107.33C118.433 106.719 117.079 105.714 115.768 104.447C113.103 101.826 112.448 98.1994 112.404 98.0246C112.36 97.8061 112.448 97.6314 112.579 97.4566C112.71 97.3256 112.928 97.2382 113.147 97.2819C113.321 97.2819 116.948 97.8498 119.613 100.471C120.88 101.738 121.972 103.093 122.584 104.272C123.545 106.063 123.195 106.981 122.802 107.418C122.584 107.68 122.234 107.898 121.622 107.898ZM113.933 98.811C114.283 99.9906 115.069 102 116.685 103.573C117.865 104.753 119.132 105.67 120.224 106.194C121.36 106.762 121.841 106.631 121.885 106.588C121.928 106.544 122.059 106.063 121.448 104.928C120.88 103.835 119.919 102.612 118.739 101.432C117.166 99.8595 115.113 99.1168 113.933 98.811Z" fill="#466D3F"/>
<path d="M124.286 109.471C124.111 109.471 123.98 109.427 123.849 109.296L115.417 101.083C115.155 100.82 115.155 100.427 115.417 100.165C115.679 99.903 116.073 99.903 116.335 100.165L124.767 108.379C125.029 108.641 125.029 109.034 124.767 109.296C124.592 109.427 124.417 109.471 124.286 109.471Z" fill="#466D3F"/>
<path d="M78.5874 107.898C78.0194 107.898 77.6262 107.68 77.4077 107.461C76.9709 107.024 76.665 106.107 77.6262 104.316C78.2378 103.136 79.2864 101.782 80.5971 100.515C83.2621 97.8933 86.932 97.369 87.0631 97.3253C87.2815 97.2816 87.4563 97.369 87.631 97.5001C87.7621 97.6312 87.8495 97.8496 87.8058 98.068C87.7621 98.2428 87.1505 101.869 84.4417 104.49C83.1747 105.757 81.7767 106.762 80.5534 107.374C79.7233 107.723 79.0679 107.898 78.5874 107.898ZM81.4709 101.432C80.2912 102.612 79.3301 103.835 78.7621 104.927C78.1505 106.063 78.2815 106.544 78.3252 106.587C78.3689 106.631 78.8495 106.762 79.9854 106.194C81.0776 105.67 82.3446 104.709 83.5242 103.573C85.1408 102 85.9272 99.9904 86.2767 98.8108C85.0971 99.1166 83.0874 99.8593 81.4709 101.432Z" fill="#466D3F"/>
<path d="M75.9662 109.471C75.7915 109.471 75.6167 109.384 75.4857 109.296C75.2235 109.034 75.2235 108.641 75.4857 108.379L83.9177 100.165C84.1798 99.903 84.573 99.903 84.8352 100.165C85.0973 100.427 85.0973 100.82 84.8352 101.083L76.4031 109.296C76.2721 109.427 76.141 109.471 75.9662 109.471Z" fill="#466D3F"/>
</g>
<defs>
<clipPath id="clip0_842_3093">
<rect width="70.3398" height="72" fill="white" transform="translate(65 39)"/>
</clipPath>
</defs>
</svg>
